<svg width="76" height="74" viewBox="0 0 76 74" fill="none" xmlns="http://www.w3.org/2000/svg">
<path d="M12 0H4C1.79086 0 0 1.79086 0 4V57C0 59.2091 1.79086 61 4 61H70C72.2091 61 74 59.2091 74 57V4C74 1.79086 72.2091 0 70 0H62M18 0H34M40 0H56" transform="translate(1 8)" stroke="#34C88A" stroke-width="2" stroke-linecap="round"/>
<path d="M0 0V10" transform="translate(60 1)" stroke="#34C88A" stroke-width="2" stroke-linecap="round" stroke-linejoin="round"/>
<path d="M0 0V10" transform="translate(38 1)" stroke="#34C88A" stroke-width="2" stroke-linecap="round" stroke-linejoin="round"/>
<path d="M0 0V10" transform="translate(16 1)" stroke="#34C88A" stroke-width="2" stroke-linecap="round" stroke-linejoin="round"/>
<path d="M0 0H68" transform="translate(4 20.5)" stroke="#34C88A"/>
<circle cx="3" cy="3" r="2" transform="translate(11 31)" stroke="#34C88A" stroke-width="2"/>
<circle cx="3" cy="3" r="2" transform="translate(23 31)" stroke="#34C88A" stroke-width="2"/>
<circle cx="3" cy="3" r="2" transform="translate(35 31)" stroke="#34C88A" stroke-width="2"/>
<circle cx="3" cy="3" r="2" transform="translate(47 31)" stroke="#34C88A" stroke-width="2"/>
<circle cx="3" cy="3" r="2" transform="translate(59 31)" stroke="#34C88A" stroke-width="2"/>
<circle cx="3" cy="3" r="2" transform="translate(11 42)" stroke="#34C88A" stroke-width="2"/>
<circle cx="3" cy="3" r="2" transform="translate(23 42)" stroke="#34C88A" stroke-width="2"/>
<circle cx="3" cy="3" r="2" transform="translate(35 42)" stroke="#34C88A" stroke-width="2"/>
<circle cx="3" cy="3" r="2" transform="translate(47 42)" stroke="#34C88A" stroke-width="2"/>
<circle cx="3" cy="3" r="2" transform="translate(59 42)" stroke="#34C88A" stroke-width="2"/>
<circle cx="3" cy="3" r="2" transform="translate(11 53)" stroke="#34C88A" stroke-width="2"/>
<circle cx="3" cy="3" r="2" transform="translate(23 53)" stroke="#34C88A" stroke-width="2"/>
<circle cx="3" cy="3" r="2" transform="translate(35 53)" stroke="#34C88A" stroke-width="2"/>
<circle cx="3" cy="3" r="2" transform="translate(47 53)" stroke="#34C88A" stroke-width="2"/>
<circle cx="3" cy="3" r="2" transform="translate(59 53)" stroke="#34C88A" stroke-width="2"/>
<path d="M3.29629 0C1.52137 0 0 1.54286 0 3.34286V62.3527C0 64.2813 1.52137 65.6956 3.29629 65.6956" transform="translate(5.1582 73) rotate(-90)" stroke="#34C88A" stroke-width="2" stroke-linecap="round" stroke-linejoin="round"/>
</svg>
