<svg width="139" height="45" viewBox="0 0 139 45" fill="none" xmlns="http://www.w3.org/2000/svg">
<path d="M139 38.9211C139 42.2833 136.255 45 132.858 45H6.14154C2.74467 45 0 42.2833 0 38.9211V6.0789C0 2.71668 2.74467 0 6.14154 0H132.858C136.255 0 139 2.71668 139 6.0789V38.9211Z" fill="#C6CACE"/>
<path d="M4.14657e-07 2.05214e-07V15.251V30.4752L15.5169 15.251L4.14657e-07 2.05214e-07Z" transform="translate(10.4346 8.66089)" fill="url(#paint0_linear)"/>
<path d="M19.6747 11.2433L13.4244 7.66587L4.14657e-07 -2.05214e-07V0.107591L15.5169 15.3586L19.6747 11.2433Z" transform="translate(10.4346 8.55347)" fill="url(#paint1_linear)"/>
<path d="M4.14657e-07 15.2241V15.3317L13.4244 7.66587L19.6747 4.08846L15.5169 4.10428e-07L4.14657e-07 15.2241Z" transform="translate(10.4346 23.9124)" fill="url(#paint2_linear)"/>
<path d="M4.15777 -4.10428e-07L0 4.11536L4.15777 8.20382L11.332 4.11536L4.15777 -4.10428e-07Z" transform="translate(25.9521 19.7966)" fill="url(#paint3_linear)"/>
<path d="M4.18495 9.17214C3.61427 9.17214 3.07078 9.06455 2.58163 8.84937C2.09248 8.63419 1.68485 8.31142 1.35875 7.85415H1.25005C1.3044 8.36521 1.35875 8.84937 1.35875 9.33353V12.9916H3.31726e-06V0.161387H1.11417L1.3044 1.37179H1.35875C1.71203 0.887627 2.11965 0.537955 2.58163 0.322773C3.0436 0.107591 3.5871 4.10428e-07 4.18495 4.10428e-07C5.38065 4.10428e-07 6.27742 0.403467 6.92962 1.2104C7.58182 2.01733 7.90791 3.14704 7.90791 4.59952C7.90791 6.052 7.58182 7.18171 6.92962 7.98864C6.25025 8.76868 5.3263 9.17214 4.18495 9.17214ZM3.96754 1.12971C3.04359 1.12971 2.3914 1.37179 1.98377 1.88285C1.57615 2.3939 1.35875 3.17394 1.35875 4.27675V4.57262C1.35875 5.80992 1.57615 6.69755 1.98377 7.23551C2.3914 7.77346 3.07077 8.04244 3.99472 8.04244C4.75562 8.04244 5.38065 7.71967 5.81545 7.10102C6.25025 6.48237 6.46764 5.62164 6.46764 4.54573C6.46764 3.44292 6.25025 2.58219 5.81545 1.99044C5.38065 1.42558 4.78279 1.12971 3.96754 1.12971Z" transform="translate(103.999 20.6848)" fill="#F9F9F9"/>
<path d="M1.35875 12.5882H-3.31726e-06V-4.10428e-07H1.35875V12.5882Z" transform="translate(113.673 17.1072)" fill="#F9F9F9"/>
<path d="M6.16872 9.01076L5.89697 7.74656H5.84262C5.40782 8.31142 4.94584 8.68799 4.51104 8.87627C4.07624 9.06456 3.50557 9.17215 2.85337 9.17215C1.95659 9.17215 1.27723 8.95696 0.760901 8.4997C0.244576 8.04244 -3.31726e-06 7.39689 -3.31726e-06 6.56306C-3.31726e-06 4.76091 1.44027 3.84638 4.34799 3.73879L5.86979 3.685V3.14704C5.86979 2.4477 5.70675 1.93664 5.40782 1.61387C5.1089 1.29109 4.61974 1.12971 3.96754 1.12971C3.23382 1.12971 2.36422 1.34489 1.44028 1.80215L1.03265 0.780037C1.46745 0.537957 1.9566 0.34967 2.47292 0.215181C2.98925 0.0806926 3.53275 4.10428e-07 4.04907 4.10428e-07C5.1089 4.10428e-07 5.89697 0.24208 6.41329 0.699342C6.92962 1.1566 7.1742 1.90974 7.1742 2.95876V9.01076H6.16872ZM3.09795 8.06934C3.94037 8.06934 4.59257 7.82726 5.08172 7.37C5.57087 6.91273 5.81545 6.26718 5.81545 5.43335V4.62642L4.4567 4.68022C3.3697 4.70711 2.6088 4.8954 2.11965 5.19127C1.6305 5.48715 1.4131 5.94441 1.4131 6.56306C1.4131 7.04722 1.54898 7.42379 1.8479 7.66587C2.14682 7.93485 2.55445 8.06934 3.09795 8.06934Z" transform="translate(116.663 20.6846)" fill="#F9F9F9"/>
<path d="M1.65863e-06 0H1.44027L3.39687 5.05678C3.83167 6.21339 4.10342 7.04722 4.18495 7.55828H4.2393C4.32082 7.2893 4.45669 6.80514 4.67409 6.15959C4.89149 5.48715 5.65239 3.44292 6.90244 0.0268974H8.36989L4.53822 10.0867C4.15777 11.0819 3.72297 11.7812 3.20665 12.2116C2.69032 12.642 2.0653 12.8302 1.33157 12.8302C0.923949 12.8302 0.516325 12.7764 0.1087 12.6958V11.6198C0.407625 11.6736 0.733728 11.7274 1.11418 11.7274C2.03813 11.7274 2.7175 11.2164 3.09795 10.1674L3.58709 8.90317L1.65863e-06 0Z" transform="translate(124.625 20.8459)" fill="#F9F9F9"/>
<path d="M6.95679 0.672445C7.39159 1.02212 8.28837 1.77525 8.28837 3.17394C8.28837 4.54573 7.5003 5.19127 6.71222 5.80992C6.46765 6.052 6.19589 6.32098 6.19589 6.72445C6.19589 7.12791 6.46765 7.3431 6.68505 7.53138L7.36442 8.04244C8.17967 8.74178 8.94056 9.36043 8.94056 10.6515C8.94056 12.3999 7.22854 14.1482 4.02189 14.1482C1.3044 14.1482 0 12.8571 0 11.4854C0 10.8129 0.326096 9.87149 1.44027 9.22594C2.60879 8.5266 4.18495 8.41901 5.02737 8.36521C4.75562 8.04244 4.45669 7.69277 4.45669 7.10102C4.45669 6.77824 4.53822 6.58996 4.64692 6.37477C4.42952 6.40167 4.23929 6.40167 4.04907 6.40167C2.0653 6.40167 0.951124 4.94919 0.951124 3.49671C0.951124 2.63598 1.33157 1.69456 2.14682 1.02212C3.20665 0.161388 4.48387 0 5.48935 0H9.34819L8.15249 0.672445H6.95679ZM5.62522 8.90317C5.46217 8.87627 5.38065 8.87627 5.19042 8.87627C5.02737 8.87627 4.02189 8.90317 3.23382 9.17215C2.8262 9.30663 1.6305 9.7639 1.6305 11.0819C1.6305 12.3999 2.9349 13.3413 4.91867 13.3413C6.71222 13.3413 7.66335 12.4806 7.66335 11.3509C7.66335 10.4094 7.0655 9.89839 5.62522 8.90317ZM6.16872 5.37956C6.60352 4.94919 6.63069 4.35744 6.63069 4.03467C6.63069 2.68978 5.81545 0.61865 4.26647 0.61865C3.77732 0.61865 3.261 0.860729 2.96207 1.2373C2.63597 1.61387 2.55445 2.12492 2.55445 2.60908C2.55445 3.84638 3.28817 5.91751 4.8915 5.91751C5.38064 5.91751 5.8698 5.67543 6.16872 5.37956Z" transform="translate(76.0898 20.9802)" fill="#F9F9F9"/>
<path d="M4.5654 8.84937C1.60333 8.84937 -1.65863e-06 6.56306 -1.65863e-06 4.49193C-1.65863e-06 2.07113 2.01095 -4.10428e-07 4.83715 -4.10428e-07C7.58182 -4.10428e-07 9.29384 2.12493 9.29384 4.35744C9.32102 6.53616 7.609 8.84937 4.5654 8.84937ZM6.90244 7.3431C7.36442 6.75135 7.47312 5.99821 7.47312 5.29886C7.47312 3.6581 6.68504 0.564853 4.37517 0.564853C3.75015 0.564853 3.1523 0.806934 2.69032 1.1835C1.9566 1.82905 1.82072 2.63598 1.82072 3.44292C1.82072 5.27197 2.74467 8.28452 5.00019 8.28452C5.73392 8.31142 6.46764 7.93485 6.90244 7.3431Z" transform="translate(66.6875 20.7383)" fill="#F9F9F9"/>
<path d="M4.56539 8.84937C1.60332 8.84937 1.65863e-06 6.56306 1.65863e-06 4.49193C1.65863e-06 2.07113 2.01095 -4.10428e-07 4.83714 -4.10428e-07C7.58182 -4.10428e-07 9.29384 2.12493 9.29384 4.35744C9.32102 6.53616 7.60899 8.84937 4.56539 8.84937ZM6.90244 7.3431C7.36442 6.75135 7.47312 5.99821 7.47312 5.29886C7.47312 3.6581 6.68504 0.564853 4.37517 0.564853C3.75015 0.564853 3.1523 0.806934 2.69032 1.1835C1.9566 1.82905 1.82072 2.63598 1.82072 3.44292C1.82072 5.27197 2.74467 8.28452 5.0002 8.28452C5.73392 8.31142 6.46764 7.93485 6.90244 7.3431Z" transform="translate(56.5508 20.7383)" fill="#F9F9F9"/>
<path d="M12.9625 12.7496L10.2721 13.3682C9.18514 13.5296 8.20685 13.691 7.1742 13.691C1.98377 13.691 -8.29315e-07 9.92528 -8.29315e-07 6.96653C-8.29315e-07 3.36222 2.79902 0 7.58182 0C8.58729 0 9.56559 0.161387 10.4624 0.403467C11.8755 0.806934 12.5277 1.2642 12.9353 1.56007L11.3863 3.03945L10.7341 3.20084L11.1961 2.4477C10.5439 1.82905 9.40254 0.699342 7.1742 0.699342C4.21212 0.699342 1.9566 2.93186 1.9566 6.18649C1.9566 9.6832 4.51104 12.9647 8.61447 12.9647C9.81017 12.9647 10.4352 12.7227 11.0059 12.5075V9.49492L8.17967 9.65631L9.67429 8.84937H13.669L13.1799 9.30663C13.044 9.41423 13.0168 9.46802 12.9896 9.60251C12.9625 9.7639 12.9625 10.3019 12.9625 10.4901V12.7496Z" transform="translate(42.1758 16.5422)" fill="#F9F9F9"/>
<path d="M3.99472 12.6151C3.3697 12.5613 3.23383 12.4537 3.23383 11.7274V11.5123V1.2104C3.23383 1.1835 3.23383 1.12971 3.23383 1.10281C3.31535 0.457262 3.50557 0.349671 4.07624 0H1.4131L-3.31726e-06 0.672445H1.44028V11.5392V12.1578C1.44028 12.5344 1.35875 12.5882 0.923952 13.153H4.23929L4.94585 12.7496C4.61975 12.6958 4.32082 12.6689 3.99472 12.6151Z" transform="translate(85.0039 16.1387)" fill="#F9F9F9"/>
<path d="M6.82092 8.23072C6.60352 8.33831 6.41329 8.4728 6.19589 8.5535C5.57087 8.82247 4.94585 8.90317 4.37517 8.90317C3.77732 8.90317 2.85337 8.87627 1.90225 8.17693C0.570674 7.2624 0 5.67543 0 4.27675C0 1.42558 2.36423 0 4.26647 0C4.94585 0 5.62522 0.161387 6.19589 0.511058C7.11984 1.12971 7.36442 1.90974 7.50029 2.34011L3.12512 4.11536L1.68485 4.22295C2.14683 6.56306 3.75014 7.93485 5.54369 7.93485C6.49482 7.93485 7.17419 7.61207 7.82639 7.2893L6.82092 8.23072ZM5.08172 2.71668C5.435 2.58219 5.62522 2.4746 5.62522 2.20562C5.62522 1.47938 4.78279 0.61865 3.77732 0.61865C3.01642 0.61865 1.6305 1.1835 1.6305 3.17394C1.6305 3.49671 1.65768 3.81949 1.68485 4.14226L5.08172 2.71668Z" transform="translate(89.8125 20.7112)" fill="#F9F9F9"/>
<path d="M0.570671 0.134489V1.34489H0.407628V0.134489H3.31726e-06V-4.10428e-07H0.951127V0.134489H0.570671Z" transform="translate(97.8838 20.7393)" fill="#F9F9F9"/>
<path d="M1.00547 1.34489V0.107591L0.625024 1.34489H0.516326L0.135878 0.107591V1.34489H3.31726e-06V-4.10428e-07H0.244576L0.597848 1.07591L0.951127 -4.10428e-07H1.1957V1.34489H1.00547Z" transform="translate(99.1064 20.7383)" fill="#F9F9F9"/>
<path d="M3.6958 3.76569H2.77185C2.77185 3.6312 2.69032 3.28153 2.5001 2.68978H1.14135C0.951126 3.28153 0.869601 3.6312 0.869601 3.76569H-1.65863e-06C-1.65863e-06 3.685 0.217398 3.06635 0.679373 1.90974C1.14135 0.753138 1.35875 0.107591 1.35875 0H2.47292C2.47292 0.107591 2.69032 0.72624 3.09795 1.88285C3.4784 3.03945 3.6958 3.6581 3.6958 3.76569ZM2.33705 2.12493C2.01095 1.12971 1.8479 0.591752 1.8479 0.511058H1.79355C1.79355 0.591752 1.6305 1.12971 1.27723 2.12493H2.33705Z" transform="translate(42.2305 9.14526)" fill="#FCFCFC"/>
<path d="M3.12512 3.79259H2.3914C2.3914 3.71189 2.11965 3.30843 1.57615 2.52839C1.00548 1.72146 0.706551 1.1835 0.625026 0.887627H0.570673C0.625023 1.31799 0.652199 1.69456 0.652199 2.04423C0.652199 2.52839 0.652198 3.09325 0.706548 3.79259H8.29315e-07C0.0271758 3.20084 0.05435 2.52839 0.05435 1.82905C0.05435 1.12971 0.0271758 0.537956 8.29315e-07 0.0268978H0.869599C0.869599 0.134489 1.11417 0.537956 1.60332 1.2373C2.11965 1.99044 2.41857 2.50149 2.47292 2.77047H2.52727C2.47292 2.34011 2.44575 1.96354 2.44575 1.61387C2.44575 1.10281 2.41857 0.564854 2.3914 4.10428e-07H3.12512C3.09795 0.484161 3.07077 1.07591 3.07077 1.80215C3.09795 2.55529 3.09795 3.20084 3.12512 3.79259Z" transform="translate(46.5518 9.11841)" fill="#FCFCFC"/>
<path d="M3.23382 1.74836C3.23382 2.28631 3.0436 2.77047 2.69032 3.17394C2.33705 3.57741 1.8479 3.79259 1.1957 3.79259C0.896773 3.79259 0.516325 3.79259 0 3.76569C0.027175 3.17394 0.0271766 2.52839 0.0271766 1.80215C0.0271766 1.10281 0.027175 0.511058 0 0H0.516323C0.597848 0 0.733725 0 0.896775 0C1.05982 0 1.16852 0 1.22287 0C1.92942 0 2.44575 0.161387 2.74467 0.511058C3.07077 0.86073 3.23382 1.2642 3.23382 1.74836ZM2.41857 1.88285C2.41857 1.50628 2.30987 1.2104 2.09247 0.941423C1.87507 0.699342 1.54897 0.564853 1.087 0.564853C1.00547 0.564853 0.896773 0.564854 0.733724 0.591752C0.760899 0.968321 0.7609 1.37179 0.7609 1.80215C0.7609 2.25941 0.760898 2.71668 0.788073 3.17394C0.923948 3.20084 1.03265 3.20084 1.16852 3.20084C1.57615 3.20084 1.90225 3.06635 2.09247 2.82427C2.33705 2.55529 2.41857 2.25941 2.41857 1.88285Z" transform="translate(50.6816 9.14526)" fill="#FCFCFC"/>
<path d="M3.07077 3.76569H2.20117C1.98377 3.09325 1.79355 2.66288 1.68485 2.50149C1.57615 2.34011 1.35875 2.25941 1.11417 2.25941C1.00547 2.25941 0.896775 2.25941 0.788075 2.25941C0.788075 2.74357 0.788073 3.25463 0.815248 3.76569H-1.65863e-06C0.0271733 3.17394 0.027175 2.52839 0.027175 1.80215C0.027175 1.10281 0.0271733 0.511058 -1.65863e-06 0H0.516325C0.570675 0 0.706551 0 0.869601 0C1.05983 0 1.22287 0 1.38592 0C2.2827 0 2.7175 0.295876 2.7175 0.914525C2.7175 1.39869 2.47292 1.72146 1.9566 1.90974V1.96354C2.14682 2.01733 2.33705 2.17872 2.47292 2.4208C2.63597 2.63598 2.8262 3.09325 3.07077 3.76569ZM1.98377 1.10281C1.98377 0.72624 1.7392 0.537956 1.22287 0.537956C1.03265 0.537956 0.869601 0.537956 0.733726 0.591752C0.760901 0.887627 0.760898 1.29109 0.760898 1.74836C0.869598 1.74836 0.951123 1.74836 1.03265 1.74836C1.68485 1.74836 1.98377 1.53317 1.98377 1.10281Z" transform="translate(54.7314 9.14526)" fill="#FCFCFC"/>
<path d="M3.6958 1.90974C3.6958 2.50149 3.50557 2.98565 3.1523 3.38912C2.79902 3.76569 2.33705 3.98087 1.79355 3.98087C1.27723 3.98087 0.842423 3.79259 0.516323 3.44292C0.163048 3.09325 0 2.63598 0 2.07113C0 1.47938 0.190225 0.995219 0.5435 0.591752C0.896774 0.215183 1.35875 2.05214e-07 1.90225 2.05214e-07C2.41857 2.05214e-07 2.85337 0.188285 3.17947 0.537956C3.53275 0.887627 3.6958 1.34489 3.6958 1.90974ZM2.90772 1.99044C2.90772 1.58697 2.79902 1.2642 2.6088 1.02212C2.3914 0.780036 2.14682 0.645546 1.8479 0.645546C1.57615 0.645546 1.33158 0.780036 1.11418 1.02212C0.923951 1.2642 0.815249 1.58697 0.815249 1.99044C0.815249 2.3939 0.923948 2.71668 1.14135 2.95876C1.35875 3.20084 1.60332 3.33533 1.90225 3.33533C2.174 3.33533 2.41857 3.20084 2.63597 2.95876C2.79902 2.68978 2.90772 2.367 2.90772 1.99044Z" transform="translate(58.291 9.0647)" fill="#FCFCFC"/>
<path d="M0.815248 3.76569H-8.29314e-07C0.0271741 3.17394 0.0271758 2.50149 0.0271758 1.80215C0.0271758 1.10281 0.0271741 0.511058 -8.29314e-07 0H0.815248C0.788073 0.48416 0.788076 1.07591 0.788076 1.80215C0.788076 2.52839 0.788073 3.17394 0.815248 3.76569Z" transform="translate(62.8291 9.14526)" fill="#FCFCFC"/>
<path d="M3.23382 1.74836C3.23382 2.28631 3.0436 2.77047 2.69032 3.17394C2.33705 3.57741 1.8479 3.79259 1.1957 3.79259C0.896775 3.79259 0.516323 3.79259 -1.65863e-06 3.76569C0.0271733 3.17394 0.027175 2.52839 0.027175 1.80215C0.027175 1.10281 0.0271733 0.511058 -1.65863e-06 0H0.516325C0.59785 0 0.733724 0 0.896773 0C1.05982 0 1.16852 0 1.22287 0C1.92942 0 2.44575 0.161387 2.74467 0.511058C3.07077 0.86073 3.23382 1.2642 3.23382 1.74836ZM2.41857 1.88285C2.41857 1.50628 2.30987 1.2104 2.09247 0.941423C1.87507 0.699342 1.54897 0.564853 1.087 0.564853C1.00547 0.564853 0.896776 0.564854 0.733726 0.591752C0.760901 0.968321 0.760898 1.37179 0.760898 1.80215C0.760898 2.25941 0.7609 2.71668 0.788075 3.17394C0.92395 3.20084 1.03265 3.20084 1.16852 3.20084C1.57615 3.20084 1.90225 3.06635 2.09247 2.82427C2.33705 2.55529 2.41857 2.25941 2.41857 1.88285Z" transform="translate(64.6494 9.14526)" fill="#FCFCFC"/>
<path d="M3.69579 3.76569H2.77185C2.77185 3.6312 2.69032 3.28153 2.5001 2.68978H1.14135C0.951124 3.28153 0.869599 3.6312 0.869599 3.76569H-3.31726e-06C-3.31726e-06 3.685 0.217396 3.06635 0.679371 1.90974C1.14135 0.753138 1.35875 0.107591 1.35875 0H2.47292C2.47292 0.107591 2.69033 0.72624 3.09795 1.88285C3.50558 3.03945 3.69579 3.6581 3.69579 3.76569ZM2.36422 2.12493C2.03812 1.12971 1.87508 0.591752 1.87508 0.511058H1.82072C1.82072 0.591752 1.65768 1.12971 1.3044 2.12493H2.36422Z" transform="translate(69.7861 9.14526)" fill="#FCFCFC"/>
<path d="M2.77185 0.995218C2.77185 1.45248 2.6088 1.80215 2.25552 2.01733C1.90225 2.23252 1.49462 2.34011 0.978297 2.34011C0.896773 2.34011 0.815253 2.34011 0.788078 2.34011C0.788078 2.68978 0.788071 3.17394 0.815246 3.76569H-3.31726e-06C0.0271717 3.20084 0.0271733 2.55529 0.0271733 1.80215C0.0271733 1.10281 0.0271717 0.511058 -3.31726e-06 0H0.516328C0.597853 0 0.733728 0 0.923952 0C1.14135 0 1.3044 0 1.46745 0C1.8479 0 2.14682 0.0806938 2.3914 0.242081C2.63597 0.403467 2.77185 0.645547 2.77185 0.995218ZM2.01095 1.1566C2.01095 0.753138 1.7392 0.537956 1.16853 0.537956C1.03265 0.537956 0.896774 0.564854 0.733724 0.591752C0.760899 0.968321 0.760901 1.37179 0.760901 1.82905C0.815251 1.82905 0.869603 1.82905 0.923952 1.82905C1.65768 1.82905 2.01095 1.58697 2.01095 1.1566Z" transform="translate(74.1338 9.14526)" fill="#FCFCFC"/>
<path d="M2.77184 0.995218C2.77184 1.45248 2.6088 1.80215 2.25552 2.01733C1.90225 2.23252 1.49463 2.34011 0.978302 2.34011C0.896777 2.34011 0.815249 2.34011 0.788074 2.34011C0.788074 2.68978 0.788076 3.17394 0.815251 3.76569H1.65863e-06C0.0271766 3.20084 0.0271783 2.55529 0.0271783 1.80215C0.0271783 1.10281 0.0271766 0.511058 1.65863e-06 0H0.516325C0.597849 0 0.733724 0 0.923949 0C1.14135 0 1.3044 0 1.46745 0C1.8479 0 2.14682 0.0806938 2.3914 0.242081C2.66315 0.403467 2.77184 0.645547 2.77184 0.995218ZM2.03812 1.1566C2.03812 0.753138 1.76637 0.537956 1.1957 0.537956C1.05982 0.537956 0.923947 0.564854 0.760898 0.591752C0.788073 0.968321 0.788074 1.37179 0.788074 1.82905C0.842424 1.82905 0.896776 1.82905 0.951126 1.82905C1.68485 1.82905 2.03812 1.58697 2.03812 1.1566Z" transform="translate(77.6123 9.14526)" fill="#FCFCFC"/>
<path d="M3.69579 1.90974C3.69579 2.50149 3.50557 2.98565 3.1523 3.38912C2.79902 3.79259 2.33705 3.98087 1.79355 3.98087C1.27722 3.98087 0.842428 3.79259 0.516328 3.44292C0.163053 3.09325 -3.31726e-06 2.63598 -3.31726e-06 2.07113C-3.31726e-06 1.47938 0.190222 0.995219 0.543496 0.591752C0.896771 0.215183 1.35875 2.05214e-07 1.90224 2.05214e-07C2.41857 2.05214e-07 2.85337 0.188285 3.17947 0.537956C3.53275 0.887627 3.69579 1.34489 3.69579 1.90974ZM2.88055 1.99044C2.88055 1.58697 2.77184 1.2642 2.58162 1.02212C2.36422 0.780036 2.11965 0.645546 1.82072 0.645546C1.54897 0.645546 1.3044 0.780036 1.087 1.02212C0.896771 1.2642 0.788078 1.58697 0.788078 1.99044C0.788078 2.3939 0.896772 2.71668 1.11417 2.95876C1.33157 3.20084 1.57615 3.33533 1.87508 3.33533C2.14683 3.33533 2.3914 3.20084 2.6088 2.95876C2.79902 2.68978 2.88055 2.367 2.88055 1.99044Z" transform="translate(82.4229 9.0647)" fill="#FCFCFC"/>
<path d="M3.12512 3.79259H2.39139C2.39139 3.71189 2.11964 3.30843 1.57615 2.52839C1.00547 1.72146 0.706546 1.1835 0.625021 0.887627H0.570676C0.625026 1.31799 0.652198 1.69456 0.652198 2.04423C0.652198 2.52839 0.652201 3.09325 0.706551 3.79259H0C0.027175 3.20084 0.0543533 2.52839 0.0543533 1.82905C0.0543533 1.12971 0.027175 0.537956 0 0.0268978H0.869603C0.869603 0.134489 1.11417 0.537956 1.60332 1.2373C2.11965 1.99044 2.41857 2.50149 2.47292 2.77047H2.52727C2.47292 2.34011 2.44575 1.96354 2.44575 1.61387C2.44575 1.10281 2.44574 0.564854 2.39139 4.10428e-07H3.12512C3.09795 0.484161 3.07077 1.07591 3.07077 1.80215C3.07077 2.55529 3.09795 3.20084 3.12512 3.79259Z" transform="translate(86.9609 9.11841)" fill="#FCFCFC"/>
<defs>
<linearGradient id="paint0_linear" x2="1" gradientUnits="userSpaceOnUse" gradientTransform="translate(23.1484 0.00295876) scale(30.79 30.4759) rotate(90)">
<stop stop-color="#4E78AD"/>
<stop offset="0.2863" stop-color="#6A92B5"/>
<stop offset="0.767" stop-color="#94BCBE"/>
<stop offset="1" stop-color="#A4CDC1"/>
</linearGradient>
<linearGradient id="paint1_linear" x2="1" gradientUnits="userSpaceOnUse" gradientTransform="translate(-0.00956559 -2.07346) scale(19.6963 19.4954)">
<stop stop-color="#75BAAE"/>
<stop offset="1" stop-color="#E4EAA3"/>
</linearGradient>
<linearGradient id="paint2_linear" x2="1" gradientUnits="userSpaceOnUse" gradientTransform="translate(17.5918 -0.00987149) scale(15.5067 15.3485) rotate(90)">
<stop stop-color="#DD4F3A"/>
<stop offset="0.1668" stop-color="#D14F4E"/>
<stop offset="0.5748" stop-color="#B34D75"/>
<stop offset="0.8619" stop-color="#9D4B8A"/>
<stop offset="1" stop-color="#954A91"/>
</linearGradient>
<linearGradient id="paint3_linear" x2="1" gradientUnits="userSpaceOnUse" gradientTransform="translate(9.80068 0.0125075) scale(8.26978 8.18543) rotate(90)">
<stop stop-color="#EF9B80"/>
<stop offset="0.1194" stop-color="#F1A380"/>
<stop offset="0.7128" stop-color="#F6C87F"/>
<stop offset="1" stop-color="#F9D47C"/>
</linearGradient>
</defs>
</svg>
