<svg width="60" height="60" viewBox="0 0 60 60" fill="none" xmlns="http://www.w3.org/2000/svg">
<path d="M59.928 28C58.944 13.024 46.976 1.052 32 0.068V0H30H28V0.068C13.024 1.052 1.052 13.024 0.068 28H0V30V32H0.068C1.052 46.976 13.024 58.944 28 59.928V60H30H32V59.928C46.976 58.944 58.944 46.976 59.928 32H60V30V28H59.928ZM18.78 6.54C16.848 9.108 15.244 12.328 14.076 16H8.084C10.692 11.932 14.396 8.64 18.78 6.54ZM5.992 20H13.024C12.488 22.528 12.148 25.212 12.04 28H4.076C4.288 25.184 4.952 22.492 5.992 20ZM4.076 32H12.04C12.148 34.788 12.488 37.472 13.024 40H5.992C4.952 37.508 4.288 34.816 4.076 32ZM8.084 44H14.072C15.24 47.672 16.844 50.892 18.78 53.46C14.396 51.36 10.692 48.072 8.084 44ZM28 55.744C23.888 54.644 20.348 50.228 18.2 44H28V55.744ZM28 40H17.076C16.512 37.508 16.156 34.816 16.04 32H28V40ZM28 28H16.04C16.156 25.184 16.512 22.492 17.076 20H28V28ZM28 16H18.2C20.348 9.772 23.888 5.356 28 4.26V16ZM51.916 16H45.932C44.76 12.328 43.16 9.108 41.22 6.54C45.6 8.64 49.308 11.932 51.916 16ZM32 4.26C36.108 5.356 39.652 9.772 41.8 16H32V4.26ZM32 20H42.92C43.488 22.492 43.836 25.184 43.96 28H32V20ZM32 32H43.96C43.844 34.816 43.488 37.508 42.92 40H32V32ZM32 55.744V44H41.8C39.652 50.228 36.108 54.644 32 55.744ZM41.22 53.46C43.152 50.888 44.76 47.672 45.932 44H51.916C49.308 48.072 45.6 51.36 41.22 53.46ZM54.008 40H46.976C47.512 37.472 47.852 34.788 47.96 32H55.92C55.712 34.816 55.048 37.508 54.008 40ZM47.96 28C47.852 25.212 47.512 22.528 46.976 20H54.008C55.048 22.492 55.712 25.184 55.924 28H47.96Z" fill="#C6CACE"/>
</svg>
