<svg width="59" height="60" viewBox="0 0 59 60" fill="none" xmlns="http://www.w3.org/2000/svg">
<path d="M-8.56991e-07 4.82219C10.5869 3.07255 21.3984 1.53627 31.9852 0V0.440967V28.4637C21.3984 28.4637 10.5869 28.6771 -8.56991e-07 28.6771C-8.56991e-07 20.7966 -8.56991e-07 12.7027 -8.56991e-07 4.82219Z" transform="translate(27.0146)" fill="#C6CACE"/>
<path d="M0 3.28592C8.00333 1.97724 15.9926 0.881935 24.2066 2.17052e-07C24.2066 7.88051 24.2066 15.5477 24.2066 23.4282C15.9926 23.4282 8.00333 23.6415 0 23.6415V3.28592Z" transform="translate(0 5.24902)" fill="#C6CACE"/>
<path d="M0 8.6821e-07C8.00333 8.6821e-07 15.9926 0.213372 24.2066 8.6821e-07C24.2066 7.88051 24.2066 15.761 24.2066 23.6415C15.9926 22.5605 8.00333 21.4651 0 20.3698V8.6821e-07Z" transform="translate(0 31.3088)" fill="#C6CACE"/>
<path d="M-8.56991e-07 -4.34105e-07C10.5869 -4.34105e-07 21.3984 -4.34105e-07 31.9852 -4.34105e-07V27.1551V28.4637C21.3984 26.7141 10.5869 25.3912 -8.56991e-07 23.8691C-8.56991e-07 15.9744 -8.56991e-07 8.09388 -8.56991e-07 -4.34105e-07Z" transform="translate(27.0146 31.5361)" fill="#C6CACE"/>
</svg>
