<svg width="71" height="98" viewBox="0 0 71 98" fill="none" xmlns="http://www.w3.org/2000/svg">
<path d="M13.0787 0L28.9023 5.61447L34.5168 21.4382M13.0787 0L18.6931 15.8237L34.5168 21.4382M13.0787 0L0 13.0785M34.5168 21.4382L28.2002 27.7548M21.4383 34.5168L22.5217 33.4333" transform="translate(11 24.3138) scale(1.00381 0.996177) rotate(-45)" stroke="#34C88A" stroke-width="2" stroke-linecap="round" stroke-linejoin="round"/>
<path d="M0 0L5.61447 15.8237M21.4382 21.4382L5.61447 15.8237M5.61447 15.8237L18.9161 2.52205" transform="translate(20.2832 33.8988) scale(1.00381 0.996177) rotate(-45)" stroke="#34C88A" stroke-width="2" stroke-linecap="round" stroke-linejoin="round"/>
<path d="M0 0H23C25.2091 0 27 1.79086 27 4V45C27 47.2091 25.2091 49 23 49H11" transform="translate(43 28)" stroke="#34C88A" stroke-width="2" stroke-linecap="round" stroke-linejoin="round"/>
<path d="M13.0787 0L28.9023 5.61447L34.5168 21.4382M13.0787 0L18.6931 15.8237L34.5168 21.4382M13.0787 0L0 13.0785M34.5168 21.4382L28.2002 27.7548M21.4383 34.5168L22.5217 33.4333" transform="translate(60 73.3138) scale(-1.00381 0.996177) rotate(-45)" stroke="#34C88A" stroke-width="2" stroke-linecap="round" stroke-linejoin="round"/>
<path d="M0 0L5.61447 15.8237M21.4382 21.4382L5.61447 15.8237M5.61447 15.8237L18.9161 2.52205" transform="translate(50.7168 82.8988) scale(-1.00381 0.996177) rotate(-45)" stroke="#34C88A" stroke-width="2" stroke-linecap="round" stroke-linejoin="round"/>
<path d="M0 0H23C25.2091 0 27 1.79086 27 4V45C27 47.2091 25.2091 49 23 49H11" transform="translate(28 77) rotate(180)" stroke="#34C88A" stroke-width="2" stroke-linecap="round" stroke-linejoin="round"/>
</svg>
