<?xml version="1.0" encoding="utf-8"?>
<!-- Generator: Adobe Illustrator 22.1.0, SVG Export Plug-In . SVG Version: 6.00 Build 0)  -->
<svg version="1.1" id="Layer_1" xmlns="http://www.w3.org/2000/svg" xmlns:xlink="http://www.w3.org/1999/xlink" x="0px" y="0px"
	 viewBox="0 0 716.5 728.3" style="enable-background:new 0 0 716.5 728.3;" xml:space="preserve">
<style type="text/css">
	.st0{fill:#F2F6F6;}
	.st1{fill:#34C88A;}
	.st2{fill:#163F59;}
	.st3{fill:#C0F5DF;}
	.st4{fill:#FFFFFF;}
	.st5{fill:#2BB179;}
	.st6{fill:#48718B;}
	.st7{fill:url(#SVGID_1_);}
	.st8{fill:url(#SVGID_2_);}
	.st9{fill:url(#SVGID_3_);}
	.st10{fill:#FFFFFF;fill-opacity:0.5;}
	.st11{fill:url(#SVGID_4_);}
	.st12{fill:#FFFFFF;fill-opacity:0.6;}
</style>
<path class="st0" d="M191,541.1l158.1-79.6l158.1,79.6l-158.1,79L191,541.1z"/>
<path class="st0" d="M512,529.2l102.2-51.5l102.2,51.5l-102.2,51.1L512,529.2z"/>
<path class="st0" d="M0,597.2l102.2-51.5l102.2,51.5l-102.2,51.1L0,597.2z"/>
<path class="st1" d="M191,422.5l158.1-79.6l158.1,79.6l-158.1,79L191,422.5z"/>
<path class="st2" d="M191,422.6l0,29.9l158.1,79.6l-0.8-30.6L191,422.6z"/>
<path class="st3" d="M506.7,422.4l0,29.9L348.6,532l0-30.5L506.7,422.4z"/>
<path class="st1" d="M514,485.5l100.4-50.6l100.4,50.6l-100.4,50.3L514,485.5z"/>
<path class="st4" d="M548.5,485.5l66-33.3l66,33.3l-66,33L548.5,485.5z"/>
<path class="st2" d="M514,485.5l0,9L614.5,545l0-9.5L514,485.5z"/>
<path class="st3" d="M714.5,485.5l0,9l-100,50.5l0-9.5L714.5,485.5z"/>
<path class="st5" d="M210.2,413.4l138.9-69.9l138.9,69.9l-138.9,69.5L210.2,413.4z"/>
<path class="st1" d="M191,360.5l158.1-79.7l158.1,79.6l-158.1,79L191,360.5z"/>
<path class="st2" d="M191,360.6l0,29.9l157.3,79.4l0-30.5L191,360.6z"/>
<path class="st6" d="M197.9,379.4l0,1.8l9.6,4.8l0-1.9L197.9,379.4z"/>
<path class="st6" d="M197.9,375.4l0,1.8l9.6,4.8l0-1.9L197.9,375.4z"/>
<path class="st6" d="M197.9,383l0,1.8l9.6,4.8l0-1.9L197.9,383z"/>
<path class="st6" d="M197.9,441.4l0,1.8l9.6,4.8l0-1.9L197.9,441.4z"/>
<path class="st6" d="M197.9,437.4l0,1.8l9.6,4.8l0-1.9L197.9,437.4z"/>
<path class="st6" d="M197.9,445l0,1.8l9.6,4.8l0-1.9L197.9,445z"/>
<path class="st6" d="M599.9,532.4l0,1.8l9.6,4.8v-1.9L599.9,532.4z"/>
<path class="st3" d="M506.7,360.3l0,29.9l-158.1,79.6l0-30.5L506.7,360.3z"/>
<path class="st4" d="M254.3,360.3l94.9-47.8l94.9,47.8l-94.9,47.4L254.3,360.3z"/>
<linearGradient id="SVGID_1_" gradientUnits="userSpaceOnUse" x1="52.9811" y1="787.4092" x2="53.9811" y2="787.4092" gradientTransform="matrix(0 -265.0951 -260.743 0 205658.9062 14436.1328)">
	<stop  offset="0" style="stop-color:#F8AB9A;stop-opacity:0.8013"/>
	<stop  offset="1" style="stop-color:#FF876C;stop-opacity:0"/>
</linearGradient>
<path class="st7" d="M261.2,357.1L258,87.9h175.8l3.2,269.2L349.1,401L261.2,357.1z"/>
<linearGradient id="SVGID_2_" gradientUnits="userSpaceOnUse" x1="52.9847" y1="787.1268" x2="53.9847" y2="787.1268" gradientTransform="matrix(0 -326.0008 -320.6492 0 253005.8906 17896.1797)">
	<stop  offset="0" style="stop-color:#FF876C;stop-opacity:0.8013"/>
	<stop  offset="1" style="stop-color:#FF876C;stop-opacity:0"/>
</linearGradient>
<path class="st8" d="M558.2,485.4l0-266.3l112.3,0l0,266.3l-56.2,28.1L558.2,485.4z"/>
<linearGradient id="SVGID_3_" gradientUnits="userSpaceOnUse" x1="52.9847" y1="787.1268" x2="53.9847" y2="787.1268" gradientTransform="matrix(0 -326.0008 -320.6492 0 252493.8906 18005.1797)">
	<stop  offset="0" style="stop-color:#FF876C;stop-opacity:0.8013"/>
	<stop  offset="1" style="stop-color:#FF876C;stop-opacity:0"/>
</linearGradient>
<path class="st9" d="M46.2,594.4l0-266.3l112.3,0l0,266.3l-56.2,28.1L46.2,594.4z"/>
<path class="st10" d="M603.7,464.7l8.2,4.7l-8.2,4.7V464.7z"/>
<path class="st10" d="M577,434.5l8.2-4.7v9.5L577,434.5z"/>
<path class="st10" d="M614,390.9l4.5-2.6v5.2L614,390.9z"/>
<path class="st10" d="M625,343.5l8.2-4.7v9.5L625,343.5z"/>
<path class="st10" d="M634.5,428.5l6,3.5l-6,3.5V428.5z"/>
<path class="st10" d="M592.7,345.7l8.2,4.7l-8.2,4.7V345.7z"/>
<path class="st10" d="M121.7,570.7l8.2,4.7l-8.2,4.7V570.7z"/>
<path class="st10" d="M316.2,343l12.9,7.5l-12.9,7.5V343z"/>
<path class="st10" d="M304.4,300.6l7.7,4.4l-7.7,4.4V300.6z"/>
<path class="st10" d="M351.9,255.4l10.3,5.9l-10.3,5.9L351.9,255.4z"/>
<path class="st10" d="M281.9,188.4l10.3,5.9l-10.3,5.9L281.9,188.4z"/>
<path class="st10" d="M403.3,200.8l6.2,3.6l-6.2,3.6V200.8z"/>
<path class="st10" d="M79,527.4l6.8-3.9v7.8L79,527.4z"/>
<path class="st10" d="M355,364.5l8.2-4.8v9.5L355,364.5z"/>
<path class="st10" d="M407,263.5l5.2-3v6.1L407,263.5z"/>
<path class="st10" d="M337,211.5l5.2-3v6.1L337,211.5z"/>
<path class="st10" d="M379,317.5l8.2-4.8v9.5L379,317.5z"/>
<path class="st10" d="M312,235.5l6.8-3.9v7.8L312,235.5z"/>
<path class="st4" d="M105,482.7l5.2,3l-5.2,3V482.7z"/>
<path class="st0" d="M367,677.2l102.2-51.5l102.2,51.5l-102.2,51.1L367,677.2z"/>
<linearGradient id="SVGID_4_" gradientUnits="userSpaceOnUse" x1="52.9847" y1="787.1268" x2="53.9847" y2="787.1268" gradientTransform="matrix(0 -326.0008 -320.6492 0 252860.8906 18086.1797)">
	<stop  offset="0" style="stop-color:#FF876C;stop-opacity:0.8013"/>
	<stop  offset="1" style="stop-color:#FF876C;stop-opacity:0"/>
</linearGradient>
<path class="st11" d="M413.2,675.4l0-266.3l112.3,0l0,266.3l-56.2,28.1L413.2,675.4z"/>
<path class="st12" d="M447.3,636.3l3.8,2.2l-3.8,2.2V636.3z"/>
<path class="st12" d="M487.6,580l4.5,2.6l-4.5,2.6V580z"/>
<path class="st12" d="M445,550.4l3.8-2.2v4.3L445,550.4z"/>
<path class="st12" d="M468.7,661.7l8.2,4.7l-8.2,4.7V661.7z"/>
<path class="st12" d="M465.2,612.2l-8.2-4.7l8.2-4.7V612.2z"/>
</svg>
