<svg xmlns="http://www.w3.org/2000/svg" width="77.66" height="71.618" viewBox="0 0 77.66 71.618">
  <g id="Сгруппировать_1494" data-name="Сгруппировать 1494" transform="translate(-961.5 -2243.34)">
    <g id="Сгруппировать_1485" data-name="Сгруппировать 1485" transform="translate(-2.223)">
      <g id="Сгруппировать_1479" data-name="Сгруппировать 1479" transform="translate(963.723 2243.34)">
        <path id="Контур_1380" data-name="Контур 1380" d="M821.253,697.6c1.247-.606,2.377-1.153,3.5-1.7a10.8,10.8,0,0,1,9.977.006c3.761,1.842,7.536,3.655,11.284,5.522a8.334,8.334,0,0,1,4.937,7.881c.04,5.179.057,10.359-.006,15.537a8.11,8.11,0,0,1-4.656,7.51c-3.947,2.031-7.945,3.968-11.961,5.859a10.457,10.457,0,0,1-9.229-.018c-2.834-1.324-5.625-2.739-8.435-4.113-.246-.121-.5-.233-.874-.41,0,.948-.028,1.813.006,2.675a9.931,9.931,0,0,1-1.109,5.708,8.661,8.661,0,0,1-3.669,3.5c-3.9,1.895-7.785,3.835-11.7,5.708a10.549,10.549,0,0,1-9.5,0q-5.8-2.772-11.557-5.652a8.338,8.338,0,0,1-4.914-7.9q-.041-7.617,0-15.234a8.368,8.368,0,0,1,4.893-7.906c.358-.182.713-.368,1.136-.587-.855-2.021-.555-4.132-.57-6.211-.031-4.143-.052-8.287,0-12.43a8.211,8.211,0,0,1,4.807-7.718c3.835-1.919,7.689-3.8,11.545-5.677a10.613,10.613,0,0,1,9.7-.01c3.861,1.866,7.726,3.727,11.554,5.659a8.356,8.356,0,0,1,4.825,7.725C821.271,696.036,821.253,696.742,821.253,697.6Zm-27.894,42.231c0-2.55.022-5.1-.006-7.651a5.973,5.973,0,0,0-3.523-5.64c-3.861-1.919-7.741-3.8-11.615-5.691a6.285,6.285,0,0,0-.838-.346,1.06,1.06,0,0,0-1.552.906,4.278,4.278,0,0,0-.05.829c0,5.227-.028,10.454.01,15.681a5.727,5.727,0,0,0,3.248,5.344c4.019,2.052,8.093,4,12.155,5.963,1.456.7,2.164.241,2.169-1.365C793.364,745.189,793.359,742.512,793.359,739.836Zm2.426.009q0,3.22,0,6.439c0,.682-.032,1.366.02,2.044.079,1.033.7,1.423,1.671,1.105a4.382,4.382,0,0,0,.556-.236c4.01-1.958,8.042-3.874,12.02-5.894a5.763,5.763,0,0,0,3.3-5.386c.037-5.252.009-10.5,0-15.756,0-1.684-.68-2.152-2.169-1.431-4.062,1.966-8.136,3.911-12.154,5.965a5.772,5.772,0,0,0-3.245,5.348C795.751,734.643,795.784,737.244,795.785,739.845Zm35.171-13.1c0,2.626,0,5.252,0,7.879a3.861,3.861,0,0,0,.1.972,1,1,0,0,0,1.381.784,4.548,4.548,0,0,0,.774-.3c4.011-1.956,8.045-3.868,12.02-5.9a5.78,5.78,0,0,0,3.3-5.4c.034-5.252.013-10.5.008-15.757,0-1.668-.7-2.125-2.189-1.4-4.063,1.965-8.141,3.9-12.158,5.958a5.742,5.742,0,0,0-3.224,5.284C830.915,721.492,830.956,724.119,830.956,726.745Zm-2.426,0c0-2.625.036-5.252-.011-7.876a5.706,5.706,0,0,0-3.157-5.247c-4.075-2.1-8.224-4.068-12.356-6.061-1.318-.635-2.044-.153-2.058,1.306-.016,1.717.008,3.434-.013,5.15a.811.811,0,0,0,.471.826,8.319,8.319,0,0,1,4.378,7.378c.053,2.675.025,5.352,0,8.028a.96.96,0,0,0,.631,1.027c3.2,1.538,6.39,3.114,9.586,4.67a5.866,5.866,0,0,0,1.121.448.958.958,0,0,0,1.284-.727,3.739,3.739,0,0,0,.12-.968C828.533,732.048,828.529,729.4,828.53,726.746ZM799.841,698.4a23.151,23.151,0,0,0,3.736-1.037c3.977-1.85,7.9-3.817,11.831-5.766a6.868,6.868,0,0,0,1.141-.9,7.12,7.12,0,0,0-1.157-.9q-5.8-2.869-11.619-5.684a8.193,8.193,0,0,0-7.5.008q-5.782,2.811-11.544,5.664a7.818,7.818,0,0,0-1.217.932,7.894,7.894,0,0,0,1.224.932c3.8,1.88,7.589,3.768,11.424,5.565A29.912,29.912,0,0,0,799.841,698.4Zm29.888-1.256-.054-.208a21.6,21.6,0,0,0-3.449.979c-4.019,1.879-7.99,3.86-11.966,5.827a6.077,6.077,0,0,0-1.034.827,5.768,5.768,0,0,0,1.056.885c3.976,1.969,7.952,3.939,11.96,5.841a7.89,7.89,0,0,0,7.023-.01c3.983-1.9,7.937-3.853,11.891-5.809a6.8,6.8,0,0,0,1.1-.857,6.4,6.4,0,0,0-1.123-.918c-3.861-1.917-7.743-3.792-11.608-5.7A7.986,7.986,0,0,0,829.729,697.148ZM794.464,725.4a21.2,21.2,0,0,0,3.512-.955c4.065-1.9,8.082-3.906,12.1-5.9a5.713,5.713,0,0,0,1.015-.835,6.006,6.006,0,0,0-1.023-.822c-3.862-1.918-7.737-3.808-11.609-5.707a8.4,8.4,0,0,0-7.787,0c-3.8,1.87-7.612,3.72-11.406,5.605a8,8,0,0,0-1.225.93,7.78,7.78,0,0,0,1.221.936c3.841,1.9,7.678,3.817,11.561,5.631A26.216,26.216,0,0,0,794.464,725.4Zm4.352-16.766c0-1.286.031-2.471-.006-3.655a5.762,5.762,0,0,0-3.165-5.247c-4.057-2.091-8.182-4.051-12.294-6.036-1.408-.68-2.116-.205-2.118,1.361q-.011,8.033.009,16.067a13.17,13.17,0,0,0,.271,1.838c2.746-1.341,5.346-2.621,7.958-3.88a13.165,13.165,0,0,1,2.024-.831A11.313,11.313,0,0,1,798.816,708.636Zm9.7,4.759c0-1.478-.029-2.835.006-4.191a8.419,8.419,0,0,1,4.828-7.725c1.61-.838,3.255-1.611,4.9-2.383a.837.837,0,0,0,.589-.9c-.04-1.034-.006-2.071-.014-3.106-.012-1.612-.708-2.077-2.163-1.374-4.064,1.965-8.14,3.908-12.158,5.963a5.819,5.819,0,0,0-3.257,5.346c-.037,1.414.013,2.829-.018,4.243a.792.792,0,0,0,.545.847c1.438.674,2.858,1.388,4.286,2.085C806.847,712.583,807.634,712.965,808.518,713.4Z" transform="translate(-773.332 -680.779)" fill="#34c88a"/>
        <g id="Сгруппировать_2" data-name="Сгруппировать 2" transform="translate(16.388 7.19)">
          <path id="Контур_1" data-name="Контур 1" d="M881.725,733.948h0l4.432,2.354a.72.72,0,0,0,.551.025h0l2.05-.892c.154-.069.154-.189,0-.268a.6.6,0,0,0-.169-.053l-.72-.126h0a.782.782,0,0,0-.718.161l0,.006h0l-.013.021h0a.753.753,0,0,1-.7.167l-.012,0a.685.685,0,0,1-.365-.161h0l-.827-.851h0c-.13-.132-.041-.283.208-.351h0l1.588-.431h0a1.125,1.125,0,0,1,.47-.016c.307.053.486.213.4.359h0l-.013.021h0c-.086.148.1.31.407.363h0l.709.124a.522.522,0,0,0,.479-.107.094.094,0,0,0,0-.1l-.7-1.362a.529.529,0,0,0-.476-.155l-6.133.512h0c-.519.045-.835.288-.706.541A.564.564,0,0,0,881.725,733.948Z" transform="translate(-881.444 -731.993)" fill="#34c88a"/>
          <path id="Контур_2" data-name="Контур 2" d="M944.009,728.221h0l-6.134.512c-.206.017-.333.113-.283.213l0,0,.729,1.37a.529.529,0,0,0,.478.153.594.594,0,0,0,.173-.04l.673-.29c.154-.067.157-.186.007-.265h0l-.3-.16c-.151-.078-.149-.2,0-.264h0l.2-.084a.662.662,0,0,1,.3-.041l2.144.159c.2.015.352.1.362.192l.11,1.038c.006.054-.037.1-.117.139l-.2.084a.721.721,0,0,1-.551-.024h0l-.3-.159a.72.72,0,0,0-.551-.025h0l-.665.287c-.154.069-.156.189,0,.268a.6.6,0,0,0,.169.054l2.751.486a.524.524,0,0,0,.48-.106l0,0,1.7-2.865h0c.144-.25-.168-.522-.7-.609A2.052,2.052,0,0,0,944.009,728.221Z" transform="translate(-929.072 -728.215)" fill="#34c88a"/>
          <path id="Контур_3" data-name="Контур 3" d="M927.155,756.013h0l1.7-2.865c.057-.1-.064-.207-.273-.243l-2.78-.478a.518.518,0,0,0-.478.109.094.094,0,0,0,0,.1l.234.448a.531.531,0,0,0,.475.154l.416-.035a.531.531,0,0,1,.475.154l.068.13c.028.053.008.107-.055.15l-1.2.808a.673.673,0,0,1-.5.042l-1.915-.548a.322.322,0,0,1-.2-.129l-.068-.13c-.054-.1.068-.2.273-.217h.008l.416-.035c.206-.017.333-.113.283-.213l0,0-.232-.443a.527.527,0,0,0-.477-.153.592.592,0,0,0-.173.039l-2.051.875c-.155.067-.16.185-.011.264l0,0,4.432,2.354h0a1.789,1.789,0,0,0,1.368.066A.561.561,0,0,0,927.155,756.013Z" transform="translate(-914.982 -748.747)" fill="#34c88a"/>
        </g>
        <g id="Сгруппировать_2-2" data-name="Сгруппировать 2" transform="translate(6.419 46.506)">
          <path id="Контур_1-2" data-name="Контур 1" d="M815.7,988.1h0v4.8a.469.469,0,0,0,.289.4h0l2.145.8a.2.2,0,0,0,.29-.193.389.389,0,0,0-.039-.157l-.278-.595h0a.615.615,0,0,0-.587-.388l-.008,0h0l-.03.006h0a.6.6,0,0,1-.584-.372l0-.01a.491.491,0,0,1-.035-.371h0l.446-1.191h0c.067-.186.283-.232.5-.106h0l1.38.8h0a.735.735,0,0,1,.287.318c.119.254.049.493-.157.539h0l-.03.006h0c-.209.046-.28.289-.159.546h0l.274.586a.41.41,0,0,0,.392.258.169.169,0,0,0,.111-.069l1.072-1.468a.368.368,0,0,0-.106-.445l-4.081-3.931h0c-.347-.331-.792-.379-.992-.107A.549.549,0,0,0,815.7,988.1Z" transform="translate(-815.695 -987.586)" fill="#34c88a"/>
          <path id="Контур_2-2" data-name="Контур 2" d="M853.968,1026.876h0l-4.081-3.932c-.137-.132-.313-.152-.394-.045l0,.005-1.064,1.495a.367.367,0,0,0,.11.445.447.447,0,0,0,.142.092l.7.263a.2.2,0,0,0,.29-.185h0v-.325a.2.2,0,0,1,.289-.187h0l.2.076a.468.468,0,0,1,.218.181l1.06,1.617a.3.3,0,0,1,0,.392l-1.06.822a.222.222,0,0,1-.218.018l-.2-.076a.469.469,0,0,1-.29-.4h0v-.325a.469.469,0,0,0-.289-.4h0l-.693-.26a.2.2,0,0,0-.291.19.387.387,0,0,0,.039.157l1.056,2.277a.411.411,0,0,0,.391.26h.007l4.081-.864h0c.354-.078.469-.493.258-.926A1.289,1.289,0,0,0,853.968,1026.876Z" transform="translate(-843.429 -1017.489)" fill="#34c88a"/>
          <path id="Контур_3-2" data-name="Контур 3" d="M816.772,1037.25h0l4.081-.864c.14-.031.187-.193.106-.365l-1.081-2.292a.409.409,0,0,0-.392-.257.17.17,0,0,0-.11.069l-.351.486a.369.369,0,0,0,.106.444l.277.267a.369.369,0,0,1,.106.444l-.1.141a.189.189,0,0,1-.193.069l-1.567-.264a.464.464,0,0,1-.333-.321l-.508-1.736a.269.269,0,0,1,.024-.233l.1-.141c.077-.11.253-.094.392.036l.005.005.277.267c.137.132.313.152.394.045l0,0,.346-.48a.366.366,0,0,0-.109-.445.449.449,0,0,0-.142-.093l-2.127-.809a.2.2,0,0,0-.292.182s0,0,0,0v4.8h0a1.164,1.164,0,0,0,.715,1.006A.671.671,0,0,0,816.772,1037.25Z" transform="translate(-815.683 -1024.588)" fill="#34c88a"/>
        </g>
        <g id="Сгруппировать_2-3" data-name="Сгруппировать 2" transform="translate(61.443 36.754)">
          <path id="Контур_1-3" data-name="Контур 1" d="M1178.7,924.133h0v4.8a.238.238,0,0,0,.289.244h0l2.145-.395a.369.369,0,0,0,.29-.353.258.258,0,0,0-.039-.135l-.278-.44h0a.4.4,0,0,0-.587-.062l-.008.006h0l-.03.022h0a.4.4,0,0,1-.584-.048l0-.007a.423.423,0,0,1-.035-.352h0l.446-1.438h0a.538.538,0,0,1,.5-.384h0l1.38.038h0a.343.343,0,0,1,.287.159.491.491,0,0,1-.157.627h0l-.03.022h0a.5.5,0,0,0-.159.634h0l.274.433a.265.265,0,0,0,.392.041.374.374,0,0,0,.111-.13l1.072-2.063a.268.268,0,0,0-.106-.386l-4.081-1.665h0a.833.833,0,0,0-.992.444A.822.822,0,0,0,1178.7,924.133Z" transform="translate(-1178.694 -923.254)" fill="#34c88a"/>
          <path id="Контур_2-3" data-name="Контур 2" d="M1216.968,939.579h0l-4.081-1.666a.329.329,0,0,0-.394.173l0,.007-1.064,2.086a.264.264,0,0,0,.11.383.268.268,0,0,0,.142.014l.7-.126a.365.365,0,0,0,.291-.346h0v-.325a.365.365,0,0,1,.289-.347h0l.2-.036a.245.245,0,0,1,.218.06l1.06,1.029a.3.3,0,0,1,0,.392l-1.06,1.411a.357.357,0,0,1-.218.139l-.2.037a.238.238,0,0,1-.29-.242h0v-.325a.238.238,0,0,0-.289-.244h0l-.693.124a.369.369,0,0,0-.291.352.26.26,0,0,0,.039.135l1.056,1.691a.265.265,0,0,0,.391.043l.006,0,4.081-3.13h0a.824.824,0,0,0,.258-1.069A.574.574,0,0,0,1216.968,939.579Z" transform="translate(-1206.429 -935.676)" fill="#34c88a"/>
          <path id="Контур_3-3" data-name="Контур 3" d="M1179.772,971.833h0l4.081-3.13a.331.331,0,0,0,.106-.424l-1.081-1.692a.266.266,0,0,0-.392-.039.375.375,0,0,0-.11.13l-.351.681a.268.268,0,0,0,.106.385l.277.113a.268.268,0,0,1,.106.385l-.1.2a.374.374,0,0,1-.193.177l-1.567.606a.244.244,0,0,1-.333-.136l-.508-1.454a.315.315,0,0,1,.024-.246l.1-.2a.332.332,0,0,1,.392-.181l.005,0,.277.113a.329.329,0,0,0,.394-.174l0-.006.347-.673a.265.265,0,0,0-.109-.384.27.27,0,0,0-.142-.014l-2.127.372a.365.365,0,0,0-.292.345.031.031,0,0,0,0,0v4.8h0a.59.59,0,0,0,.715.609A.855.855,0,0,0,1179.772,971.833Z" transform="translate(-1178.683 -959.409)" fill="#34c88a"/>
        </g>
      </g>
    </g>
  </g>
</svg>
