<svg xmlns="http://www.w3.org/2000/svg" width="39.534" height="67.507" viewBox="0 0 39.534 67.507">
  <path id="Контур_269" data-name="Контур 269" d="M816.2-342.835h-8.43c-1.468,0-2.936.009-4.4,0-2.144-.017-3.136-1.282-2.657-3.376a8.035,8.035,0,0,1,1.6-3.118q10.929-14.142,21.835-28.3c.59-.765,1.161-1.544,1.744-2.314a3.555,3.555,0,0,1,1.648-1.326,2.161,2.161,0,0,1,2.386.473,1.985,1.985,0,0,1,.406,2.284q-2.235,5.624-4.472,11.247c-1.515,3.818-3,7.646-4.553,11.45-.362.89-.067.964.725.958,3.9-.03,7.806-.018,11.709,0,1.194,0,2.465.032,3.124,1.229.644,1.169-.008,2.282-.664,3.189-2.307,3.187-4.693,6.317-7.077,9.447q-8.586,11.272-17.2,22.521a4.812,4.812,0,0,1-.8.857,2.341,2.341,0,0,1-2.882.184,2.177,2.177,0,0,1-.653-2.693c.926-2.475,1.89-4.937,2.836-7.4q2.8-7.3,5.6-14.608C816.094-342.337,816.128-342.546,816.2-342.835Z" transform="translate(-799.087 382.952)" fill="none" stroke="#34c88a" stroke-width="3"/>
</svg>
