<svg xmlns="http://www.w3.org/2000/svg" width="43.767" height="67.935" viewBox="0 0 43.767 67.935">
  <g id="Сгруппировать_1493" data-name="Сгруппировать 1493" transform="translate(-577.339 -2242.942)">
    <path id="Контур_265" data-name="Контур 265" d="M42.662,11.365c-2.1-2.024-4.243-4.008-6.288-6.087A2.955,2.955,0,0,1,36.7.531a2.739,2.739,0,0,1,3.682.407q5.886,5.8,11.692,11.677a2.484,2.484,0,0,1,.533,3.329,4.172,4.172,0,0,1-2.7,1.7c-15.606.1-31.213.085-46.82.066A2.956,2.956,0,0,1,0,14.572c.054-1.7,1.308-2.736,3.432-2.737q18.361-.016,36.722-.006h2.191Z" transform="translate(578.908 2297.596) rotate(-90)" fill="none" stroke="#34c88a" stroke-width="3"/>
    <path id="Контур_266" data-name="Контур 266" d="M10.36,6.317c2,1.971,4.016,3.926,5.992,5.92,1.588,1.6,1.647,3.293.231,4.658-1.242,1.2-2.849,1.071-4.359-.425C8.528,12.807,4.868,9.106,1.17,5.444A3.007,3.007,0,0,1,.287,1.815,2.978,2.978,0,0,1,3.374,0q23.052.028,46.1.016c2.085,0,3.387,1.156,3.447,2.985.059,1.78-1.237,2.9-3.456,2.9q-18.46.015-36.921.006H10.571Z" transform="translate(601.763 2309.367) rotate(-90)" fill="none" stroke="#34c88a" stroke-width="3"/>
  </g>
</svg>
