<svg id="Сгруппировать_362" data-name="Сгруппировать 362" xmlns="http://www.w3.org/2000/svg" width="71.104" height="67.362" viewBox="0 0 71.104 67.362">
  <path id="Контур_261" data-name="Контур 261" d="M-122.465-82.082q11.79,0,23.58,0c2.519,0,3.816-1.3,3.871-3.829.015-.672-.021-1.346.016-2.016a1.776,1.776,0,0,1,1.984-1.748,1.78,1.78,0,0,1,1.7,1.505c.278,2.963-.134,5.718-2.524,7.836a7.583,7.583,0,0,1-5.167,2.046q-23.229,0-46.459-.009a13.4,13.4,0,0,1-13.156-13.234q0-16.7,0-33.4a13.456,13.456,0,0,1,12.959-13.26c1.811-.036,3.623-.016,5.435,0,1.341.009,2.155.734,2.16,1.886s-.812,1.889-2.145,1.9c-1.753.014-3.506-.006-5.26.005-5.516.035-9.372,3.74-9.4,9.263q-.1,16.874,0,33.749c.029,5.574,3.873,9.291,9.447,9.305C-137.776-82.068-130.12-82.082-122.465-82.082Z" transform="translate(158.624 145.644)" fill="#34c88a"/>
  <path id="Контур_262" data-name="Контур 262" d="M-82.573-165.649h.91q17.663,0,35.326,0a7.761,7.761,0,0,1,7.771,7.795c0,.73.02,1.462-.006,2.191a1.817,1.817,0,0,1-1.853,1.817,1.773,1.773,0,0,1-1.854-1.8c-.033-.817,0-1.636-.018-2.454-.058-2.452-1.365-3.782-3.827-3.817-2.483-.036-4.967-.009-7.451-.009H-91.97c-.263,0-.526.007-.789,0a1.867,1.867,0,0,1-1.9-1.49,1.837,1.837,0,0,1,1.191-2.1c2.263-.931,4.539-1.832,6.812-2.738q14.9-5.941,29.8-11.879a5.906,5.906,0,0,1,7.82,3.252q1.416,3.293,2.815,6.593a1.9,1.9,0,0,1-.874,2.718,1.882,1.882,0,0,1-2.565-1.258c-.983-2.274-1.948-4.555-2.929-6.829-.593-1.376-1.183-1.655-2.535-1.118q-13.566,5.387-27.123,10.8a3.659,3.659,0,0,0-.36.191Z" transform="translate(105.905 180.604)" fill="#34c88a"/>
  <path id="Контур_263" data-name="Контур 263" d="M73.835,12.213c-2.629,0-5.258.008-7.887,0A11.564,11.564,0,0,1,54.591,1.326C54.34-4.007,59.023-9.5,64.35-10.1a22.339,22.339,0,0,1,2.445-.14c5.112-.012,10.225.069,15.335-.031A6.181,6.181,0,0,1,88.3-4.137c-.149,3.5-.027,7.009-.037,10.514a5.825,5.825,0,0,1-5.838,5.835C79.56,12.221,76.7,12.214,73.835,12.213ZM73.92-6.451c-2.658,0-5.316-.025-7.973.015a9.618,9.618,0,0,0-2.5.323c-3.559,1.027-5.549,4.387-5.02,8.358a7.086,7.086,0,0,0,7.106,6.228c5.636.043,11.273.016,16.909.013,1.584,0,2.092-.513,2.094-2.1q.008-5.388,0-10.777c0-1.559-.481-2.049-2.031-2.054C79.644-6.458,76.782-6.451,73.92-6.451Z" transform="translate(-17.198 40.137)" fill="#34c88a"/>
  <path id="Контур_264" data-name="Контур 264" d="M108.226,40.794a3.116,3.116,0,0,1-2.781,2.755,3.193,3.193,0,0,1-2.837-2.822,3.348,3.348,0,0,1,2.808-2.789A3.2,3.2,0,0,1,108.226,40.794Z" transform="translate(-56.804 0.381)" fill="#34c88a"/>
</svg>
