<?xml version="1.0" encoding="UTF-8" standalone="no"?>
<svg
   xmlns:dc="http://purl.org/dc/elements/1.1/"
   xmlns:cc="http://creativecommons.org/ns#"
   xmlns:rdf="http://www.w3.org/1999/02/22-rdf-syntax-ns#"
   xmlns:svg="http://www.w3.org/2000/svg"
   xmlns="http://www.w3.org/2000/svg"
   xmlns:xlink="http://www.w3.org/1999/xlink"
   xmlns:sodipodi="http://sodipodi.sourceforge.net/DTD/sodipodi-0.dtd"
   xmlns:inkscape="http://www.inkscape.org/namespaces/inkscape"
   width="1600"
   height="1067"
   viewBox="0 0 1600 1067"
   fill="none"
   version="1.1"
   id="svg474"
   sodipodi:docname="90576 1.svg"
   inkscape:version="1.0.2-2 (e86c870879, 2021-01-15)">
  <metadata
     id="metadata478">
    <rdf:RDF>
      <cc:Work
         rdf:about="">
        <dc:format>image/svg+xml</dc:format>
        <dc:type
           rdf:resource="http://purl.org/dc/dcmitype/StillImage" />
      </cc:Work>
    </rdf:RDF>
  </metadata>
  <sodipodi:namedview
     pagecolor="#ffffff"
     bordercolor="#666666"
     borderopacity="1"
     objecttolerance="10"
     gridtolerance="10"
     guidetolerance="10"
     inkscape:pageopacity="0"
     inkscape:pageshadow="2"
     inkscape:window-width="2560"
     inkscape:window-height="1017"
     id="namedview476"
     showgrid="false"
     inkscape:zoom="0.46625"
     inkscape:cx="722.7882"
     inkscape:cy="572.93815"
     inkscape:window-x="-8"
     inkscape:window-y="-8"
     inkscape:window-maximized="1"
     inkscape:current-layer="g361"
     inkscape:document-rotation="0" />
  <g
     clip-path="url(#clip0)"
     id="g361">
    <path
       d="m 780.78,791.599 h 187.958 l 0.01,0.013 -93.977,121.284 h -0.023 L 780.769,791.612 Z"
       fill="url(#paint1_linear)"
       id="path249"
       style="fill:url(#paint1_linear)" />
    <path
       d="m 1484.179,758.959 -119.266,153.919 h -0.028 l -119.265,-153.919 0.014,-0.017 h 238.532 z"
       fill="#41AB8A"
       id="path251"
       style="fill:#32a272;fill-opacity:1" />
    <path
       d="m 1245.639,1066.81 v 0.01 h -238.526 l 119.246,-153.898 0.018,-0.025 z"
       fill="#24394A"
       id="path253"
       style="fill:#5be6aa;fill-opacity:1" />
    <path
       d="m 1722.728,451.07 0.011,0.015 -119.2665,153.921 h -0.025 l -119.268,-153.921 0.012,-0.015 z"
       fill="#41AB8A"
       id="path255" />
    <path
       d="m 1364.912,605.006 119.267,-153.921 119.2679,153.921 z"
       fill="#22445D"
       id="path257"
       style="fill:#4aca93;fill-opacity:1" />
    <path
       d="m 1484.166,758.942 h 0.027 l 118.595,-153.054 v -0.882 h -237.876 l -0.012,0.016 119.266,153.92"
       fill="url(#paint2_linear)"
       id="path259"
       style="fill:#5be6aa;fill-opacity:1" />
    <path
       d="m 1484.179,143.21 119.2705,153.924 H 1364.911 Z"
       fill="#41AB8A"
       id="path261"
       style="fill:#5be6aa;fill-opacity:1" />
    <path
       d="M 1603.4595,-10.7271 1722.73,143.198 h -238.541 z"
       fill="#41AB8A"
       id="path265"
       style="fill:#5be6aa;fill-opacity:1" />
    <path
       d="m 1484.193,758.942 h 238.533 l 0.013,0.017 v 0.002 l -119.2655,153.917 h -0.028 l -119.2665,-153.919 0.014,-0.017"
       fill="#22445D"
       id="path267"
       style="fill:#32a272;fill-opacity:1" />
    <path
       d="m 1484.193,758.942 h 118.595 V 605.889 Z"
       fill="url(#paint4_linear)"
       id="path269"
       style="fill:#32a272;fill-opacity:1" />
    <path
       d="m 1842.009,297.136 0.01,0.012 -119.268,153.922 -0.012,0.015 -0.011,-0.015 h -238.537 l 119.2684,-153.922 0.01,-0.012 z"
       fill="#0D2333"
       id="path271"
       style="fill:#4aca93;fill-opacity:1" />
    <path
       d="m 1245.643,1066.82 h -0.01 v -0.01 l 119.261,-153.913 119.264,153.923 h -238.491 z"
       fill="#41AB8A"
       id="path273"
       style="fill:#5be6aa;fill-opacity:1" />
    <path
       d="m 1364.911,297.134 h -0.022 L 1245.62,143.21 l 0.01,-0.012 h 238.541 l 0.01,0.012 z"
       fill="#162E41"
       id="path275" />
    <path
       d="m 1093.021,869.898 33.304,42.98 H 887.795 L 1007.06,758.959 Z"
       fill="#22445D"
       id="path277"
       style="fill:#32a272;fill-opacity:1" />
    <path
       d="m 1007.06,758.96 0.015,-0.018 119.265,-153.918 119.265,153.918 0.01,0.01 -0.01,-0.01 h 0.026 l -0.013,0.018 -97.349,125.633 -21.916,28.285 h 238.53 0.028 l 119.266,-153.918 119.2669,153.918 h 0.028 l -0.015,0.019 119.2646,153.923 h -238.521 -0.01 l -0.015,0.01 -0.015,-0.01 L 1364.9,912.897 1245.639,1066.81 1126.377,912.897 l -0.018,0.025 -0.019,-0.025 -0.013,-0.017 v 0 -0.002 l -33.304,-42.98 z"
       fill="#22445D"
       id="path279"
       style="fill:#4aca93;fill-opacity:1" />
    <path
       d="m 1245.633,758.942 h -0.026 l -119.267,-153.92 0.012,-0.016 h 238.535 l 0.013,0.016 z"
       fill="#24394A"
       id="path281"
       style="fill:#2dbd7f;fill-opacity:1" />
    <path
       d="m 1484.193,758.943 -0.014,0.017 -0.013,-0.017 z"
       fill="#0D2333"
       id="path283" />
    <path
       d="m 1113.877,427.593 v 0 l 41.442,-53.483 41.443,53.483 h -82.883"
       fill="#22445D"
       id="path285"
       style="fill:#5be6aa;fill-opacity:1" />
    <path
       d="m 1253.035,110.53 v 0 l 65.08,-83.989 65.08,83.989 h -130.156"
       fill="#22445D"
       id="path287"
       style="fill:#5be6aa;fill-opacity:1" />
    <path
       d="m 1245.611,143.198 h 0.018 l -0.01,0.012 z"
       fill="#0D2333"
       id="path289" />
    <path
       d="m 887.78,912.896 -0.014,-0.018 h 0.029 z"
       fill="#0D2333"
       id="path291" />
    <path
       d="m 1007.047,758.943 h 0.026 l -0.013,0.017 z"
       fill="#0D2333"
       id="path293" />
    <path
       d="m 1484.17,143.198 h 0.019 l -0.01,0.012 z"
       fill="#0D2333"
       id="path295" />
    <path
       d="m 1126.328,605.006 h 0.024 l -0.012,0.016 -0.012,-0.016"
       fill="#0D2333"
       id="path297" />
    <path
       d="m 1245.631,451.07 h 238.56 l -0.012,0.015 -119.267,153.921 -0.012,0.016 -0.013,-0.016 -119.267,-153.921 -0.011,-0.015 h 0.023 -10e-4"
       fill="#0D2333"
       id="path299"
       style="fill:#32a272;fill-opacity:1" />
    <path
       d="m 1603.4495,297.136 0.01,0.012 -119.2685,153.922 -119.28,-153.934 z"
       fill="#22445D"
       id="path301"
       style="fill:#5be6aa;fill-opacity:1" />
    <path
       d="m 1364.911,297.136 119.28,153.934 h -238.616 l 119.336,-153.934"
       fill="#41AB8A"
       id="path303"
       style="fill:#32a272;fill-opacity:1" />
    <path
       d="m 1484.521,1066.67 v -0.14 h 0.134 v -0.13 h 0.133 v -0.27 h 0.133 V 1066 h 0.134 v -0.13 h 0.133 v -0.27 h 0.133 v -0.13 h 0.134 v -0.14 h 0.133 v -0.26 h 0.133 v -0.14 h 0.134 v -0.13 h 0.133 v -0.13 h 0.133 v -0.27 h 0.134 v -0.13 h 0.133 v -0.14 h 0.133 v -0.26 h 0.134 v -0.14 h 0.133 v -0.13 h 0.133 v -0.13 h 0.134 v -0.27 h 0.133 v -0.13 h 0.133 v -0.14 h 0.134 v -0.26 h 0.133 v -0.14 h 0.133 v -0.13 h 0.134 v -0.13 h 0.133 V 1062 h 0.133 v -0.13 h 0.134 v -0.14 h 0.133 v -0.26 h 0.133 v -0.14 h 0.134 v -0.13 h 0.133 v -0.13 h 0.133 v -0.27 h 0.134 v -0.13 h 0.133 v -0.14 h 0.133 v -0.26 h 0.134 v -0.14 h 0.133 V 1060 h 0.133 v -0.27 h 0.134 v -0.13 h 0.133 v -0.13 h 0.133 v -0.14 h 0.134 v -0.26 h 0.133 v -0.14 h 0.133 v -0.13 h 0.134 v -0.27 h 0.133 v -0.13 h 0.133 v -0.13 h 0.134 v -0.14 h 0.133 v -0.26 h 0.133 v -0.14 h 0.134 v -0.13 h 0.133 v -0.27 h 0.133 v -0.13 h 0.134 v -0.13 h 0.133 v -0.14 h 0.133 v -0.26 h 0.134 v -0.14 h 0.133 v -0.13 h 0.133 v -0.27 h 0.134 V 1056 h 0.133 v -0.13 h 0.133 v -0.14 h 0.134 v -0.26 h 0.133 v -0.14 h 0.133 v -0.13 h 0.134 v -0.27 h 0.133 v -0.13 h 0.133 v -0.13 h 0.134 v -0.27 h 0.133 v -0.13 h 0.133 v -0.14 h 0.134 V 1054 h 0.133 v -0.27 h 0.133 v -0.13 h 0.134 v -0.13 h 0.133 v -0.27 h 0.133 v -0.13 h 0.134 v -0.14 h 0.133 v -0.13 h 0.133 v -0.27 h 0.134 v -0.13 h 0.133 v -0.13 h 0.133 V 1052 h 0.134 v -0.13 h 0.133 v -0.14 h 0.133 v -0.13 h 0.134 v -0.27 h 0.133 v -0.13 h 0.133 v -0.13 h 0.134 v -0.27 h 0.133 v -0.13 h 0.133 v -0.14 h 0.134 v -0.26 h 0.133 v -0.14 h 0.133 V 1050 h 0.134 v -0.13 h 0.133 v -0.27 h 0.133 v -0.13 h 0.134 v -0.14 h 0.133 v -0.26 h 0.133 v -0.14 h 0.134 v -0.13 h 0.133 v -0.13 h 0.133 v -0.27 h 0.134 v -0.13 h 0.133 v -0.14 h 0.133 v -0.26 h 0.134 v -0.14 h 0.133 v -0.13 h 0.133 v -0.13 h 0.134 v -0.27 h 0.133 v -0.13 h 0.133 v -0.14 h 0.134 v -0.26 h 0.133 v -0.14 h 0.133 v -0.13 h 0.134 v -0.13 h 0.133 V 1046 h 0.133 v -0.13 h 0.134 v -0.14 h 0.133 v -0.26 h 0.133 v -0.14 h 0.134 v -0.13 h 0.133 v -0.27 h 0.133 v -0.13 h 0.134 v -0.13 h 0.133 v -0.14 h 0.133 v -0.26 h 0.134 v -0.14 h 0.133 V 1044 h 0.133 v -0.27 h 0.134 v -0.13 h 0.133 v -0.13 h 0.133 v -0.14 h 0.134 v -0.26 h 0.133 v -0.14 h 0.1333 v -0.13 h 0.1334 v -0.27 h 0.1333 v -0.13 h 0.1333 v -0.13 h 0.1334 v -0.14 h 0.1333 v -0.26 h 0.1333 v -0.14 h 0.1334 v -0.13 h 0.1333 v -0.27 h 0.1333 v -0.13 h 0.1334 v -0.13 h 0.1333 v -0.14 h 0.1333 v -0.26 h 0.1334 v -0.14 h 0.1333 v -0.13 h 0.1333 v -0.27 h 0.1334 V 1040 h 0.1333 v -0.13 h 0.1333 v -0.27 h 0.1334 v -0.13 h 0.1333 v -0.14 h 0.1333 v -0.13 h 0.1334 v -0.27 h 0.1333 v -0.13 h 0.1333 v -0.13 h 0.1334 v -0.27 h 0.1333 v -0.13 h 0.1333 v -0.14 h 0.1334 V 1038 h 0.1333 v -0.27 h 0.1333 v -0.13 h 0.1334 v -0.13 h 0.1333 v -0.27 h 0.1333 v -0.13 h 0.1334 v -0.14 h 0.1333 v -0.13 h 0.1333 v -0.27 h 0.1334 v -0.13 h 0.1333 v -0.13 h 0.1333 V 1036 h 0.1334 v -0.13 h 0.1333 v -0.14 h 0.1333 v -0.13 h 0.1334 v -0.27 h 0.1333 v -0.13 h 0.1333 v -0.13 h 0.1334 v -0.27 h 0.1333 v -0.13 h 0.1333 v -0.14 h 0.1334 v -0.26 h 0.1333 v -0.14 h 0.1333 V 1034 h 0.1334 v -0.13 h 0.1333 v -0.27 h 0.1333 v -0.13 h 0.1334 v -0.14 h 0.1333 v -0.26 h 0.1333 v -0.14 h 0.1334 v -0.13 h 0.1333 v -0.13 h 0.1333 v -0.27 h 0.1334 v -0.13 h 0.1333 v -0.14 h 0.1333 v -0.26 h 0.1334 v -0.14 h 0.1333 v -0.13 h 0.1333 v -0.13 h 0.1334 v -0.27 h 0.1333 v -0.13 h 0.1333 v -0.14 h 0.1334 v -0.26 h 0.1333 v -0.14 h 0.1333 v -0.13 h 0.1334 v -0.13 h 0.1333 V 1030 h 0.1333 v -0.13 h 0.1334 v -0.14 h 0.1333 v -0.26 h 0.1333 v -0.14 h 0.1334 v -0.13 h 0.1333 v -0.27 h 0.1333 v -0.13 h 0.1334 v -0.13 h 0.1333 v -0.14 h 0.1333 v -0.26 h 0.1334 v -0.14 h 0.1333 V 1028 h 0.1333 v -0.27 h 0.1334 v -0.13 h 0.1333 v -0.13 h 0.1333 v -0.14 h 0.1334 v -0.26 h 0.1333 v -0.14 h 0.1333 v -0.13 h 0.1334 v -0.27 h 0.1333 v -0.13 h 0.1333 v -0.13 h 0.1334 v -0.14 h 0.1333 v -0.26 h 0.1333 v -0.14 h 0.1334 v -0.13 h 0.1333 v -0.27 h 0.1333 v -0.13 h 0.1334 v -0.13 h 0.1333 v -0.27 h 0.1333 v -0.13 h 0.1334 v -0.14 h 0.1333 v -0.13 h 0.1333 v -0.27 h 0.1334 V 1024 h 0.1333 v -0.13 h 0.1333 v -0.27 h 0.1334 v -0.13 h 0.1333 v -0.14 h 0.1333 v -0.13 h 0.1334 v -0.27 h 0.1333 v -0.13 h 0.1333 v -0.13 h 0.1334 v -0.27 h 0.1333 v -0.13 h 0.1333 v -0.14 h 0.1334 V 1022 h 0.1333 v -0.27 h 0.1333 v -0.13 h 0.1334 v -0.13 h 0.1333 v -0.27 h 0.1333 v -0.13 h 0.1334 v -0.14 h 0.1333 v -0.13 h 0.1333 v -0.27 h 0.1334 v -0.13 h 0.1333 v -0.13 h 0.1333 V 1020 h 0.1334 v -0.13 h 0.1333 v -0.14 h 0.1333 v -0.26 h 0.1334 v -0.14 h 0.1333 v -0.13 h 0.1333 v -0.13 h 0.1334 v -0.27 h 0.1333 v -0.13 h 0.1333 v -0.14 h 0.1334 v -0.26 h 0.1333 v -0.14 h 0.1333 V 1018 h 0.1334 v -0.13 h 0.1333 v -0.27 h 0.1333 v -0.13 h 0.1334 v -0.14 h 0.1333 v -0.26 h 0.1333 v -0.14 h 0.1334 v -0.13 h 0.1333 v -0.13 h 0.1333 v -0.27 h 0.1334 v -0.13 h 0.1333 v -0.14 h 0.1333 v -0.26 h 0.1334 v -0.14 h 0.1333 v -0.13 h 0.1333 v -0.13 h 0.1334 v -0.27 h 0.1333 v -0.13 h 0.1333 v -0.14 h 0.1334 v -0.26 h 0.1333 v -0.14 h 0.1333 v -0.13 h 0.1334 v -0.27 h 0.1333 V 1014 h 0.1333 v -0.13 h 0.1334 v -0.14 h 0.1333 v -0.26 h 0.1333 v -0.14 h 0.1334 v -0.13 h 0.1333 v -0.27 h 0.1333 v -0.13 h 0.1334 v -0.13 h 0.1333 v -0.14 h 0.1333 v -0.26 h 0.1334 v -0.14 h 0.1333 V 1012 h 0.1333 v -0.27 h 0.1334 v -0.13 h 0.1333 v -0.13 h 0.1333 v -0.14 h 0.1334 v -0.26 h 0.1333 v -0.14 h 0.1333 v -0.13 h 0.1334 v -0.27 h 0.1333 v -0.13 h 0.1333 v -0.13 h 0.1334 v -0.14 h 0.1333 v -0.26 h 0.1333 v -0.14 h 0.1334 v -0.13 h 0.1333 v -0.27 h 0.1333 v -0.13 h 0.1334 v -0.13 h 0.1333 v -0.27 h 0.1333 v -0.13 h 0.1334 v -0.14 h 0.1333 v -0.13 h 0.1333 v -0.27 h 0.1334 V 1008 h 0.1333 v -0.13 h 0.1333 v -0.27 h 0.1334 v -0.13 h 0.1333 v -0.14 h 0.1333 v -0.13 h 0.1334 v -0.27 h 0.1333 v -0.13 h 0.1333 v -0.13 h 0.1334 v -0.27 h 0.1333 v -0.13 h 0.1333 v -0.14 h 0.1334 V 1006 h 0.1333 v -0.27 h 0.1333 v -0.13 h 0.1334 v -0.13 h 0.1333 v -0.27 h 0.1333 v -0.13 h 0.1334 v -0.14 h 0.1333 v -0.13 h 0.1333 v -0.27 h 0.1334 v -0.13 h 0.1333 v -0.13 h 0.1333 V 1004 h 0.1334 v -0.13 h 0.1333 v -0.14 h 0.1333 v -0.26 h 0.1334 v -0.14 h 0.1333 v -0.13 h 0.1333 v -0.13 h 0.1334 v -0.27 h 0.1333 v -0.13 h 0.1333 v -0.14 h 0.1334 v -0.26 h 0.1333 v -0.14 h 0.1333 V 1002 h 0.1334 v -0.13 h 0.1333 v -0.27 h 0.1333 v -0.13 h 0.1334 v -0.14 h 0.1333 v -0.26 h 0.1333 v -0.14 h 0.1334 v -0.13 h 0.1333 v -0.13 h 0.1333 v -0.27 h 0.1334 v -0.13 h 0.1333 v -0.14 h 0.1333 v -0.264 h 0.1334 v -0.133 h 0.1333 v -0.134 h 0.1333 v -0.133 h 0.1334 v -0.267 h 0.1333 v -0.133 h 0.1333 v -0.133 h 0.1334 v -0.267 h 0.1333 v -0.133 h 0.1333 v -0.134 h 0.1334 v -0.266 h 0.1333 v -0.134 h 0.1333 v -0.133 h 0.1334 v -0.133 h 0.1333 v -0.267 h 0.1333 v -0.133 h 0.1334 v -0.134 h 0.1333 v -0.266 h 0.1333 v -0.134 h 0.1334 v -0.133 h 0.1333 v -0.133 h 0.1333 v -0.267 h 0.1334 v -0.133 h 0.1333 v -0.134 h 0.1333 v -0.266 h 0.1334 v -0.134 h 0.1333 v -0.133 h 0.1333 v -0.133 h 0.1334 v -0.267 h 0.1333 v -0.133 h 0.1333 v -0.134 h 0.1334 v -0.266 h 0.1333 v -0.134 h 0.1333 v -0.133 h 0.1334 v -0.267 h 0.1333 v -0.133 h 0.1333 v -0.133 h 0.1334 v -0.134 h 0.1333 v -0.266 h 0.1333 v -0.134 h 0.1334 v -0.133 h 0.1333 v -0.267 h 0.1333 v -0.133 h 0.1334 v -0.133 h 0.1333 v -0.134 h 0.1333 v -0.266 h 0.1334 v -0.134 h 0.1333 v -0.133 h 0.1333 v -0.267 h 0.1334 v -0.133 h 0.1333 v -0.133 h 0.1333 v -0.134 h 0.1334 v -0.266 h 0.1333 v -0.134 h 0.1333 v -0.133 h 0.1334 v -0.267 h 0.1333 v -0.133 h 0.1333 v -0.133 h 0.1334 v -0.134 h 0.1333 v -0.266 h 0.1333 v -0.134 h 0.1334 v -0.133 h 0.1333 v -0.267 h 0.1333 v -0.133 h 0.1334 v -0.133 h 0.1333 v -0.267 h 0.1333 v -0.133 h 0.1334 v -0.134 h 0.1333 v -0.133 h 0.1333 v -0.267 h 0.1334 v -0.133 h 0.1333 v -0.133 h 0.1333 v -0.267 h 0.1334 v -0.133 h 0.1333 v -0.134 h 0.1333 v -0.133 h 0.1334 v -0.267 h 0.1333 v -0.133 h 0.1333 v -0.133 h 0.1334 v -0.267 h 0.1333 v -0.133 h 0.1333 v -0.134 h 0.1334 v -0.133 h 0.1333 v -0.267 h 0.1333 v -0.133 h 0.1334 v -0.133 h 0.1333 v -0.267 h 0.1333 v -0.133 h 0.1334 v -0.134 h 0.1333 v -0.133 h 0.1333 v -0.267 h 0.1334 v -0.133 h 0.1333 v -0.133 h 0.1333 v -0.267 h 0.1334 v -0.133 h 0.1333 v -0.134 h 0.1333 v -0.266 h 0.1334 v -0.134 h 0.1333 v -0.133 h 0.1333 v -0.133 h 0.1334 v -0.267 h 0.1333 v -0.133 h 0.1333 v -0.134 h 0.1334 v -0.266 h 0.1333 v -0.134 h 0.1333 v -0.133 h 0.1334 v -0.133 h 0.1333 v -0.267 h 0.1333 v -0.133 h 0.1334 v -0.134 h 0.1333 v -0.266 h 0.1333 v -0.134 h 0.1334 v -0.133 h 0.1333 v -0.133 h 0.1333 v -0.267 h 0.1334 v -0.133 h 0.1333 v -0.134 h 0.1333 v -0.266 h 0.1334 v -0.134 h 0.1333 v -0.133 h 0.1333 v -0.133 h 0.1334 v -0.267 h 0.1333 v -0.133 h 0.1333 v -0.134 h 0.1334 v -0.266 h 0.1333 v -0.134 h 0.1333 v -0.133 h 0.1334 v -0.267 h 0.1333 v -0.133 h 0.1333 v -0.133 h 0.1334 v -0.134 h 0.1333 v -0.266 h 0.1333 v -0.134 h 0.1334 v -0.133 h 0.1333 v -0.267 h 0.1333 v -0.133 h 0.1334 v -0.133 h 0.1333 v -0.134 h 0.1333 v -0.266 h 0.1334 v -0.134 h 0.1333 v -0.133 h 0.1333 v -0.267 h 0.1334 v -0.133 h 0.1333 v -0.133 h 0.1333 v -0.134 h 0.1334 v -0.266 h 0.1333 v -0.134 h 0.1333 v -0.133 h 0.1334 v -0.267 h 0.1333 v -0.133 h 0.1333 v -0.133 h 0.1334 v -0.134 h 0.1333 v -0.266 h 0.1333 v -0.134 h 0.1334 v -0.133 h 0.1333 v -0.267 h 0.1333 v -0.133 h 0.1334 v -0.133 h 0.1333 v -0.267 h 0.1333 v -0.133 h 0.1334 v -0.134 h 0.1333 v -0.133 h 0.1333 v -0.267 h 0.1334 v -0.133 h 0.1333 v -0.133 h 0.1333 v -0.267 h 0.1334 v -0.133 h 0.1333 v -0.134 h 0.1333 v -0.133 h 0.1334 v -0.267 h 0.1333 v -0.133 h 0.1333 v -0.133 h 0.1334 v -0.267 h 0.1333 v -0.133 h 0.1333 v -0.134 h 0.1334 v -0.133 h 0.1333 v -0.267 h 0.1333 v -0.133 h 0.1334 v -0.133 h 0.1333 v -0.267 h 0.1333 v -0.133 h 0.1334 v -0.134 h 0.1333 v -0.266 h 0.1333 v -0.134 h 0.1334 v -0.133 h 0.1333 v -0.133 h 0.1333 v -0.267 h 0.1334 v -0.133 h 0.1333 v -0.134 h 0.1333 v -0.266 h 0.1334 v -0.134 h 0.1333 v -0.133 h 0.1333 v -0.133 h 0.1334 v -0.267 h 0.1333 v -0.133 h 0.1333 v -0.134 h 0.1334 v -0.266 h 0.1333 v -0.134 h 0.1333 v -0.133 h 0.1334 v -0.133 h 0.1333 v -0.267 h 0.1333 v -0.133 h 0.1334 v -0.134 h 0.1333 v -0.266 h 0.1333 v -0.134 h 0.1334 v -0.133 h 0.1333 v -0.133 h 0.1333 v -0.267 h 0.1334 v -0.133 h 0.1333 v -0.134 h 0.1333 v -0.266 h 0.1334 v -0.134 h 0.1333 v -0.133 h 0.1333 v -0.267 h 0.1334 v -0.133 h 0.1333 v -0.133 h 0.1333 v -0.134 h 0.1334 v -0.266 h 0.1333 v -0.134 h 0.1333 v -0.133 h 0.1334 v -0.267 h 0.1333 v -0.133 h 0.1333 v -0.133 h 0.1334 v -0.134 h 0.1333 v -0.266 h 0.1333 v -0.134 h 0.1334 v -0.133 h 0.1333 v -0.267 h 0.1333 v -0.133 h 0.1334 v -0.133 h 0.1333 v -0.134 h 0.1333 v -0.266 h 0.1334 v -0.134 h 0.1333 v -0.133 h 0.1333 v -0.267 h 0.1334 v -0.133 h 0.1333 v -0.133 h 0.1333 v -0.134 h 0.1334 v -0.266 h 0.1333 v -0.134 h 0.1333 v -0.133 h 0.1334 v -0.267 h 0.1333 v -0.133 h 0.1333 v -0.133 h 0.1334 v -0.267 h 0.1333 v -0.133 h 0.1333 v -0.134 h 0.1334 v -0.133 h 0.1333 v -0.267 h 0.1333 v -0.133 h 0.1334 v -0.133 h 0.1333 v -0.267 h 0.1333 v -0.133 h 0.1334 v -0.134 h 0.1333 v -0.133 h 0.1333 v -0.267 h 0.1334 v -0.133 h 0.1333 v -0.133 h 0.1333 v -0.267 h 0.1334 v -0.133 h 0.1333 v -0.134 h 0.1333 v -0.133 h 0.1334 v -0.267 h 0.1333 v -0.133 h 0.1333 v -0.133 h 0.1334 v -0.267 h 0.1333 v -0.133 h 0.1333 v -0.134 h 0.1334 v -0.133 h 0.1333 v -0.267 h 0.1333 v -0.133 h 0.1334 v -0.133 h 0.1333 v -0.267 h 0.1333 v -0.133 h 0.1334 v -0.134 h 0.1333 v -0.266 h 0.1333 v -0.134 h 0.1334 v -0.133 h 0.1333 v -0.133 h 0.1333 v -0.267 h 0.1334 v -0.133 h 0.1333 v -0.134 h 0.1333 v -0.266 h 0.1334 v -0.134 h 0.1333 v -0.133 h 0.1333 v -0.133 h 0.1334 v -0.267 h 0.1333 v -0.133 h 0.1333 v -0.134 h 0.1334 v -0.266 h 0.1333 v -0.134 h 0.1333 v -0.133 h 0.1334 v -0.133 h 0.1333 v -0.267 h 0.1333 v -0.133 h 0.1334 v -0.134 h 0.1333 v -0.266 h 0.1333 v -0.134 h 0.1334 v -0.133 h 0.1333 v -0.133 h 0.1333 v -0.267 h 0.1334 v -0.133 h 0.1333 v -0.134 h 0.1333 v -0.266 h 0.1334 v -0.134 h 0.1333 v -0.133 h 0.1333 v -0.267 h 0.1334 v -0.133 h 0.1333 v -0.133 h 0.1333 v -0.134 h 0.1334 v -0.266 h 0.1333 v -0.134 h 0.1333 v -0.133 h 0.1334 v -0.267 h 0.1333 v -0.133 h 0.1333 v -0.133 h 0.1334 v -0.134 h 0.1333 v -0.266 h 0.1333 v -0.134 h 0.1334 v -0.133 h 0.1333 v -0.267 h 0.1333 v -0.133 h 0.1334 v -0.133 h 0.1333 v -0.134 h 0.1333 v -0.266 h 0.1334 v -0.134 h 0.1333 v -0.133 h 0.1333 v -0.267 h 0.1334 v -0.133 h 0.1333 v -0.133 h 0.1333 v -0.267 h 0.1334 v -0.133 h 0.1333 v -0.134 h 0.1333 v -0.133 h 0.1334 v -0.267 h 0.1333 v -0.133 h 0.1333 v -0.133 h 0.1334 v -0.267 h 0.1333 v -0.133 h 0.1333 v -0.134 h 0.1334 v -0.133 h 0.1333 v -0.267 h 0.1333 v -0.133 h 0.1334 v -0.133 h 0.1333 v -0.267 h 0.1333 v -0.133 h 0.1334 v -0.134 h 0.1333 v -0.133 h 0.1333 v -0.267 h 0.1334 v -0.133 h 0.1333 v -0.133 h 0.1333 v -0.267 h 0.1334 v -0.133 h 0.1333 v -0.134 h 0.1333 v -0.133 h 0.1334 v -0.267 h 0.1333 v -0.133 h 0.1333 v -0.133 h 0.1334 v -0.267 h 0.1333 v -0.133 h 0.1333 v -0.134 h 0.1334 v -0.266 h 0.1333 v -0.134 h 0.1333 v -0.133 h 0.1334 v -0.133 h 0.1333 v -0.267 h 0.1333 v -0.133 h 0.1334 v -0.134 h 0.1333 v -0.266 h 0.1333 v -0.134 h 0.1334 v -0.133 h 0.1333 v -0.133 h 0.1333 v -0.267 h 0.1334 v -0.133 h 0.1333 v -0.134 h 0.1333 v -0.266 h 0.1334 v -0.134 h 0.1333 v -0.133 h 0.1333 v -0.133 h 0.1334 v -0.267 h 0.1333 v -0.133 h 0.1333 v -0.134 h 0.1334 v -0.266 h 0.1333 v -0.134 h 0.1333 v -0.133 h 0.1334 v -0.133 h 0.1333 v -0.267 h 0.1333 v -0.133 h 0.1334 v -0.134 h 0.1333 v -0.266 h 0.1333 v -0.134 h 0.1334 v -0.133 h 0.1333 v -0.267 h 0.1333 v -0.133 h 0.1334 v -0.133 h 0.1333 v -0.134 h 0.1333 v -0.266 h 0.1334 v -0.134 h 0.1333 v -0.133 h 0.1333 v -0.267 h 0.1334 v -0.133 h 0.1333 v -0.133 h 0.1333 v -0.134 h 0.1334 v -0.266 h 0.1333 v -0.134 h 0.1333 v -0.133 h 0.1334 v -0.267 h 0.1333 v -0.133 h 0.1333 v -0.133 h 0.1334 v -0.134 h 0.1333 v -0.266 h 0.1333 v -0.134 h 0.1334 v -0.133 h 0.1333 v -0.267 h 0.1333 v -0.133 h 0.1334 v -0.133 h 0.1333 v -0.134 h 0.1333 v -0.266 h 0.1334 v -0.134 h 0.1333 v -0.133 h 0.1333 v -0.267 h 0.1334 v -0.133 h 0.1333 v -0.133 h 0.1333 v -0.267 h 0.1334 v -0.133 h 0.1333 v -0.134 h 0.1333 v -0.133 h 0.1334 v -0.267 h 0.1333 v -0.133 h 0.1333 v -0.133 h 0.1334 v -0.267 h 0.1333 v -0.133 h 0.1333 v -0.134 h 0.1334 v -0.133 h 0.1333 v -0.267 h 0.1333 v -0.133 h 0.1334 v -0.133 h 0.1333 v -0.267 h 0.1333 v -0.133 h 0.1334 v -0.134 h 0.1333 v -0.133 h 0.1333 v -0.267 h 0.1334 v -0.133 h 0.1333 v -0.133 h 0.1333 v -0.267 h 0.1334 v -0.133 h 0.1333 v -0.134 h 0.1333 v -0.133 h 0.1334 v -0.267 h 0.1333 v -0.133 h 0.1333 v -0.133 h 0.1334 v -0.267 h 0.1333 v -0.133 h 0.1333 v -0.134 h 0.1334 v -0.266 h 0.1333 v -0.134 h 0.1333 v -0.133 h 0.1334 v -0.133 h 0.1333 v -0.267 h 0.1333 v -0.133 h 0.1334 v -0.134 h 0.1333 v -0.266 h 0.1333 v -0.134 h 0.1334 v -0.133 h 0.1333 v -0.133 h 0.1333 v -0.267 h 0.1334 v -0.133 h 0.1333 v -0.134 h 0.1333 v -0.266 h 0.1334 v -0.134 h 0.1333 v -0.133 h 0.1333 v -0.133 h 0.1334 v -0.267 h 0.1333 v -0.133 h 0.1333 v -0.134 h 0.1334 v -0.266 h 0.1333 v -0.134 h 0.1333 v -0.133 h 0.1334 v -0.267 h 0.1333 v -0.133 h 0.1333 v -0.133 h 0.1334 v -0.134 h 0.1333 v -0.266 h 0.1333 v -0.134 h 0.1334 v -0.133 h 0.1333 v -0.267 h 0.1333 v -0.133 h 0.1334 v -0.133 h 0.1333 v -0.134 h 0.1333 v -0.266 h 0.1334 v -0.134 h 0.1333 v -0.133 h 0.1333 v -0.267 h 0.1334 v -0.133 h 0.1333 v -0.133 h 0.1333 v -0.134 h 0.1334 v -0.266 h 0.1333 v -0.134 h 0.1333 v -0.133 h 0.1334 v -0.267 h 0.1333 v -1.2 h -237.867 v 0.267 h 0.134 v 0.267 h 0.133 v 0.133 h 0.133 v 0.133 h 0.134 v 0.267 h 0.133 v 0.133 h 0.133 v 0.134 h 0.134 v 0.266 h 0.133 v 0.134 h 0.133 v 0.133 h 0.134 v 0.133 h 0.133 v 0.267 h 0.133 v 0.133 h 0.134 v 0.134 h 0.133 v 0.266 h 0.133 v 0.134 h 0.134 v 0.133 h 0.133 v 0.133 h 0.133 v 0.267 h 0.134 v 0.133 h 0.133 v 0.134 h 0.133 v 0.266 h 0.134 v 0.134 h 0.133 v 0.133 h 0.133 v 0.133 h 0.134 v 0.267 h 0.133 v 0.133 h 0.133 v 0.134 h 0.134 v 0.266 h 0.133 v 0.134 h 0.133 v 0.133 h 0.134 v 0.267 h 0.133 v 0.133 h 0.133 v 0.133 h 0.134 v 0.134 h 0.133 v 0.266 h 0.133 v 0.134 h 0.134 v 0.133 h 0.133 v 0.267 h 0.133 v 0.133 h 0.134 v 0.133 h 0.133 v 0.134 h 0.133 v 0.266 h 0.134 v 0.134 h 0.133 v 0.133 h 0.133 v 0.267 h 0.134 v 0.133 h 0.133 v 0.133 h 0.133 v 0.134 h 0.134 v 0.266 h 0.133 v 0.134 h 0.133 v 0.133 h 0.134 v 0.267 h 0.133 v 0.133 h 0.133 v 0.133 h 0.134 v 0.134 h 0.133 v 0.266 h 0.133 v 0.134 h 0.134 v 0.133 h 0.133 v 0.267 h 0.133 v 0.133 h 0.134 v 0.133 h 0.133 v 0.267 h 0.133 v 0.133 h 0.134 v 0.134 h 0.133 v 0.133 h 0.133 v 0.267 h 0.134 v 0.133 h 0.133 v 0.133 h 0.133 v 0.267 h 0.134 v 0.133 h 0.133 v 0.134 h 0.133 v 0.133 h 0.134 v 0.267 h 0.133 v 0.133 h 0.133 v 0.133 h 0.134 v 0.267 h 0.133 v 0.133 h 0.133 v 0.134 h 0.134 v 0.133 h 0.133 v 0.267 h 0.133 v 0.133 h 0.134 v 0.133 h 0.133 v 0.267 h 0.133 v 0.133 h 0.134 v 0.134 h 0.133 v 0.133 h 0.133 v 0.267 h 0.134 v 0.133 h 0.133 v 0.133 h 0.133 v 0.267 h 0.134 v 0.133 h 0.133 v 0.134 h 0.133 v 0.266 h 0.134 v 0.134 h 0.133 v 0.133 h 0.133 v 0.133 h 0.134 v 0.267 h 0.133 v 0.133 h 0.133 v 0.134 h 0.134 v 0.266 h 0.133 v 0.134 h 0.133 v 0.133 h 0.134 v 0.133 h 0.133 v 0.267 h 0.133 v 0.133 h 0.134 v 0.134 h 0.133 v 0.266 h 0.133 v 0.134 h 0.134 v 0.133 h 0.133 v 0.133 h 0.133 v 0.267 h 0.134 v 0.133 h 0.133 v 0.134 h 0.133 v 0.266 h 0.134 v 0.134 h 0.133 v 0.133 h 0.133 v 0.133 h 0.134 v 0.267 h 0.133 v 0.133 h 0.133 v 0.134 h 0.134 v 0.266 h 0.133 v 0.134 h 0.133 v 0.133 h 0.134 v 0.267 h 0.133 v 0.133 h 0.133 v 0.133 h 0.134 v 0.134 h 0.133 v 0.266 h 0.133 v 0.134 h 0.134 v 0.133 h 0.133 v 0.267 h 0.133 v 0.133 h 0.134 v 0.133 h 0.133 v 0.134 h 0.133 v 0.266 h 0.134 v 0.134 h 0.133 v 0.133 h 0.133 v 0.267 h 0.134 v 0.133 h 0.133 v 0.133 h 0.133 v 0.134 h 0.134 v 0.266 h 0.133 v 0.134 h 0.133 v 0.133 h 0.134 v 0.267 h 0.133 v 0.133 h 0.133 v 0.133 h 0.134 v 0.134 h 0.133 v 0.266 h 0.133 v 0.134 h 0.134 v 0.133 h 0.133 v 0.267 h 0.133 v 0.133 h 0.134 v 0.133 h 0.133 v 0.267 h 0.133 v 0.133 h 0.134 v 0.134 h 0.133 v 0.133 h 0.133 v 0.267 h 0.134 v 0.133 h 0.133 v 0.133 h 0.133 v 0.267 h 0.134 v 0.133 h 0.133 v 0.134 h 0.133 v 0.133 h 0.134 v 0.267 h 0.133 v 0.133 h 0.133 v 0.133 h 0.134 v 0.267 h 0.133 v 0.133 h 0.133 v 0.134 h 0.134 v 0.133 h 0.133 v 0.267 h 0.133 v 0.133 h 0.134 v 0.133 h 0.133 v 0.267 h 0.133 v 0.133 h 0.134 v 0.134 h 0.133 v 0.266 h 0.133 v 0.134 h 0.134 v 0.133 h 0.133 v 0.133 h 0.133 v 0.267 h 0.134 v 0.133 h 0.133 v 0.134 h 0.133 v 0.266 h 0.134 v 0.134 h 0.133 v 0.133 h 0.133 v 0.133 h 0.134 v 0.267 h 0.133 v 0.133 h 0.133 v 0.134 h 0.134 v 0.266 h 0.133 v 0.134 h 0.133 v 0.133 h 0.134 v 0.133 h 0.133 v 0.267 h 0.133 v 0.133 h 0.134 v 0.134 h 0.133 v 0.266 h 0.133 v 0.134 h 0.134 v 0.133 h 0.133 v 0.133 h 0.133 v 0.267 h 0.134 v 0.133 h 0.133 v 0.134 h 0.133 v 0.266 h 0.134 v 0.134 h 0.133 v 0.133 h 0.133 v 0.267 h 0.134 v 0.133 h 0.133 v 0.133 h 0.133 v 0.134 h 0.134 v 0.266 h 0.133 v 0.134 h 0.133 v 0.133 h 0.134 v 0.267 h 0.133 v 0.133 h 0.133 v 0.133 h 0.134 v 0.134 h 0.133 v 0.266 h 0.133 v 0.134 h 0.134 v 0.133 h 0.133 v 0.267 h 0.133 v 0.133 h 0.134 v 0.133 h 0.133 v 0.134 h 0.133 v 0.266 h 0.134 v 0.134 h 0.133 v 0.133 h 0.133 v 0.267 h 0.134 v 0.133 h 0.133 v 0.133 h 0.133 v 0.134 h 0.134 v 0.266 h 0.133 v 0.134 h 0.133 v 0.133 h 0.134 v 0.267 h 0.133 v 0.133 h 0.133 v 0.133 h 0.134 v 0.267 h 0.133 v 0.133 h 0.133 v 0.134 h 0.134 v 0.133 h 0.133 v 0.267 h 0.133 v 0.133 h 0.134 v 0.133 h 0.133 v 0.267 h 0.133 v 0.133 h 0.134 v 0.134 h 0.133 v 0.133 h 0.133 v 0.267 h 0.134 v 0.133 h 0.133 v 0.133 h 0.133 v 0.267 h 0.134 v 0.133 h 0.133 v 0.134 h 0.133 v 0.133 h 0.134 v 0.267 h 0.133 v 0.133 h 0.133 v 0.133 h 0.134 v 0.267 h 0.133 v 0.133 h 0.133 v 0.134 h 0.134 v 0.133 h 0.133 v 0.267 h 0.133 v 0.133 h 0.134 v 0.133 h 0.133 v 0.267 h 0.133 v 0.133 h 0.134 v 0.134 h 0.133 v 0.266 h 0.133 v 0.134 h 0.134 v 0.133 h 0.133 v 0.133 h 0.133 v 0.267 h 0.134 v 0.133 h 0.133 v 0.134 h 0.133 v 0.266 h 0.134 v 0.134 h 0.133 v 0.133 h 0.133 v 0.133 h 0.134 v 0.267 h 0.133 v 0.133 h 0.133 v 0.134 h 0.134 v 0.266 h 0.133 v 0.134 h 0.133 v 0.133 h 0.134 v 0.133 h 0.133 v 0.267 h 0.133 v 0.133 h 0.134 v 0.134 h 0.133 v 0.266 h 0.133 v 0.134 h 0.134 v 0.133 h 0.133 v 0.267 h 0.133 v 0.133 h 0.134 v 0.133 h 0.133 v 0.134 h 0.133 v 0.266 h 0.134 v 0.134 h 0.133 v 0.133 h 0.133 v 0.267 h 0.134 v 0.133 h 0.133 v 0.133 h 0.133 v 0.134 h 0.134 v 0.266 h 0.133 v 0.134 h 0.133 v 0.133 h 0.134 v 0.267 h 0.133 v 0.133 h 0.133 v 0.133 h 0.134 v 0.134 h 0.133 v 0.266 h 0.133 v 0.134 h 0.134 v 0.133 h 0.133 v 0.267 h 0.133 v 0.133 h 0.134 v 0.133 h 0.133 v 0.134 h 0.133 v 0.266 h 0.134 v 0.134 h 0.133 v 0.133 h 0.133 v 0.267 h 0.134 v 0.133 h 0.133 v 0.133 h 0.133 v 0.267 h 0.134 v 0.133 h 0.133 v 0.134 h 0.133 v 0.133 h 0.134 v 0.267 h 0.133 v 0.133 h 0.133 v 0.133 h 0.134 v 0.267 h 0.133 v 0.133 h 0.133 v 0.134 h 0.134 v 0.133 h 0.133 v 0.267 h 0.133 v 0.133 h 0.134 v 0.133 h 0.133 v 0.267 h 0.133 v 0.133 h 0.134 v 0.134 h 0.133 v 0.133 h 0.133 v 0.267 h 0.134 v 0.133 h 0.133 v 0.133 h 0.133 v 0.267 h 0.134 v 0.133 h 0.133 v 0.134 h 0.133 v 0.133 h 0.134 v 0.267 h 0.133 v 0.133 h 0.133 v 0.133 h 0.134 v 0.267 h 0.133 v 0.133 h 0.133 v 0.134 h 0.134 v 0.266 h 0.133 v 0.134 h 0.133 v 0.133 h 0.134 v 0.133 h 0.133 v 0.267 h 0.133 v 0.133 h 0.134 v 0.134 h 0.133 v 0.266 h 0.133 v 0.134 h 0.134 v 0.133 h 0.133 v 0.133 h 0.133 v 0.267 h 0.134 v 0.133 h 0.133 v 0.134 h 0.133 v 0.266 h 0.134 v 0.134 h 0.133 v 0.133 h 0.133 v 0.133 h 0.134 v 0.267 h 0.133 v 0.133 h 0.133 v 0.134 h 0.134 v 0.266 h 0.133 v 0.134 h 0.133 v 0.133 h 0.134 v 0.133 h 0.133 v 0.267 h 0.133 v 0.133 h 0.134 v 0.134 h 0.133 v 0.266 h 0.133 v 0.134 h 0.134 v 0.133 h 0.133 v 0.267 h 0.133 v 0.133 h 0.134 v 0.133 h 0.133 v 0.134 h 0.133 v 0.266 h 0.134 v 0.134 h 0.133 v 0.133 h 0.133 v 0.267 h 0.134 v 0.133 h 0.133 v 0.133 h 0.133 v 0.134 h 0.134 v 0.266 h 0.133 v 0.134 h 0.133 v 0.133 h 0.134 v 0.267 h 0.133 v 0.133 h 0.133 v 0.133 h 0.134 v 0.134 h 0.133 v 0.266 h 0.133 v 0.134 h 0.134 v 0.133 h 0.133 v 0.267 h 0.133 v 0.133 h 0.134 v 0.133 h 0.133 v 0.134 h 0.133 v 0.266 h 0.134 v 0.134 h 0.133 v 0.133 h 0.133 v 0.267 h 0.134 v 0.133 h 0.133 v 0.133 h 0.133 v 0.267 h 0.134 v 0.133 h 0.133 v 0.134 h 0.133 v 0.133 h 0.134 v 0.267 h 0.133 v 0.133 h 0.133 v 0.133 h 0.134 v 0.267 h 0.133 v 0.133 h 0.133 v 0.134 h 0.134 v 0.133 h 0.133 v 0.267 h 0.133 v 0.133 h 0.134 v 0.133 h 0.133 v 0.267 h 0.133 v 0.133 h 0.134 v 0.134 h 0.133 v 0.133 h 0.133 v 0.267 h 0.134 v 0.133 h 0.133 v 0.133 h 0.133 v 0.267 h 0.134 v 0.133 h 0.133 v 0.134 h 0.133 v 0.266 h 0.134 v 0.134 h 0.133 v 0.133 h 0.133 v 0.133 h 0.134 v 0.267 h 0.133 v 0.133 h 0.133 v 0.134 h 0.134 v 0.266 h 0.133 v 0.134 h 0.133 v 0.133 h 0.134 v 0.133 h 0.133 v 0.267 h 0.133 v 0.133 h 0.134 v 0.134 h 0.133 v 0.266 h 0.133 v 0.134 h 0.134 v 0.133 h 0.133 v 0.133 h 0.133 v 0.267 h 0.134 v 0.133 h 0.133 v 0.134 h 0.133 v 0.266 h 0.134 v 0.134 h 0.133 v 0.133 h 0.133 v 0.133 h 0.134 v 0.267 h 0.133 v 0.133 h 0.133 v 0.134 h 0.134 v 0.266 h 0.133 v 0.134 h 0.133 v 0.133 h 0.134 v 0.267 h 0.133 v 0.133 h 0.133 v 0.133 h 0.134 v 0.134 h 0.133 v 0.266 h 0.133 v 0.134 h 0.134 v 0.133 h 0.133 v 0.267 h 0.133 v 0.133 h 0.134 v 0.133 h 0.133 v 0.134 h 0.133 v 0.266 h 0.134 v 0.134 h 0.133 v 0.133 h 0.133 v 0.267 h 0.134 v 0.133 h 0.133 v 0.133 h 0.133 v 0.134 h 0.134 v 0.266 h 0.133 v 0.134 h 0.133 v 0.133 h 0.134 v 0.267 h 0.133 v 0.133 h 0.133 v 0.133 h 0.134 v 0.134 h 0.133 v 0.266 h 0.133 v 0.134 h 0.134 v 0.133 h 0.133 v 0.267 h 0.133 v 0.133 h 0.134 v 0.133 h 0.133 v 0.271 h 0.133 v 0.13 h 0.134 v 0.13 h 0.133 v 0.14 h 0.133 v 0.26 h 0.134 v 0.14 h 0.133 v 0.13 h 0.133 v 0.27 h 0.134 v 0.13 h 0.133 v 0.13 h 0.133 v 0.14 h 0.134 v 0.26 h 0.133 v 0.14 h 0.133 v 0.13 h 0.134 v 0.27 h 0.133 v 0.13 h 0.133 v 0.13 h 0.134 v 0.14 h 0.133 v 0.26 h 0.133 v 0.14 h 0.134 v 0.13 h 0.133 v 0.27 h 0.133 v 0.13 h 0.134 v 0.13 h 0.133 v 0.14 h 0.133 v 0.26 h 0.134 v 0.14 h 0.133 v 0.13 h 0.133 v 0.27 h 0.134 v 0.13 h 0.133 v 0.13 h 0.133 v 0.27 h 0.134 v 0.13 h 0.133 v 0.14 h 0.133 v 0.13 h 0.134 v 0.27 h 0.133 v 0.13 h 0.133 v 0.13 h 0.134 v 0.27 h 0.133 v 0.13 h 0.133 v 0.14 h 0.134 v 0.13 h 0.133 v 0.27 h 0.133 v 0.13 h 0.134 v 0.13 h 0.133 v 0.27 h 0.133 v 0.13 h 0.134 v 0.14 h 0.133 v 0.13 h 0.133 v 0.27 h 0.134 v 0.13 h 0.133 v 0.13 h 0.133 v 0.27 h 0.134 v 0.13 h 0.133 v 0.14 h 0.133 v 0.13 h 0.134 v 0.27 h 0.133 v 0.13 h 0.133 v 0.13 h 0.134 v 0.27 h 0.133 v 0.13 h 0.133 v 0.14 h 0.134 v 0.26 h 0.133 v 0.14 h 0.133 v 0.13 h 0.134 v 0.13 h 0.133 v 0.27 h 0.133 v 0.13 h 0.134 v 0.14 h 0.133 v 0.26 h 0.133 v 0.14 h 0.134 v 0.13 h 0.133 v 0.13 h 0.133 v 0.27 h 0.134 v 0.13 h 0.133 v 0.14 h 0.133 v 0.26 h 0.134 v 0.14 h 0.133 v 0.13 h 0.133 v 0.13 h 0.134 v 0.27 h 0.133 v 0.13 h 0.133 v 0.14 h 0.134 v 0.26 h 0.133 v 0.14 h 0.133 v 0.13 h 0.134 v 0.27 h 0.133 v 0.13 h 0.133 v 0.13 h 0.134 v 0.14 h 0.133 v 0.26 h 0.133 v 0.14 h 0.134 v 0.13 h 0.133 v 0.27 h 0.133 v 0.13 h 0.134 v 0.13 h 0.133 v 0.14 h 0.133 v 0.26 h 0.134 v 0.14 h 0.133 v 0.13 h 0.133 v 0.27 h 0.134 v 0.13 h 0.133 v 0.13 h 0.133 v 0.14 h 0.134 v 0.26 h 0.133 v 0.14 h 0.133 v 0.13 h 0.134 v 0.27 h 0.133 v 0.13 h 0.133 v 0.13 h 0.134 v 0.14 h 0.133 v 0.26 h 0.133 v 0.14 h 0.134 v 0.13 h 0.133 v 0.27 h 0.133 v 0.13 h 0.134 v 0.13 h 0.133 v 0.27 h 0.133 v 0.13 h 0.134 v 0.14 h 0.133 v 0.13 h 0.133 v 0.27 h 0.134 v 0.13 h 0.133 v 0.13 h 0.133 v 0.27 h 0.134 v 0.13 h 0.133 v 0.14 h 0.133 v 0.13 h 0.134 v 0.27 h 0.133 v 0.13 h 0.133 v 0.13 h 0.134 v 0.27 h 0.133 v 0.13 h 0.133 v 0.14 h 0.134 v 0.13 h 0.133 v 0.27 h 0.133 v 0.13 h 0.134 v 0.13 h 0.133 v 0.27 h 0.133 v 0.13 h 0.134 v 0.14 h 0.133 v 0.13 h 0.133 v 0.27 h 0.134 v 0.13 h 0.133 v 0.13 h 0.133 v 0.27 h 0.134 v 0.13 h 0.133 v 0.14 h 0.133 v 0.26 h 0.134 v 0.14 h 0.133 v 0.13 h 0.133 v 0.13 h 0.134 v 0.27 h 0.133 v 0.13 h 0.133 v 0.14 h 0.134 v 0.26 h 0.133 v 0.14 h 0.133 v 0.13 h 0.134 v 0.13 h 0.133 v 0.27 h 0.133 v 0.13 h 0.134 v 0.14 h 0.133 v 0.26 h 0.133 v 0.14 h 0.134 v 0.13 h 0.133 v 0.13 h 0.133 v 0.27 h 0.134 v 0.13 h 0.133 v 0.14 h 0.133 v 0.26 h 0.134 v 0.14 h 0.133 v 0.13 h 0.133 v 0.13 h 0.134 v 0.27 h 0.133 v 0.13 h 0.133 v 0.14 h 0.134 v 0.26 h 0.133 v 0.14 h 0.133 v 0.13 h 0.134 v 0.27 h 0.133 v 0.13 h 0.133 v 0.13 h 0.134 v 0.14 h 0.133 v 0.26 h 0.133 v 0.14 h 0.134 v 0.13 h 0.133 v 0.27 h 0.133 v 0.13 h 0.134 v 0.13 h 0.133 v 0.14 h 0.133 v 0.26 h 0.134 v 0.14 h 0.133 v 0.13 h 0.133 v 0.27 h 0.134 v 0.13 h 0.133 v 0.13 h 0.133 v 0.14 h 0.134 v 0.26 h 0.133 v 0.14 h 0.133 v 0.13 h 0.134 v 0.27 h 0.133 v 0.13 h 0.133 v 0.13 h 0.134 v 0.27 h 0.133 v 0.13 h 0.133 v 0.14 h 0.134 v 0.13 h 0.133 v 0.27 h 0.133 v 0.13 h 0.134 v 0.13 h 0.133 v 0.27 h 0.133 v 0.13 h 0.134 v 0.14 h 0.133 v 0.13 h 0.133 v 0.27 h 0.134 v 0.13 h 0.133 v 0.13 h 0.133 v 0.27 h 0.134 v 0.13 h 0.133 v 0.14 h 0.133 v 0.13 h 0.134 v 0.27 h 0.133 v 0.13 h 0.133 v 0.13 h 0.134 v 0.27 h 0.133 v 0.13 h 0.133 v 0.14 h 0.134 v 0.13 h 0.133 v 0.27 h 0.133 v 0.13 h 0.134 v 0.13 h 0.133 v 0.27 h 0.133 v 0.13 h 0.134 v 0.14 h 0.133 v 0.26 h 0.133 v 0.14 h 0.134 v 0.13 h 0.133 v 0.13 h 0.133 v 0.27 h 0.134 v 0.13 h 0.133 v 0.14 h 0.133 v 0.26 h 0.134 v 0.14 h 0.133 v 0.13 h 0.133 v 0.13 h 0.134 v 0.27 h 0.133 v 0.13 h 0.133 v 0.14 h 0.134 v 0.26 h 0.133 v 0.14 h 0.133 v 0.13 h 0.134 v 0.13 h 0.133 v 0.27 h 0.133 v 0.13 h 0.134 v 0.14 h 0.133 v 0.26 h 0.133 v 0.14 h 0.134 v 0.13 h 0.133 v 0.13 h 0.133 v 0.27 h 0.134 v 0.13 h 0.133 v 0.14 h 0.133 v 0.26 h 0.134 v 0.14 h 0.133 v 0.13 h 0.133 v 0.27 h 0.134 v 0.13 h 0.133 v 0.13 h 0.133 v 0.14 h 0.134 v 0.26 h 0.133 v 0.14 h 0.133 v 0.13 h 0.134 v 0.27 h 0.133 v 0.13 h 0.133 v 0.13 h 0.134 v 0.14 h 0.133 v 0.26 h 0.133 v 0.14 h 0.134 v 0.13 h 0.133 v 0.27 h 0.133 v 0.13 h 0.134 v 0.13 h 0.133 v 0.14 h 0.133 v 0.26 h 0.134 v 0.14 h 0.133 v 0.13 h 0.133 v 0.27 h 0.134 v 0.13 h 0.133 v 0.13 h 0.133 v 0.14 h 0.134 v 0.26 h 0.133 v 0.14 h 0.133 v 0.13 h 0.134 v 0.27 h 0.133 v 0.13 h 0.133 v 0.13 h 0.134 v 0.27 h 0.133 v 0.13 h 0.133 v 0.14 h 0.134 v 0.13 h 0.133 v 0.27 h 0.133 v 0.13 h 0.134 v 0.13 h 0.133 v 0.27 h 0.133 v 0.13 h 0.134 v 0.14 h 0.133 v 0.13 h 0.133 v 0.27 h 0.134 v 0.13 h 0.133 v 0.13 h 0.133 v 0.27 h 0.134 v 0.13 h 0.133 v 0.14 h 0.133 v 0.13 h 0.134 v 0.27 h 0.133 v 0.13 h 0.133 v 0.13 h 0.134 v 0.27 h 0.133 v 0.13 h 0.133 v 0.14 h 0.134 v 0.13 h 0.133 v 0.27 h 0.133 v 0.13 h 0.134 v 0.13 h 0.133 v 0.27 h 0.133 v 0.13 h 0.134 v 0.14 h 0.133 v 0.26 h 0.133 v 0.14 h 0.134 v 0.13 h 0.133 v 0.13 h 0.133 v 0.27 h 0.134 v 0.13 h 0.133 v 0.14 h 0.133 v 0.26 h 0.134 v 0.14 h 0.133 v 0.13 h 0.133 v 0.13 h 0.134 v 0.27 h 0.133 v 0.13 h 0.133 v 0.14 h 0.134 v 0.26 h 0.133 v 0.14 h 0.133 v 0.13 h 0.134 v 0.13 h 0.133 v 0.27 h 0.133 v 0.13 h 0.134 v 0.14 h 0.133 v 0.26 h 0.133 v 0.14 h 0.134 v 0.13 h 0.133 v 0.27 h 0.133 v 0.13 h 0.134 v 0.13 h 0.133 v 0.14 h 0.133 v 0.26 h 0.134 v 0.14 h 0.133 v 0.13 h 0.133 v 0.27 h 0.134 v 0.13 h 0.133 v 0.13 h 0.133 v 0.14 h 0.134 v 0.26 h 0.133 v 0.14 h 0.133 v 0.13 h 0.134 v 0.27 h 0.133 v 0.13 h 0.133 v 0.13 h 0.134 v 0.14 h 0.133 v 0.26 h 0.133 v 0.14 h 0.134 v 0.13 h 0.133 v 0.27 h 0.133 v 0.13 h 0.134 v 0.13 h 0.133 v 0.14 h 0.133 v 0.26 h 0.134 v 0.14 h 0.133 v 0.13 h 0.133 v 0.27 h 0.134 v 0.13 h 0.133 v 0.13 h 0.133 v 0.27 h 0.134 v 0.13 h 0.133 v 0.14 h 0.133 v 0.13 h 0.134 v 0.27"
       fill="url(#paint5_linear)"
       id="path305"
       style="fill:#32a272;fill-opacity:1" />
    <path
       d="m 1245.855,1066.67 v -0.14 h 0.133 v -0.13 h 0.133 v -0.13 h 0.134 V 1066 h 0.133 v -0.13 h 0.133 v -0.14 h 0.134 v -0.13 h 0.133 v -0.27 h 0.133 v -0.13 h 0.134 v -0.13 h 0.133 v -0.27 h 0.133 v -0.13 h 0.134 v -0.14 h 0.133 v -0.13 h 0.133 v -0.27 h 0.134 V 1064 h 0.133 v -0.13 h 0.133 v -0.27 h 0.134 v -0.13 h 0.133 v -0.14 h 0.133 v -0.26 h 0.134 v -0.14 h 0.133 v -0.13 h 0.133 v -0.13 h 0.134 v -0.27 h 0.133 v -0.13 h 0.133 v -0.14 h 0.134 v -0.26 h 0.133 v -0.14 h 0.133 v -0.13 h 0.134 v -0.13 h 0.133 v -0.27 h 0.133 v -0.13 h 0.134 v -0.14 h 0.133 v -0.26 h 0.133 v -0.14 h 0.134 v -0.13 h 0.133 v -0.13 h 0.133 V 1060 h 0.134 v -0.13 h 0.133 v -0.14 h 0.133 v -0.26 h 0.134 v -0.14 h 0.133 v -0.13 h 0.133 v -0.13 h 0.134 v -0.27 h 0.133 v -0.13 h 0.133 v -0.14 h 0.134 v -0.26 h 0.133 v -0.14 h 0.133 V 1058 h 0.134 v -0.27 h 0.133 v -0.13 h 0.133 v -0.13 h 0.134 v -0.14 h 0.133 v -0.26 h 0.133 v -0.14 h 0.134 v -0.13 h 0.133 v -0.27 h 0.133 v -0.13 h 0.134 v -0.13 h 0.133 v -0.14 h 0.133 v -0.26 h 0.134 v -0.14 h 0.133 v -0.13 h 0.133 v -0.27 h 0.134 v -0.13 h 0.133 v -0.13 h 0.133 v -0.14 h 0.134 v -0.26 h 0.133 v -0.14 h 0.133 v -0.13 h 0.134 v -0.27 h 0.133 V 1054 h 0.133 v -0.13 h 0.134 v -0.14 h 0.133 v -0.26 h 0.133 v -0.14 h 0.134 v -0.13 h 0.133 v -0.27 h 0.133 v -0.13 h 0.134 v -0.13 h 0.133 v -0.27 h 0.133 v -0.13 h 0.134 v -0.14 h 0.133 V 1052 h 0.133 v -0.27 h 0.134 v -0.13 h 0.133 v -0.13 h 0.133 v -0.27 h 0.134 v -0.13 h 0.133 v -0.14 h 0.133 v -0.13 h 0.134 v -0.27 h 0.133 v -0.13 h 0.133 v -0.13 h 0.134 V 1050 h 0.133 v -0.13 h 0.133 v -0.14 h 0.134 v -0.13 h 0.133 v -0.27 h 0.133 v -0.13 h 0.134 v -0.13 h 0.133 v -0.27 h 0.133 v -0.13 h 0.134 v -0.14 h 0.133 v -0.13 h 0.133 v -0.27 h 0.134 V 1048 h 0.133 v -0.13 h 0.133 v -0.27 h 0.134 v -0.13 h 0.133 v -0.14 h 0.133 v -0.26 h 0.134 v -0.14 h 0.133 v -0.13 h 0.133 v -0.13 h 0.134 v -0.27 h 0.133 v -0.13 h 0.133 v -0.14 h 0.134 v -0.26 h 0.133 v -0.14 h 0.133 v -0.13 h 0.134 v -0.13 h 0.133 v -0.27 h 0.133 v -0.13 h 0.134 v -0.14 h 0.133 v -0.26 h 0.133 v -0.14 h 0.134 v -0.13 h 0.133 v -0.13 h 0.133 V 1044 h 0.134 v -0.13 h 0.133 v -0.14 h 0.133 v -0.26 h 0.134 v -0.14 h 0.133 v -0.13 h 0.133 v -0.27 h 0.134 v -0.13 h 0.133 v -0.13 h 0.133 v -0.14 h 0.134 v -0.26 h 0.133 v -0.14 h 0.133 V 1042 h 0.134 v -0.27 h 0.133 v -0.13 h 0.133 v -0.13 h 0.134 v -0.14 h 0.133 v -0.26 h 0.133 v -0.14 h 0.134 v -0.13 h 0.133 v -0.27 h 0.133 v -0.13 h 0.134 v -0.13 h 0.133 v -0.14 h 0.133 v -0.26 h 0.134 v -0.14 h 0.133 v -0.13 h 0.133 v -0.27 h 0.134 v -0.13 h 0.133 v -0.13 h 0.133 v -0.14 h 0.134 v -0.26 h 0.133 v -0.14 h 0.133 v -0.13 h 0.134 v -0.27 h 0.133 V 1038 h 0.133 v -0.13 h 0.134 v -0.27 h 0.133 v -0.13 h 0.133 v -0.14 h 0.134 v -0.13 h 0.133 v -0.27 h 0.133 v -0.13 h 0.134 v -0.13 h 0.133 v -0.27 h 0.133 v -0.13 h 0.134 v -0.14 h 0.133 V 1036 h 0.133 v -0.27 h 0.134 v -0.13 h 0.133 v -0.13 h 0.133 v -0.27 h 0.134 v -0.13 h 0.133 v -0.14 h 0.133 v -0.13 h 0.134 v -0.27 h 0.133 v -0.13 h 0.133 v -0.13 h 0.134 V 1034 h 0.133 v -0.13 h 0.133 v -0.14 h 0.134 v -0.13 h 0.133 v -0.27 h 0.133 v -0.13 h 0.134 v -0.13 h 0.133 v -0.27 h 0.133 v -0.13 h 0.134 v -0.14 h 0.133 v -0.26 h 0.133 v -0.14 h 0.134 V 1032 h 0.133 v -0.13 h 0.133 v -0.27 h 0.134 v -0.13 h 0.133 v -0.14 h 0.133 v -0.26 h 0.134 v -0.14 h 0.133 v -0.13 h 0.133 v -0.13 h 0.134 v -0.27 h 0.133 v -0.13 h 0.133 v -0.14 h 0.134 v -0.26 h 0.133 v -0.14 h 0.133 v -0.13 h 0.134 v -0.13 h 0.133 v -0.27 h 0.133 v -0.13 h 0.134 v -0.14 h 0.133 v -0.26 h 0.133 v -0.14 h 0.134 v -0.13 h 0.133 v -0.13 h 0.133 V 1028 h 0.134 v -0.13 h 0.133 v -0.14 h 0.133 v -0.26 h 0.134 v -0.14 h 0.133 v -0.13 h 0.133 v -0.27 h 0.134 v -0.13 h 0.133 v -0.13 h 0.133 v -0.14 h 0.134 v -0.26 h 0.133 v -0.14 h 0.133 V 1026 h 0.134 v -0.27 h 0.133 v -0.13 h 0.133 v -0.13 h 0.134 v -0.14 h 0.133 v -0.26 h 0.133 v -0.14 h 0.134 v -0.13 h 0.133 v -0.27 h 0.133 v -0.13 h 0.134 v -0.13 h 0.133 v -0.14 h 0.133 v -0.26 h 0.134 v -0.14 h 0.133 v -0.13 h 0.133 v -0.27 h 0.134 v -0.13 h 0.133 v -0.13 h 0.133 v -0.14 h 0.134 v -0.26 h 0.133 v -0.14 h 0.133 v -0.13 h 0.134 v -0.27 h 0.133 V 1022 h 0.133 v -0.13 h 0.134 v -0.27 h 0.133 v -0.13 h 0.133 v -0.14 h 0.134 v -0.13 h 0.133 v -0.27 h 0.133 v -0.13 h 0.134 v -0.13 h 0.133 v -0.27 h 0.133 v -0.13 h 0.134 v -0.14 h 0.133 V 1020 h 0.133 v -0.27 h 0.134 v -0.13 h 0.133 v -0.13 h 0.133 v -0.27 h 0.134 v -0.13 h 0.133 v -0.14 h 0.133 v -0.13 h 0.134 v -0.27 h 0.133 v -0.13 h 0.133 v -0.13 h 0.134 V 1018 h 0.133 v -0.13 h 0.133 v -0.14 h 0.134 v -0.26 h 0.133 v -0.14 h 0.133 v -0.13 h 0.134 v -0.13 h 0.133 v -0.27 h 0.133 v -0.13 h 0.134 v -0.14 h 0.133 v -0.26 h 0.133 v -0.14 h 0.134 V 1016 h 0.133 v -0.13 h 0.133 v -0.27 h 0.134 v -0.13 h 0.133 v -0.14 h 0.133 v -0.26 h 0.134 v -0.14 h 0.133 v -0.13 h 0.133 v -0.13 h 0.134 v -0.27 h 0.133 v -0.13 h 0.133 v -0.14 h 0.134 v -0.26 h 0.133 v -0.14 h 0.133 v -0.13 h 0.134 v -0.13 h 0.133 v -0.27 h 0.133 v -0.13 h 0.134 v -0.14 h 0.133 v -0.26 h 0.133 v -0.14 h 0.134 v -0.13 h 0.133 v -0.27 h 0.133 V 1012 h 0.134 v -0.13 h 0.133 v -0.14 h 0.133 v -0.26 h 0.134 v -0.14 h 0.133 v -0.13 h 0.133 v -0.27 h 0.134 v -0.13 h 0.133 v -0.13 h 0.133 v -0.14 h 0.134 v -0.26 h 0.133 v -0.14 h 0.133 V 1010 h 0.134 v -0.27 h 0.133 v -0.13 h 0.133 v -0.13 h 0.134 v -0.14 h 0.133 v -0.26 h 0.133 v -0.14 h 0.134 v -0.13 h 0.133 v -0.27 h 0.133 v -0.13 h 0.134 v -0.13 h 0.133 v -0.14 h 0.133 v -0.26 h 0.134 v -0.14 h 0.133 v -0.13 h 0.133 v -0.27 h 0.134 v -0.13 h 0.133 v -0.13 h 0.133 v -0.27 h 0.134 v -0.13 h 0.133 v -0.14 h 0.133 v -0.13 h 0.134 v -0.27 h 0.133 V 1006 h 0.133 v -0.13 h 0.134 v -0.27 h 0.133 v -0.13 h 0.133 v -0.14 h 0.134 v -0.13 h 0.133 v -0.27 h 0.133 v -0.13 h 0.134 v -0.13 h 0.133 v -0.27 h 0.133 v -0.13 h 0.134 v -0.14 h 0.133 V 1004 h 0.133 v -0.27 h 0.134 v -0.13 h 0.133 v -0.13 h 0.133 v -0.27 h 0.134 v -0.13 h 0.133 v -0.14 h 0.133 v -0.13 h 0.134 v -0.27 h 0.133 v -0.13 h 0.133 v -0.13 h 0.134 V 1002 h 0.133 v -0.13 h 0.133 v -0.14 h 0.134 v -0.26 h 0.133 v -0.14 h 0.133 v -0.13 h 0.134 v -0.13 h 0.133 v -0.27 h 0.133 v -0.13 h 0.134 v -0.14 h 0.133 v -0.26 h 0.133 v -0.14 h 0.134 v -0.131 h 0.133 v -0.133 h 0.133 v -0.267 h 0.134 v -0.133 h 0.133 v -0.133 h 0.133 v -0.267 h 0.134 v -0.133 h 0.133 v -0.134 h 0.133 v -0.133 h 0.134 v -0.267 h 0.133 v -0.133 h 0.133 v -0.133 h 0.134 v -0.267 h 0.133 v -0.133 h 0.133 v -0.134 h 0.134 v -0.133 h 0.133 v -0.267 h 0.133 v -0.133 h 0.134 v -0.133 h 0.133 v -0.267 h 0.133 v -0.133 h 0.134 v -0.134 h 0.133 v -0.266 h 0.133 v -0.134 h 0.134 v -0.133 h 0.133 v -0.133 h 0.133 v -0.267 h 0.134 v -0.133 h 0.133 v -0.134 h 0.133 v -0.266 h 0.134 v -0.134 h 0.133 v -0.133 h 0.133 v -0.133 h 0.134 v -0.267 h 0.133 v -0.133 h 0.133 v -0.134 h 0.134 v -0.266 h 0.133 v -0.134 h 0.133 v -0.133 h 0.134 v -0.133 h 0.133 v -0.267 h 0.133 v -0.133 h 0.134 v -0.134 h 0.133 v -0.266 h 0.133 v -0.134 h 0.134 v -0.133 h 0.133 v -0.267 h 0.133 v -0.133 h 0.134 v -0.133 h 0.133 v -0.134 h 0.133 v -0.266 h 0.134 v -0.134 h 0.133 v -0.133 h 0.133 v -0.267 h 0.134 v -0.133 h 0.133 v -0.133 h 0.133 v -0.134 h 0.134 v -0.266 h 0.133 v -0.134 h 0.133 v -0.133 h 0.134 v -0.267 h 0.133 v -0.133 h 0.133 v -0.133 h 0.134 v -0.134 h 0.133 v -0.266 h 0.133 v -0.134 h 0.134 v -0.133 h 0.133 v -0.267 h 0.133 v -0.133 h 0.134 v -0.133 h 0.133 v -0.134 h 0.133 v -0.266 h 0.134 v -0.134 h 0.133 v -0.133 h 0.133 v -0.267 h 0.134 v -0.133 h 0.133 v -0.133 h 0.133 v -0.267 h 0.134 v -0.133 h 0.133 v -0.134 h 0.133 v -0.133 h 0.134 v -0.267 h 0.133 v -0.133 h 0.133 v -0.133 h 0.134 v -0.267 h 0.133 v -0.133 h 0.133 v -0.134 h 0.134 v -0.133 h 0.133 v -0.267 h 0.133 v -0.133 h 0.134 v -0.133 h 0.133 v -0.267 h 0.133 v -0.133 h 0.134 v -0.134 h 0.133 v -0.133 h 0.133 v -0.267 h 0.134 v -0.133 h 0.133 v -0.133 h 0.133 v -0.267 h 0.134 v -0.133 h 0.133 v -0.134 h 0.133 v -0.133 h 0.134 v -0.267 h 0.133 v -0.133 h 0.133 v -0.133 h 0.134 v -0.267 h 0.133 v -0.133 h 0.133 v -0.134 h 0.134 v -0.266 h 0.133 v -0.134 h 0.133 v -0.133 h 0.134 v -0.133 h 0.133 v -0.267 h 0.133 v -0.133 h 0.134 v -0.134 h 0.133 v -0.266 h 0.133 v -0.134 h 0.134 v -0.133 h 0.133 v -0.133 h 0.133 v -0.267 h 0.134 v -0.133 h 0.133 v -0.134 h 0.133 v -0.266 h 0.134 v -0.134 h 0.133 v -0.133 h 0.133 v -0.133 h 0.134 v -0.267 h 0.133 v -0.133 h 0.133 v -0.134 h 0.134 v -0.266 h 0.133 v -0.134 h 0.133 v -0.133 h 0.134 v -0.133 h 0.133 v -0.267 h 0.133 v -0.133 h 0.134 v -0.134 h 0.133 v -0.266 h 0.133 v -0.134 h 0.134 v -0.133 h 0.133 v -0.267 h 0.133 v -0.133 h 0.134 v -0.133 h 0.133 v -0.134 h 0.133 v -0.266 h 0.134 v -0.134 h 0.133 v -0.133 h 0.133 v -0.267 h 0.134 v -0.133 h 0.133 v -0.133 h 0.133 v -0.134 h 0.134 v -0.266 h 0.133 v -0.134 h 0.133 v -0.133 h 0.134 v -0.267 h 0.133 v -0.133 h 0.133 v -0.133 h 0.134 v -0.134 h 0.133 v -0.266 h 0.133 v -0.134 h 0.134 v -0.133 h 0.133 v -0.267 h 0.133 v -0.133 h 0.134 v -0.133 h 0.133 v -0.134 h 0.133 v -0.266 h 0.134 v -0.134 h 0.133 v -0.133 h 0.133 v -0.267 h 0.134 v -0.133 h 0.133 v -0.133 h 0.133 v -0.267 h 0.134 v -0.133 h 0.133 v -0.134 h 0.133 v -0.133 h 0.134 v -0.267 h 0.133 v -0.133 h 0.133 v -0.133 h 0.134 v -0.267 h 0.133 v -0.133 h 0.133 v -0.134 h 0.134 v -0.133 h 0.133 v -0.267 h 0.133 v -0.133 h 0.134 v -0.133 h 0.133 v -0.267 h 0.133 v -0.133 h 0.134 v -0.134 h 0.133 v -0.133 h 0.133 v -0.267 h 0.134 v -0.133 h 0.133 v -0.133 h 0.133 v -0.267 h 0.134 v -0.133 h 0.133 v -0.134 h 0.133 v -0.266 h 0.134 v -0.134 h 0.133 v -0.133 h 0.133 v -0.133 h 0.134 v -0.267 h 0.133 v -0.133 h 0.133 v -0.134 h 0.134 v -0.266 h 0.133 v -0.134 h 0.133 v -0.133 h 0.134 v -0.133 h 0.133 v -0.267 h 0.133 v -0.133 h 0.134 v -0.134 h 0.133 v -0.266 h 0.133 v -0.134 h 0.134 v -0.133 h 0.133 v -0.133 h 0.133 v -0.267 h 0.134 v -0.133 h 0.133 v -0.134 h 0.133 v -0.266 h 0.134 v -0.134 h 0.133 v -0.133 h 0.133 v -0.133 h 0.134 v -0.267 h 0.133 v -0.133 h 0.133 v -0.134 h 0.134 v -0.266 h 0.133 v -0.134 h 0.133 v -0.133 h 0.134 v -0.267 h 0.133 v -0.133 h 0.133 v -0.133 h 0.134 v -0.134 h 0.133 v -0.266 h 0.133 v -0.134 h 0.134 v -0.133 h 0.133 v -0.267 h 0.133 v -0.133 h 0.134 v -0.133 h 0.133 v -0.134 h 0.133 v -0.266 h 0.134 v -0.134 h 0.133 v -0.133 h 0.133 v -0.267 h 0.134 v -0.133 h 0.133 v -0.133 h 0.133 v -0.134 h 0.134 v -0.266 h 0.133 v -0.134 h 0.133 v -0.133 h 0.134 v -0.267 h 0.133 v -0.133 h 0.133 v -0.133 h 0.134 v -0.134 h 0.133 v -0.266 h 0.133 v -0.134 h 0.134 v -0.133 h 0.133 v -0.267 h 0.133 v -0.133 h 0.134 v -0.133 h 0.133 v -0.267 h 0.133 v -0.133 h 0.134 v -0.134 h 0.133 v -0.133 h 0.133 v -0.267 h 0.134 v -0.133 h 0.133 v -0.133 h 0.133 v -0.267 h 0.134 v -0.133 h 0.133 v -0.134 h 0.133 v -0.133 h 0.134 v -0.267 h 0.133 v -0.133 h 0.133 v -0.133 h 0.134 v -0.267 h 0.133 v -0.133 h 0.133 v -0.134 h 0.134 v -0.133 h 0.133 v -0.267 h 0.133 v -0.133 h 0.134 v -0.133 h 0.133 v -0.267 h 0.133 v -0.133 h 0.134 v -0.134 h 0.133 v -0.133 h 0.133 v -0.267 h 0.134 v -0.133 h 0.133 v -0.133 h 0.133 v -0.267 h 0.134 v -0.133 h 0.133 v -0.134 h 0.133 v -0.266 h 0.134 v -0.134 h 0.133 v -0.133 h 0.133 v -0.133 h 0.134 v -0.267 h 0.133 v -0.133 h 0.133 v -0.134 h 0.134 v -0.266 h 0.133 v -0.134 h 0.133 v -0.133 h 0.134 v -0.133 h 0.133 v -0.267 h 0.133 v -0.133 h 0.134 v -0.134 h 0.133 v -0.266 h 0.133 v -0.134 h 0.134 v -0.133 h 0.133 v -0.133 h 0.133 v -0.267 h 0.134 v -0.133 h 0.133 v -0.134 h 0.133 v -0.266 h 0.134 v -0.134 h 0.133 v -0.133 h 0.133 v -0.133 h 0.134 v -0.267 h 0.133 v -0.133 h 0.133 v -0.134 h 0.134 v -0.266 h 0.133 v -0.134 h 0.133 v -0.133 h 0.134 v -0.267 h 0.133 v -0.133 h 0.133 v -0.133 h 0.134 v -0.134 h 0.133 v -0.266 h 0.133 v -0.134 h 0.134 v -0.133 h 0.133 v -0.267 h 0.133 v -0.133 h 0.134 v -0.133 h 0.133 v -0.134 h 0.133 v -0.266 h 0.134 v -0.134 h 0.133 v -0.133 h 0.133 v -0.267 h 0.134 v -0.133 h 0.133 v -0.133 h 0.133 v -0.134 h 0.134 v -0.266 h 0.133 v -0.134 h 0.133 v -0.133 h 0.134 v -0.267 h 0.133 v -0.133 h 0.133 v -0.133 h 0.134 v -0.267 h 0.133 v -0.133 h 0.133 v -0.134 h 0.134 v -0.133 h 0.133 v -0.267 h 0.133 v -0.133 h 0.134 v -0.133 h 0.133 v -0.267 h 0.133 v -0.133 h 0.134 v -0.134 h 0.133 v -0.133 h 0.133 v -0.267 h 0.134 v -0.133 h 0.133 v -0.133 h 0.133 v -0.267 h 0.134 v -0.133 h 0.133 v -0.134 h 0.133 v -0.133 h 0.134 v -0.267 h 0.133 v -0.133 h 0.133 v -0.133 h 0.134 v -0.267 h 0.133 v -0.133 h 0.133 v -0.134 h 0.134 v -0.133 h 0.133 v -0.267 h 0.133 v -0.133 h 0.134 v -0.133 h 0.133 v -0.267 h 0.133 v -0.133 h 0.134 v -0.134 h 0.133 v -0.266 h 0.133 v -0.134 h 0.134 v -0.133 h 0.133 v -0.133 h 0.133 v -0.267 h 0.134 v -0.133 h 0.133 v -0.134 h 0.133 v -0.266 h 0.134 v -0.134 h 0.133 v -0.133 h 0.133 v -0.133 h 0.134 v -0.267 h 0.133 v -0.133 h 0.133 v -0.134 h 0.134 v -0.266 h 0.133 v -0.134 h 0.133 v -0.133 h 0.134 v -0.133 h 0.133 v -0.267 h 0.133 v -0.133 h 0.134 v -0.134 h 0.133 v -0.266 h 0.133 v -0.134 h 0.134 v -0.133 h 0.133 v -0.133 h 0.133 v -0.267 h 0.134 v -0.133 h 0.133 v -0.134 h 0.133 v -0.266 h 0.134 v -0.134 h 0.133 v -0.133 h 0.133 v -0.267 h 0.134 v -0.133 h 0.133 v -0.133 h 0.133 v -0.134 h 0.134 v -0.266 h 0.133 v -0.134 h 0.133 v -0.133 h 0.134 v -0.267 h 0.133 v -0.133 h 0.133 v -0.133 h 0.134 v -0.134 h 0.133 v -0.266 h 0.133 v -0.134 h 0.134 v -0.133 h 0.133 v -0.267 h 0.133 v -0.133 h 0.134 v -0.133 h 0.133 v -0.134 h 0.133 v -0.266 h 0.134 v -0.134 h 0.133 v -0.133 h 0.133 v -0.267 h 0.134 v -0.133 h 0.133 v -0.133 h 0.133 v -0.134 h 0.134 v -0.266 h 0.133 v -0.134 h 0.133 v -0.133 h 0.134 v -0.267 h 0.133 v -0.133 h 0.133 v -0.133 h 0.134 v -0.267 h 0.133 v -0.133 h 0.133 v -0.134 h 0.134 v -0.133 h 0.133 v -0.267 h 0.133 v -0.133 h 0.134 v -0.133 h 0.133 v -0.267 h 0.133 v -0.133 h 0.134 v -0.134 h 0.133 v -0.133 h 0.133 v -0.267 h 0.134 v -0.133 h 0.133 v -0.133 h 0.133 v -0.267 h 0.134 v -0.133 h 0.133 v -0.134 h 0.133 v -0.133 h 0.134 v -0.267 h 0.133 v -0.133 h 0.133 v -0.133 h 0.134 v -0.267 h 0.133 v -0.133 h 0.133 v -0.134 h 0.134 v -0.133 h 0.133 v -0.267 h 0.133 v -0.133 h 0.134 v -0.133 h 0.133 v -0.267 h 0.133 v -0.133 h 0.134 v -0.134 h 0.133 v -0.266 h 0.133 v -0.134 h 0.134 v -0.133 h 0.133 v -0.133 h 0.133 v -0.267 h 0.134 v -0.133 h 0.133 v -0.134 h 0.133 v -0.266 h 0.134 v -0.134 h 0.133 v -0.133 h 0.133 v -0.133 h 0.134 v -0.267 h 0.133 v -0.133 h 0.133 v -0.134 h 0.134 v -0.266 h 0.133 v -0.134 h 0.133 v -0.133 h 0.134 v -0.133 h 0.133 v -0.267 h 0.133 v -0.133 h 0.134 v -0.134 h 0.133 v -0.266 h 0.133 v -0.134 h 0.134 v -0.133 h 0.133 v -0.267 h 0.133 v -0.133 h 0.134 v -0.133 h 0.133 v -0.134 h 0.133 v -0.266 h 0.134 v -0.134 h 0.133 v -0.133 h 0.133 v -0.267 h 0.134 v -0.133 h 0.133 v -0.133 h 0.133 v -0.134 h 0.134 v -0.266 h 0.133 v -0.134 h 0.133 v -0.133 h 0.134 v -0.267 h 0.133 v -0.133 h 0.133 v -0.267 h -238.666 v 0.267 h 0.133 v 0.133 h 0.133 v 0.267 h 0.134 v 0.133 h 0.133 v 0.134 h 0.133 v 0.133 h 0.134 v 0.267 h 0.133 v 0.133 h 0.133 v 0.133 h 0.134 v 0.267 h 0.133 v 0.133 h 0.133 v 0.134 h 0.134 v 0.133 h 0.133 v 0.267 h 0.133 v 0.133 h 0.134 v 0.133 h 0.133 v 0.267 h 0.133 v 0.133 h 0.134 v 0.134 h 0.133 v 0.266 h 0.133 v 0.134 h 0.134 v 0.133 h 0.133 v 0.133 h 0.133 v 0.267 h 0.134 v 0.133 h 0.133 v 0.134 h 0.133 v 0.266 h 0.134 v 0.134 h 0.133 v 0.133 h 0.133 v 0.133 h 0.134 v 0.267 h 0.133 v 0.133 h 0.133 v 0.134 h 0.134 v 0.266 h 0.133 v 0.134 h 0.133 v 0.133 h 0.134 v 0.133 h 0.133 v 0.267 h 0.133 v 0.133 h 0.134 v 0.134 h 0.133 v 0.266 h 0.133 v 0.134 h 0.134 v 0.133 h 0.133 v 0.133 h 0.133 v 0.267 h 0.134 v 0.133 h 0.133 v 0.134 h 0.133 v 0.266 h 0.134 v 0.134 h 0.133 v 0.133 h 0.133 v 0.267 h 0.134 v 0.133 h 0.133 v 0.133 h 0.133 v 0.134 h 0.134 v 0.266 h 0.133 v 0.134 h 0.133 v 0.133 h 0.134 v 0.267 h 0.133 v 0.133 h 0.133 v 0.133 h 0.134 v 0.134 h 0.133 v 0.266 h 0.133 v 0.134 h 0.134 v 0.133 h 0.133 v 0.267 h 0.133 v 0.133 h 0.134 v 0.133 h 0.133 v 0.134 h 0.133 v 0.266 h 0.134 v 0.134 h 0.133 v 0.133 h 0.133 v 0.267 h 0.134 v 0.133 h 0.133 v 0.133 h 0.133 v 0.267 h 0.134 v 0.133 h 0.133 v 0.134 h 0.133 v 0.133 h 0.134 v 0.267 h 0.133 v 0.133 h 0.133 v 0.133 h 0.134 v 0.267 h 0.133 v 0.133 h 0.133 v 0.134 h 0.134 v 0.133 h 0.133 v 0.267 h 0.133 v 0.133 h 0.134 v 0.133 h 0.133 v 0.267 h 0.133 v 0.133 h 0.134 v 0.134 h 0.133 v 0.133 h 0.133 v 0.267 h 0.134 v 0.133 h 0.133 v 0.133 h 0.133 v 0.267 h 0.134 v 0.133 h 0.133 v 0.134 h 0.133 v 0.133 h 0.134 v 0.267 h 0.133 v 0.133 h 0.133 v 0.133 h 0.134 v 0.267 h 0.133 v 0.133 h 0.133 v 0.134 h 0.134 v 0.266 h 0.133 v 0.134 h 0.133 v 0.133 h 0.134 v 0.133 h 0.133 v 0.267 h 0.133 v 0.133 h 0.134 v 0.134 h 0.133 v 0.266 h 0.133 v 0.134 h 0.134 v 0.133 h 0.133 v 0.133 h 0.133 v 0.267 h 0.134 v 0.133 h 0.133 v 0.134 h 0.133 v 0.266 h 0.134 v 0.134 h 0.133 v 0.133 h 0.133 v 0.133 h 0.134 v 0.267 h 0.133 v 0.133 h 0.133 v 0.134 h 0.134 v 0.266 h 0.133 v 0.134 h 0.133 v 0.133 h 0.134 v 0.133 h 0.133 v 0.267 h 0.133 v 0.133 h 0.134 v 0.134 h 0.133 v 0.266 h 0.133 v 0.134 h 0.134 v 0.133 h 0.133 v 0.267 h 0.133 v 0.133 h 0.134 v 0.133 h 0.133 v 0.134 h 0.133 v 0.266 h 0.134 v 0.134 h 0.133 v 0.133 h 0.133 v 0.267 h 0.134 v 0.133 h 0.133 v 0.133 h 0.133 v 0.134 h 0.134 v 0.266 h 0.133 v 0.134 h 0.133 v 0.133 h 0.134 v 0.267 h 0.133 v 0.133 h 0.133 v 0.133 h 0.134 v 0.134 h 0.133 v 0.266 h 0.133 v 0.134 h 0.134 v 0.133 h 0.133 v 0.267 h 0.133 v 0.133 h 0.134 v 0.133 h 0.133 v 0.134 h 0.133 v 0.266 h 0.134 v 0.134 h 0.133 v 0.133 h 0.133 v 0.267 h 0.134 v 0.133 h 0.133 v 0.133 h 0.133 v 0.267 h 0.134 v 0.133 h 0.133 v 0.134 h 0.133 v 0.133 h 0.134 v 0.267 h 0.133 v 0.133 h 0.133 v 0.133 h 0.134 v 0.267 h 0.133 v 0.133 h 0.133 v 0.134 h 0.134 v 0.133 h 0.133 v 0.267 h 0.133 v 0.133 h 0.134 v 0.133 h 0.133 v 0.267 h 0.133 v 0.133 h 0.134 v 0.134 h 0.133 v 0.133 h 0.133 v 0.267 h 0.134 v 0.133 h 0.133 v 0.133 h 0.133 v 0.267 h 0.134 v 0.133 h 0.133 v 0.134 h 0.133 v 0.133 h 0.134 v 0.267 h 0.133 v 0.133 h 0.133 v 0.133 h 0.134 v 0.267 h 0.133 v 0.133 h 0.133 v 0.134 h 0.134 v 0.266 h 0.133 v 0.134 h 0.133 v 0.133 h 0.134 v 0.133 h 0.133 v 0.267 h 0.133 v 0.133 h 0.134 v 0.134 h 0.133 v 0.266 h 0.133 v 0.134 h 0.134 v 0.133 h 0.133 v 0.133 h 0.133 v 0.267 h 0.134 v 0.133 h 0.133 v 0.134 h 0.133 v 0.266 h 0.134 v 0.134 h 0.133 v 0.133 h 0.133 v 0.133 h 0.134 v 0.267 h 0.133 v 0.133 h 0.133 v 0.134 h 0.134 v 0.266 h 0.133 v 0.134 h 0.133 v 0.133 h 0.134 v 0.267 h 0.133 v 0.133 h 0.133 v 0.133 h 0.134 v 0.134 h 0.133 v 0.266 h 0.133 v 0.134 h 0.134 v 0.133 h 0.133 v 0.267 h 0.133 v 0.133 h 0.134 v 0.133 h 0.133 v 0.134 h 0.133 v 0.266 h 0.134 v 0.134 h 0.133 v 0.133 h 0.133 v 0.267 h 0.134 v 0.133 h 0.133 v 0.133 h 0.133 v 0.134 h 0.134 v 0.266 h 0.133 v 0.134 h 0.133 v 0.133 h 0.134 v 0.267 h 0.133 v 0.133 h 0.133 v 0.133 h 0.134 v 0.134 h 0.133 v 0.266 h 0.133 v 0.134 h 0.134 v 0.133 h 0.133 v 0.267 h 0.133 v 0.133 h 0.134 v 0.133 h 0.133 v 0.267 h 0.133 v 0.133 h 0.134 v 0.134 h 0.133 v 0.133 h 0.133 v 0.267 h 0.134 v 0.133 h 0.133 v 0.133 h 0.133 v 0.267 h 0.134 v 0.133 h 0.133 v 0.134 h 0.133 v 0.133 h 0.134 v 0.267 h 0.133 v 0.133 h 0.133 v 0.133 h 0.134 v 0.267 h 0.133 v 0.133 h 0.133 v 0.134 h 0.134 v 0.133 h 0.133 v 0.267 h 0.133 v 0.133 h 0.134 v 0.133 h 0.133 v 0.267 h 0.133 v 0.133 h 0.134 v 0.134 h 0.133 v 0.133 h 0.133 v 0.267 h 0.134 v 0.133 h 0.133 v 0.133 h 0.133 v 0.267 h 0.134 v 0.133 h 0.133 v 0.134 h 0.133 v 0.266 h 0.134 v 0.134 h 0.133 v 0.133 h 0.133 v 0.133 h 0.134 v 0.267 h 0.133 v 0.133 h 0.133 v 0.134 h 0.134 v 0.266 h 0.133 v 0.134 h 0.133 v 0.133 h 0.134 v 0.133 h 0.133 v 0.267 h 0.133 v 0.133 h 0.134 v 0.134 h 0.133 v 0.266 h 0.133 v 0.134 h 0.134 v 0.133 h 0.133 v 0.133 h 0.133 v 0.267 h 0.134 v 0.133 h 0.133 v 0.134 h 0.133 v 0.266 h 0.134 v 0.134 h 0.133 v 0.133 h 0.133 v 0.133 h 0.134 v 0.267 h 0.133 v 0.133 h 0.133 v 0.134 h 0.134 v 0.266 h 0.133 v 0.134 h 0.133 v 0.133 h 0.134 v 0.267 h 0.133 v 0.133 h 0.133 v 0.133 h 0.134 v 0.134 h 0.133 v 0.266 h 0.133 v 0.134 h 0.134 v 0.133 h 0.133 v 0.267 h 0.133 v 0.133 h 0.134 v 0.133 h 0.133 v 0.134 h 0.133 v 0.266 h 0.134 v 0.134 h 0.133 v 0.133 h 0.133 v 0.267 h 0.134 v 0.133 h 0.133 v 0.133 h 0.133 v 0.134 h 0.134 v 0.266 h 0.133 v 0.134 h 0.133 v 0.133 h 0.134 v 0.267 h 0.133 v 0.133 h 0.133 v 0.133 h 0.134 v 0.134 h 0.133 v 0.266 h 0.133 v 0.134 h 0.134 v 0.133 h 0.133 v 0.267 h 0.133 v 0.133 h 0.134 v 0.133 h 0.133 v 0.267 h 0.133 v 0.133 h 0.134 v 0.134 h 0.133 v 0.133 h 0.133 v 0.267 h 0.134 v 0.133 h 0.133 v 0.133 h 0.133 v 0.267 h 0.134 v 0.133 h 0.133 v 0.134 h 0.133 v 0.133 h 0.134 v 0.267 h 0.133 v 0.133 h 0.133 v 0.133 h 0.134 v 0.267 h 0.133 v 0.133 h 0.133 v 0.134 h 0.134 v 0.133 h 0.133 v 0.267 h 0.133 v 0.133 h 0.134 v 0.133 h 0.133 v 0.267 h 0.133 v 0.133 h 0.134 v 0.134 h 0.133 v 0.266 h 0.133 v 0.134 h 0.134 v 0.133 h 0.133 v 0.133 h 0.133 v 0.267 h 0.134 v 0.133 h 0.133 v 0.134 h 0.133 v 0.266 h 0.134 v 0.134 h 0.133 v 0.133 h 0.133 v 0.133 h 0.134 v 0.267 h 0.133 v 0.133 h 0.133 v 0.134 h 0.134 v 0.266 h 0.133 v 0.134 h 0.133 v 0.133 h 0.134 v 0.133 h 0.133 v 0.267 h 0.133 v 0.133 h 0.134 v 0.134 h 0.133 v 0.266 h 0.133 v 0.134 h 0.134 v 0.133 h 0.133 v 0.133 h 0.133 v 0.267 h 0.134 v 0.133 h 0.133 v 0.134 h 0.133 v 0.266 h 0.134 v 0.134 h 0.133 v 0.133 h 0.133 v 0.267 h 0.134 v 0.133 h 0.133 v 0.133 h 0.133 v 0.134 h 0.134 v 0.266 h 0.133 v 0.134 h 0.133 v 0.133 h 0.134 v 0.267 h 0.133 v 0.133 h 0.133 v 0.133 h 0.134 v 0.134 h 0.133 v 0.266 h 0.133 v 0.134 h 0.134 v 0.133 h 0.133 v 0.267 h 0.133 v 0.133 h 0.134 v 0.133 h 0.133 v 0.134 h 0.133 v 0.266 h 0.134 v 0.134 h 0.133 v 0.133 h 0.133 v 0.267 h 0.134 v 0.133 h 0.133 v 0.133 h 0.133 v 0.134 h 0.134 v 0.266 h 0.133 v 0.134 h 0.133 v 0.133 h 0.134 v 0.267 h 0.133 v 0.133 h 0.133 v 0.133 h 0.134 v 0.267 h 0.133 v 0.133 h 0.133 v 0.134 h 0.134 v 0.133 h 0.133 v 0.267 h 0.133 v 0.133 h 0.134 v 0.133 h 0.133 v 0.267 h 0.133 v 0.133 h 0.134 v 0.134 h 0.133 v 0.133 h 0.133 v 0.267 h 0.134 v 0.133 h 0.133 v 0.133 h 0.133 v 0.267 h 0.134 v 0.133 h 0.133 v 0.134 h 0.133 v 0.133 h 0.134 v 0.267 h 0.133 v 0.133 h 0.133 v 0.133 h 0.134 v 0.267 h 0.133 v 0.133 h 0.133 v 0.134 h 0.134 v 0.133 h 0.133 v 0.267 h 0.133 v 0.133 h 0.134 v 0.133 h 0.133 v 0.267 h 0.133 v 0.133 h 0.134 v 0.134 h 0.133 v 0.266 h 0.133 v 0.134 h 0.134 v 0.133 h 0.133 v 0.133 h 0.133 v 0.267 h 0.134 v 0.133 h 0.133 v 0.134 h 0.133 v 0.266 h 0.134 v 0.134 h 0.133 v 0.133 h 0.133 v 0.133 h 0.134 v 0.267 h 0.133 v 0.133 h 0.133 v 0.134 h 0.134 v 0.266 h 0.133 v 0.134 h 0.133 v 0.133 h 0.134 v 0.133 h 0.133 v 0.267 h 0.133 v 0.133 h 0.134 v 0.134 h 0.133 v 0.266 h 0.133 v 0.134 h 0.134 v 0.133 h 0.133 v 0.133 h 0.133 v 0.267 h 0.134 v 0.133 h 0.133 v 0.134 h 0.133 v 0.266 h 0.134 v 0.134 h 0.133 v 0.133 h 0.133 v 0.267 h 0.134 v 0.133 h 0.133 v 0.133 h 0.133 v 0.134 h 0.134 v 0.266 h 0.133 v 0.134 h 0.133 v 0.133 h 0.134 v 0.267 h 0.133 v 0.133 h 0.133 v 0.133 h 0.134 v 0.134 h 0.133 v 0.266 h 0.133 v 0.131 h 0.134 v 0.14 h 0.133 v 0.26 h 0.133 v 0.14 h 0.134 v 0.13 h 0.133 v 0.13 h 0.133 v 0.27 h 0.134 v 0.13 h 0.133 v 0.14 h 0.133 v 0.26 h 0.134 v 0.14 h 0.133 v 0.13 h 0.133 v 0.27 h 0.134 v 0.13 h 0.133 v 0.13 h 0.133 v 0.14 h 0.134 v 0.26 h 0.133 v 0.14 h 0.133 v 0.13 h 0.134 v 0.27 h 0.133 v 0.13 h 0.133 v 0.13 h 0.134 v 0.14 h 0.133 v 0.26 h 0.133 v 0.14 h 0.134 v 0.13 h 0.133 v 0.27 h 0.133 v 0.13 h 0.134 v 0.13 h 0.133 v 0.14 h 0.133 v 0.26 h 0.134 v 0.14 h 0.133 v 0.13 h 0.133 v 0.27 h 0.134 v 0.13 h 0.133 v 0.13 h 0.133 v 0.14 h 0.134 v 0.26 h 0.133 v 0.14 h 0.133 v 0.13 h 0.134 v 0.27 h 0.133 v 0.13 h 0.133 v 0.13 h 0.134 v 0.27 h 0.133 v 0.13 h 0.133 v 0.14 h 0.134 v 0.13 h 0.133 v 0.27 h 0.133 v 0.13 h 0.134 v 0.13 h 0.133 v 0.27 h 0.133 v 0.13 h 0.134 v 0.14 h 0.133 v 0.13 h 0.133 v 0.27 h 0.134 v 0.13 h 0.133 v 0.13 h 0.133 v 0.27 h 0.134 v 0.13 h 0.133 v 0.14 h 0.133 v 0.13 h 0.134 v 0.27 h 0.133 v 0.13 h 0.133 v 0.13 h 0.134 v 0.27 h 0.133 v 0.13 h 0.133 v 0.14 h 0.134 v 0.13 h 0.133 v 0.27 h 0.133 v 0.13 h 0.134 v 0.13 h 0.133 v 0.27 h 0.133 v 0.13 h 0.134 v 0.14 h 0.133 v 0.26 h 0.133 v 0.14 h 0.134 v 0.13 h 0.133 v 0.13 h 0.133 v 0.27 h 0.134 v 0.13 h 0.133 v 0.14 h 0.133 v 0.26 h 0.134 v 0.14 h 0.133 v 0.13 h 0.133 v 0.13 h 0.134 v 0.27 h 0.133 v 0.13 h 0.133 v 0.14 h 0.134 v 0.26 h 0.133 v 0.14 h 0.133 v 0.13 h 0.134 v 0.13 h 0.133 v 0.27 h 0.133 v 0.13 h 0.134 v 0.14 h 0.133 v 0.26 h 0.133 v 0.14 h 0.134 v 0.13 h 0.133 v 0.13 h 0.133 v 0.27 h 0.134 v 0.13 h 0.133 v 0.14 h 0.133 v 0.26 h 0.134 v 0.14 h 0.133 v 0.13 h 0.133 v 0.27 h 0.134 v 0.13 h 0.133 v 0.13 h 0.133 v 0.14 h 0.134 v 0.26 h 0.133 v 0.14 h 0.133 v 0.13 h 0.134 v 0.27 h 0.133 v 0.13 h 0.133 v 0.13 h 0.134 v 0.14 h 0.133 v 0.26 h 0.133 v 0.14 h 0.134 v 0.13 h 0.133 v 0.27 h 0.133 v 0.13 h 0.134 v 0.13 h 0.133 v 0.14 h 0.133 v 0.26 h 0.134 v 0.14 h 0.133 v 0.13 h 0.133 v 0.27 h 0.134 v 0.13 h 0.133 v 0.13 h 0.133 v 0.14 h 0.134 v 0.26 h 0.133 v 0.14 h 0.133 v 0.13 h 0.134 v 0.27 h 0.133 v 0.13 h 0.133 v 0.13 h 0.134 v 0.27 h 0.133 v 0.13 h 0.133 v 0.14 h 0.134 v 0.13 h 0.133 v 0.27 h 0.133 v 0.13 h 0.134 v 0.13 h 0.133 v 0.27 h 0.133 v 0.13 h 0.134 v 0.14 h 0.133 v 0.13 h 0.133 v 0.27 h 0.134 v 0.13 h 0.133 v 0.13 h 0.133 v 0.27 h 0.134 v 0.13 h 0.133 v 0.14 h 0.133 v 0.13 h 0.134 v 0.27 h 0.133 v 0.13 h 0.133 v 0.13 h 0.134 v 0.27 h 0.133 v 0.13 h 0.133 v 0.14 h 0.134 v 0.26 h 0.133 v 0.14 h 0.133 v 0.13 h 0.134 v 0.13 h 0.133 v 0.27 h 0.133 v 0.13 h 0.134 v 0.14 h 0.133 v 0.26 h 0.133 v 0.14 h 0.134 v 0.13 h 0.133 v 0.13 h 0.133 v 0.27 h 0.134 v 0.13 h 0.133 v 0.14 h 0.133 v 0.26 h 0.134 v 0.14 h 0.133 v 0.13 h 0.133 v 0.13 h 0.134 v 0.27 h 0.133 v 0.13 h 0.133 v 0.14 h 0.134 v 0.26 h 0.133 v 0.14 h 0.133 v 0.13 h 0.134 v 0.13 h 0.133 v 0.27 h 0.133 v 0.13 h 0.134 v 0.14 h 0.133 v 0.26 h 0.133 v 0.14 h 0.134 v 0.13 h 0.133 v 0.27 h 0.133 v 0.13 h 0.134 v 0.13 h 0.133 v 0.14 h 0.133 v 0.26 h 0.134 v 0.14 h 0.133 v 0.13 h 0.133 v 0.27 h 0.134 v 0.13 h 0.133 v 0.13 h 0.133 v 0.14 h 0.134 v 0.26 h 0.133 v 0.14 h 0.133 v 0.13 h 0.134 v 0.27 h 0.133 v 0.13 h 0.133 v 0.13 h 0.134 v 0.14 h 0.133 v 0.26 h 0.133 v 0.14 h 0.134 v 0.13 h 0.133 v 0.27 h 0.133 v 0.13 h 0.134 v 0.13 h 0.133 v 0.14 h 0.133 v 0.26 h 0.134 v 0.14 h 0.133 v 0.13 h 0.133 v 0.27 h 0.134 v 0.13 h 0.133 v 0.13 h 0.133 v 0.27 h 0.134 v 0.13 h 0.133 v 0.14 h 0.133 v 0.13 h 0.134 v 0.27 h 0.133 v 0.13 h 0.133 v 0.13 h 0.134 v 0.27 h 0.133 v 0.13 h 0.133 v 0.14 h 0.134 v 0.13 h 0.133 v 0.27 h 0.133 v 0.13 h 0.134 v 0.13 h 0.133 v 0.27 h 0.133 v 0.13 h 0.134 v 0.14 h 0.133 v 0.13 h 0.133 v 0.27 h 0.134 v 0.13 h 0.133 v 0.13 h 0.133 v 0.27 h 0.134 v 0.13 h 0.133 v 0.14 h 0.133 v 0.13 h 0.134 v 0.27 h 0.133 v 0.13 h 0.133 v 0.13 h 0.134 v 0.27 h 0.133 v 0.13 h 0.133 v 0.14 h 0.134 v 0.26 h 0.133 v 0.14 h 0.133 v 0.13 h 0.134 v 0.13 h 0.133 v 0.27 h 0.133 v 0.13 h 0.134 v 0.14 h 0.133 v 0.26 h 0.133 v 0.14 h 0.134 v 0.13 h 0.133 v 0.13 h 0.133 v 0.27 h 0.134 v 0.13 h 0.133 v 0.14 h 0.133 v 0.26 h 0.134 v 0.14 h 0.133 v 0.13 h 0.133 v 0.13 h 0.134 v 0.27 h 0.133 v 0.13 h 0.133 v 0.14 h 0.134 v 0.26 h 0.133 v 0.14 h 0.133 v 0.13 h 0.134 v 0.13 h 0.133 v 0.27 h 0.133 v 0.13 h 0.134 v 0.14 h 0.133 v 0.26 h 0.133 v 0.14 h 0.134 v 0.13 h 0.133 v 0.27 h 0.133 v 0.13 h 0.134 v 0.13 h 0.133 v 0.14 h 0.133 v 0.26 h 0.134 v 0.14 h 0.133 v 0.13 h 0.133 v 0.27 h 0.134 v 0.13 h 0.133 v 0.13 h 0.133 v 0.14 h 0.134 v 0.26 h 0.133 v 0.14 h 0.133 v 0.13 h 0.134 v 0.27 h 0.133 v 0.13 h 0.133 v 0.13 h 0.134 v 0.14 h 0.133 v 0.26 h 0.133 v 0.14 h 0.134 v 0.13 h 0.133 v 0.27 h 0.133 v 0.13 h 0.134 v 0.13 h 0.133 v 0.27 h 0.133 v 0.13 h 0.134 v 0.14 h 0.133 v 0.13 h 0.133 v 0.27 h 0.134 v 0.13 h 0.133 v 0.13 h 0.133 v 0.27 h 0.134 v 0.13 h 0.133 v 0.14 h 0.133 v 0.13 h 0.134 v 0.27 h 0.133 v 0.13 h 0.133 v 0.13 h 0.134 v 0.27 h 0.133 v 0.13 h 0.133 v 0.14 h 0.134 v 0.13 h 0.133 v 0.27 h 0.133 v 0.13 h 0.134 v 0.13 h 0.133 v 0.27 h 0.133 v 0.13 h 0.134 v 0.14 h 0.133 v 0.13 h 0.133 v 0.27 h 0.134 v 0.13 h 0.133 v 0.13 h 0.133 v 0.27 h 0.134 v 0.13 h 0.133 v 0.14 h 0.133 v 0.26 h 0.134 v 0.14 h 0.133 v 0.13 h 0.133 v 0.13 h 0.134 v 0.27 h 0.133 v 0.13 h 0.133 v 0.14 h 0.134 v 0.26 h 0.133 v 0.14 h 0.133 v 0.13 h 0.134 v 0.13 h 0.133 v 0.27 h 0.133 v 0.13 h 0.134 v 0.14 h 0.133 v 0.26 h 0.133 v 0.14 h 0.134 v 0.13 h 0.133 v 0.13 h 0.133 v 0.27 h 0.134 v 0.13 h 0.133 v 0.14 h 0.133 v 0.26 h 0.134 v 0.14 h 0.133 v 0.13 h 0.133 v 0.13 h 0.134 v 0.27 h 0.133 v 0.13 h 0.133 v 0.14 h 0.134 v 0.26 h 0.133 v 0.14 h 0.133 v 0.13 h 0.134 v 0.27 h 0.133 v 0.13 h 0.133 v 0.13 h 0.134 v 0.14 h 0.133 v 0.26 h 0.133 v 0.14 h 0.134 v 0.13 h 0.133 v 0.27 h 0.133 v 0.13 h 0.134 v 0.13 h 0.133 v 0.14 h 0.133 v 0.26 h 0.134 v 0.14 h 0.133 v 0.13 h 0.133 v 0.27 h 0.134 v 0.13 h 0.133 v 0.13 h 0.133 v 0.14"
       fill="url(#paint6_linear)"
       id="path307"
       style="fill:#32a272;fill-opacity:1" />
    <path
       d="m 1364.911,297.136 -119.306,-153.887 0.018,-0.025 -0.014,-0.019 h 238.521 l 0.015,0.019 -119.234,153.912"
       fill="url(#paint7_linear)"
       id="path309"
       style="fill:#32a272;fill-opacity:1" />
    <path
       d="M 1602.788,603.709 V 451.364 H 1484.78 l 0.014,0.02 -0.018,0.024 z"
       fill="url(#paint8_linear)"
       id="path311"
       style="fill:url(#paint8_linear)" />
    <path
       d="M 1245.6,758.935 1126.355,605.043 Z"
       fill="url(#paint9_linear)"
       id="path313"
       style="fill:url(#paint9_linear)" />
    <path
       d="M 1007.111,758.935 H 1245.6 l -119.245,-153.892 -97.327,125.606 -21.917,28.286"
       fill="url(#paint10_linear)"
       id="path315"
       style="fill:#32a272;fill-opacity:1" />
    <path
       d="m 1245.6,758.935 h 0.043 v -0.002 l -119.264,-153.917 -0.021,0.027 119.245,153.892"
       fill="url(#paint11_linear)"
       id="path317"
       style="fill:url(#paint11_linear)" />
    <path
       d="m 1040.364,801.932 -33.304,-42.98 h 238.532 l -119.266,153.917 z"
       fill="url(#paint12_linear)"
       id="path319"
       style="fill:#5be6aa;fill-opacity:1" />
    <path
       d="m 1208.912,434.07 71.592,92.395 0.01,0.008 h -143.201 l 71.599,-92.403"
       fill="#41AB8A"
       id="path321"
       style="fill:#4aca93;fill-opacity:1" />
    <path
       d="m 1602.788,912.801 -119.232,153.869 h 119.232 z"
       fill="url(#paint13_linear)"
       id="path323"
       style="fill:url(#paint13_linear)" />
    <use
       id="use1303"
       inkscape:spray-origin="#path259"
       xlink:href="#path259"
       x="0"
       y="0"
       width="100%"
       height="100%"
       transform="translate(614.1659,-204.4341)" />
  </g>
  <defs
     id="defs472">
    <linearGradient
       id="paint0_linear"
       x1="200.161"
       y1="766.159"
       x2="447.207"
       y2="943.186"
       gradientUnits="userSpaceOnUse">
      <stop
         stop-color="#838B91"
         id="stop363" />
      <stop
         offset="0.373057"
         stop-color="#838B91"
         id="stop365" />
      <stop
         offset="1"
         stop-color="#F9F5F2"
         id="stop367" />
    </linearGradient>
    <linearGradient
       id="paint1_linear"
       x1="617.88"
       y1="915.414"
       x2="758.246"
       y2="775.047"
       gradientUnits="userSpaceOnUse"
       gradientTransform="matrix(-1,0,0,1,1602.788,0)">
      <stop
         stop-color="#0D2333"
         id="stop370" />
      <stop
         offset="0.0315646"
         stop-color="#0D2333"
         id="stop372" />
      <stop
         offset="0.672144"
         stop-color="#41AB8A"
         id="stop374" />
      <stop
         offset="0.707901"
         stop-color="#41AB8A"
         id="stop376" />
      <stop
         offset="1"
         stop-color="#41AB8A"
         id="stop378" />
    </linearGradient>
    <linearGradient
       id="paint2_linear"
       x1="1.69513"
       y1="739.261"
       x2="212.968"
       y2="527.988"
       gradientUnits="userSpaceOnUse">
      <stop
         stop-color="#0D2333"
         id="stop381" />
      <stop
         offset="0.172851"
         stop-color="#0D2333"
         id="stop383" />
      <stop
         offset="0.382379"
         stop-color="#41AB8A"
         id="stop385" />
      <stop
         offset="0.693905"
         stop-color="#41AB8A"
         id="stop387" />
      <stop
         offset="1"
         stop-color="#41AB8A"
         id="stop389" />
    </linearGradient>
    <linearGradient
       id="paint3_linear"
       x1="-68.9755"
       y1="92.232"
       x2="67.6325"
       y2="228.84"
       gradientUnits="userSpaceOnUse">
      <stop
         stop-color="#F9F5F2"
         id="stop392" />
      <stop
         offset="1"
         stop-color="#B6B3B1"
         id="stop394" />
    </linearGradient>
    <linearGradient
       id="paint4_linear"
       x1="-239.231"
       y1="681.974"
       x2="118.596"
       y2="681.974"
       gradientUnits="userSpaceOnUse">
      <stop
         stop-color="#0D2333"
         id="stop397" />
      <stop
         offset="0.200913"
         stop-color="#0D2333"
         id="stop399" />
      <stop
         offset="1"
         stop-color="#0D2333"
         id="stop401" />
    </linearGradient>
    <linearGradient
       id="paint5_linear"
       x1="118.568"
       y1="912.889"
       x2="118.568"
       y2="1066.82"
       gradientUnits="userSpaceOnUse">
      <stop
         stop-color="#0D2333"
         id="stop404" />
      <stop
         offset="0.200913"
         stop-color="#22445D"
         id="stop406" />
      <stop
         offset="1"
         stop-color="#22445D"
         id="stop408" />
    </linearGradient>
    <linearGradient
       id="paint6_linear"
       x1="357.183"
       y1="912.889"
       x2="357.183"
       y2="1066.82"
       gradientUnits="userSpaceOnUse">
      <stop
         stop-color="#0D2333"
         id="stop411" />
      <stop
         offset="0.200913"
         stop-color="#22445D"
         id="stop413" />
      <stop
         offset="1"
         stop-color="#22445D"
         id="stop415" />
    </linearGradient>
    <linearGradient
       id="paint7_linear"
       x1="237.913"
       y1="143.205"
       x2="237.913"
       y2="297.136"
       gradientUnits="userSpaceOnUse">
      <stop
         stop-color="#0D2333"
         id="stop418" />
      <stop
         offset="0.200913"
         stop-color="#22445D"
         id="stop420" />
      <stop
         offset="1"
         stop-color="#22445D"
         id="stop422" />
    </linearGradient>
    <linearGradient
       id="paint8_linear"
       x1="-1.2584"
       y1="451.365"
       x2="-1.2584"
       y2="605.301"
       gradientUnits="userSpaceOnUse"
       gradientTransform="matrix(-1,0,0,1,1602.788,0)">
      <stop
         stop-color="#28705E"
         id="stop425" />
      <stop
         offset="1"
         stop-color="#41AB8A"
         id="stop427" />
    </linearGradient>
    <linearGradient
       id="paint9_linear"
       x1="319.403"
       y1="612.197"
       x2="566.448"
       y2="789.224"
       gradientUnits="userSpaceOnUse"
       gradientTransform="matrix(-1,0,0,1,1602.788,0)">
      <stop
         stop-color="#838B91"
         id="stop430" />
      <stop
         offset="0.373057"
         stop-color="#838B91"
         id="stop432" />
      <stop
         offset="1"
         stop-color="#F9F5F2"
         id="stop434" />
    </linearGradient>
    <linearGradient
       id="paint10_linear"
       x1="319.403"
       y1="612.197"
       x2="566.448"
       y2="789.224"
       gradientUnits="userSpaceOnUse">
      <stop
         stop-color="#122638"
         id="stop437" />
      <stop
         offset="0.373057"
         stop-color="#122638"
         id="stop439" />
      <stop
         offset="1"
         stop-color="#22445D"
         id="stop441" />
    </linearGradient>
    <linearGradient
       id="paint11_linear"
       x1="319.403"
       y1="612.197"
       x2="566.448"
       y2="789.224"
       gradientUnits="userSpaceOnUse"
       gradientTransform="matrix(-1,0,0,1,1602.788,0)">
      <stop
         stop-color="#13202C"
         id="stop444" />
      <stop
         offset="0.373057"
         stop-color="#13202C"
         id="stop446" />
      <stop
         offset="1"
         stop-color="#24394A"
         id="stop448" />
    </linearGradient>
    <linearGradient
       id="paint12_linear"
       x1="357.197"
       y1="835.91"
       x2="595.728"
       y2="835.91"
       gradientUnits="userSpaceOnUse">
      <stop
         stop-color="#0D2333"
         id="stop451" />
      <stop
         offset="0.0315646"
         stop-color="#0D2333"
         id="stop453" />
      <stop
         offset="0.242133"
         stop-color="#41AB8A"
         id="stop455" />
      <stop
         offset="1"
         stop-color="#41AB8A"
         id="stop457" />
    </linearGradient>
    <linearGradient
       id="paint13_linear"
       x1="-16.7873"
       y1="1074.85"
       x2="76.3793"
       y2="971.057"
       gradientUnits="userSpaceOnUse"
       gradientTransform="matrix(-1,0,0,1,1602.788,0)">
      <stop
         stop-color="#41AB8A"
         id="stop460" />
      <stop
         offset="0.757866"
         stop-color="#41AB8A"
         id="stop462" />
      <stop
         offset="0.968435"
         stop-color="#0D2333"
         id="stop464" />
      <stop
         offset="1"
         stop-color="#0D2333"
         id="stop466" />
    </linearGradient>
    <clipPath
       id="clip0">
      <rect
         width="1600"
         height="1066.67"
         fill="white"
         id="rect469" />
    </clipPath>
  </defs>
</svg>
