<svg width="268" height="200" viewBox="0 0 268 200" fill="none" xmlns="http://www.w3.org/2000/svg">
<path d="M0 30.7784L62 0L124 30.7784L62 61.3249L0 30.7784Z" transform="translate(0 51.494)" fill="#E7E7E7"/>
<path d="M0 44.5366V30.6625L61.6517 0V14.2186L0 44.5366Z" transform="translate(62.1133 82.0428)" fill="#F2F6F6"/>
<path d="M0 44.5366V30.6625L61.6517 0V14.2186L0 44.5366Z" transform="translate(62.1133 82.0428) scale(-1 1)" fill="#E9F7FF"/>
<path d="M0 30.7784L62 0L124 30.7784L62 61.3249L0 30.7784Z" transform="translate(0 26.0367)" fill="#E7E7E7"/>
<path d="M0 44.5366V30.6625L61.6517 0V14.2186L0 44.5366Z" transform="translate(62.1133 56.5854)" fill="#F2F6F6"/>
<path d="M0 44.5366V30.6625L61.6517 0V14.2186L0 44.5366Z" transform="translate(62.1133 56.5854) scale(-1 1)" fill="#E9F7FF"/>
<path d="M0 44.5366V30.6625L61.6517 0V14.2186L0 44.5366Z" transform="translate(62.1133 31.1282)" fill="#F2F6F6"/>
<path d="M0 44.5366V30.6625L61.6517 0V14.2186L0 44.5366Z" transform="translate(62.1133 31.1282) scale(-1 1)" fill="#E9F7FF"/>
<path d="M0 30.7784L62 0L124 30.7784L62 61.3249L0 30.7784Z" transform="translate(0 0.579346)" fill="#F9F9F9"/>
<path d="M0 36.4116V30.5375L61.9954 0V6.21862L0 36.4116Z" transform="translate(205.254 163.009)" fill="#F2F6F6"/>
<path d="M0 65.6243V59.7502L120.576 0V6.21862L0 65.6243Z" transform="translate(205.289 133.781) scale(-1 1)" fill="#EBEBEC"/>
<path d="M0 30.7784L62 0L182 59.7785L120 90.3249L0 30.7784Z" transform="translate(85.25 103.232)" fill="#F9F9F9"/>
<path d="M0 48.2003L0.00585938 4.5546L9.42969 0L9.42383 43.7029L0 48.2003Z" transform="translate(154.07 94.2955)" fill="#FFE1DA"/>
<path d="M0.000343323 51.146L0 7.50799L15.5765 0L15.6078 43.3257L0.000343323 51.146Z" transform="translate(154.076 91.342) scale(-1 1)" fill="#FFC9BD"/>
<path d="M0 4.60405L9.44264 -9.81518e-07L25 7.56551L15.5574 12.131L0 4.60405Z" transform="translate(138.5 86.738)" fill="#FFF2EF"/>
<path d="M0 37.4425V4.5546L9.42383 0V32.9452L0 37.4425Z" transform="translate(181.076 118.295)" fill="#FFE1DA"/>
<path d="M0 40.3959V7.50799L15.5765 0V32.9452L0 40.3959Z" transform="translate(181.076 115.342) scale(-1 1)" fill="#FFC9BD"/>
<path d="M0 4.60405L9.44264 -9.81518e-07L25 7.56551L15.5574 12.131L0 4.60405Z" transform="translate(165.5 110.849)" fill="#FFF2EF"/>
<path d="M0 107.443V4.5546L9.42383 0V102.945L0 107.443Z" transform="translate(208.076 61.2955)" fill="#FFE1DA"/>
<path d="M0 110.396V7.50799L15.5765 0V102.945L0 110.396Z" transform="translate(208.076 58.342) scale(-1 1)" fill="#FFC9BD"/>
<path d="M0 4.60405L9.44264 -9.81518e-07L25 7.56551L15.5574 12.131L0 4.60405Z" transform="translate(192.5 53.738)" fill="#FFF2EF"/>
</svg>
