<svg width="1920" height="960" viewBox="0 0 1920 960" fill="none" xmlns="http://www.w3.org/2000/svg">
<rect width="1920" height="960" fill="#F2F6F6"/>
<path d="M76.6129 246L184 60L291.387 246H76.6129Z" transform="translate(1522 74) rotate(90)" stroke="white" stroke-opacity="0.6" stroke-width="60"/>
<path d="M-9.53674e-08 6.46039e-06V172.742" transform="translate(507.709 759.506) rotate(-90)" stroke="white" stroke-opacity="0.5" stroke-width="45" stroke-linecap="round" stroke-linejoin="round"/>
<path d="M61.5 179.517C27.3333 179.517 0 152.42 0 118.549V60.9679C0 27.0968 27.3333 0 61.5 0C95.6667 0 123 27.0968 123 60.9679V118.549C123 152.42 95.6667 179.517 61.5 179.517Z" transform="translate(379 821) rotate(-90)" stroke="white" stroke-opacity="0.5" stroke-width="45" stroke-linecap="round" stroke-linejoin="round"/>
<path d="M61.5 179.516C27.3333 179.516 0 152.42 0 118.549V60.9679C0 27.0968 27.3333 -3.23019e-06 61.5 -3.23019e-06C95.6667 -3.23019e-06 123 27.0968 123 60.9679V118.549C123 152.42 95.6667 179.516 61.5 179.516Z" transform="translate(619.482 821) rotate(-90)" stroke="white" stroke-opacity="0.5" stroke-width="45" stroke-linecap="round" stroke-linejoin="round"/>
</svg>
