<svg width="60" height="60" viewBox="0 0 60 60" fill="none" xmlns="http://www.w3.org/2000/svg">
<path d="M33.9344 26.8771C34.5 26.3361 34.7705 25.6475 34.7705 24.8115C34.7705 23.9754 34.5 23.2869 33.9836 22.7705C33.4672 22.2541 32.6557 21.9836 31.5492 21.9836H28.0574V27.6885H31.5492C32.582 27.6885 33.3689 27.418 33.9344 26.8771ZM31.9426 31.7951H28.0574V38.0656H31.9426C33.1229 38.0656 33.9836 37.7705 34.5738 37.1557C35.1393 36.5656 35.4344 35.8279 35.4344 34.9672C35.4344 34.1066 35.1639 33.3689 34.5984 32.7295C34.0328 32.0902 33.1475 31.7951 31.9426 31.7951ZM30 8.72951C18.2459 8.72951 8.72951 18.2459 8.72951 30C8.72951 41.7541 18.2459 51.2705 30 51.2705C41.7541 51.2705 51.2705 41.7541 51.2705 30C51.2705 18.2459 41.7541 8.72951 30 8.72951ZM42.7377 38.2377C42.2951 39.123 41.6557 39.8852 40.8443 40.5C40.0328 41.1148 39.0492 41.6066 37.8934 41.9508C36.7377 42.2951 35.4836 42.4672 34.082 42.4672H33.7869V48.0984H30.3443V42.4672H27.6393V48.0984H24.1967V42.4672H17.8525V38.0656H20.4836C21.1721 38.0656 21.7131 37.5 21.7131 36.7869V23.2623C21.7131 22.5492 21.1721 21.9836 20.4836 21.9836H17.9262V17.582H24.2213V12.418H27.6639V17.582H30.3689V12.418H33.8115V17.582C36.7377 17.6066 38.9508 18.2213 40.377 19.4262C41.8525 20.6557 42.5656 22.3033 42.5656 24.3689C42.5656 24.6639 42.5164 25.0328 42.418 25.4754C42.3197 25.918 42.1721 26.3852 41.9262 26.8525C41.6803 27.3197 41.3607 27.7869 40.9426 28.2295C40.5246 28.6721 39.9836 29.041 39.3443 29.3607V29.4344C40.1557 29.7541 40.8197 30.1475 41.3607 30.6148C41.9016 31.1066 42.3197 31.5984 42.5902 32.1393C42.8852 32.6803 43.082 33.2213 43.2049 33.7869C43.3279 34.3279 43.377 34.8197 43.377 35.2623C43.4016 36.3443 43.1803 37.3525 42.7377 38.2377ZM30 0C13.4508 0 0 13.4508 0 30C0 46.5492 13.4508 60 30 60C46.5492 60 60 46.5492 60 30C60 13.4508 46.5492 0 30 0ZM30 57.2951C14.9508 57.2951 2.70492 45.0492 2.70492 30C2.70492 14.9508 14.9508 2.70492 30 2.70492C45.0492 2.70492 57.2951 14.9508 57.2951 30C57.2951 45.0492 45.0492 57.2951 30 57.2951Z" fill="#34c88a"/>
</svg>
