<svg width="182" height="60" viewBox="0 0 182 60" fill="none" xmlns="http://www.w3.org/2000/svg">
<path d="M0 3.45586V3.45586L3.08668e-06 25.8498C3.17855e-06 26.6145 0.610931 27.2335 1.36235 27.2301L11.3773 27.1847C12.4187 27.18 13.0665 26.0321 12.5458 25.1143L11.2478 22.8263V22.8263C10.686 21.836 9.44175 21.4967 8.46869 22.0685V22.0685L8.33077 22.1495V22.1495C7.369 22.7146 6.13919 22.3792 5.58391 21.4005C5.29608 20.8931 5.23572 20.2846 5.41811 19.7289V19.7289L7.50091 13.3838V13.3838C7.82662 12.3915 8.82855 11.8024 9.83595 12.0108V12.0108L16.2834 13.3451V13.3451C16.8478 13.4618 17.3358 13.8194 17.6238 14.327C18.1789 15.3055 17.8495 16.5567 16.888 17.1217V17.1217L16.7496 17.203V17.203C15.7765 17.7747 15.4431 19.041 16.0049 20.0312V20.0312L17.2836 22.285C17.8043 23.2029 19.105 23.2058 19.6298 22.2903L24.6365 13.5552C25.0151 12.8947 24.7938 12.0468 24.1431 11.6644L5.08616 0.467455V0.467455C2.82565 -0.860722 7.73177e-06 0.799499 0 3.45586Z" transform="translate(10.2749)" fill="#34C88A"/>
<path d="M49.2012 26.4025V26.4025L30.1443 15.2055C29.4936 14.8232 28.6614 15.0521 28.2885 15.7161L23.3197 24.5652C22.803 25.4854 23.4559 26.6303 24.4973 26.6303H27.7715C28.5206 26.6303 29.1278 26.0124 29.1278 25.2501V23.7317C29.1278 22.9694 29.735 22.3515 30.4841 22.3515L31.4333 22.3515C31.8216 22.3515 32.1913 22.5208 32.4487 22.8166L37.4002 28.5066C37.8546 29.0287 37.8548 29.8138 37.4007 30.3362L32.4487 36.0336C32.1913 36.3298 31.8214 36.4994 31.4328 36.4994H30.4841C29.735 36.4994 29.1278 35.8814 29.1278 35.1191V33.6008C29.1278 32.8385 28.5206 32.2205 27.7715 32.2205H24.5361C23.4947 32.2205 22.8418 33.3654 23.3585 34.2856L28.2885 43.0657C28.6614 43.7297 29.4935 43.9586 30.1443 43.5763L49.2012 32.3793V32.3793C51.4617 31.0511 51.4617 27.7307 49.2012 26.4025Z" transform="translate(10.2749)" fill="#34C88A"/>
<path d="M3.41094 25.1512C3.41094 25.1512 3.41094 25.1512 3.41094 25.1512H25.5138C26.2686 25.1512 26.8795 24.5321 26.8761 23.7707L26.8314 13.6228C26.8267 12.5675 25.6937 11.9111 24.7879 12.4387L21.9397 14.0975C21.2881 14.477 21.0649 15.3176 21.4411 15.9749L22.1903 17.2841C22.5665 17.9415 22.3433 18.782 21.6917 19.1615L20.866 19.6424C20.5283 19.8391 20.1231 19.8804 19.7532 19.7557L12.638 17.3579C11.9851 17.1379 11.5974 16.4611 11.7346 15.7806L13.2306 8.35891C13.3084 7.97307 13.5464 7.63942 13.8844 7.44256L14.7097 6.9619C15.3613 6.58239 16.1945 6.80761 16.5707 7.46494L17.32 8.77417C17.6962 9.4315 18.5294 9.65672 19.181 9.27721L21.9954 7.638C22.9013 7.11038 22.9042 5.79234 22.0007 5.26066L13.3791 0.187426C12.7271 -0.196212 11.8902 0.0279919 11.5128 0.687393L0.461379 19.9975C0.461379 19.9975 0.461379 19.9975 0.461379 19.9975C-0.849535 22.288 0.78911 25.1512 3.41094 25.1512Z" transform="matrix(0.862191 -0.506584 0.493445 0.869777 0 38.1241)" fill="#163F59"/>
<path d="M8.67369 24.219C6.9862 24.219 5.57996 23.9944 4.45497 23.5453C3.35248 23.0961 2.46373 22.3888 1.78874 21.4232C1.13624 20.4575 0.674995 19.2225 0.404997 17.7179C0.134999 16.1909 0 14.3607 0 12.2274C0 10.094 0.134999 8.28632 0.404997 6.80421C0.674995 5.29965 1.13624 4.07579 1.78874 3.13263C2.46373 2.18947 3.35248 1.50456 4.45497 1.07789C5.57996 0.628771 6.9862 0.404209 8.67369 0.404209C9.68618 0.404209 10.7324 0.471578 11.8124 0.606314C12.9149 0.741052 14.0736 0.954386 15.2886 1.24632L15.1536 4.27789C13.1962 3.9186 11.1712 3.73895 9.07868 3.73895C8.06619 3.73895 7.22245 3.87368 6.54745 4.14316C5.89496 4.41263 5.36621 4.88421 4.96121 5.55789C4.55622 6.20912 4.27497 7.08491 4.11747 8.18526C3.95997 9.26316 3.88122 10.633 3.88122 12.2947C3.88122 13.9565 3.95997 15.3375 4.11747 16.4379C4.27497 17.5382 4.54497 18.4253 4.92746 19.099C5.30996 19.7502 5.82746 20.2105 6.47995 20.48C7.15495 20.7495 7.99869 20.8842 9.01119 20.8842C11.0587 20.8842 13.1062 20.7158 15.1536 20.379L15.2549 23.4779C12.9824 23.9719 10.7887 24.219 8.67369 24.219Z" transform="translate(78.692 15.0463)" fill="#163F59"/>
<path d="M31.3179 12.1937V19.8737C31.3404 20.3677 31.4642 20.7383 31.6892 20.9853C31.9367 21.2098 32.3079 21.3558 32.8029 21.4232L32.7017 24.219C30.7442 24.219 29.2479 23.8035 28.213 22.9726C26.458 23.8035 24.6467 24.219 22.7792 24.219C19.4268 24.219 17.7505 22.4337 17.7505 18.8632C17.7505 17.1565 18.2005 15.9214 19.1005 15.1579C20.0005 14.3944 21.4067 13.934 23.3192 13.7768L27.673 13.4063V12.1937C27.673 11.2954 27.4705 10.6667 27.0655 10.3074C26.683 9.94807 26.1092 9.76842 25.3442 9.76842C24.6242 9.76842 23.8142 9.79088 22.9142 9.83579C22.0142 9.8807 21.0243 9.94807 19.9443 10.0379L18.8643 10.1053L18.7293 7.51158C21.2493 6.92772 23.5105 6.63579 25.513 6.63579C27.583 6.63579 29.0679 7.07368 29.9679 7.94947C30.8679 8.82526 31.3179 10.24 31.3179 12.1937ZM27.673 16L23.758 16.3705C22.2055 16.5053 21.4293 17.3474 21.4293 18.8968C21.4293 20.4463 22.1155 21.2211 23.488 21.2211C24.658 21.2211 25.8505 21.0414 27.0655 20.6821L27.673 20.48V16Z" transform="translate(78.692 15.0463)" fill="#163F59"/>
<path d="M39.8173 23.8484V0H36.1386V23.8484H39.8173Z" transform="translate(78.692 15.0463)" fill="#163F59"/>
<path d="M48.3536 23.8484V0H44.6749V23.8484H48.3536Z" transform="translate(78.692 15.0463)" fill="#163F59"/>
<path d="M56.6875 23.8484V7.00632H53.0087V23.8484H56.6875ZM56.6875 4.14316V0.269472H53.0087V4.14316H56.6875Z" transform="translate(78.692 15.0463)" fill="#163F59"/>
<path d="M72.9282 7.41053L72.8607 10.4758C71.5107 10.2961 70.352 10.1614 69.3845 10.0716C68.4395 9.98176 67.6745 9.93684 67.0895 9.93684C65.8745 9.93684 65.042 10.0828 64.592 10.3747C64.142 10.6442 63.917 11.0821 63.917 11.6884C63.917 12.2947 64.1758 12.7214 64.6933 12.9684C64.9408 13.0807 65.357 13.2154 65.942 13.3726C66.5495 13.5074 67.3258 13.6533 68.2707 13.8105C69.2157 13.9677 70.0145 14.1698 70.667 14.4168C71.3195 14.6639 71.8482 14.9895 72.2532 15.3937C72.6582 15.7754 72.9507 16.2695 73.1307 16.8758C73.3332 17.4597 73.4345 18.1895 73.4345 19.0653C73.4345 20.8393 72.8607 22.1418 71.7132 22.9726C70.5882 23.8035 68.9345 24.219 66.752 24.219C66.0545 24.219 65.2783 24.1628 64.4233 24.0505C63.5683 23.9607 62.612 23.826 61.5545 23.6463L60.5083 23.4779L60.6433 20.4126C61.9933 20.5923 63.152 20.727 64.1195 20.8168C65.1095 20.9067 65.897 20.9516 66.482 20.9516C67.697 20.9516 68.552 20.8056 69.047 20.5137C69.542 20.2218 69.7895 19.739 69.7895 19.0653C69.7895 18.3916 69.5532 17.92 69.0807 17.6505C68.8332 17.5382 68.417 17.4147 67.832 17.28C67.2695 17.1228 66.527 16.9656 65.6045 16.8084C64.682 16.6512 63.8833 16.4716 63.2083 16.2695C62.5558 16.0449 62.0045 15.753 61.5545 15.3937C61.127 15.0119 60.8008 14.5404 60.5758 13.979C60.3733 13.4175 60.2721 12.6989 60.2721 11.8232C60.2721 10.9474 60.4296 10.1951 60.7446 9.56632C61.0595 8.91509 61.487 8.37614 62.027 7.94947C62.5895 7.52281 63.2533 7.20842 64.0183 7.00632C64.8058 6.78175 65.6608 6.66947 66.5833 6.66947C67.3033 6.66947 68.102 6.71439 68.9795 6.80421C69.857 6.89404 70.8245 7.02877 71.882 7.20842L72.9282 7.41053Z" transform="translate(78.692 15.0463)" fill="#163F59"/>
<path d="M86.0484 7.00632V10.1389H81.391V17.5495C81.391 18.2232 81.4022 18.7846 81.4247 19.2337C81.4697 19.6828 81.5597 20.0309 81.6947 20.2779C81.8297 20.5249 82.021 20.7046 82.2685 20.8168C82.516 20.9067 82.8422 20.9516 83.2472 20.9516L86.0147 20.8505L86.1834 23.7811C84.7209 24.073 83.5734 24.219 82.741 24.219C81.796 24.219 80.9972 24.1179 80.3447 23.9158C79.7147 23.7137 79.1972 23.3768 78.7922 22.9053C78.4097 22.4337 78.1397 21.7937 77.9822 20.9853C77.8247 20.1768 77.746 19.1663 77.746 17.9537V10.1389H75.586V7.00632H77.746V2.1221H81.391V7.00632H86.0484Z" transform="translate(78.692 15.0463)" fill="#163F59"/>
<path d="M95.7818 6.63579C98.4818 6.63579 100.406 7.36561 101.553 8.82526C102.723 10.2849 103.308 12.4744 103.308 15.3937C103.308 16.8533 103.173 18.1333 102.903 19.2337C102.633 20.334 102.206 21.2547 101.621 21.9958C101.036 22.7368 100.259 23.2983 99.2918 23.68C98.3468 24.0393 97.1768 24.219 95.7818 24.219C94.4093 24.219 93.2393 24.0393 92.2718 23.68C91.3043 23.2983 90.5281 22.7368 89.9431 21.9958C89.3581 21.2547 88.9306 20.334 88.6606 19.2337C88.3906 18.1333 88.2556 16.8533 88.2556 15.3937C88.2556 14.0688 88.3794 12.8674 88.6269 11.7895C88.8744 10.7116 89.2794 9.79088 89.8418 9.02737C90.4268 8.26386 91.2031 7.68 92.1706 7.27579C93.1381 6.84912 94.3418 6.63579 95.7818 6.63579ZM92.7443 19.7726C93.2393 20.6709 94.2518 21.12 95.7818 21.12C96.5243 21.12 97.143 21.019 97.638 20.8168C98.133 20.5923 98.5268 20.2442 98.8193 19.7726C99.1118 19.3011 99.3143 18.706 99.4268 17.9874C99.5393 17.2463 99.5955 16.3705 99.5955 15.36C99.5955 13.3165 99.3143 11.8681 98.7518 11.0147C98.2118 10.1614 97.2218 9.73474 95.7818 9.73474C94.3418 9.73474 93.3406 10.1614 92.7781 11.0147C92.2381 11.8681 91.9681 13.3165 91.9681 15.36C91.9681 17.3811 92.2268 18.8519 92.7443 19.7726Z" transform="translate(78.692 15.0463)" fill="#163F59"/>
</svg>
