<svg width="183" height="57" viewBox="0 0 183 57" fill="none" xmlns="http://www.w3.org/2000/svg">
<path d="M0 3.28306L2.92665e-06 24.5573C3.01376e-06 25.2838 0.579258 25.8718 1.29172 25.8685L10.7874 25.8254C11.7748 25.821 12.3891 24.7305 11.8954 23.8585L10.6647 21.685C10.132 20.7442 8.95225 20.4219 8.02963 20.965L7.89886 21.042C6.98695 21.5789 5.8209 21.2603 5.29441 20.3304C5.0215 19.8485 4.96427 19.2703 5.13721 18.7425L7.11202 12.7146C7.42085 11.7719 8.37084 11.2123 9.32601 11.4103L15.4392 12.6778C15.9743 12.7887 16.4371 13.1284 16.7101 13.6106C17.2365 14.5402 16.9241 15.7289 16.0124 16.2656L15.8812 16.3428C14.9586 16.886 14.6425 18.0889 15.1752 19.0297L16.3875 21.1708C16.8812 22.0427 18.1145 22.0455 18.6121 21.1758L23.3592 12.8775C23.7182 12.2499 23.5084 11.4444 22.8914 11.0812L4.82247 0.444082C2.67915 -0.817686 7.33092e-06 0.759524 0 3.28306Z" transform="translate(9.74219)" fill="#34C88A"/>
<path d="M46.6504 25.0824L28.5815 14.4453C27.9645 14.082 27.1754 14.2995 26.8219 14.9303L22.1107 23.337C21.6208 24.2111 22.2398 25.2988 23.2272 25.2988H26.3317C27.0419 25.2988 27.6177 24.7117 27.6177 23.9876V22.5452C27.6177 21.821 28.1934 21.2339 28.9037 21.2339L29.8036 21.2339C30.1718 21.2339 30.5223 21.3948 30.7664 21.6758L35.4612 27.0813C35.892 27.5773 35.8922 28.3231 35.4617 28.8194L30.7664 34.2319C30.5223 34.5133 30.1716 34.6744 29.8032 34.6744H28.9037C28.1934 34.6744 27.6177 34.0873 27.6177 33.3631V31.9207C27.6177 31.1965 27.0419 30.6095 26.3317 30.6095H23.264C22.2766 30.6095 21.6575 31.6971 22.1474 32.5713L26.8219 40.9124C27.1754 41.5432 27.9645 41.7607 28.5815 41.3974L46.6504 30.7603C48.7937 29.4986 48.7937 26.3441 46.6504 25.0824Z" transform="translate(9.74219)" fill="#34C88A"/>
<path d="M3.23571 23.8823H24.2031C24.9191 23.8823 25.4987 23.2945 25.4955 22.5715L25.453 12.9355C25.4486 11.9335 24.3738 11.3102 23.5145 11.8112L20.8126 13.3863C20.1945 13.7467 19.9827 14.5448 20.3396 15.169L21.0504 16.4122C21.4073 17.0363 21.1955 17.8344 20.5774 18.1948L19.7941 18.6514C19.4737 18.8382 19.0894 18.8774 18.7385 18.759L11.9888 16.4823C11.3694 16.2733 11.0017 15.6306 11.1318 14.9845L12.5509 7.93721C12.6247 7.57084 12.8505 7.25402 13.1712 7.06709L13.954 6.61068C14.5722 6.25032 15.3626 6.46418 15.7194 7.08835L16.4302 8.33152C16.7871 8.95569 17.5775 9.16955 18.1956 8.80918L20.8655 7.25267C21.7248 6.75166 21.7276 5.50013 20.8705 4.99527L12.6918 0.177971C12.0733 -0.186313 11.2794 0.0265797 10.9214 0.652715L0.437677 18.9886C0.437677 18.9886 0.437677 18.9886 0.437677 18.9886C-0.805894 21.1636 0.748572 23.8823 3.23571 23.8823Z" transform="matrix(0.86176 -0.507316 0.492719 0.870188 0 36.2179)" fill="#163F59"/>
<path d="M8.096 8.648C9.16267 8.648 10.496 8.79733 12.096 9.096L12.896 9.256L12.768 12.008C11.9147 11.9227 11.1787 11.8587 10.56 11.816C9.94133 11.7733 9.42933 11.752 9.024 11.752C8.21333 11.752 7.54133 11.8373 7.008 12.008C6.496 12.1573 6.08 12.4347 5.76 12.84C5.46133 13.2453 5.248 13.7787 5.12 14.44C4.992 15.1013 4.928 15.9333 4.928 16.936C4.928 17.9387 4.98133 18.7813 5.088 19.464C5.216 20.1253 5.42933 20.6693 5.728 21.096C6.02667 21.5013 6.44267 21.8 6.976 21.992C7.53067 22.1627 8.224 22.248 9.056 22.248L12.8 21.992L12.896 24.776C10.7627 25.16 9.14133 25.352 8.032 25.352C6.816 25.352 5.78133 25.192 4.928 24.872C4.096 24.552 3.41333 24.0613 2.88 23.4C2.368 22.7173 1.99467 21.8427 1.76 20.776C1.52533 19.7093 1.408 18.4293 1.408 16.936C1.408 15.4427 1.536 14.1733 1.792 13.128C2.048 12.0613 2.44267 11.1973 2.976 10.536C3.50933 9.87467 4.20267 9.39467 5.056 9.096C5.90933 8.79733 6.92267 8.648 8.096 8.648ZM28.1082 13.928V21.224C28.1296 21.6933 28.2469 22.0453 28.4602 22.28C28.6949 22.4933 29.0469 22.632 29.5162 22.696L29.4202 25.352C27.5642 25.352 26.1456 24.9573 25.1643 24.168C23.5003 24.9573 21.7829 25.352 20.0122 25.352C16.8336 25.352 15.2443 23.656 15.2443 20.264C15.2443 18.6427 15.6709 17.4693 16.5243 16.744C17.3776 16.0187 18.7109 15.5813 20.5243 15.432L24.6523 15.08V13.928C24.6523 13.0747 24.4603 12.4773 24.0763 12.136C23.7136 11.7947 23.1696 11.624 22.4443 11.624C21.7616 11.624 20.9936 11.6453 20.1403 11.688C19.2869 11.7307 18.3482 11.7947 17.3242 11.88L16.3003 11.944L16.1723 9.48C18.5616 8.92533 20.7056 8.648 22.6042 8.648C24.5669 8.648 25.9749 9.064 26.8282 9.896C27.6816 10.728 28.1082 12.072 28.1082 13.928ZM24.6523 17.544L20.9402 17.896C19.4683 18.024 18.7323 18.824 18.7323 20.296C18.7323 21.768 19.3829 22.504 20.6842 22.504C21.7936 22.504 22.9243 22.3333 24.0763 21.992L24.6523 21.8V17.544ZM36.167 25V2.344H32.679V25H36.167ZM44.2607 25V2.344H40.7727V25H44.2607ZM52.1625 25V9H48.6745V25H52.1625ZM52.1625 6.28V2.6H48.6745V6.28H52.1625ZM67.5612 9.384L67.4972 12.296C66.2172 12.1253 65.1186 11.9973 64.2013 11.912C63.3053 11.8267 62.5799 11.784 62.0252 11.784C60.8732 11.784 60.0839 11.9227 59.6572 12.2C59.2306 12.456 59.0173 12.872 59.0173 13.448C59.0173 14.024 59.2626 14.4293 59.7533 14.664C59.9879 14.7707 60.3826 14.8987 60.9373 15.048C61.5133 15.176 62.2493 15.3147 63.1453 15.464C64.0413 15.6133 64.7986 15.8053 65.4172 16.04C66.0359 16.2747 66.5373 16.584 66.9213 16.968C67.3052 17.3307 67.5826 17.8 67.7533 18.376C67.9453 18.9307 68.0413 19.624 68.0413 20.456C68.0413 22.1413 67.4973 23.3787 66.4093 24.168C65.3426 24.9573 63.7746 25.352 61.7052 25.352C61.0439 25.352 60.3079 25.2987 59.4973 25.192C58.6866 25.1067 57.7799 24.9787 56.7773 24.808L55.7852 24.648L55.9132 21.736C57.1933 21.9067 58.2919 22.0347 59.2092 22.12C60.1479 22.2053 60.8946 22.248 61.4493 22.248C62.6013 22.248 63.4119 22.1093 63.8813 21.832C64.3506 21.5547 64.5852 21.096 64.5852 20.456C64.5852 19.816 64.3612 19.368 63.9132 19.112C63.6786 19.0053 63.2839 18.888 62.7292 18.76C62.1959 18.6107 61.4919 18.4613 60.6172 18.312C59.7426 18.1627 58.9853 17.992 58.3453 17.8C57.7266 17.5867 57.2039 17.3093 56.7773 16.968C56.3719 16.6053 56.0626 16.1573 55.8492 15.624C55.6572 15.0907 55.5612 14.408 55.5612 13.576C55.5612 12.744 55.7106 12.0293 56.0093 11.432C56.3079 10.8133 56.7133 10.3013 57.2253 9.896C57.7586 9.49067 58.3879 9.192 59.1132 9C59.8599 8.78667 60.6706 8.68 61.5452 8.68C62.2279 8.68 62.9853 8.72267 63.8173 8.808C64.6493 8.89333 65.5666 9.02133 66.5693 9.192L67.5612 9.384ZM80.0013 9V11.976H75.5852V19.016C75.5852 19.656 75.5959 20.1893 75.6172 20.616C75.6599 21.0427 75.7453 21.3733 75.8733 21.608C76.0012 21.8427 76.1826 22.0133 76.4173 22.12C76.6519 22.2053 76.9612 22.248 77.3453 22.248L79.9692 22.152L80.1292 24.936C78.7426 25.2133 77.6546 25.352 76.8653 25.352C75.9692 25.352 75.2119 25.256 74.5932 25.064C73.9959 24.872 73.5052 24.552 73.1212 24.104C72.7586 23.656 72.5026 23.048 72.3533 22.28C72.2039 21.512 72.1293 20.552 72.1293 19.4V11.976H70.0813V9H72.1293V4.36H75.5852V9H80.0013ZM89.23 8.648C91.79 8.648 93.614 9.34133 94.702 10.728C95.8113 12.1147 96.366 14.1947 96.366 16.968C96.366 18.3547 96.238 19.5707 95.982 20.616C95.726 21.6613 95.3207 22.536 94.766 23.24C94.2113 23.944 93.4753 24.4773 92.558 24.84C91.662 25.1813 90.5527 25.352 89.23 25.352C87.9287 25.352 86.8193 25.1813 85.902 24.84C84.9847 24.4773 84.2487 23.944 83.694 23.24C83.1393 22.536 82.734 21.6613 82.478 20.616C82.222 19.5707 82.094 18.3547 82.094 16.968C82.094 15.7093 82.2113 14.568 82.446 13.544C82.6807 12.52 83.0647 11.6453 83.598 10.92C84.1527 10.1947 84.8887 9.64 85.806 9.256C86.7233 8.85067 87.8647 8.648 89.23 8.648ZM86.35 21.128C86.8193 21.9813 87.7793 22.408 89.23 22.408C89.934 22.408 90.5207 22.312 90.99 22.12C91.4593 21.9067 91.8327 21.576 92.11 21.128C92.3873 20.68 92.5793 20.1147 92.686 19.432C92.7927 18.728 92.846 17.896 92.846 16.936C92.846 14.9947 92.5793 13.6187 92.046 12.808C91.534 11.9973 90.5953 11.592 89.23 11.592C87.8647 11.592 86.9153 11.9973 86.382 12.808C85.87 13.6187 85.614 14.9947 85.614 16.936C85.614 18.856 85.8593 20.2533 86.35 21.128Z" transform="translate(72 11)" fill="#163F59"/>
</svg>
