<svg width="926" height="634" viewBox="0 0 926 634" fill="none" xmlns="http://www.w3.org/2000/svg">
<path d="M92.5 421.219L116.919 408.527L92.5 395.738L68.0809 408.527L92.5 421.219Z" fill="#F9F9F9" stroke="white"/>
<path d="M91.3913 452.826V421.048L67 408.478V440.397L91.3913 452.826Z" fill="#F2F6F6" stroke="white"/>
<path d="M91.3913 452.826V421.048L118 408.478V440.397L91.3913 452.826Z" fill="#E9F7FF" stroke="white"/>
<path d="M26.5 287.045L50.9191 274.353L26.5 261.564L2.08093 274.353L26.5 287.045Z" fill="#F9F9F9" stroke="white"/>
<path d="M25.3913 318.652V286.874L0.999994 274.304V306.223L25.3913 318.652Z" fill="#F2F6F6" stroke="white"/>
<path d="M25.3913 318.652V286.874L52 274.304V306.223L25.3913 318.652Z" fill="#E9F7FF" stroke="white"/>
<path d="M205.846 180.928L219.611 173.773L205.846 166.564L192.081 173.773L205.846 180.928Z" fill="#F9F9F9" stroke="white"/>
<path d="M205.201 199.565V181.064L191 173.746V192.329L205.201 199.565Z" fill="#F2F6F6" stroke="white"/>
<path d="M205.201 199.565V181.064L220.692 173.746V192.329L205.201 199.565Z" fill="#E9F7FF" stroke="white"/>
<path d="M819.109 576.488C818.934 577.992 818.377 579.154 817.439 579.975C816.508 580.788 815.268 581.195 813.719 581.195C812.039 581.195 810.691 580.593 809.676 579.389C808.667 578.184 808.162 576.573 808.162 574.555V573.188C808.162 571.866 808.396 570.704 808.865 569.701C809.34 568.699 810.011 567.93 810.877 567.396C811.743 566.856 812.745 566.586 813.885 566.586C815.395 566.586 816.606 567.009 817.518 567.855C818.429 568.695 818.96 569.861 819.109 571.352H817.225C817.062 570.219 816.707 569.398 816.16 568.891C815.62 568.383 814.861 568.129 813.885 568.129C812.687 568.129 811.746 568.572 811.062 569.457C810.385 570.342 810.047 571.602 810.047 573.236V574.613C810.047 576.156 810.369 577.383 811.014 578.295C811.658 579.206 812.56 579.662 813.719 579.662C814.76 579.662 815.558 579.428 816.111 578.959C816.671 578.484 817.042 577.66 817.225 576.488H819.109ZM820.916 575.619C820.916 574.584 821.118 573.653 821.521 572.826C821.932 571.999 822.498 571.361 823.221 570.912C823.95 570.463 824.78 570.238 825.711 570.238C827.15 570.238 828.312 570.736 829.197 571.732C830.089 572.729 830.535 574.053 830.535 575.707V575.834C830.535 576.863 830.337 577.787 829.939 578.607C829.549 579.421 828.986 580.056 828.25 580.512C827.521 580.967 826.681 581.195 825.73 581.195C824.298 581.195 823.136 580.697 822.244 579.701C821.359 578.705 820.916 577.387 820.916 575.746V575.619ZM822.732 575.834C822.732 577.006 823.003 577.947 823.543 578.656C824.09 579.366 824.819 579.721 825.73 579.721C826.648 579.721 827.378 579.363 827.918 578.646C828.458 577.924 828.729 576.915 828.729 575.619C828.729 574.46 828.452 573.523 827.898 572.807C827.352 572.084 826.622 571.723 825.711 571.723C824.819 571.723 824.1 572.077 823.553 572.787C823.006 573.497 822.732 574.512 822.732 575.834ZM834.5 570.434L834.549 571.605C835.324 570.694 836.368 570.238 837.684 570.238C839.161 570.238 840.167 570.805 840.701 571.938C841.053 571.43 841.508 571.02 842.068 570.707C842.635 570.395 843.302 570.238 844.07 570.238C846.388 570.238 847.566 571.465 847.605 573.92V581H845.799V574.027C845.799 573.272 845.626 572.709 845.281 572.338C844.936 571.96 844.357 571.771 843.543 571.771C842.872 571.771 842.316 571.973 841.873 572.377C841.43 572.774 841.173 573.311 841.102 573.988V581H839.285V574.076C839.285 572.54 838.533 571.771 837.029 571.771C835.844 571.771 835.034 572.276 834.598 573.285V581H832.791V570.434H834.5ZM852.303 581H850.496V570.434H852.303V581ZM850.35 567.631C850.35 567.338 850.438 567.09 850.613 566.889C850.796 566.687 851.062 566.586 851.414 566.586C851.766 566.586 852.033 566.687 852.215 566.889C852.397 567.09 852.488 567.338 852.488 567.631C852.488 567.924 852.397 568.168 852.215 568.363C852.033 568.559 851.766 568.656 851.414 568.656C851.062 568.656 850.796 568.559 850.613 568.363C850.438 568.168 850.35 567.924 850.35 567.631ZM856.912 570.434L856.971 571.762C857.778 570.746 858.833 570.238 860.135 570.238C862.368 570.238 863.494 571.498 863.514 574.018V581H861.707V574.008C861.701 573.246 861.525 572.683 861.18 572.318C860.841 571.954 860.311 571.771 859.588 571.771C859.002 571.771 858.488 571.928 858.045 572.24C857.602 572.553 857.257 572.963 857.01 573.471V581H855.203V570.434H856.912ZM865.809 575.629C865.809 573.982 866.189 572.673 866.951 571.703C867.713 570.727 868.722 570.238 869.979 570.238C871.268 570.238 872.273 570.694 872.996 571.605L873.084 570.434H874.734V580.746C874.734 582.113 874.327 583.191 873.514 583.979C872.706 584.766 871.619 585.16 870.252 585.16C869.49 585.16 868.745 584.997 868.016 584.672C867.286 584.346 866.73 583.9 866.346 583.334L867.283 582.25C868.058 583.207 869.005 583.686 870.125 583.686C871.004 583.686 871.688 583.438 872.176 582.943C872.671 582.449 872.918 581.752 872.918 580.854V579.945C872.195 580.779 871.209 581.195 869.959 581.195C868.722 581.195 867.719 580.697 866.951 579.701C866.189 578.705 865.809 577.348 865.809 575.629ZM867.625 575.834C867.625 577.025 867.869 577.963 868.357 578.646C868.846 579.324 869.529 579.662 870.408 579.662C871.548 579.662 872.384 579.145 872.918 578.109V573.285C872.365 572.276 871.535 571.771 870.428 571.771C869.549 571.771 868.862 572.113 868.367 572.797C867.872 573.48 867.625 574.493 867.625 575.834ZM886.902 574.662C885.294 574.2 884.122 573.633 883.387 572.963C882.658 572.286 882.293 571.452 882.293 570.463C882.293 569.343 882.739 568.419 883.631 567.689C884.529 566.954 885.695 566.586 887.127 566.586C888.104 566.586 888.973 566.775 889.734 567.152C890.503 567.53 891.095 568.051 891.512 568.715C891.935 569.379 892.146 570.105 892.146 570.893H890.262C890.262 570.033 889.988 569.359 889.441 568.871C888.895 568.376 888.123 568.129 887.127 568.129C886.202 568.129 885.48 568.334 884.959 568.744C884.445 569.148 884.188 569.711 884.188 570.434C884.188 571.013 884.432 571.505 884.92 571.908C885.415 572.305 886.251 572.67 887.43 573.002C888.615 573.334 889.539 573.702 890.203 574.105C890.874 574.503 891.368 574.968 891.688 575.502C892.013 576.036 892.176 576.664 892.176 577.387C892.176 578.539 891.727 579.464 890.828 580.16C889.93 580.85 888.729 581.195 887.225 581.195C886.248 581.195 885.337 581.01 884.49 580.639C883.644 580.261 882.99 579.747 882.527 579.096C882.072 578.445 881.844 577.706 881.844 576.879H883.729C883.729 577.738 884.044 578.419 884.676 578.92C885.314 579.415 886.163 579.662 887.225 579.662C888.214 579.662 888.973 579.46 889.5 579.057C890.027 578.653 890.291 578.103 890.291 577.406C890.291 576.71 890.047 576.173 889.559 575.795C889.07 575.411 888.185 575.033 886.902 574.662ZM893.826 575.619C893.826 574.584 894.028 573.653 894.432 572.826C894.842 571.999 895.408 571.361 896.131 570.912C896.86 570.463 897.69 570.238 898.621 570.238C900.06 570.238 901.222 570.736 902.107 571.732C902.999 572.729 903.445 574.053 903.445 575.707V575.834C903.445 576.863 903.247 577.787 902.85 578.607C902.459 579.421 901.896 580.056 901.16 580.512C900.431 580.967 899.591 581.195 898.641 581.195C897.208 581.195 896.046 580.697 895.154 579.701C894.269 578.705 893.826 577.387 893.826 575.746V575.619ZM895.643 575.834C895.643 577.006 895.913 577.947 896.453 578.656C897 579.366 897.729 579.721 898.641 579.721C899.559 579.721 900.288 579.363 900.828 578.646C901.368 577.924 901.639 576.915 901.639 575.619C901.639 574.46 901.362 573.523 900.809 572.807C900.262 572.084 899.533 571.723 898.621 571.723C897.729 571.723 897.01 572.077 896.463 572.787C895.916 573.497 895.643 574.512 895.643 575.834ZM905.232 575.619C905.232 574.584 905.434 573.653 905.838 572.826C906.248 571.999 906.814 571.361 907.537 570.912C908.266 570.463 909.096 570.238 910.027 570.238C911.466 570.238 912.628 570.736 913.514 571.732C914.406 572.729 914.852 574.053 914.852 575.707V575.834C914.852 576.863 914.653 577.787 914.256 578.607C913.865 579.421 913.302 580.056 912.566 580.512C911.837 580.967 910.997 581.195 910.047 581.195C908.615 581.195 907.452 580.697 906.561 579.701C905.675 578.705 905.232 577.387 905.232 575.746V575.619ZM907.049 575.834C907.049 577.006 907.319 577.947 907.859 578.656C908.406 579.366 909.135 579.721 910.047 579.721C910.965 579.721 911.694 579.363 912.234 578.646C912.775 577.924 913.045 576.915 913.045 575.619C913.045 574.46 912.768 573.523 912.215 572.807C911.668 572.084 910.939 571.723 910.027 571.723C909.135 571.723 908.416 572.077 907.869 572.787C907.322 573.497 907.049 574.512 907.049 575.834ZM918.826 570.434L918.885 571.762C919.692 570.746 920.747 570.238 922.049 570.238C924.282 570.238 925.408 571.498 925.428 574.018V581H923.621V574.008C923.615 573.246 923.439 572.683 923.094 572.318C922.755 571.954 922.225 571.771 921.502 571.771C920.916 571.771 920.402 571.928 919.959 572.24C919.516 572.553 919.171 572.963 918.924 573.471V581H917.117V570.434H918.826Z" fill="#868D95"/>
<path d="M310.54 423.06L449.833 352.937L589.127 423.06L449.833 492.694L310.54 423.06Z" fill="#F2F6F6"/>
<path d="M313.321 363.509L450.138 294.556L586.955 363.509L450.138 431.98L313.321 363.509Z" fill="#34C88A"/>
<path d="M360.215 363.509L450.137 318.19L540.06 363.509L450.137 408.511L360.215 363.509Z" fill="white"/>
<path d="M313.265 363.509L313.265 375.788L450.199 444.579L450.199 431.635L313.265 363.509Z" fill="#163F59"/>
<path d="M586.451 363.502L586.451 375.787L450.199 444.579V431.635L586.451 363.502Z" fill="#C0F5DF"/>
<path d="M430.323 427.401L430.323 429.887L443.395 436.483L443.395 433.95L430.323 427.401Z" fill="#48718B"/>
<path d="M373.458 363.414L373.458 0.584736H526.478L526.478 363.414L449.968 401.661L373.458 363.414Z" fill="url(#paint0_linear)"/>
<path d="M436.535 334.641L449.447 342.096L436.535 349.551L436.535 334.641Z" fill="white" fill-opacity="0.5"/>
<path d="M395 292L409 284V300L395 292Z" fill="white" fill-opacity="0.5"/>
<path d="M450 254.5L461 248V261L450 254.5Z" fill="white" fill-opacity="0.5"/>
<path d="M464 170.5L475.25 164.005V176.995L464 170.5Z" fill="white" fill-opacity="0.5"/>
<path d="M482.607 278.736L504.352 291.29L482.607 303.844L482.607 278.736Z" fill="white" fill-opacity="0.5"/>
<path d="M420.549 173.076L431.732 179.533L420.549 185.989L420.549 173.076Z" fill="white" fill-opacity="0.5"/>
<path d="M450.795 143.555L406.795 117.211C401.564 114.088 395 117.94 395 124.188V176.667C395 178.542 396.333 179.895 398.179 179.895L421.256 179.791C423.718 179.791 425.256 177.188 424.026 175.001L420.949 169.587C419.718 167.296 416.846 166.463 414.59 167.921L414.282 168.025C412.026 169.379 409.256 168.441 407.923 166.359C407.308 165.109 407.205 163.756 407.513 162.506L412.128 147.616C412.846 145.325 415.205 143.868 417.462 144.388L432.231 147.512C433.564 147.824 434.692 148.553 435.308 149.803C436.539 152.094 435.718 155.113 433.667 156.259L433.359 156.363C431.103 157.716 430.282 160.736 431.718 163.027L434.59 168.337C435.821 170.524 438.897 170.524 439.923 168.337L451.513 147.929C452.744 146.367 452.333 144.492 450.795 143.555ZM508.539 178.125L464.641 151.781C463.103 150.844 461.256 151.469 460.333 153.031L448.949 173.752C447.718 175.938 449.256 178.542 451.718 178.542H459.205C460.846 178.542 462.282 177.188 462.282 175.314V171.878C462.282 170.003 463.615 168.65 465.359 168.65H467.513C468.436 168.65 469.154 169.066 469.769 169.691L481.154 183.019C482.18 184.269 482.18 186.143 481.154 187.392L469.872 200.72C469.256 201.345 468.539 201.762 467.615 201.762H465.462C463.821 201.762 462.385 200.408 462.385 198.534V194.994C462.385 193.119 461.051 191.766 459.308 191.766H451.821C449.359 191.766 447.821 194.369 449.051 196.555L460.333 217.172C461.256 218.734 463.103 219.359 464.641 218.422L508.539 192.078C513.769 188.954 513.769 181.249 508.539 178.125Z" fill="#34C88A"/>
<path d="M406.793 252.887L450.691 226.543C452.229 225.606 452.639 223.628 451.716 222.066L440.126 201.449C438.896 199.262 435.819 199.262 434.793 201.449L430.998 208.217C430.075 209.779 430.691 211.757 432.229 212.695L435.306 214.569C436.844 215.506 437.255 217.484 436.537 219.046L435.511 221.025C435.101 221.754 434.28 222.378 433.357 222.587L416.434 226.127C414.896 226.439 413.357 225.502 412.742 223.94L407.203 206.759C406.896 205.822 407.101 204.885 407.511 204.156L408.537 202.178C409.46 200.616 411.306 200.199 412.844 200.928L415.921 202.803C417.46 203.74 419.306 203.115 420.229 201.553L423.921 194.889C425.152 192.702 423.614 190.099 421.152 190.099L398.28 189.995C396.639 189.995 395.101 191.349 395.101 193.223V245.703C395.101 252.158 401.665 256.011 406.793 252.887Z" fill="#163F59"/>
<ellipse cx="320.509" cy="373.652" rx="2.09489" ry="1.65473" transform="rotate(58.2519 320.509 373.652)" fill="#FF876C"/>
<ellipse cx="326.509" cy="376.652" rx="2.09489" ry="1.65473" transform="rotate(58.2519 326.509 376.652)" fill="#FF876C"/>
<ellipse cx="332.509" cy="379.652" rx="2.09489" ry="1.65473" transform="rotate(58.2519 332.509 379.652)" fill="#FF876C"/>
<ellipse cx="338.509" cy="382.652" rx="2.09489" ry="1.65473" transform="rotate(58.2519 338.509 382.652)" fill="#FF876C"/>
<ellipse rx="2.09489" ry="1.65473" transform="matrix(-0.526185 0.85037 0.85037 0.526185 578.509 373.652)" fill="#FF876C"/>
<ellipse rx="2.09489" ry="1.65473" transform="matrix(-0.526185 0.85037 0.85037 0.526185 572.509 376.652)" fill="#FF876C"/>
<ellipse rx="2.09489" ry="1.65473" transform="matrix(-0.526185 0.85037 0.85037 0.526185 566.509 379.652)" fill="#FF876C"/>
<ellipse rx="2.09489" ry="1.65473" transform="matrix(-0.526185 0.85037 0.85037 0.526185 560.509 382.652)" fill="#FF876C"/>
<path d="M209 561L277 527V413.5L339.721 382" stroke="#4FC0FF" stroke-width="0.5"/>
<path d="M321.721 373L277.5 395.209V218.5L213 186" stroke="#4FC0FF" stroke-width="0.5"/>
<path d="M333.721 379L168.5 462.5L104 430" stroke="#4FC0FF" stroke-width="0.5"/>
<path d="M38 296L261.5 409.5L328 375.892" stroke="#4FC0FF" stroke-width="0.5"/>
<path d="M192.692 563.289L218.304 549.977L192.692 536.564L167.081 549.977L192.692 563.289Z" fill="#F9F9F9" stroke="white"/>
<path d="M191.532 596.348V563.084L166 549.927V583.338L191.532 596.348Z" fill="#F2F6F6" stroke="white"/>
<path d="M191.532 596.348V563.084L219.385 549.927V583.338L191.532 596.348Z" fill="#E9F7FF" stroke="white"/>
<path d="M806.221 421.219L781.802 408.527L806.221 395.738L830.64 408.527L806.221 421.219Z" fill="#F9F9F9" stroke="white"/>
<path d="M807.33 452.826V421.048L831.721 408.478V440.397L807.33 452.826Z" fill="#F2F6F6" stroke="white"/>
<path d="M807.33 452.826V421.048L780.721 408.478V440.397L807.33 452.826Z" fill="#E9F7FF" stroke="white"/>
<path d="M872.221 287.045L847.802 274.353L872.221 261.564L896.64 274.353L872.221 287.045Z" fill="#F9F9F9" stroke="white"/>
<path d="M873.33 318.652V286.874L897.721 274.304V306.223L873.33 318.652Z" fill="#F2F6F6" stroke="white"/>
<path d="M873.33 318.652V286.874L846.721 274.304V306.223L873.33 318.652Z" fill="#E9F7FF" stroke="white"/>
<path d="M692.875 180.928L679.11 173.773L692.875 166.564L706.64 173.773L692.875 180.928Z" fill="#F9F9F9" stroke="white"/>
<path d="M693.521 199.565V181.064L707.721 173.746V192.329L693.521 199.565Z" fill="#F2F6F6" stroke="white"/>
<path d="M693.521 199.565V181.064L678.029 173.746V192.329L693.521 199.565Z" fill="#E9F7FF" stroke="white"/>
<path d="M689.721 561L621.721 527V413.5L559 382" stroke="#4FC0FF" stroke-width="0.5"/>
<path d="M577 373L621.221 395.209V218.5L685.721 186" stroke="#4FC0FF" stroke-width="0.5"/>
<path d="M565 379L730.221 462.5L794.721 430" stroke="#4FC0FF" stroke-width="0.5"/>
<path d="M860.721 296L637.221 409.5L571 376" stroke="#4FC0FF" stroke-width="0.5"/>
<path d="M680 541.334L732.192 514L784.385 541.334L732.192 568.461L680 541.334Z" fill="#F9F9F9"/>
<path d="M734.462 632V566.959L784.385 541.231V606.562L734.462 632Z" fill="#F2F6F6"/>
<path d="M734.462 632V566.959L680 541.231V606.562L734.462 632Z" fill="#E9F7FF"/>
<path d="M680 541.5V606.5L734.5 632L784 606.5V541.5L732.5 514L680 541.5Z" stroke="#34C88A" stroke-width="2"/>
<path d="M680 541.5L734 567" stroke="#34C88A" stroke-width="2"/>
<path d="M479 137L497 127V147L479 137Z" fill="white"/>
<path d="M407 97L421 89V105L407 97Z" fill="white"/>
<defs>
<linearGradient id="paint0_linear" x1="533.065" y1="449.143" x2="533.065" y2="27.1851" gradientUnits="userSpaceOnUse">
<stop stop-color="#0094FF" stop-opacity="0.64"/>
<stop offset="1" stop-color="white" stop-opacity="0"/>
</linearGradient>
</defs>
</svg>
