<svg width="1371" height="725" viewBox="0 0 1371 725" fill="none" xmlns="http://www.w3.org/2000/svg">
<path d="M0 649.117L415.885 439L831 647.844H415.885L0 649.117Z" fill="white"/>
<path d="M412.293 542.043L434.835 530.675L559.412 593.041L536.872 604.309L412.293 542.043Z" fill="#F2F6F6"/>
<path d="M323 526.259L518.206 428L615.808 477.13" stroke="url(#paint0_linear)" stroke-width="0.5" stroke-miterlimit="10" stroke-linecap="round" stroke-linejoin="round"/>
<path d="M255 362L362.884 416L416.826 389L576 472.5" stroke="url(#paint1_linear)" stroke-width="0.5" stroke-miterlimit="10" stroke-linecap="round" stroke-linejoin="round"/>
<path d="M1124 279L1231.88 333L1285.83 306L1445 389.5" stroke="url(#paint2_linear)" stroke-width="0.5" stroke-miterlimit="10" stroke-linecap="round" stroke-linejoin="round"/>
<path d="M1230 585.5L1122.12 531.5L1068.17 558.5L909 475" stroke="url(#paint3_linear)" stroke-width="0.5" stroke-miterlimit="10" stroke-linecap="round" stroke-linejoin="round"/>
<path d="M282 526.305L409.118 462.459L317.176 416.575L512.382 318.316L707.588 416.575" stroke="url(#paint4_linear)" stroke-width="0.5" stroke-miterlimit="10" stroke-linecap="round" stroke-linejoin="round"/>
<path d="M1179.08 196L1051.96 259.846L1143.91 305.73L948.7 403.989L753.495 305.73L742.323 312.22V488.664L731 495.305" stroke="url(#paint5_linear)" stroke-width="0.5" stroke-miterlimit="10" stroke-linecap="round" stroke-linejoin="round"/>
<path d="M532 600.171L781.731 474L1031 599.407L781.731 725L532 600.171Z" fill="white"/>
<path d="M593.127 349.282L631.37 329.995L669.611 349.247L631.37 368.363L593.127 349.282Z" fill="#1774E1"/>
<path d="M593.127 349.303L593.127 421.559L631.252 440.786L631.331 368.31L593.127 349.303Z" fill="#163F59"/>
<path d="M538.052 405.775L781.75 282.875L1025 405.031L781.75 527.369L538.052 405.775Z" fill="#34C88A"/>
<path d="M647.276 405.725L781.747 337.909L916.21 405.601L781.747 472.82L647.276 405.725Z" fill="white"/>
<path d="M714.874 439.694L781.745 405.97L848.611 439.632L781.745 473.059L714.874 439.694Z" fill="#163F59"/>
<path d="M747.864 455.917L781.744 438.831L815.622 455.886L781.744 472.822L747.864 455.917Z" fill="#C0F5DF"/>
<path d="M538.053 405.909L538.052 484.008L780.998 606.531L781.498 527.031L538.053 405.909Z" fill="#163F59"/>
<ellipse cx="737.677" cy="523.923" rx="3.09841" ry="2.44741" transform="rotate(58.2519 737.677 523.923)" fill="#FF876C"/>
<ellipse cx="746.711" cy="528.858" rx="3.09841" ry="2.44741" transform="rotate(58.2519 746.711 528.858)" fill="#FF876C"/>
<ellipse cx="757.711" cy="533.858" rx="3.09841" ry="2.44741" transform="rotate(58.2519 757.711 533.858)" fill="#FF876C"/>
<path d="M1025 405.032L1025 483.031L780.859 606.31L780.859 527.027L1025 405.032Z" fill="#C0F5DF"/>
<path d="M590.127 409.282L628.37 389.995L666.611 409.247L628.37 428.363L590.127 409.282Z" fill="#1774E1"/>
<path d="M590.127 409.303L590.127 421.559L628.252 440.786L628.331 428.31L590.127 409.303Z" fill="#163F59"/>
<path d="M666.471 409.244L666.471 421.501L628.23 440.752L628.23 428.31L666.471 409.244Z" fill="#70B2FF"/>
<path d="M568.788 581.611L617.391 557.101L665.99 581.567L617.391 605.862L568.788 581.611Z" fill="#F2F6F6"/>
<path d="M568.789 522.941L568.789 548.517L617.241 572.952L617.34 547.097L568.789 522.941Z" fill="#163F59"/>
<path d="M665.811 522.867L665.812 548.443L617.212 572.909L617.212 547.097L665.811 522.867Z" fill="#70B2FF"/>
<path d="M804.898 564.236L856.093 538.418L907.285 564.189L856.093 589.78L804.898 564.236Z" fill="#1774E1"/>
<path d="M804.898 621.205L856.093 595.387L907.285 621.158L856.093 646.749L804.898 621.205Z" fill="#F2F6F6"/>
<path d="M804.898 564.264L804.898 594.058L855.935 619.797L856.04 589.709L804.898 564.264Z" fill="#163F59"/>
<path d="M907.097 564.187L907.097 593.98L855.905 619.752L855.905 589.709L907.097 564.187Z" fill="#70B2FF"/>
<path d="M974.412 376.51L999.886 363.663L1025.36 376.487L999.886 389.221L974.412 376.51Z" fill="#1774E1"/>
<path d="M974.412 376.524L974.412 391.349L999.807 404.157L999.86 389.186L974.412 376.524Z" fill="#163F59"/>
<path d="M1025.45 376.524L1025.45 391.349L1000.05 404.157L1000 389.186L1025.45 376.524Z" fill="#34C88A"/>
<path d="M640.057 342.284L660.877 331.784L681.696 342.265L660.877 352.672L640.057 342.284Z" fill="#1774E1"/>
<path d="M640.057 342.295L640.057 354.412L660.813 364.879L660.856 352.643L640.057 342.295Z" fill="#163F59"/>
<path d="M681.62 342.264L681.62 354.38L660.801 364.861L660.801 352.644L681.62 342.264Z" fill="#70B2FF"/>
<path d="M941.018 475.674L988.652 451.652L1036.28 475.63L988.652 499.441L941.018 475.674Z" fill="#1774E1"/>
<path d="M941.018 560.642L988.652 536.62L1036.28 560.599L988.652 584.409L941.018 560.642Z" fill="white"/>
<path d="M941.018 475.7L941.018 525.73L988.505 549.678L988.602 499.375L941.018 475.7Z" fill="#163F59"/>
<path d="M1036.11 475.628L1036.11 525.657L988.477 549.636L988.477 499.375L1036.11 475.628Z" fill="#70B2FF"/>
<path d="M668.617 405.522L668.617 -17.6446L895.316 -17.6447L895.314 405.522L781.965 462.185L668.617 405.522Z" fill="url(#paint6_linear)"/>
<path d="M669.998 454.527L686.998 446.527L702.998 454.527L686.998 463.027L669.998 454.527Z" fill="white"/>
<path d="M686.998 535.527V462.759L702.998 454.527L686.998 535.527Z" fill="white"/>
<path d="M686.998 535.527V462.759L669.998 454.527L686.998 535.527Z" fill="#C6EBFF"/>
<path d="M528 253.403L556.848 239.828L584 253.403L556.848 267.828L528 253.403Z" fill="white"/>
<path d="M556.848 390.858V267.373L584 253.403L556.848 390.858Z" fill="white"/>
<path d="M556.848 390.858V267.373L528 253.403L556.848 390.858Z" fill="#C6EBFF"/>
<path d="M601 140.082L612.42 134.707L623.169 140.082L612.42 145.792L601 140.082Z" fill="white"/>
<path d="M612.42 194.496V145.612L623.169 140.082L612.42 194.496Z" fill="white"/>
<path d="M612.42 194.496V145.612L601 140.082L612.42 194.496Z" fill="#C6EBFF"/>
<path d="M1141 238.263L1156.54 230.949L1171.17 238.263L1156.54 246.033L1141 238.263Z" fill="white"/>
<path d="M1156.54 312.313V245.788L1171.17 238.263L1156.54 312.313Z" fill="white"/>
<path d="M1156.54 312.313V245.788L1141 238.263L1156.54 312.313Z" fill="#C6EBFF"/>
<path d="M975 194.496L992 186.496L1008 194.496L992 202.996L975 194.496Z" fill="white"/>
<path d="M992 235.496V202.728L1008 194.496L992 235.496Z" fill="white"/>
<path d="M992 235.496V202.728L975 194.496L992 235.496Z" fill="#C6EBFF"/>
<path d="M407 336.496L424 328.496L440 336.496L424 344.996L407 336.496Z" fill="white"/>
<path d="M424 377.496V344.728L440 336.496L424 377.496Z" fill="white"/>
<path d="M424 377.496V344.728L407 336.496L424 377.496Z" fill="#C6EBFF"/>
<path d="M785.593 148.658L738.598 120.521C733.011 117.185 726 121.3 726 127.973V184.024C726 186.026 727.424 187.472 729.396 187.472L754.044 187.361C756.673 187.361 758.316 184.58 757.001 182.245L753.715 176.462C752.4 174.015 749.333 173.125 746.923 174.682L746.595 174.794C744.185 176.239 741.227 175.238 739.803 173.014C739.145 171.68 739.036 170.234 739.365 168.899L744.294 152.996C745.061 150.549 747.58 148.992 749.99 149.548L765.765 152.884C767.189 153.218 768.394 153.997 769.051 155.331C770.366 157.778 769.49 161.003 767.299 162.226L766.97 162.338C764.56 163.783 763.684 167.009 765.217 169.455L768.285 175.127C769.599 177.463 772.885 177.463 773.981 175.127L786.359 153.329C787.674 151.661 787.236 149.659 785.593 148.658ZM847.267 185.581L800.381 157.444C798.738 156.443 796.766 157.111 795.78 158.779L783.621 180.91C782.306 183.246 783.949 186.026 786.579 186.026H794.575C796.328 186.026 797.862 184.58 797.862 182.578V178.908C797.862 176.907 799.286 175.461 801.148 175.461H803.449C804.434 175.461 805.201 175.906 805.859 176.573L818.018 190.808C819.114 192.143 819.114 194.145 818.018 195.479L805.968 209.715C805.311 210.382 804.544 210.827 803.558 210.827H801.258C799.505 210.827 797.971 209.381 797.971 207.379V203.598C797.971 201.596 796.547 200.15 794.685 200.15H786.688C784.059 200.15 782.416 202.931 783.73 205.266L795.78 227.286C796.766 228.955 798.738 229.622 800.381 228.621L847.267 200.484C852.854 197.147 852.854 188.918 847.267 185.581Z" fill="white"/>
<path d="M738.596 265.432L785.481 237.295C787.124 236.294 787.563 234.181 786.577 232.513L774.198 210.492C772.883 208.157 769.597 208.157 768.502 210.492L764.448 217.721C763.463 219.389 764.12 221.502 765.763 222.503L769.049 224.505C770.693 225.506 771.131 227.619 770.364 229.287L769.268 231.4C768.83 232.179 767.954 232.846 766.968 233.069L748.893 236.85C747.25 237.184 745.607 236.183 744.949 234.514L739.034 216.164C738.705 215.163 738.924 214.162 739.363 213.384L740.458 211.271C741.444 209.603 743.416 209.158 745.059 209.936L748.345 211.938C749.988 212.939 751.96 212.272 752.946 210.603L756.89 203.486C758.204 201.15 756.561 198.37 753.932 198.37L729.504 198.259C727.751 198.259 726.108 199.705 726.108 201.706V257.758C726.108 264.653 733.119 268.768 738.596 265.432Z" fill="white"/>
<path d="M727 344L760 363L727 382L727 344Z" fill="white" fill-opacity="0.5"/>
<path d="M797 308L812 316.5L797 325L797 308Z" fill="white" fill-opacity="0.5"/>
<path d="M845 244L868 258.5L845 273L845 244Z" fill="white" fill-opacity="0.5"/>
<path d="M856 409L833 395.5L856 382L856 409Z" fill="white" fill-opacity="0.3"/>
<path d="M568.788 522.915L617.391 498.404L665.99 522.87L617.391 547.165L568.788 522.915Z" fill="#E9F7FF"/>
<path d="M606.106 493.354L617.761 487.477L629.415 493.344L617.761 499.17L606.106 493.354Z" fill="#1774E1"/>
<path d="M606.106 493.361L606.106 504.29L617.725 510.15L617.749 499.154L606.106 493.361Z" fill="#163F59"/>
<path d="M629.372 493.344L629.372 504.273L617.718 510.139L617.718 499.154L629.372 493.344Z" fill="#70B2FF"/>
<path d="M1225.17 62.3315L1236.84 56.8361L1247.83 62.3315L1236.84 68.1705L1225.17 62.3315Z" fill="white"/>
<path d="M1236.84 90.4959V67.9864L1247.83 62.3315L1236.84 90.4959Z" fill="white"/>
<path d="M1236.84 90.4959V67.9864L1225.17 62.3315L1236.84 90.4959Z" fill="#C6EBFF"/>
<path d="M823 96L808 87.5L823 79L823 96Z" fill="white" fill-opacity="0.5"/>
<path d="M293 624.259L488.206 526L683.411 624.259L694.583 617.769V545.325L739.5 523" stroke="url(#paint7_linear)" stroke-width="0.5" stroke-miterlimit="10" stroke-linecap="round" stroke-linejoin="round"/>
<path d="M843.5 703.5L703 634.259L714.172 627.769V555.325L759.089 533" stroke="url(#paint8_linear)" stroke-width="0.5" stroke-miterlimit="10" stroke-linecap="round" stroke-linejoin="round"/>
<path d="M726 711V539.163L748.458 528" stroke="url(#paint9_linear)" stroke-width="0.5" stroke-miterlimit="10" stroke-linecap="round" stroke-linejoin="round"/>
<path d="M412.293 468.043L434.835 456.675L559.412 519.041L536.872 530.309L412.293 468.043Z" fill="#1774E1"/>
<path d="M449.397 486.596L471.939 475.228L559.412 519.041L536.872 530.309L449.397 486.596Z" fill="#C0F5DF"/>
<path d="M412.293 468.056L412.293 470.642L536.802 532.993L536.848 530.278L412.293 468.056Z" fill="#163F59"/>
<path d="M559.329 519.039L559.329 521.626L536.789 532.973L536.789 530.277L559.329 519.039Z" fill="#70B2FF"/>
<mask id="path-81-inside-1" fill="white">
<path d="M1085 459.511L1133.6 435L1223.2 480.466L1174.6 504.761L1085 459.511Z"/>
</mask>
<path d="M1085 459.511L1084.55 458.618C1084.21 458.788 1084 459.133 1084 459.511C1084 459.888 1084.21 460.233 1084.55 460.403L1085 459.511ZM1133.6 435L1134.05 434.108C1133.77 433.964 1133.44 433.964 1133.15 434.107L1133.6 435ZM1223.2 480.466L1223.65 481.361C1223.99 481.192 1224.2 480.847 1224.2 480.469C1224.2 480.091 1223.99 479.745 1223.65 479.574L1223.2 480.466ZM1174.6 504.761L1174.15 505.654C1174.43 505.796 1174.77 505.797 1175.05 505.656L1174.6 504.761ZM1085.45 460.404L1134.05 435.893L1133.15 434.107L1084.55 458.618L1085.45 460.404ZM1133.15 435.892L1222.75 481.358L1223.65 479.574L1134.05 434.108L1133.15 435.892ZM1222.75 479.572L1174.16 503.867L1175.05 505.656L1223.65 481.361L1222.75 479.572ZM1175.05 503.868L1085.45 458.618L1084.55 460.403L1174.15 505.654L1175.05 503.868Z" fill="#4FC0FF" mask="url(#path-81-inside-1)"/>
<path d="M1107.11 508.413L1113 505.457L1143.11 520.526L1137.23 523.457L1107.11 508.413Z" fill="white"/>
<path d="M431 467.643L434.27 466L451 474.372L447.73 476L431 467.643Z" fill="#E9F7FF"/>
<path d="M784 508.643L787.27 507L804 515.372L800.73 517L784 508.643Z" fill="#C0F5DF"/>
<path d="M893 562.821L894.635 562L903 566.186L901.365 567L893 562.821Z" fill="#70B2FF"/>
<path d="M996 383.821L997.635 383L1006 387.186L1004.37 388L996 383.821Z" fill="#34C88A"/>
<path d="M987 407.643L990.27 406L1007 414.372L1003.73 416L987 407.643Z" fill="#C0F5DF"/>
<path d="M1099 490.955L1104.8 488L1156 514.071L1150.2 517L1099 490.955Z" fill="white"/>
<mask id="path-90-inside-2" fill="white">
<path d="M951 294.511L999.602 270L1049.2 295.466L1000.6 319.761L951 294.511Z"/>
</mask>
<path d="M951 294.511L950.775 294.064C950.607 294.149 950.5 294.321 950.5 294.51C950.5 294.698 950.605 294.871 950.773 294.956L951 294.511ZM999.602 270L999.831 269.555C999.689 269.482 999.52 269.482 999.377 269.554L999.602 270ZM1049.2 295.466L1049.43 295.913C1049.59 295.829 1049.7 295.657 1049.7 295.469C1049.7 295.28 1049.6 295.107 1049.43 295.021L1049.2 295.466ZM1000.6 319.761L1000.38 320.207C1000.52 320.279 1000.68 320.279 1000.83 320.208L1000.6 319.761ZM951.225 294.957L999.827 270.446L999.377 269.554L950.775 294.064L951.225 294.957ZM999.374 270.445L1048.97 295.911L1049.43 295.021L999.831 269.555L999.374 270.445ZM1048.98 295.019L1000.38 319.314L1000.83 320.208L1049.43 295.913L1048.98 295.019ZM1000.83 319.316L951.227 294.065L950.773 294.956L1000.38 320.207L1000.83 319.316Z" fill="#4FC0FF" mask="url(#path-90-inside-2)"/>
<path d="M935.114 322.413L941 319.457L971.114 334.526L965.228 337.457L935.114 322.413Z" fill="white"/>
<path d="M927 304.955L932.803 302L984 328.071L978.197 331L927 304.955Z" fill="white"/>
<defs>
<linearGradient id="paint0_linear" x1="531.5" y1="450" x2="400" y2="524" gradientUnits="userSpaceOnUse">
<stop stop-color="#4FC0FF"/>
<stop offset="1" stop-color="#4FC0FF" stop-opacity="0"/>
</linearGradient>
<linearGradient id="paint1_linear" x1="422" y1="409" x2="268.749" y2="357.263" gradientUnits="userSpaceOnUse">
<stop stop-color="#4FC0FF"/>
<stop offset="1" stop-color="#4FC0FF" stop-opacity="0"/>
</linearGradient>
<linearGradient id="paint2_linear" x1="1239.23" y1="320.909" x2="1166.75" y2="279.893" gradientUnits="userSpaceOnUse">
<stop stop-color="#4FC0FF"/>
<stop offset="1" stop-color="#4FC0FF" stop-opacity="0"/>
</linearGradient>
<linearGradient id="paint3_linear" x1="1047" y1="547" x2="1242.73" y2="602.941" gradientUnits="userSpaceOnUse">
<stop stop-color="#4FC0FF"/>
<stop offset="1" stop-color="#4FC0FF" stop-opacity="0"/>
</linearGradient>
<linearGradient id="paint4_linear" x1="457.5" y1="313.976" x2="288.5" y2="568.476" gradientUnits="userSpaceOnUse">
<stop stop-color="#4FC0FF"/>
<stop offset="1" stop-color="#4FC0FF" stop-opacity="0"/>
</linearGradient>
<linearGradient id="paint5_linear" x1="1003.58" y1="408.329" x2="1172.58" y2="153.829" gradientUnits="userSpaceOnUse">
<stop stop-color="#4FC0FF"/>
<stop offset="1" stop-color="#4FC0FF" stop-opacity="0"/>
</linearGradient>
<linearGradient id="paint6_linear" x1="905.073" y1="532.529" x2="905.073" y2="-92.5987" gradientUnits="userSpaceOnUse">
<stop stop-color="#0094FF" stop-opacity="0.7"/>
<stop offset="0.983425" stop-color="white" stop-opacity="0"/>
</linearGradient>
<linearGradient id="paint7_linear" x1="621.824" y1="510.684" x2="292.824" y2="646.684" gradientUnits="userSpaceOnUse">
<stop stop-color="#4FC0FF"/>
<stop offset="1" stop-color="#4FC0FF" stop-opacity="0"/>
</linearGradient>
<linearGradient id="paint8_linear" x1="698" y1="618" x2="829" y2="683" gradientUnits="userSpaceOnUse">
<stop stop-color="#4FC0FF"/>
<stop offset="1" stop-color="#4FC0FF" stop-opacity="0"/>
</linearGradient>
<linearGradient id="paint9_linear" x1="742" y1="574" x2="742" y2="685" gradientUnits="userSpaceOnUse">
<stop stop-color="#4FC0FF"/>
<stop offset="1" stop-color="#4FC0FF" stop-opacity="0"/>
</linearGradient>
</defs>
</svg>
