<svg width="91" height="86" viewBox="0 0 91 86" fill="none" xmlns="http://www.w3.org/2000/svg">
<path d="M28.7598 3C29.5296 1.66667 31.4541 1.66667 32.2239 3L55.1665 42.7378C55.9363 44.0711 54.974 45.7378 53.4344 45.7378H7.54923C6.00963 45.7378 5.04738 44.0711 5.81718 42.7378L28.7598 3Z" transform="translate(30.4922 83.3052) rotate(-120)" fill="#FFD0C5"/>
<path d="M36.701 3.25C37.2783 2.25 38.7217 2.25 39.299 3.25L68.7439 54.25C69.3213 55.25 68.5996 56.5 67.4449 56.5H8.55514C7.40044 56.5 6.67875 55.25 7.2561 54.25L36.701 3.25Z" transform="translate(14.4648 9.30518)" stroke="white"/>
<path d="M36.701 3.25C37.2783 2.25 38.7217 2.25 39.299 3.25L68.7439 54.25C69.3213 55.25 68.5996 56.5 67.4449 56.5H8.55514C7.40044 56.5 6.67875 55.25 7.2561 54.25L36.701 3.25Z" transform="translate(14.4648 9.30518)" stroke="#AAACB2"/>
</svg>
