<svg width="69" height="81" viewBox="0 0 69 81" fill="none" xmlns="http://www.w3.org/2000/svg">
<mask id="path-1-inside-1" fill="white">
<path fill-rule="evenodd" clip-rule="evenodd" d="M21.3518 4.44631C21.7394 5.31485 22.5331 6 23.4842 6H27C28.1046 6 29 6.89543 29 8V16C29 17.1046 28.1046 18 27 18H2C0.895431 18 0 17.1046 0 16V8C0 6.89543 0.895431 6 2 6H5.51577C6.46689 6 7.26058 5.31485 7.64822 4.44631C8.81763 1.82618 11.4449 0 14.5 0C17.555 0 20.1824 1.82618 21.3518 4.44631Z"/>
</mask>
<path d="M23.4842 8H27V4H23.4842V8ZM27 8V16H31V8H27ZM27 16H2V20H27V16ZM2 16V8H-2V16H2ZM2 8H5.51577V4H2V8ZM9.47458 5.26144C10.3341 3.33553 12.2628 2 14.5 2V-2C10.6271 -2 7.30112 0.316819 5.82187 3.63118L9.47458 5.26144ZM14.5 2C16.7372 2 18.6659 3.33553 19.5254 5.26144L23.1781 3.63118C21.6989 0.316819 18.3729 -2 14.5 -2V2ZM5.51577 8C7.48781 8 8.87171 6.61221 9.47458 5.26144L5.82187 3.63118C5.7507 3.79065 5.65393 3.90235 5.57799 3.96046C5.51073 4.01192 5.49253 4 5.51577 4V8ZM2 8V4C-0.209139 4 -2 5.79086 -2 8H2ZM2 16H-2C-2 18.2091 -0.209139 20 2 20V16ZM27 16V20C29.2091 20 31 18.2091 31 16H27ZM27 8H31C31 5.79086 29.2091 4 27 4V8ZM23.4842 4C23.5075 4 23.4893 4.01192 23.422 3.96046C23.3461 3.90235 23.2493 3.79065 23.1781 3.63118L19.5254 5.26144C20.1283 6.61221 21.5122 8 23.4842 8V4Z" transform="translate(14)" fill="#34C88A" mask="url(#path-1-inside-1)"/>
<path fill-rule="evenodd" clip-rule="evenodd" d="M4 0H11V2H4C2.89551 2 2 2.89545 2 4V66C2 67.1046 2.89551 68 4 68H52C53.1045 68 54 67.1046 54 66V52H56V66C56 68.2091 54.209 70 52 70H4C1.79102 70 0 68.2091 0 66V4C0 1.79083 1.79102 0 4 0ZM56 18V4C56 1.79083 54.209 0 52 0H46V2H52C53.1045 2 54 2.89545 54 4V18H56Z" transform="translate(0 11)" fill="#34C88A"/>
<circle cx="14" cy="14" r="13" transform="translate(41 32)" stroke="#34C88A" stroke-width="2"/>
<path d="M0 2.5L5 7.5L12.5 0" transform="translate(48.5 42)" stroke="#34C88A" stroke-width="2" stroke-linecap="round" stroke-linejoin="round"/>
<path d="M0 0H19.5" transform="translate(21 32)" stroke="#34C88A" stroke-width="2"/>
<circle cx="3" cy="3" r="2" transform="translate(10 29)" stroke="#34C88A" stroke-width="2"/>
<path d="M0 0H14" transform="translate(21 42)" stroke="#34C88A" stroke-width="2"/>
<circle cx="3" cy="3" r="2" transform="translate(10 39)" stroke="#34C88A" stroke-width="2"/>
<path d="M0 0H14" transform="translate(21 52)" stroke="#34C88A" stroke-width="2"/>
<circle cx="3" cy="3" r="2" transform="translate(10 49)" stroke="#34C88A" stroke-width="2"/>
<path d="M0 0H19.5" transform="translate(21 62)" stroke="#34C88A" stroke-width="2"/>
<circle cx="3" cy="3" r="2" transform="translate(10 59)" stroke="#34C88A" stroke-width="2"/>
</svg>
