<svg width="137" height="78" viewBox="0 0 137 78" fill="none" xmlns="http://www.w3.org/2000/svg">
<path d="M0 43.6277V6.61378C0 3.01681 2.92464 0 6.5512 0H39.7752C43.4017 0 46.4434 2.90078 46.4434 6.61378V28.7757" transform="translate(46.6289 5.64111)" stroke="#34C88A" stroke-width="2" stroke-linecap="round" stroke-linejoin="round"/>
<path d="M46.5603 0V18.565C46.5603 22.162 43.6357 25.1788 39.8922 25.1788H6.66819C3.04163 25.1788 1.78506e-06 22.278 1.78506e-06 18.565V15.2001" transform="translate(46.5117 43.9316)" stroke="#34C88A" stroke-width="2" stroke-linecap="round" stroke-linejoin="round"/>
<path d="M2.22273 4.40918C3.45031 4.40918 4.44546 3.42216 4.44546 2.20459C4.44546 0.987031 3.45031 0 2.22273 0C0.995151 0 0 0.987031 0 2.20459C0 3.42216 0.995151 4.40918 2.22273 4.40918Z" transform="translate(54.002 37.3169)" stroke="#34C88A" stroke-width="2" stroke-linecap="round" stroke-linejoin="round"/>
<path d="M1.78506e-06 7.62939e-07H18.3668" transform="translate(63.4727 39.5225)" stroke="#34C88A" stroke-width="2" stroke-linecap="round" stroke-linejoin="round"/>
<path d="M-8.92531e-07 -3.8147e-07H7.3701" transform="translate(74.4707 21.189)" stroke="#34C88A" stroke-width="2" stroke-linecap="round" stroke-linejoin="round"/>
<path d="M-8.92531e-07 7.62939e-07H7.3701" transform="translate(74.4707 25.5991)" stroke="#34C88A" stroke-width="2" stroke-linecap="round" stroke-linejoin="round"/>
<path d="M1.78506e-06 -7.62939e-07H9.82681" transform="translate(63.4727 44.2783)" stroke="#34C88A" stroke-width="2" stroke-linecap="round" stroke-linejoin="round"/>
<path d="M2.22273 4.40919C3.45031 4.40919 4.44546 3.42216 4.44546 2.20459C4.44546 0.98703 3.45031 0 2.22273 0C0.995151 0 0 0.98703 0 2.20459C0 3.42216 0.995151 4.40919 2.22273 4.40919Z" transform="translate(54.002 52.1699)" stroke="#34C88A" stroke-width="2" stroke-linecap="round" stroke-linejoin="round"/>
<path d="M1.78506e-06 0H18.3668" transform="translate(63.4727 54.3745)" stroke="#34C88A" stroke-width="2" stroke-linecap="round" stroke-linejoin="round"/>
<path d="M1.78506e-06 -1.52588e-06H9.82681" transform="translate(63.4727 59.1313)" stroke="#34C88A" stroke-width="2" stroke-linecap="round" stroke-linejoin="round"/>
<path d="M8.89092 5.10537L8.92531e-07 -4.42624e-07V10.2107L8.89092 5.10537Z" transform="translate(54.4688 15.9683)" stroke="#34C88A" stroke-width="2" stroke-linecap="round" stroke-linejoin="round"/>
<path d="M5.03039 9.97868C7.8086 9.97868 10.0608 7.74488 10.0608 4.98934C10.0608 2.2338 7.8086 0 5.03039 0C2.25218 0 0 2.2338 0 4.98934C0 7.74488 2.25218 9.97868 5.03039 9.97868Z" transform="translate(10.9453 45.3242)" stroke="#34C88A" stroke-width="2" stroke-linecap="round" stroke-linejoin="round"/>
<path d="M14.9742 29.704C23.2442 29.704 29.9484 23.0545 29.9484 14.852C29.9484 6.64946 23.2442 0 14.9742 0C6.70417 0 0 6.64946 0 14.852C0 23.0545 6.70417 29.704 14.9742 29.704Z" transform="translate(1 39.522)" stroke="#34C88A" stroke-width="2" stroke-linecap="round" stroke-linejoin="round"/>
<path d="M17.8988 10.0947C18.1328 9.63059 18.2498 8.9344 18.2498 8.23822C18.2498 3.713 14.1553 -1.7705e-06 9.12489 -1.7705e-06C4.0945 -1.7705e-06 -1.11566e-07 3.713 -1.11566e-07 8.23822C-1.11566e-07 8.9344 0.116986 9.51456 0.350957 10.0947" transform="translate(6.96289 56.2314)" stroke="#34C88A" stroke-width="2" stroke-linecap="round" stroke-linejoin="round"/>
<path d="M4.46265e-07 0H18.0158" transform="translate(30.9453 54.375)" stroke="#34C88A" stroke-width="2" stroke-linecap="round" stroke-linejoin="round"/>
<path d="M5.03039 9.97868C7.80859 9.97868 10.0608 7.74488 10.0608 4.98934C10.0608 2.2338 7.80859 0 5.03039 0C2.25218 0 3.57012e-06 2.2338 3.57012e-06 4.98934C3.57012e-06 7.74488 2.25218 9.97868 5.03039 9.97868Z" transform="translate(115.994 6.68457)" stroke="#34C88A" stroke-width="2" stroke-linecap="round" stroke-linejoin="round"/>
<path d="M14.9742 29.704C23.2442 29.704 29.9484 23.0545 29.9484 14.852C29.9484 6.64946 23.2442 0 14.9742 0C6.70417 0 3.57012e-06 6.64946 3.57012e-06 14.852C3.57012e-06 23.0545 6.70417 29.704 14.9742 29.704Z" transform="translate(106.051 1)" stroke="#34C88A" stroke-width="2" stroke-linecap="round" stroke-linejoin="round"/>
<path d="M17.8988 10.0947C18.1328 9.63059 18.2498 8.9344 18.2498 8.23822C18.2498 3.713 14.1553 -4.42624e-07 9.12489 -4.42624e-07C4.0945 -4.42624e-07 1.78506e-06 3.713 1.78506e-06 8.23822C1.78506e-06 8.9344 0.116982 9.51456 0.350954 10.0947" transform="translate(112.014 17.709)" stroke="#34C88A" stroke-width="2" stroke-linecap="round" stroke-linejoin="round"/>
<path d="M5.03039 9.97868C7.80859 9.97868 10.0608 7.74488 10.0608 4.98934C10.0608 2.2338 7.80859 0 5.03039 0C2.25218 0 3.57012e-06 2.2338 3.57012e-06 4.98934C3.57012e-06 7.74488 2.25218 9.97868 5.03039 9.97868Z" transform="translate(115.994 52.9824)" stroke="#34C88A" stroke-width="2" stroke-linecap="round" stroke-linejoin="round"/>
<path d="M14.9742 29.704C23.2442 29.704 29.9484 23.0545 29.9484 14.852C29.9484 6.64947 23.2442 0 14.9742 0C6.70417 0 3.57012e-06 6.64947 3.57012e-06 14.852C3.57012e-06 23.0545 6.70417 29.704 14.9742 29.704Z" transform="translate(106.051 47.2959)" stroke="#34C88A" stroke-width="2" stroke-linecap="round" stroke-linejoin="round"/>
<path d="M17.8988 10.0947C18.1328 9.63059 18.2498 8.9344 18.2498 8.23822C18.2498 3.713 14.1553 -8.85248e-07 9.12489 -8.85248e-07C4.0945 -8.85248e-07 1.78506e-06 3.713 1.78506e-06 8.23822C1.78506e-06 8.9344 0.116982 9.51456 0.350954 10.0947" transform="translate(112.014 64.0054)" stroke="#34C88A" stroke-width="2" stroke-linecap="round" stroke-linejoin="round"/>
<path d="M-1.52588e-06 4.42624e-07V16.5925" transform="translate(121.023 30.7041)" stroke="#34C88A" stroke-width="2" stroke-linecap="round" stroke-linejoin="round"/>
<path d="M3.57012e-06 7.62939e-07H33.107" transform="translate(87.918 39.522)" stroke="#34C88A" stroke-width="2" stroke-linecap="round" stroke-linejoin="round"/>
</svg>
