<svg width="34" height="40" viewBox="0 0 34 40" fill="none" xmlns="http://www.w3.org/2000/svg">
<path d="M17 0L6.56211 6.12683L10.3996 8.39024L17 4.52683L23.6004 8.39024L27.4379 6.12683L17 0Z" fill="#F0B90B"/>
<path d="M23.6004 11.5902L27.4379 13.8537V18.3805L20.8375 22.2439V29.9707L17 32.2341L13.1625 29.9707V22.2439L6.56211 18.3805V13.8537L10.3996 11.5902L17 15.4537L23.6004 11.5902Z" fill="#F0B90B"/>
<path d="M27.4379 21.5805V26.1073L23.6004 28.3707V23.8439L27.4379 21.5805Z" fill="#F0B90B"/>
<path d="M23.5621 31.5707L30.1625 27.7073V19.9805L34 17.7171V29.9707L23.5621 36.0976V31.5707Z" fill="#F0B90B"/>
<path d="M30.1625 12.2537L26.3251 9.99025L30.1625 7.72683L34 9.99025V14.5171L30.1625 16.7805V12.2537Z" fill="#F0B90B"/>
<path d="M13.1625 37.7366V33.2098L17 35.4732L20.8375 33.2098V37.7366L17 40L13.1625 37.7366Z" fill="#F0B90B"/>
<path d="M10.3996 28.3707L6.56211 26.1073V21.5805L10.3996 23.8439V28.3707Z" fill="#F0B90B"/>
<path d="M17 12.2537L13.1625 9.99025L17 7.72683L20.8375 9.99025L17 12.2537Z" fill="#F0B90B"/>
<path d="M7.67493 9.99025L3.83747 12.2537V16.7805L0 14.5171V9.99025L3.83747 7.72683L7.67493 9.99025Z" fill="#F0B90B"/>
<path d="M0 17.7171L3.83747 19.9805V27.7073L10.4379 31.5707V36.0976L0 29.9707V17.7171Z" fill="#F0B90B"/>
</svg>
