<svg width="592" height="524" viewBox="0 0 592 524" fill="none" xmlns="http://www.w3.org/2000/svg">
<path d="M244.454 265.723L-0.000183105 124.675V41.5578L244.454 182.606V265.723Z" fill="url(#paint0_linear)" fill-opacity="0.5"/>
<path d="M244.454 182.606L316.479 141.048L72.0238 0.0900269L-0.000183105 41.5578L244.454 182.606Z" fill="url(#paint1_linear)" fill-opacity="0.5"/>
<path opacity="0.9" d="M262.652 136.741L255.091 132.37L247.53 136.741V145.49L255.091 149.861L262.652 145.49V136.741Z" stroke="white" stroke-width="5"/>
<ellipse cx="211.702" cy="221.435" rx="6.28203" ry="6.28929" fill="white"/>
<ellipse cx="199.021" cy="166.911" rx="3.03078" ry="3.03475" fill="white"/>
<path d="M458.659 264.265L473.299 272.712L458.659 281.159L458.659 264.265Z" fill="white" fill-opacity="0.5"/>
<path d="M443.238 350.23L431.203 343.299L443.227 336.349L443.238 350.23Z" fill="white" fill-opacity="0.5"/>
<path d="M404.081 225.97L428.081 239.818L404.081 253.666L404.081 225.97Z" fill="white" fill-opacity="0.5"/>
<path d="M422.017 304.489L411.239 298.281L422.007 292.056L422.017 304.489Z" fill="white" fill-opacity="0.5"/>
<path opacity="0.43" d="M348.882 294.207L379.775 312.043L240.891 392.173L209.998 374.336L348.882 294.207Z" fill="black" fill-opacity="0.2"/>
<path opacity="0.43" d="M272.355 288.293L241.553 270.547L318.741 226L349.378 243.892L272.355 288.293Z" fill="#163F59"/>
<path opacity="0.43" d="M318.643 136.907L349.536 154.744L349.378 243.892L318.733 226L318.643 136.907Z" fill="#163F59"/>
<path d="M241.014 180.999V341.376L380.789 261.188V100.811L318.651 136.907L241.014 180.999ZM272.356 288.293V199.2L349.544 154.654L349.379 243.892L272.356 288.293Z" fill="#34C88A"/>
<path d="M211.172 324.08L241.012 341.376V180.999L211.172 163.704V324.08Z" fill="#163F59"/>
<path d="M349.534 83.4878L380.787 100.811L241.012 180.999L211.172 163.704L349.534 83.4878Z" fill="#C0F5DF"/>
<ellipse cx="2.59388" cy="3.5651" rx="2.59388" ry="3.5651" transform="matrix(-0.92889 0.370356 0.370722 0.928744 232.021 317.94)" fill="#FF876C"/>
<ellipse cx="2.59388" cy="3.5651" rx="2.59388" ry="3.5651" transform="matrix(-0.92889 0.370356 0.370722 0.928744 222.805 314.619)" fill="#FF876C"/>
<ellipse cx="1.43511" cy="1.97246" rx="1.43511" ry="1.97246" transform="matrix(-0.92889 0.370356 0.370722 0.928744 231.541 326.514)" fill="#FF876C"/>
<ellipse cx="4.80237" cy="6.60052" rx="4.80237" ry="6.60052" transform="matrix(0.92889 0.370356 -0.370722 0.928744 289.566 163.704)" fill="#FF876C"/>
<ellipse cx="3.4059" cy="4.68117" rx="3.4059" ry="4.68117" transform="matrix(-0.92889 -0.370356 0.370722 -0.928744 365.574 136.341)" fill="#C0F5DF"/>
<ellipse cx="4.80237" cy="6.60052" rx="4.80237" ry="6.60052" transform="matrix(0.92889 0.370356 -0.370722 0.928744 275.752 171.959)" fill="#FF876C"/>
<path d="M250.963 308.693L266.668 300.468V318.973L250.963 327.198V308.693Z" fill="#C0F5DF"/>
<path d="M236.963 234.187L241.425 236.735L246.525 234.187" stroke="white" stroke-linecap="round" stroke-linejoin="round"/>
<path d="M236.963 227.775L241.425 230.324L246.525 227.775" stroke="white" stroke-linecap="round" stroke-linejoin="round"/>
<path d="M236.963 206.128L241.425 208.677L246.525 206.128" stroke="white" stroke-linecap="round" stroke-linejoin="round"/>
<path d="M236.963 221.025L241.425 223.574L246.525 221.025" stroke="white" stroke-linecap="round" stroke-linejoin="round"/>
<path d="M230.55 322.481L181.447 349.491L181.447 398.872L339.572 491.132" stroke="url(#paint2_linear)"/>
<path d="M309.893 177.742L317.367 173.43L317.367 182.055L309.893 177.742Z" fill="white" fill-opacity="0.5"/>
<path d="M274.523 200.517L518.978 341.565V424.682L274.523 284.745V200.517Z" fill="url(#paint3_linear)" fill-opacity="0.5"/>
<path d="M274.523 200.517L346.547 158.959L591.002 300.007L518.978 341.475L274.523 200.517Z" fill="url(#paint4_linear)" fill-opacity="0.5"/>
<path d="M299.115 249.817L307.887 254.878L299.115 259.939L299.115 249.817Z" fill="white" fill-opacity="0.5"/>
<path d="M328.968 243.825L344.718 252.913L328.968 262.001L328.968 243.825Z" fill="white" fill-opacity="0.5"/>
<path d="M353.628 285.749L363.937 291.697L353.628 297.645L353.628 285.749Z" fill="white" fill-opacity="0.5"/>
<path d="M340.482 205.342L352.261 197.853V212.832L340.482 205.342Z" fill="white" fill-opacity="0.5"/>
<path d="M288.66 209.274L298.083 203.827V214.72L288.66 209.274Z" fill="white" fill-opacity="0.5"/>
<path d="M250.963 308.693L266.668 300.468V318.973L250.963 309.539V308.693Z" fill="#95E2C1"/>
<ellipse opacity="0.2" cx="174.009" cy="190.406" rx="7.85254" ry="7.86161" fill="white"/>
<ellipse opacity="0.9" cx="170.226" cy="138.081" rx="5.55643" ry="5.5637" fill="white"/>
<ellipse opacity="0.3" cx="100.198" cy="124.368" rx="7.85254" ry="7.86161" fill="white"/>
<ellipse opacity="0.5" cx="159.878" cy="99.2107" rx="7.85254" ry="7.86161" fill="white"/>
<path d="M304.306 385.937L304.306 341.273L251.144 309.76" stroke="url(#paint5_linear)"/>
<path d="M221.588 319.511L193.334 335.363L166.036 322.482L76.0702 374.9" stroke="url(#paint6_linear)"/>
<path d="M211.65 111.274L198.964 118.355V132.517L211.65 139.598L224.336 132.517V118.355L211.65 111.274Z" stroke="white" stroke-width="5"/>
<path opacity="0.9" d="M174.758 181.251L167.196 176.88L159.635 181.251V190L167.196 194.371L174.758 190V181.251Z" stroke="white" stroke-width="5"/>
<defs>
<linearGradient id="paint0_linear" x1="330.889" y1="328.615" x2="103.231" y2="191.715" gradientUnits="userSpaceOnUse">
<stop stop-color="#34C88A" stop-opacity="0.8"/>
<stop offset="1" stop-color="#34C88A" stop-opacity="0"/>
</linearGradient>
<linearGradient id="paint1_linear" x1="330.889" y1="328.615" x2="103.231" y2="191.715" gradientUnits="userSpaceOnUse">
<stop stop-color="#34C88A" stop-opacity="0.8"/>
<stop offset="1" stop-color="#34C88A" stop-opacity="0"/>
</linearGradient>
<linearGradient id="paint2_linear" x1="212.927" y1="324.089" x2="212.9" y2="395.729" gradientUnits="userSpaceOnUse">
<stop stop-color="#FF876C"/>
<stop offset="1" stop-color="#FF876C" stop-opacity="0"/>
</linearGradient>
<linearGradient id="paint3_linear" x1="225.838" y1="328.77" x2="486.541" y2="329.159" gradientUnits="userSpaceOnUse">
<stop stop-color="#FF876C"/>
<stop offset="1" stop-color="#FF876C" stop-opacity="0"/>
</linearGradient>
<linearGradient id="paint4_linear" x1="225.838" y1="328.77" x2="486.541" y2="329.159" gradientUnits="userSpaceOnUse">
<stop stop-color="#FF876C"/>
<stop offset="1" stop-color="#FF876C" stop-opacity="0"/>
</linearGradient>
<linearGradient id="paint5_linear" x1="265.885" y1="324.839" x2="300.58" y2="380.567" gradientUnits="userSpaceOnUse">
<stop stop-color="#FF876C"/>
<stop offset="1" stop-color="#FF876C" stop-opacity="0"/>
</linearGradient>
<linearGradient id="paint6_linear" x1="230.673" y1="323.406" x2="140.589" y2="323.545" gradientUnits="userSpaceOnUse">
<stop stop-color="#FF876C"/>
<stop offset="1" stop-color="#FF876C" stop-opacity="0"/>
</linearGradient>
</defs>
</svg>
