<svg width="825" height="735" viewBox="0 0 825 735" fill="none" xmlns="http://www.w3.org/2000/svg">
<path d="M303.452 1.84248e-05L176.485 63.9967L268.276 109.881L73.221 208.14L0 171.312" transform="translate(142.764 462.92)" stroke="#F2F6F6" stroke-width="0.5" stroke-miterlimit="10"/>
<path d="M2.24964e-09 299.305L127.118 235.309L35.1763 189.424L230.382 91.1651L425.588 189.424L436.759 183.085V6.49024L448.082 4.60619e-06" transform="translate(1 305.343)" stroke="#F2F6F6" stroke-width="0.5" stroke-miterlimit="10"/>
<path d="M2.30364e-06 189.877L126.967 125.88L68.088 98.2591L263.294 0L336.364 36.8283" transform="translate(91.2812 399.225)" stroke="#F2F6F6" stroke-width="0.5" stroke-miterlimit="10"/>
<path d="M9.21455e-06 512.577L127.118 448.581L35.1763 402.696L230.382 304.437L288.959 334.473L332.136 312.739V6.64118L343.459 -4.60619e-06" transform="translate(435.043 221.423)" stroke="#F2F6F6" stroke-width="0.5" stroke-miterlimit="10"/>
<path d="M0 120.145L238.685 -1.84248e-05L477.371 120.145L238.685 239.384L0 120.145Z" transform="translate(345.062 393.64)" fill="#F2F6F6"/>
<path d="M91.9414 45.8844L1.84291e-05 9.21238e-06" transform="translate(624.662 505.785)" stroke="#FF876C" stroke-width="0.75" stroke-miterlimit="10"/>
<path d="M303.452 -9.21238e-06L176.485 63.9967L268.276 109.881L73.221 207.989L0 171.312" transform="translate(142.764 427.752)" stroke="url(#paint0_linear)" stroke-width="0.5" stroke-miterlimit="10"/>
<path d="M0 120.145L238.685 -4.60619e-06L477.371 120.145L238.685 239.384L0 120.145Z" transform="translate(332.986 301.418)" fill="#48718B"/>
<path d="M0 120.145L238.685 -4.60619e-06L477.371 120.145L238.685 239.384L0 120.145Z" transform="translate(332.986 178)" fill="url(#paint1_linear)" fill-opacity="0.7"/>
<path d="M0 120.145L238.685 1.15155e-06L477.371 120.145L238.685 239.384L0 120.145Z" transform="translate(332.986 37.2811)" fill="url(#paint2_linear)"/>
<path d="M-9.21455e-06 -9.21238e-06V10.8674L237.93 130.861L238.383 119.088L-9.21455e-06 -9.21238e-06Z" transform="translate(333.588 421.714)" fill="#34C88A"/>
<path d="M238.685 1.84248e-05V10.8674L0 131.163V119.39L238.685 1.84248e-05Z" transform="translate(571.521 421.412)" fill="#C0F5DF"/>
<path d="M31.251 4.60619e-06H0V187.613H83.1851L244.12 107.164L31.251 4.60619e-06Z" transform="translate(566.236 314.399)" fill="#163F59"/>
<path d="M-1.84291e-05 2.41497L4.37818 -2.30309e-06L143.272 70.0341L138.742 72.4491L-1.84291e-05 2.41497Z" transform="translate(583.293 85.4296)" fill="#F2F6F6"/>
<g opacity="0.4">
<path opacity="0.4" d="M-1.84291e-05 267.609V1.15155e-06L138.742 69.8832V337.039L-1.84291e-05 267.609Z" transform="translate(583.293 87.8445)" fill="#C0F5DF"/>
<path opacity="0.4" d="M1.84291e-05 2.30309e-06V5.88649L48.4617 30.489V24.6025L1.84291e-05 2.30309e-06Z" transform="translate(601.262 134.936)" fill="#34C88A"/>
<path opacity="0.4" d="M1.84291e-05 0V5.88649L26.269 19.3198V13.4333L1.84291e-05 0Z" transform="translate(601.262 147.917)" fill="#34C88A"/>
</g>
<path d="M1.84291e-05 2.26403V269.42L4.68009 267.156V0L1.84291e-05 2.26403Z" transform="translate(722.037 155.464)" fill="#34C88A"/>
<path d="M1.84291e-05 2.41497L4.37817 -2.30309e-06L143.272 70.0341L138.742 72.4491L1.84291e-05 2.41497Z" transform="translate(561.252 96.7498)" fill="#F2F6F6"/>
<g opacity="0.4">
<path opacity="0.4" d="M1.84291e-05 267.609V-4.60619e-06L138.742 69.8832V337.039L1.84291e-05 267.609Z" transform="translate(561.252 99.1647)" fill="#34C88A"/>
<path opacity="0.4" d="M0 2.30309e-06V5.88649L48.4617 30.489V24.6025L0 2.30309e-06Z" transform="translate(579.066 146.257)" fill="#34C88A"/>
<path opacity="0.4" d="M0 0V5.88649L26.4199 19.3198V13.4333L0 0Z" transform="translate(579.066 159.237)" fill="#34C88A"/>
</g>
<path d="M9.21455e-06 2.26403V269.42L4.52914 267.005V0L9.21455e-06 2.26403Z" transform="translate(699.996 166.784)" fill="#34C88A"/>
<path d="M0 2.41497L4.37815 4.60619e-06L143.272 70.0341L138.742 72.4491L0 2.41497Z" transform="translate(539.062 107.617)" fill="#F2F6F6"/>
<g opacity="0.4">
<path opacity="0.4" d="M0 267.609V2.30309e-06L138.742 69.8832V337.039L0 267.609Z" transform="translate(539.062 110.032)" fill="#34C88A"/>
<path opacity="0.4" d="M-9.21455e-06 -2.30309e-06V5.88649L48.4617 30.489V24.6025L-9.21455e-06 -2.30309e-06Z" transform="translate(557.029 157.124)" fill="#34C88A"/>
<path opacity="0.4" d="M-9.21455e-06 -4.60619e-06V5.88649L26.269 19.3198V13.4333L-9.21455e-06 -4.60619e-06Z" transform="translate(557.029 170.104)" fill="#34C88A"/>
</g>
<path d="M-9.21455e-06 2.26403V269.42L4.6801 267.005V-4.60619e-06L-9.21455e-06 2.26403Z" transform="translate(677.807 177.651)" fill="#34C88A"/>
<path d="M1.84291e-05 2.41497L4.37817 4.60619e-06L143.272 70.0341L138.742 72.4491L1.84291e-05 2.41497Z" transform="translate(494.826 130.257)" fill="#F2F6F6"/>
<g opacity="0.4">
<path opacity="0.4" d="M1.84291e-05 267.609V0L138.742 69.8832V337.039L1.84291e-05 267.609Z" transform="translate(494.826 132.823)" fill="#C0F5DF"/>
<path opacity="0.4" d="M9.21455e-06 -2.30309e-06V5.88649L48.4618 30.489V24.6025L9.21455e-06 -2.30309e-06Z" transform="translate(512.791 179.764)" fill="#34C88A"/>
<path opacity="0.4" d="M9.21455e-06 4.60619e-06V5.73556L26.269 19.1688V13.2823L9.21455e-06 4.60619e-06Z" transform="translate(512.791 192.896)" fill="#34C88A"/>
</g>
<path d="M1.84291e-05 2.26403V269.42L4.52915 267.156V-4.60619e-06L1.84291e-05 2.26403Z" transform="translate(633.719 200.292)" fill="#34C88A"/>
<path d="M4.60727e-06 1.35842L2.41553 -4.60619e-06L76.9953 37.583L74.5797 38.7904L4.60727e-06 1.35842Z" transform="translate(272.291 171.614)" fill="#F2F6F6"/>
<path d="M4.60727e-06 143.54V-4.60619e-06L74.4288 37.432V180.821L4.60727e-06 143.54Z" transform="translate(272.291 173.123)" fill="#E6FFF5"/>
<path d="M-4.60727e-06 4.2262V-4.60619e-06L40.3093 20.2254V24.3006L-4.60727e-06 4.2262Z" transform="translate(290.256 230.479)" fill="#34C88A"/>
<path d="M-4.60727e-06 4.2262V-4.60619e-06L40.3093 20.2254V24.3006L-4.60727e-06 4.2262Z" transform="translate(290.256 238.78)" fill="#34C88A"/>
<path d="M-4.60727e-06 4.22621V4.60619e-06L40.3093 20.2254V24.3006L-4.60727e-06 4.22621Z" transform="translate(290.256 247.233)" fill="#34C88A"/>
<path d="M-4.60727e-06 4.2262V-4.60619e-06L40.3093 20.2254V24.3006L-4.60727e-06 4.2262Z" transform="translate(290.256 274.25)" fill="#34C88A"/>
<path d="M-4.60727e-06 4.2262V-4.60619e-06L40.3093 20.2254V24.3006L-4.60727e-06 4.2262Z" transform="translate(290.256 282.551)" fill="#34C88A"/>
<path d="M-4.60727e-06 4.60619e-06V4.22621L19.1733 13.7351V9.65987L-4.60727e-06 4.60619e-06Z" transform="translate(290.256 291.004)" fill="#34C88A"/>
<path d="M-4.60727e-06 4.60619e-06V4.22621L27.4767 17.9613V13.8861L-4.60727e-06 4.60619e-06Z" transform="translate(290.256 255.534)" fill="#34C88A"/>
<path d="M4.60727e-06 0V4.07526L4.6801 6.49024V2.26403L4.60727e-06 0Z" transform="translate(281.35 270.175)" fill="#163F59"/>
<path d="M4.60727e-06 -9.21238e-06V4.07527L4.6801 6.49023V2.26403L4.60727e-06 -9.21238e-06Z" transform="translate(281.35 226.252)" fill="#163F59"/>
<path d="M9.21455e-06 0V3.16966L11.0209 8.60332V5.43369L9.21455e-06 0Z" transform="translate(318.793 322.247)" fill="#34C88A"/>
<path d="M9.21455e-06 4.60619e-06V3.16964L26.118 16.452V13.2823L9.21455e-06 4.60619e-06Z" transform="translate(281.805 198.178)" fill="#34C88A"/>
<path d="M9.21455e-06 0V3.16966L14.1913 10.2636V7.24491L9.21455e-06 0Z" transform="translate(281.805 205.272)" fill="#34C88A"/>
<path d="M9.21455e-06 1.35842V144.596L2.41553 143.389V98.2591V9.21238e-06L9.21455e-06 1.35842Z" transform="translate(346.723 209.197)" fill="#34C88A"/>
<path d="M0 1.5L2.41555 0L76.9953 37.583L74 39L0 1.5Z" transform="translate(653 218)" fill="#F2F6F6"/>
<path d="M0 143.54V0L74.4287 37.432V180.821L0 143.54Z" transform="translate(653.045 219.611)" fill="#E6FFF5"/>
<path d="M-9.21455e-06 4.2262V0L40.3093 20.2254V24.3006L-9.21455e-06 4.2262Z" transform="translate(671.01 276.967)" fill="#34C88A"/>
<path d="M-9.21455e-06 4.2262V0L40.3093 20.2254V24.3006L-9.21455e-06 4.2262Z" transform="translate(671.01 285.268)" fill="#34C88A"/>
<path d="M-9.21455e-06 4.2262V0L40.3093 20.2254V24.3006L-9.21455e-06 4.2262Z" transform="translate(671.01 293.57)" fill="#34C88A"/>
<path d="M-9.21455e-06 4.2262V0L40.3093 20.2254V24.3006L-9.21455e-06 4.2262Z" transform="translate(671.01 320.738)" fill="#34C88A"/>
<path d="M-9.21455e-06 4.2262V0L40.3093 20.2254V24.3006L-9.21455e-06 4.2262Z" transform="translate(671.01 329.04)" fill="#34C88A"/>
<path d="M-9.21455e-06 9.21238e-06V4.22619L19.1733 13.7351V9.65988L-9.21455e-06 9.21238e-06Z" transform="translate(671.01 337.492)" fill="#34C88A"/>
<path d="M-9.21455e-06 9.21238e-06V4.22619L27.4768 17.9613V13.7351L-9.21455e-06 9.21238e-06Z" transform="translate(671.01 302.022)" fill="#34C88A"/>
<path d="M0 4.60619e-06V4.07526L4.68011 6.49024V2.26404L0 4.60619e-06Z" transform="translate(662.104 316.663)" fill="#163F59"/>
<path d="M0 -4.60619e-06V4.07525L4.68011 6.49023V2.26403L0 -4.60619e-06Z" transform="translate(662.104 272.741)" fill="#163F59"/>
<path d="M-1.84291e-05 -4.60619e-06V3.16965L11.0209 8.75427V5.58461L-1.84291e-05 -4.60619e-06Z" transform="translate(699.545 368.585)" fill="#34C88A"/>
<path d="M-9.21455e-06 9.21238e-06V3.16964L25.967 16.452V13.2823L-9.21455e-06 9.21238e-06Z" transform="translate(662.707 244.667)" fill="#34C88A"/>
<path d="M-9.21455e-06 4.60619e-06V3.16964L14.0403 10.2636V7.09397L-9.21455e-06 4.60619e-06Z" transform="translate(662.707 251.761)" fill="#34C88A"/>
<path d="M-1.84291e-05 1.20748V144.596L2.56651 143.389V-9.21238e-06L-1.84291e-05 1.20748Z" transform="translate(727.477 255.685)" fill="#34C88A"/>
<path d="M9.21455e-06 0.905616L1.6607 -1.15155e-06L56.1612 27.4703L54.3496 28.3759L9.21455e-06 0.905616Z" transform="translate(768.688 91.0142)" fill="#F2F6F6"/>
<path d="M9.21455e-06 105.051V2.30309e-06L54.5006 27.3193V132.22L9.21455e-06 105.051Z" transform="translate(768.688 91.9198)" fill="#E6FFF5"/>
<path d="M-1.84291e-05 3.01871V-4.60619e-06L29.4394 14.7917V17.8104L-1.84291e-05 3.01871Z" transform="translate(781.818 133.88)" fill="#34C88A"/>
<path d="M-1.84291e-05 3.01872V4.60619e-06L29.4394 14.7917V17.8104L-1.84291e-05 3.01872Z" transform="translate(781.818 140.068)" fill="#34C88A"/>
<path d="M-1.84291e-05 3.01871V2.30309e-06L29.4394 14.7917V17.8104L-1.84291e-05 3.01871Z" transform="translate(781.818 146.257)" fill="#34C88A"/>
<path d="M-1.84291e-05 3.01871V0L29.4394 14.7917V17.8104L-1.84291e-05 3.01871Z" transform="translate(781.818 166.029)" fill="#34C88A"/>
<path d="M-1.84291e-05 3.01871V0L29.4394 14.7917V17.8104L-1.84291e-05 3.01871Z" transform="translate(781.818 172.067)" fill="#34C88A"/>
<path d="M-1.84291e-05 -2.30309e-06V3.01871L14.0403 9.96175V6.94303L-1.84291e-05 -2.30309e-06Z" transform="translate(781.818 178.255)" fill="#34C88A"/>
<path d="M-1.84291e-05 2.30309e-06V3.01871L20.0791 13.1314V10.1127L-1.84291e-05 2.30309e-06Z" transform="translate(781.818 152.294)" fill="#34C88A"/>
<path d="M0 0V3.01871L3.47232 4.679V1.66029L0 0Z" transform="translate(775.328 163.01)" fill="#163F59"/>
<path d="M0 -4.60619e-06V3.01871L3.47232 4.67901V1.6603L0 -4.60619e-06Z" transform="translate(775.328 130.861)" fill="#163F59"/>
<path d="M-3.68582e-05 -4.60619e-06V2.26403L8.15244 6.33929V4.07525L-3.68582e-05 -4.60619e-06Z" transform="translate(802.654 201.046)" fill="#34C88A"/>
<path d="M1.84291e-05 -2.30309e-06V2.26403L19.0223 11.9239V9.65988L1.84291e-05 -2.30309e-06Z" transform="translate(775.631 110.334)" fill="#34C88A"/>
<path d="M1.84291e-05 0V2.26403L10.417 7.54678V5.28275L1.84291e-05 0Z" transform="translate(775.631 115.466)" fill="#34C88A"/>
<path d="M1.84291e-05 0.905614V105.806L1.81169 104.9V2.30309e-06L1.84291e-05 0.905614Z" transform="translate(823.188 118.334)" fill="#34C88A"/>
<path d="M9.21455e-06 2.41497L4.37816 2.30309e-06L143.272 70.0341L138.742 72.4491L9.21455e-06 2.41497Z" transform="translate(472.785 140.974)" fill="#F2F6F6"/>
<path d="M9.21454e-06 267.609V0L138.742 69.8832V337.039L9.21454e-06 267.609Z" transform="translate(472.785 143.389)" fill="#E6FFF5"/>
<path d="M-9.21455e-06 -4.60619e-06V5.8865L48.4617 30.489V24.6025L-9.21455e-06 -4.60619e-06Z" transform="translate(490.6 190.481)" fill="#34C88A"/>
<path d="M-9.21454e-06 4.60619e-06V5.88648L26.4199 19.3198V13.4333L-9.21454e-06 4.60619e-06Z" transform="translate(490.6 203.461)" fill="#34C88A"/>
<path d="M0 2.26404V269.42L4.68011 267.005V4.60619e-06L0 2.26404Z" transform="translate(611.529 211.008)" fill="#34C88A"/>
<path d="M-9.21455e-06 2.41497L4.37814 0L143.272 70.0341L138.742 72.4491L-9.21455e-06 2.41497Z" transform="translate(472.482)" fill="#F2F6F6"/>
<path d="M-9.21454e-06 267.609V3.59859e-08L138.742 69.8832V337.039L-9.21454e-06 267.609Z" transform="translate(472.482 2.41498)" fill="#E6FFF5"/>
<path d="M9.21455e-06 7.84865V0L75.0326 37.7339V45.2807L9.21455e-06 7.84865Z" transform="translate(505.996 109.428)" fill="#34C88A"/>
<path d="M9.21455e-06 7.84865V2.30309e-06L75.0326 37.7339V45.2807L9.21455e-06 7.84865Z" transform="translate(505.996 125.126)" fill="#34C88A"/>
<path d="M9.21455e-06 7.84865V-4.60619e-06L75.0326 37.7339V45.2807L9.21455e-06 7.84865Z" transform="translate(505.996 140.672)" fill="#34C88A"/>
<path d="M9.21455e-06 7.84866V-2.30309e-06L75.0326 37.7339V45.2807L9.21455e-06 7.84866Z" transform="translate(505.996 191.085)" fill="#34C88A"/>
<path d="M9.21455e-06 7.84866V-9.21238e-06L75.0326 37.7339V45.2807L9.21455e-06 7.84866Z" transform="translate(505.996 206.631)" fill="#34C88A"/>
<path d="M9.21455e-06 4.60619e-06V7.84865L35.7801 25.6591V17.9613L9.21455e-06 4.60619e-06Z" transform="translate(505.996 222.328)" fill="#34C88A"/>
<path d="M9.21455e-06 0V7.84865L51.1792 33.3568V25.81L9.21455e-06 0Z" transform="translate(505.996 156.218)" fill="#34C88A"/>
<path d="M9.21455e-06 0V7.84865L8.75632 12.2258V4.37714L9.21455e-06 0Z" transform="translate(489.389 183.387)" fill="#163F59"/>
<path d="M9.21455e-06 4.60619e-06V7.69772L8.75632 12.0749V4.37713L9.21455e-06 4.60619e-06Z" transform="translate(489.389 101.58)" fill="#163F59"/>
<path d="M-9.21455e-06 4.60619e-06V5.88649L20.3811 16.1501V10.2636L-9.21455e-06 4.60619e-06Z" transform="translate(559.289 280.438)" fill="#34C88A"/>
<path d="M-1.84291e-05 -1.15155e-06V5.73555L48.4617 30.3381V24.6025L-1.84291e-05 -1.15155e-06Z" transform="translate(490.449 49.5069)" fill="#34C88A"/>
<path d="M-1.84291e-05 2.30309e-06V5.88649L26.269 19.3198V13.4333L-1.84291e-05 2.30309e-06Z" transform="translate(490.449 62.4874)" fill="#34C88A"/>
<path d="M-9.21455e-06 2.26404V269.269L4.52912 267.005V2.30309e-06L-9.21455e-06 2.26404Z" transform="translate(611.377 70.0341)" fill="#34C88A"/>
<path d="M-9.21455e-06 2.41497L4.37814 -4.60619e-06L143.272 70.0341L138.742 72.4491L-9.21455e-06 2.41497Z" transform="translate(450.594 151.992)" fill="#F2F6F6"/>
<path d="M-9.21454e-06 267.609V4.60619e-06L138.742 69.8832V337.039L-9.21454e-06 267.609Z" transform="translate(450.594 154.407)" fill="#C0F5DF"/>
<path d="M-1.84291e-05 0V5.88648L48.4617 30.489V24.6025L-1.84291e-05 0Z" transform="translate(468.559 201.499)" fill="#34C88A"/>
<path d="M-1.84291e-05 9.21238e-06V5.88649L26.269 19.3197V13.4333L-1.84291e-05 9.21238e-06Z" transform="translate(468.559 214.48)" fill="#34C88A"/>
<path d="M-9.21455e-06 2.26404V269.42L4.52912 267.005V9.21238e-06L-9.21455e-06 2.26404Z" transform="translate(589.486 222.026)" fill="#34C88A"/>
<path d="M-9.21455e-06 2.41497L4.37814 4.60619e-06L143.272 70.0341L138.742 72.4491L-9.21455e-06 2.41497Z" transform="translate(427.945 162.709)" fill="#F2F6F6"/>
<path d="M-9.21454e-06 267.609V2.30309e-06L138.742 69.8832V337.039L-9.21454e-06 267.609Z" transform="translate(427.945 165.124)" fill="#E6FFF5"/>
<path d="M0 7.84865V4.60619e-06L75.0327 37.7339V45.2807L0 7.84865Z" transform="translate(461.312 272.137)" fill="#34C88A"/>
<path d="M0 7.84866V9.21238e-06L75.0327 37.7339V45.2807L0 7.84866Z" transform="translate(461.312 287.683)" fill="#34C88A"/>
<path d="M0 7.84865V0L75.0327 37.7339V45.2807L0 7.84865Z" transform="translate(461.312 303.381)" fill="#34C88A"/>
<path d="M0 7.84866V-9.21238e-06L75.0327 37.7339V45.2807L0 7.84866Z" transform="translate(461.312 353.793)" fill="#34C88A"/>
<path d="M0 7.84864V-4.60619e-06L75.0327 37.7339V45.2807L0 7.84864Z" transform="translate(461.312 369.339)" fill="#34C88A"/>
<path d="M0 9.21238e-06V7.84863L35.7802 25.6591V17.9613L0 9.21238e-06Z" transform="translate(461.312 385.037)" fill="#34C88A"/>
<path d="M0 4.60619e-06V7.84865L51.1792 33.3568V25.81L0 4.60619e-06Z" transform="translate(461.312 318.927)" fill="#34C88A"/>
<path d="M9.21455e-06 4.60619e-06V7.84865L8.60534 12.0749V4.37713L9.21455e-06 4.60619e-06Z" transform="translate(444.857 346.095)" fill="#163F59"/>
<path d="M9.21455e-06 9.21238e-06V7.69771L8.60534 12.0749V4.37713L9.21455e-06 9.21238e-06Z" transform="translate(444.857 264.288)" fill="#163F59"/>
<path d="M-1.84291e-05 9.21238e-06V5.88649L20.3811 15.9992V10.2636L-1.84291e-05 9.21238e-06Z" transform="translate(514.605 443.147)" fill="#34C88A"/>
<path d="M1.84291e-05 0V5.88648L48.4617 30.489V24.7534L1.84291e-05 0Z" transform="translate(445.764 212.065)" fill="#34C88A"/>
<path d="M1.84291e-05 -4.60619e-06V5.8865L26.269 19.3198V13.4333L1.84291e-05 -4.60619e-06Z" transform="translate(445.764 225.196)" fill="#34C88A"/>
<path d="M-1.84291e-05 2.41497V269.42L4.52912 267.156V9.21238e-06L-1.84291e-05 2.41497Z" transform="translate(566.689 232.592)" fill="#34C88A"/>
<path d="M2.24964e-09 299.305L127.118 235.46L35.1763 189.575L230.382 91.316L425.588 189.575L436.759 183.085V6.64117L448.082 -9.21238e-06" transform="translate(1 270.024)" stroke="url(#paint3_linear)" stroke-width="0.5" stroke-miterlimit="10" stroke-linecap="round" stroke-linejoin="round"/>
<path d="M199.781 503.527L0 402.696L195.206 304.437L253.782 334.473L296.96 312.739V6.64116L308.283 0" transform="translate(470.219 164.973)" stroke="url(#paint4_linear)" stroke-width="0.5" stroke-miterlimit="10"/>
<path d="M25.8161 103.24L0 116.22V4.2262L7.39758 -4.60619e-06" transform="translate(274.863 229.724)" stroke="#FF876C" stroke-width="0.75" stroke-miterlimit="10"/>
<path d="M138.139 28.5268L118.663 38.3376L40.6112 1.15155e-06V183.84L62.804 194.556L-9.21455e-06 226.253" transform="translate(354.725 79.5431)" stroke="#FF876C" stroke-width="0.75" stroke-miterlimit="10" stroke-linecap="round" stroke-linejoin="round"/>
<path d="M2.30364e-06 189.726L126.967 125.88L68.088 98.2591L263.294 -4.60619e-06L336.364 36.8283" transform="translate(91.2812 364.057)" stroke="url(#paint5_linear)" stroke-width="0.5" stroke-miterlimit="10"/>
<circle cx="2" cy="2" r="2" transform="translate(194 442)" fill="#34C88A"/>
<circle cx="2" cy="2" r="2" transform="translate(363 367)" fill="#34C88A"/>
<circle cx="2" cy="2" r="2" transform="translate(394 283)" fill="#34C88A"/>
<circle cx="1.5" cy="1.5" r="1.5" transform="translate(436 338)" fill="#34C88A"/>
<path d="M25.5141 4.07526L16.6068 9.20706L0 4.60619e-06" transform="translate(638.703 271.382)" stroke="#FF876C" stroke-width="0.75" stroke-miterlimit="10"/>
<path d="M0 2.30309e-06L11.7757 14.6408L0 16.452V2.30309e-06Z" transform="translate(585.107 76.8262)" fill="#34C88A"/>
<path d="M0 -4.60619e-06L11.7757 14.6407L0 16.452V-4.60619e-06Z" transform="translate(540.572 238.78)" fill="#34C88A"/>
<path d="M-9.21455e-06 4.60619e-06L9.20924 11.4711L-9.21455e-06 12.8295V4.60619e-06Z" transform="translate(706.49 262.326)" fill="#34C88A"/>
<path d="M1.3398e-05 -1.28495e-05L9.00003 10.7368L1.3398e-05 12V-1.28495e-05Z" transform="translate(744 210)" fill="#34C88A"/>
<path d="M2.08413e-05 -5.08626e-06L14 17L2.08413e-05 19V-5.08626e-06Z" transform="translate(692 81)" fill="#34C88A"/>
<path d="M-2.67959e-05 6.69245e-06L18 22.3684L-2.67959e-05 25V6.69245e-06Z" transform="translate(337 52)" fill="#34C88A"/>
<path d="M-2.08413e-05 2.03451e-05L14 17L-2.08413e-05 19V2.03451e-05Z" transform="translate(391 349)" fill="#34C88A"/>
<defs>
<linearGradient id="paint0_linear" x2="1" gradientUnits="userSpaceOnUse" gradientTransform="matrix(-161.5 173.5 -253.133 -235.625 358.803 148.561)">
<stop stop-color="#FF876C"/>
<stop offset="1" stop-color="#FF876C" stop-opacity="0"/>
</linearGradient>
<linearGradient id="paint1_linear" x2="1" gradientUnits="userSpaceOnUse" gradientTransform="translate(477.371) scale(477.371 239.384) rotate(90)">
<stop stop-color="#B5FFE0"/>
<stop offset="1" stop-color="#C0F5DF" stop-opacity="0"/>
</linearGradient>
<linearGradient id="paint2_linear" x2="1" gradientUnits="userSpaceOnUse" gradientTransform="translate(-347.986 -292.895) scale(825.399 825.205)">
<stop stop-color="#FF876C" stop-opacity="0.8013"/>
<stop offset="1" stop-color="#FF876C" stop-opacity="0"/>
</linearGradient>
<linearGradient id="paint3_linear" x2="1" gradientUnits="userSpaceOnUse" gradientTransform="matrix(-169 254.5 -381.005 -253.006 366.003 213.479)">
<stop stop-color="#FF876C"/>
<stop offset="1" stop-color="#FF876C" stop-opacity="0"/>
</linearGradient>
<linearGradient id="paint4_linear" x2="1" gradientUnits="userSpaceOnUse" gradientTransform="matrix(135 101 -61.8369 82.6533 73.6997 341.701)">
<stop stop-color="#FF876C"/>
<stop offset="1" stop-color="#FF876C" stop-opacity="0"/>
</linearGradient>
<linearGradient id="paint5_linear" x2="1" gradientUnits="userSpaceOnUse" gradientTransform="matrix(-138.463 194.443 -344.727 -245.48 340.545 122.74)">
<stop offset="0.302648" stop-color="#FF876C"/>
<stop offset="1" stop-color="#FF876C" stop-opacity="0"/>
</linearGradient>
</defs>
</svg>
