<svg width="1130" height="782" viewBox="0 0 1130 782" fill="none" xmlns="http://www.w3.org/2000/svg">
<path d="M738.6 281.432L785.48 253.295C787.12 252.294 787.56 250.181 786.58 248.513L774.2 226.492C772.88 224.157 769.6 224.157 768.5 226.492L764.45 233.721C763.46 235.389 764.12 237.502 765.76 238.503L769.05 240.505C770.69 241.506 771.13 243.619 770.36 245.287L769.27 247.4C768.83 248.179 767.95 248.846 766.97 249.069L748.89 252.85C747.25 253.184 745.61 252.183 744.95 250.514L739.03 232.164C738.71 231.163 738.92 230.162 739.36 229.384L740.46 227.271C741.44 225.603 743.42 225.158 745.06 225.936L748.35 227.938C749.99 228.939 751.96 228.272 752.95 226.603L756.89 219.486C758.2 217.15 756.56 214.37 753.93 214.37L729.5 214.259C727.75 214.259 726.11 215.705 726.11 217.706V273.758C726.11 280.653 733.12 284.768 738.6 281.432Z" fill="white"/>
<path d="M727 360L760 379L727 398V360Z" fill="white" fill-opacity="0.5"/>
<path d="M797 324L812 332.5L797 341V324Z" fill="white" fill-opacity="0.5"/>
<path d="M845 260L868 274.5L845 289V260Z" fill="white" fill-opacity="0.5"/>
<path d="M856 425L833 411.5L856 398V425Z" fill="white" fill-opacity="0.3"/>
<path d="M823 112L808 103.5L823 95V112Z" fill="white" fill-opacity="0.5"/>
<path d="M0 665.117L415.885 455L831 663.844H415.885L0 665.117Z" fill="white"/>
<path d="M666.62 421.087V9.86947e-05L893.32 0L893.31 421.087L779.97 477.472L666.62 421.087Z" fill="url(#paint0_linear)"/>
<path d="M813.459 556.332L707.526 609.465L784.11 647.56L621.369 729.138" stroke="#F2F6F6" stroke-width="0.5" stroke-miterlimit="10"/>
<path d="M442 674.001L548.059 620.868L471.349 582.773L634.216 501.195L797.083 582.773L806.404 577.51V430.895L815.851 425.507" stroke="#F2F6F6" stroke-width="0.5" stroke-miterlimit="10"/>
<path d="M517.325 661.093L623.258 607.961L574.133 585.029L737 503.45L797.965 534.027" stroke="#F2F6F6" stroke-width="0.5" stroke-miterlimit="10"/>
<path d="M804.137 781.393L910.196 728.26L833.486 690.165L996.353 608.587L1045.23 633.524L1081.25 615.479V361.346L1090.7 355.833" stroke="#F2F6F6" stroke-width="0.5" stroke-miterlimit="10"/>
<path d="M729.063 598.562L928.207 498.814L1127.35 598.562L928.207 697.559L729.063 598.562Z" fill="#F2F6F6" fill-opacity="0.37"/>
<path d="M1039.05 630.016L962.344 591.921" stroke="#FF876C" stroke-width="0.75" stroke-miterlimit="10"/>
<path d="M813.459 527.135L707.526 580.267L784.111 618.362L621.369 699.815L560.279 669.364" stroke="url(#paint1_linear)" stroke-width="0.5" stroke-miterlimit="10"/>
<path d="M718.988 521.997L918.132 422.249L1117.28 521.997L918.132 620.994L718.988 521.997Z" fill="#48718B"/>
<path d="M718.988 419.531L918.132 319.782L1117.28 419.531L918.132 518.527L718.988 419.531Z" fill="url(#paint2_linear)" fill-opacity="0.7"/>
<path d="M718.988 302.701L918.132 202.952L1117.28 302.701L918.132 401.697L718.988 302.701Z" fill="url(#paint3_linear)"/>
<path d="M719.49 522.122V531.145L918.004 630.768L918.382 620.993L719.49 522.122Z" fill="#34C88A"/>
<path d="M1117.15 521.872V530.894L918.006 630.768V620.993L1117.15 521.872Z" fill="#C0F5DF"/>
<path d="M939.671 433.025H913.597V588.788H983.001L1117.28 521.997L939.671 433.025Z" fill="#163F59"/>
<path d="M927.828 244.932L931.481 242.927L1047.36 301.071L1043.59 303.076L927.828 244.932Z" fill="#F2F6F6"/>
<g opacity="0.4">
<path opacity="0.4" d="M927.828 467.11V244.932L1043.59 302.951V524.754L927.828 467.11Z" fill="#C0F5DF"/>
<path opacity="0.4" d="M942.82 284.029V288.916L983.253 309.342V304.455L942.82 284.029Z" fill="#34C88A"/>
<path opacity="0.4" d="M942.82 294.806V299.693L964.737 310.846V305.959L942.82 294.806Z" fill="#34C88A"/>
</g>
<path d="M1043.59 302.951V524.754L1047.49 522.874V301.071L1043.59 302.951Z" fill="#34C88A"/>
<path d="M909.439 254.33L913.092 252.325L1028.98 310.47L1025.2 312.475L909.439 254.33Z" fill="#F2F6F6"/>
<g opacity="0.4">
<path opacity="0.4" d="M909.438 476.509V254.33L1025.2 312.35V534.152L909.438 476.509Z" fill="#34C88A"/>
<path opacity="0.4" d="M924.301 293.427V298.315L964.734 318.74V313.853L924.301 293.427Z" fill="#34C88A"/>
<path opacity="0.4" d="M924.301 304.204V309.091L946.344 320.244V315.357L924.301 304.204Z" fill="#34C88A"/>
</g>
<path d="M1025.2 312.349V534.152L1028.98 532.147V310.47L1025.2 312.349Z" fill="#34C88A"/>
<path d="M890.925 263.353L894.578 261.348L1010.46 319.492L1006.68 321.497L890.925 263.353Z" fill="#F2F6F6"/>
<g opacity="0.4">
<path opacity="0.4" d="M890.925 485.531V263.353L1006.68 321.372V543.175L890.925 485.531Z" fill="#34C88A"/>
<path opacity="0.4" d="M905.915 302.45V307.337L946.349 327.763V322.876L905.915 302.45Z" fill="#34C88A"/>
<path opacity="0.4" d="M905.915 313.227V318.114L927.832 329.267V324.38L905.915 313.227Z" fill="#34C88A"/>
</g>
<path d="M1006.68 321.372V543.175L1010.59 541.17V319.492L1006.68 321.372Z" fill="#34C88A"/>
<path d="M854.017 282.149L857.67 280.144L973.554 338.289L969.775 340.294L854.017 282.149Z" fill="#F2F6F6"/>
<g opacity="0.4">
<path opacity="0.4" d="M854.017 504.453V282.275L969.775 340.294V562.097L854.017 504.453Z" fill="#C0F5DF"/>
<path opacity="0.4" d="M869.005 321.247V326.134L909.439 346.56V341.673L869.005 321.247Z" fill="#34C88A"/>
<path opacity="0.4" d="M869.005 332.149V336.911L890.923 348.064V343.177L869.005 332.149Z" fill="#34C88A"/>
</g>
<path d="M969.899 340.169V561.971L973.678 560.092V338.289L969.899 340.169Z" fill="#34C88A"/>
<path d="M668.348 315.608L670.363 314.48L732.588 345.683L730.572 346.685L668.348 315.608Z" fill="#F2F6F6"/>
<path d="M668.348 434.905V315.733L730.447 346.811V465.857L668.348 434.905Z" fill="#E6FFF5"/>
<path d="M683.338 366.86V363.351L716.969 380.143V383.527L683.338 366.86Z" fill="#34C88A"/>
<path d="M683.338 373.753V370.244L716.969 387.036V390.419L683.338 373.753Z" fill="#34C88A"/>
<path d="M683.338 380.77V377.261L716.969 394.053V397.436L683.338 380.77Z" fill="#34C88A"/>
<path d="M683.338 403.201V399.692L716.969 416.484V419.867L683.338 403.201Z" fill="#34C88A"/>
<path d="M683.338 410.093V406.584L716.969 423.376V426.759L683.338 410.093Z" fill="#34C88A"/>
<path d="M683.338 413.602V417.11L699.335 425.005V421.622L683.338 413.602Z" fill="#34C88A"/>
<path d="M683.338 384.153V387.662L706.262 399.065V395.682L683.338 384.153Z" fill="#34C88A"/>
<path d="M675.907 396.309V399.692L679.812 401.697V398.188L675.907 396.309Z" fill="#163F59"/>
<path d="M675.907 359.843V363.226L679.812 365.231V361.723L675.907 359.843Z" fill="#163F59"/>
<path d="M707.146 439.542V442.173L716.341 446.684V444.053L707.146 439.542Z" fill="#34C88A"/>
<path d="M676.286 336.535V339.166L698.077 350.194V347.562L676.286 336.535Z" fill="#34C88A"/>
<path d="M676.286 342.424V345.056L688.126 350.946V348.439L676.286 342.424Z" fill="#34C88A"/>
<path d="M730.449 346.81V465.732L732.464 464.729V427.261V345.683L730.449 346.81Z" fill="#34C88A"/>
<path d="M985.987 354.237L988.002 352.991L1050.23 384.194L1047.73 385.371L985.987 354.237Z" fill="#F2F6F6"/>
<path d="M986.024 473.501V354.329L1048.12 385.407V504.453L986.024 473.501Z" fill="#E6FFF5"/>
<path d="M1001.01 405.457V401.948L1034.64 418.74V422.123L1001.01 405.457Z" fill="#34C88A"/>
<path d="M1001.01 412.349V408.84L1034.64 425.632V429.015L1001.01 412.349Z" fill="#34C88A"/>
<path d="M1001.01 419.241V415.732L1034.64 432.524V435.907L1001.01 419.241Z" fill="#34C88A"/>
<path d="M1001.01 441.797V438.288L1034.64 455.08V458.463L1001.01 441.797Z" fill="#34C88A"/>
<path d="M1001.01 448.689V445.181L1034.64 461.972V465.356L1001.01 448.689Z" fill="#34C88A"/>
<path d="M1001.01 452.198V455.706L1017.01 463.601V460.218L1001.01 452.198Z" fill="#34C88A"/>
<path d="M1001.01 422.749V426.258L1023.94 437.661V434.153L1001.01 422.749Z" fill="#34C88A"/>
<path d="M993.582 434.905V438.288L997.487 440.293V436.784L993.582 434.905Z" fill="#163F59"/>
<path d="M993.582 398.439V401.822L997.487 403.827V400.319L993.582 398.439Z" fill="#163F59"/>
<path d="M1024.82 478.012V480.644L1034.02 485.28V482.649L1024.82 478.012Z" fill="#34C88A"/>
<path d="M994.086 375.131V377.763L1015.75 388.79V386.159L994.086 375.131Z" fill="#34C88A"/>
<path d="M994.086 381.021V383.652L1005.8 389.542V386.91L994.086 381.021Z" fill="#34C88A"/>
<path d="M1048.12 385.281V504.328L1050.27 503.325V384.279L1048.12 385.281Z" fill="#34C88A"/>
<path d="M1082.51 248.315L1083.9 247.563L1129.37 270.37L1127.86 271.122L1082.51 248.315Z" fill="#F2F6F6"/>
<path d="M1082.51 335.532V248.315L1127.98 270.997V358.089L1082.51 335.532Z" fill="#E6FFF5"/>
<path d="M1093.46 285.658V283.152L1118.03 295.433V297.939L1093.46 285.658Z" fill="#34C88A"/>
<path d="M1093.46 290.796V288.29L1118.03 300.57V303.076L1093.46 290.796Z" fill="#34C88A"/>
<path d="M1093.46 295.933V293.427L1118.03 305.708V308.214L1093.46 295.933Z" fill="#34C88A"/>
<path d="M1093.46 312.35V309.843L1118.03 322.124V324.63L1093.46 312.35Z" fill="#34C88A"/>
<path d="M1093.46 317.362V314.856L1118.03 327.136V329.643L1093.46 317.362Z" fill="#34C88A"/>
<path d="M1093.46 319.994V322.5L1105.18 328.264V325.758L1093.46 319.994Z" fill="#34C88A"/>
<path d="M1093.46 298.44V300.946L1110.22 309.342V306.836L1093.46 298.44Z" fill="#34C88A"/>
<path d="M1088.05 307.337V309.843L1090.95 311.222V308.715L1088.05 307.337Z" fill="#163F59"/>
<path d="M1088.05 280.646V283.152L1090.95 284.53V282.024L1088.05 280.646Z" fill="#163F59"/>
<path d="M1110.85 338.916V340.795L1117.65 344.179V342.299L1110.85 338.916Z" fill="#34C88A"/>
<path d="M1088.3 263.603V265.482L1104.17 273.502V271.623L1088.3 263.603Z" fill="#34C88A"/>
<path d="M1088.3 267.864V269.743L1096.99 274.129V272.25L1088.3 267.864Z" fill="#34C88A"/>
<path d="M1127.98 270.997V358.088L1129.49 357.337V270.245L1127.98 270.997Z" fill="#34C88A"/>
<path d="M835.628 291.046L839.281 289.042L955.165 347.186L951.386 349.191L835.628 291.046Z" fill="#F2F6F6"/>
<path d="M835.627 513.225V291.047L951.385 349.066V570.869L835.627 513.225Z" fill="#E6FFF5"/>
<path d="M850.491 330.144V335.031L890.924 355.457V350.57L850.491 330.144Z" fill="#34C88A"/>
<path d="M850.491 340.921V345.808L872.534 356.961V352.073L850.491 340.921Z" fill="#34C88A"/>
<path d="M951.387 349.066V570.868L955.292 568.863V347.186L951.387 349.066Z" fill="#34C88A"/>
<path d="M835.375 174.005L839.028 172L954.911 230.145L951.133 232.15L835.375 174.005Z" fill="#F2F6F6"/>
<path d="M835.375 396.184V174.005L951.133 232.025V453.827L835.375 396.184Z" fill="#E6FFF5"/>
<path d="M863.337 269.368V262.851L925.939 294.179V300.445L863.337 269.368Z" fill="#34C88A"/>
<path d="M863.337 282.4V275.884L925.939 307.212V313.477L863.337 282.4Z" fill="#34C88A"/>
<path d="M863.337 295.307V288.791L925.939 320.119V326.385L863.337 295.307Z" fill="#34C88A"/>
<path d="M863.337 337.162V330.645L925.939 361.973V368.239L863.337 337.162Z" fill="#34C88A"/>
<path d="M863.337 350.068V343.552L925.939 374.88V381.146L863.337 350.068Z" fill="#34C88A"/>
<path d="M863.337 356.585V363.101L893.189 377.888V371.497L863.337 356.585Z" fill="#34C88A"/>
<path d="M863.337 301.698V308.214L906.037 329.392V323.127L863.337 301.698Z" fill="#34C88A"/>
<path d="M849.48 324.254V330.77L856.786 334.404V327.888L849.48 324.254Z" fill="#163F59"/>
<path d="M849.48 256.335V262.726L856.786 266.36V259.969L849.48 256.335Z" fill="#163F59"/>
<path d="M907.801 404.83V409.717L924.805 418.238V413.351L907.801 404.83Z" fill="#34C88A"/>
<path d="M850.366 213.103V217.864L890.799 238.29V233.528L850.366 213.103Z" fill="#34C88A"/>
<path d="M850.366 223.879V228.766L872.283 239.919V235.032L850.366 223.879Z" fill="#34C88A"/>
<path d="M951.259 232.024V453.701L955.038 451.822V230.145L951.259 232.024Z" fill="#34C88A"/>
<path d="M817.112 300.194L820.765 298.189L936.649 356.334L932.87 358.339L817.112 300.194Z" fill="#F2F6F6"/>
<path d="M817.113 522.373V300.194L932.87 358.214V580.016L817.113 522.373Z" fill="#C0F5DF"/>
<path d="M832.102 339.292V344.179L872.535 364.605V359.718L832.102 339.292Z" fill="#34C88A"/>
<path d="M832.102 350.068V354.956L854.019 366.108V361.221L832.102 350.068Z" fill="#34C88A"/>
<path d="M932.995 358.214V580.016L936.774 578.011V356.334L932.995 358.214Z" fill="#34C88A"/>
<path d="M798.216 309.091L801.869 307.086L917.752 365.231L913.974 367.236L798.216 309.091Z" fill="#F2F6F6"/>
<path d="M798.216 531.27V309.091L913.974 367.111V588.913L798.216 531.27Z" fill="#E6FFF5"/>
<path d="M826.055 404.454V397.938L888.657 429.266V435.531L826.055 404.454Z" fill="#34C88A"/>
<path d="M826.055 417.361V410.845L888.657 442.173V448.439L826.055 417.361Z" fill="#34C88A"/>
<path d="M826.055 430.394V423.877L888.657 455.205V461.471L826.055 430.394Z" fill="#34C88A"/>
<path d="M826.055 472.248V465.731L888.657 497.059V503.325L826.055 472.248Z" fill="#34C88A"/>
<path d="M826.055 485.155V478.639L888.657 509.967V516.232L826.055 485.155Z" fill="#34C88A"/>
<path d="M826.055 491.671V498.187L855.908 512.974V506.583L826.055 491.671Z" fill="#34C88A"/>
<path d="M826.055 436.784V443.301L868.756 464.478V458.213L826.055 436.784Z" fill="#34C88A"/>
<path d="M812.325 459.341V465.857L819.505 469.366V462.975L812.325 459.341Z" fill="#163F59"/>
<path d="M812.325 391.422V397.812L819.505 401.446V395.056L812.325 391.422Z" fill="#163F59"/>
<path d="M870.519 539.917V544.804L887.523 553.2V548.438L870.519 539.917Z" fill="#34C88A"/>
<path d="M813.082 348.064V352.951L853.516 373.377V368.615L813.082 348.064Z" fill="#34C88A"/>
<path d="M813.082 358.966V363.853L834.999 375.006V370.119L813.082 358.966Z" fill="#34C88A"/>
<path d="M913.975 367.111V588.788L917.754 586.908V365.106L913.975 367.111Z" fill="#34C88A"/>
<path d="M442 644.678L548.059 591.671L471.349 553.576L634.216 471.997L797.083 553.576L806.404 548.187V401.697L815.851 396.184" stroke="url(#paint4_linear)" stroke-width="0.5" stroke-miterlimit="10" stroke-linecap="round" stroke-linejoin="round"/>
<path d="M1000.17 727.013L833.486 643.299L996.353 561.721L1045.23 586.658L1081.25 568.613V314.48L1090.7 308.966" stroke="url(#paint5_linear)" stroke-width="0.5" stroke-miterlimit="10"/>
<path d="M692.033 448.439L670.494 459.216V366.234L676.666 362.725" stroke="#FF876C" stroke-width="0.75" stroke-miterlimit="10"/>
<path d="M852.379 261.723L836.13 269.869L771.009 238.039V390.67L789.525 399.567L737.125 425.882" stroke="#FF876C" stroke-width="0.75" stroke-miterlimit="10" stroke-linecap="round" stroke-linejoin="round"/>
<path d="M517.325 631.77L623.258 578.763L574.133 555.831L737 474.253L797.965 504.829" stroke="url(#paint6_linear)" stroke-width="0.5" stroke-miterlimit="10"/>
<ellipse cx="604.696" cy="540.625" rx="1.66867" ry="1.66047" fill="#34C88A"/>
<ellipse cx="745.698" cy="478.357" rx="1.66867" ry="1.66047" fill="#34C88A"/>
<ellipse cx="771.563" cy="408.617" rx="1.66867" ry="1.66047" fill="#34C88A"/>
<ellipse cx="806.188" cy="453.865" rx="1.2515" ry="1.24535" fill="#34C88A"/>
<path d="M995.346 400.695L987.914 404.955L974.059 397.311" stroke="#FF876C" stroke-width="0.75" stroke-miterlimit="10"/>
<path d="M929.342 235.784L939.166 247.939L929.342 249.443V235.784Z" fill="#34C88A"/>
<path d="M892.184 370.244L902.009 382.399L892.184 383.903V370.244Z" fill="#34C88A"/>
<path d="M1030.62 389.792L1038.3 399.316L1030.62 400.444V389.792Z" fill="#34C88A"/>
<path d="M1061.91 346.35L1069.42 355.264L1061.91 356.313V346.35Z" fill="#34C88A"/>
<path d="M1018.53 239.249L1030.21 253.363L1018.53 255.024V239.249Z" fill="#34C88A"/>
<path d="M722.337 215.172L737.355 233.744L722.337 235.928V215.172Z" fill="#34C88A"/>
<path d="M767.391 461.752L779.072 475.866L767.391 477.527V461.752Z" fill="#34C88A"/>
<path d="M783.59 165.148L736.6 137.15C731.01 133.83 724 137.925 724 144.565V200.341C724 202.333 725.42 203.772 727.4 203.772L752.04 203.661C754.67 203.661 756.32 200.894 755 198.57L751.71 192.816C750.4 190.381 747.33 189.495 744.92 191.045L744.59 191.156C742.18 192.594 739.23 191.598 737.8 189.385C737.15 188.057 737.04 186.618 737.36 185.29L742.29 169.465C743.06 167.03 745.58 165.481 747.99 166.034L763.76 169.354C765.19 169.686 766.39 170.461 767.05 171.789C768.37 174.224 767.49 177.433 765.3 178.65L764.97 178.761C762.56 180.199 761.68 183.409 763.22 185.843L766.28 191.487C767.6 193.812 770.89 193.812 771.98 191.487L784.36 169.796C785.67 168.137 785.24 166.145 783.59 165.148ZM845.27 201.89L798.38 173.891C796.74 172.895 794.77 173.56 793.78 175.22L781.62 197.242C780.31 199.566 781.95 202.333 784.58 202.333H792.58C794.33 202.333 795.86 200.894 795.86 198.902V195.25C795.86 193.259 797.29 191.82 799.15 191.82H801.45C802.43 191.82 803.2 192.263 803.86 192.926L816.02 207.091C817.11 208.42 817.11 210.412 816.02 211.739L803.97 225.905C803.31 226.569 802.54 227.012 801.56 227.012H799.26C797.5 227.012 795.97 225.573 795.97 223.581V219.818C795.97 217.826 794.55 216.387 792.68 216.387H784.69C782.06 216.387 780.42 219.155 781.73 221.478L793.78 243.39C794.77 245.051 796.74 245.715 798.38 244.718L845.27 216.72C850.85 213.399 850.85 205.211 845.27 201.89Z" fill="white"/>
<path d="M736.6 281.349L783.48 253.35C785.12 252.354 785.56 250.251 784.58 248.592L772.2 226.679C770.88 224.355 767.6 224.355 766.5 226.679L762.45 233.872C761.46 235.532 762.12 237.635 763.76 238.631L767.05 240.623C768.69 241.619 769.13 243.722 768.36 245.381L767.27 247.484C766.83 248.259 765.95 248.923 764.97 249.145L746.89 252.907C745.25 253.24 743.61 252.244 742.95 250.583L737.03 232.323C736.71 231.327 736.92 230.331 737.36 229.557L738.46 227.454C739.44 225.794 741.42 225.351 743.06 226.125L746.35 228.118C747.99 229.114 749.96 228.45 750.95 226.789L754.89 219.707C756.2 217.383 754.56 214.616 751.93 214.616L727.5 214.506C725.75 214.506 724.11 215.945 724.11 217.936V273.712C724.11 280.574 731.12 284.668 736.6 281.349Z" fill="white"/>
<defs>
<linearGradient id="paint0_linear" x1="903.07" y1="547.47" x2="903.07" y2="-74.5857" gradientUnits="userSpaceOnUse">
<stop stop-color="#0094FF" stop-opacity="0.7"/>
<stop offset="0.983425" stop-color="white" stop-opacity="0"/>
</linearGradient>
<linearGradient id="paint1_linear" x1="754.042" y1="552.663" x2="620.007" y2="697.368" gradientUnits="userSpaceOnUse">
<stop stop-color="#FF876C"/>
<stop offset="1" stop-color="#FF876C" stop-opacity="0"/>
</linearGradient>
<linearGradient id="paint2_linear" x1="918.132" y1="319.782" x2="918.132" y2="518.527" gradientUnits="userSpaceOnUse">
<stop stop-color="#B5FFE0"/>
<stop offset="1" stop-color="#C0F5DF" stop-opacity="0"/>
</linearGradient>
<linearGradient id="paint3_linear" x1="428.651" y1="302.338" x2="1117.31" y2="302.338" gradientUnits="userSpaceOnUse">
<stop stop-color="#FF876C" stop-opacity="0.8013"/>
<stop offset="1" stop-color="#FF876C" stop-opacity="0"/>
</linearGradient>
<linearGradient id="paint4_linear" x1="588.426" y1="468.394" x2="448.385" y2="680.325" gradientUnits="userSpaceOnUse">
<stop stop-color="#FF876C"/>
<stop offset="1" stop-color="#FF876C" stop-opacity="0"/>
</linearGradient>
<linearGradient id="paint5_linear" x1="869.18" y1="626.969" x2="981.417" y2="711.354" gradientUnits="userSpaceOnUse">
<stop stop-color="#FF876C"/>
<stop offset="1" stop-color="#FF876C" stop-opacity="0"/>
</linearGradient>
<linearGradient id="paint6_linear" x1="657.645" y1="474.253" x2="542.874" y2="636.221" gradientUnits="userSpaceOnUse">
<stop offset="0.302648" stop-color="#FF876C"/>
<stop offset="1" stop-color="#FF876C" stop-opacity="0"/>
</linearGradient>
</defs>
</svg>
