<svg width="74" height="75" viewBox="0 0 74 75" fill="none" xmlns="http://www.w3.org/2000/svg">
<path d="M50 35.3713V15.8713L33.2727 0H3.67663C1.64815 0 0 1.67143 0 3.6V35.3713" transform="translate(12 1)" stroke="#34C88A" stroke-width="2" stroke-linecap="round" stroke-linejoin="round"/>
<path d="M0 0L0.00143236 11.0005C0.00171998 13.2095 1.7925 15 4.00143 15H17.002" transform="translate(44.998 1.87109)" stroke="#34C88A" stroke-width="2" stroke-linecap="round" stroke-linejoin="round"/>
<path d="M0 0H13" transform="translate(21 12)" stroke="#34C88A" stroke-width="2" stroke-linecap="round" stroke-linejoin="round"/>
<path d="M0 0H28" transform="translate(21 33)" stroke="#34C88A" stroke-width="2" stroke-linecap="round" stroke-linejoin="round"/>
<path d="M0 0H28" transform="translate(21 39)" stroke="#34C88A" stroke-width="2" stroke-linecap="round" stroke-linejoin="round"/>
<path d="M0 0H19" transform="translate(27 45)" stroke="#34C88A" stroke-width="2" stroke-linecap="round" stroke-linejoin="round"/>
<path d="M0 0H7" transform="translate(21 17)" stroke="#34C88A" stroke-width="2" stroke-linecap="round" stroke-linejoin="round"/>
<path d="M64 0L70.2816 4.36221C71.358 5.10974 72 6.33715 72 7.64769V42.6843C72 44.8935 70.2091 46.6843 68 46.6843H4C1.79086 46.6843 0 44.8935 0 42.6843V7.64769C0 6.33715 0.641977 5.10974 1.71841 4.36221L8 0" transform="translate(1 27.3154)" stroke="#34C88A" stroke-width="2" stroke-linecap="round"/>
<path d="M62 11L45 0M0 11L17 0" transform="translate(6 57.8711)" stroke="#34C88A" stroke-width="2" stroke-linecap="round" stroke-linejoin="round"/>
<path d="M72 25L38.2816 1.58443C36.9097 0.631739 35.0903 0.63174 33.7184 1.58443L0 25" transform="translate(73 57.8711) rotate(180)" stroke="#34C88A" stroke-width="2"/>
</svg>
