<svg width="99" height="86" viewBox="0 0 99 86" fill="none" xmlns="http://www.w3.org/2000/svg">
<circle cx="14" cy="14" r="13" transform="translate(41 43.8667)" stroke="#34C88A" stroke-width="2"/>
<path d="M0 2.5L5 7.5L12.5 0" transform="translate(48.5 53.8667)" stroke="#34C88A" stroke-width="2" stroke-linecap="round" stroke-linejoin="round"/>
<path d="M50 26.8667V16.4525L34.2754 0L3.67663 0.0952759C1.64815 0.0952759 0 1.7667 0 3.69528V68.3667C0 70.4238 1.64815 71.9667 3.54985 71.9667L46.5 71.8667C48.5285 71.8667 50.0499 70.1953 50.0499 68.2667V62.0524" transform="translate(5 13)" stroke="#34C88A" stroke-width="2" stroke-linecap="round" stroke-linejoin="round"/>
<path d="M3.29629 0C1.52137 0 0 1.54286 0 3.34286V62.2286C0 64.1571 1.52137 65.5714 3.29629 65.5714" transform="translate(1 16.8667)" stroke="#34C88A" stroke-width="2" stroke-linecap="round" stroke-linejoin="round"/>
<path d="M0 0V12.5C0 14.7091 1.79086 16.5 4 16.5H15.5" transform="translate(39 13.3667)" stroke="#34C88A" stroke-width="2" stroke-linecap="round" stroke-linejoin="round"/>
<path d="M2.41815e-07 -3.8147e-07H11.0299" transform="translate(12 23.8667)" stroke="#34C88A" stroke-width="2" stroke-linecap="round" stroke-linejoin="round"/>
<path d="M0 0H28" transform="translate(12 44.8809)" stroke="#34C88A" stroke-width="2" stroke-linecap="round" stroke-linejoin="round"/>
<path d="M0 0H25" transform="translate(12 50.9238)" stroke="#34C88A" stroke-width="2" stroke-linecap="round" stroke-linejoin="round"/>
<path d="M0 0H22" transform="translate(12 56.8667)" stroke="#34C88A" stroke-width="2" stroke-linecap="round" stroke-linejoin="round"/>
<path d="M0 0H10" transform="translate(12 62.8667)" stroke="#34C88A" stroke-width="2" stroke-linecap="round" stroke-linejoin="round"/>
<path d="M2.41815e-07 3.8147e-07H6.71937" transform="translate(12 28.8667)" stroke="#34C88A" stroke-width="2" stroke-linecap="round" stroke-linejoin="round"/>
<path d="M4 8C6.20914 8 8 6.20914 8 4C8 1.79086 6.20914 0 4 0C1.79086 0 0 1.79086 0 4C0 6.20914 1.79086 8 4 8Z" transform="translate(30 68.8667)" stroke="#34C88A" stroke-width="2" stroke-linecap="round" stroke-linejoin="round"/>
<circle cx="12.5" cy="12.5" r="12.5" transform="translate(73 25)" stroke="#34C88A" stroke-width="2"/>
<path d="M8.22488 3.5C8.60978 2.83333 9.57203 2.83333 9.95693 3.5L14.3658 11.1364C14.7507 11.803 14.2696 12.6364 13.4998 12.6364L4.68205 12.6364C3.91225 12.6364 3.43113 11.803 3.81603 11.1364L8.22488 3.5Z" transform="translate(94.2129 28.7881) rotate(90)" fill="#C0F5DF" stroke="#34C88A" stroke-width="2"/>
<circle cx="8" cy="8" r="8" transform="translate(59 1)" stroke="#34C88A" stroke-width="2"/>
<path d="M4.56699 1.75C4.75944 1.41667 5.24056 1.41667 5.43301 1.75L8.03109 6.25C8.22354 6.58333 7.98298 7 7.59808 7H2.40192C2.01702 7 1.77646 6.58333 1.96891 6.25L4.56699 1.75Z" transform="translate(72 4) rotate(90)" fill="#C0F5DF" stroke="#34C88A"/>
</svg>
