<svg id="Capa_1" data-name="Capa 1" xmlns="http://www.w3.org/2000/svg" viewBox="0 0 831.93 839.87"><defs><style>.cls-1,.cls-12,.cls-4,.cls-5,.cls-6,.cls-9{fill:#00ca55;}.cls-1{opacity:0.1;}.cls-2{fill:#fff;}.cls-3{fill:#01411c;}.cls-4{opacity:0.4;}.cls-5{opacity:0.35;}.cls-7{fill:#00df12;}.cls-8{fill:#0b6732;}.cls-9{stroke:#00ca55;stroke-miterlimit:10;}.cls-10{fill:#5479f7;}.cls-11{fill:#caddff;}.cls-12{opacity:0.3;}</style></defs><g id="FinTech_technology" data-name="FinTech technology"><path class="cls-1" d="M180.54,50.34C348.71-42.26,574,53.94,691.39,160.59c33.54,30.46,114.86,106.46,134.06,228.27C849.3,540.17,771.22,723.58,592.16,802c-194.91,85.39-412.84,4.47-514.83-126.89C-18.06,552.28,1,407.62,7.85,355.94,15.85,295.32,39.65,127.92,180.54,50.34Z"/><ellipse class="cls-2" cx="306.67" cy="85.05" rx="31.33" ry="31.29" transform="translate(125.87 346.94) rotate(-70.88)"/><path class="cls-3" d="M306.65,117.88a32.86,32.86,0,1,1,32.22-26.65A32.75,32.75,0,0,1,306.65,117.88Zm0-62.66A29.85,29.85,0,0,0,282,101.79a29.82,29.82,0,1,0,30.31-46A29.94,29.94,0,0,0,306.68,55.22Z"/><ellipse class="cls-2" cx="490.64" cy="304.27" rx="302.22" ry="304.27"/><path class="cls-4" d="M431.84,45.89c-1.24,1.84,2.45,8,9.79,8s11-1.23,14.07,6.78-1.22,35.1,3.06,45,11.63,16,17.13,10.47,4.9-20.33,11.63-24,31.2-18.48,32.42-30.8-7.34-21.55-28.75-24S441,32.34,431.84,45.89Z"/><path class="cls-5" d="M333.69,319.13a8.56,8.56,0,0,0-4.95,8c.48,10.33-3.87,36.07-13,44.29-11.62,10.47-7.34,29.34-7.52,37-.37,15.47,1.29,22.35,19.76,29.74s25.7,7.81,27.07,22.59,3.49,71.89,9,86.67,17.1,38.8,23.26,44.34,20.52,8.63,11.63-12.32-14.37-30.79-4.11-42.49,27.36-38.81,28.73-49.28,7.53-16.63,13-17.86,17.1-4.92,20.52-8.62-3.42-14.17-5.47-23.4-2.06-14.79,15-22.18,8.9-28.33-14.36-33.87-37.62-17.25-34.88-28.95-15.74-10.47-26.68-16-10.61-14.25-22.79-18.4C351.43,312.71,339.88,316,333.69,319.13Z"/><path class="cls-6" d="M710,306.21c-5.15-7.79-4.51-20.11,8.38-37,10.12-13.25-4.4-26.5-11.1-31.57a1.7,1.7,0,0,1,.85-3c8.3-.94,27.56,1.87,36,45,11,55.79,15.46,36.33,21.26,29.84s-5-18.6,5.8-31.14c6.84-7.9,10.31-19.43,12.08-28.83A304.51,304.51,0,0,0,621.37,48.89c.12,9.72-2.21,43.56-41.58,29.6,0,0-24.48-11.68-18.69,35.68s25.78-3.24,29.65-5.18,14.17-4.55,9.66,27.24c0,0-.64,11-20.62,9.09S556,153.1,556,158.29s1.93,18.81-9,28.55-7.73,35,7.09,26.6,25.13-35,38.66-37.63,25.78,14.92,38.66,10.38,7.09-26.6,13.54-26.6,20,13,18,22.71S641,196.57,646.17,208.25s16.11,7.78,19.33,15.57-16.11,16.86-31.58,7.13-18,4.54-25.77-1.94-8.38-20.12-19.34-15.57-17.39,13.62-31.57,20.11-25.78,14.92-25.78,24,5.16,18.82,2.58,33.09-7.09,53.2,39.31,45.41S614,352.27,614,354.87s-.65,36.33,3.86,42.17,14.82,22.7,0,44.76-9,71.36,4.51,64.88,27.07-31.79,43.82-44.77,40-69.41,30.29-86.93,13.53-31.79,16.75-43.47S715.12,314,710,306.21Z"/><path class="cls-4" d="M268.53,108.75c.27,10.81-.71,25.25-7.65,36.27-20.93,33.26-20.26,49.89-22.28,83.15s44,91.89,55.53,98.05,13.26-8.49,13.26-20.2-4.91-25.73-11.66-39.28S289,244.56,291,239s10.13-7.39,15.53-1.85,18.39,10.46,24.63,7c7.67-4.26,4.69-20.93,7.39-26.47s17.56-9.24,23.63-20.94,16.21-16.63,28.37-22.18,23-8,25-11.7-.68-12.32,2.7-22.17,11.48-21.56,8.1-26.49-13.5-12.93-32.41-.61-23.64,12.32-29,3.08S371,83.43,394.6,83.43,423,76,423.64,70.5s-6.75-11.71-14.86-12.94-9.45,3.08-43.22,15.4c-22.53,8.22-43.47,3.61-54.17,1.42A326.39,326.39,0,0,0,268.53,108.75Z"/><path class="cls-6" d="M777.9,377.76c-4.57-1-3.55,10.22-9.64,12.26s-8.62,5.11-7.1,16.34-1,26.05-7.11,31.67-14.71,9.71-15.22,23.5S725.64,488.6,718,493.19s-19.28,11.75-19.28,23.5c0,7.56-.19,17.23,1.55,24.67a304.33,304.33,0,0,0,83.34-146.55C782.45,387.27,780.51,378.34,777.9,377.76Z"/><path class="cls-3" d="M489.92,628.71a300.41,300.41,0,0,1-175.46-56.15,1.5,1.5,0,1,1,1.75-2.44,299.32,299.32,0,0,0,317.61,18.75,1.5,1.5,0,1,1,1.45,2.62A302.52,302.52,0,0,1,489.92,628.71Z"/><path class="cls-3" d="M787.47,270.88a1.5,1.5,0,0,1-1.47-1.24C760.5,125.09,636,20.18,489.92,20.18,372.64,20.18,265.27,89.57,216.39,197a1.5,1.5,0,0,1-2.73-1.25A305.72,305.72,0,0,1,323.78,66.94,302.22,302.22,0,0,1,686,89.45,306.57,306.57,0,0,1,789,269.12a1.5,1.5,0,0,1-1.21,1.74Z"/><path class="cls-3" d="M262.85,543.46c-2,0-4.08,0-6.05-.07a1.5,1.5,0,0,1-1.47-1.53,1.48,1.48,0,0,1,1.54-1.47c3.84.09,7.85.09,11.93,0a1.47,1.47,0,0,1,1.53,1.46,1.51,1.51,0,0,1-1.46,1.54C266.83,543.44,264.83,543.46,262.85,543.46Zm18-.55a1.5,1.5,0,0,1-.08-3c3.86-.23,7.88-.53,11.92-.9a1.5,1.5,0,1,1,.27,3c-4.08.37-8.12.67-12,.9Zm-36-.1h-.11c-4.16-.32-8.21-.75-12-1.3a1.5,1.5,0,0,1,.42-3c3.76.54,7.74,1,11.83,1.27a1.5,1.5,0,0,1-.11,3Zm59.88-2.06a1.5,1.5,0,0,1-.18-3c3.86-.46,7.85-1,11.86-1.57a1.5,1.5,0,1,1,.43,3c-4,.59-8,1.13-11.93,1.59Zm-83.61-1.38a1.24,1.24,0,0,1-.33,0,111,111,0,0,1-11.7-3.32,1.5,1.5,0,0,1,1-2.83,109.53,109.53,0,0,0,11.37,3.23,1.5,1.5,0,0,1-.33,3Zm107.36-2.07a1.5,1.5,0,0,1-.25-3c3.85-.66,7.81-1.37,11.78-2.13a1.5,1.5,0,1,1,.56,2.94c-4,.77-8,1.49-11.84,2.14A1.07,1.07,0,0,1,328.48,537.3Zm23.57-4.51a1.5,1.5,0,0,1-.31-3c3.84-.81,7.78-1.69,11.7-2.59a1.5,1.5,0,0,1,.67,2.92c-3.94.91-7.89,1.79-11.74,2.6A1.17,1.17,0,0,1,352.05,532.79Zm-153.48-1.43a1.52,1.52,0,0,1-.7-.18,58.63,58.63,0,0,1-10.23-6.79,1.5,1.5,0,1,1,1.93-2.3,55.3,55.3,0,0,0,9.71,6.44,1.5,1.5,0,0,1-.71,2.83Zm176.87-4a1.5,1.5,0,0,1-.36-2.95c3.82-1,7.72-2,11.6-3a1.5,1.5,0,0,1,.77,2.9c-3.89,1-7.81,2-11.65,3A1.47,1.47,0,0,1,375.44,527.39Zm23.2-6.17a1.5,1.5,0,0,1-.41-2.94c3.82-1.08,7.69-2.2,11.51-3.34a1.5,1.5,0,1,1,.85,2.87c-3.83,1.15-7.71,2.27-11.54,3.36A2,2,0,0,1,398.64,521.22ZM180.55,515.9a1.49,1.49,0,0,1-1.24-.66A39.48,39.48,0,0,1,174,504a1.5,1.5,0,0,1,2.88-.84,35.76,35.76,0,0,0,2,5.34,37.06,37.06,0,0,0,2.87,5,1.5,1.5,0,0,1-.4,2.08A1.46,1.46,0,0,1,180.55,515.9Zm241.09-1.53a1.5,1.5,0,0,1-.45-2.93c3.78-1.18,7.61-2.42,11.41-3.66a1.5,1.5,0,1,1,.94,2.85c-3.81,1.25-7.67,2.48-11.45,3.67A1.41,1.41,0,0,1,421.64,514.37Zm22.81-7.48A1.5,1.5,0,0,1,444,504c3.76-1.29,7.57-2.62,11.32-4a1.5,1.5,0,1,1,1,2.82c-3.76,1.34-7.58,2.68-11.34,4A1.73,1.73,0,0,1,444.45,506.89Zm22.61-8.06a1.5,1.5,0,0,1-.52-2.9c3.7-1.37,7.48-2.8,11.21-4.23a1.5,1.5,0,1,1,1.08,2.8c-3.75,1.44-7.53,2.86-11.25,4.24A1.58,1.58,0,0,1,467.06,498.83Zm-293.28-5.58a1.51,1.51,0,0,1-1.5-1.49v-.31a59.13,59.13,0,0,1,1.29-11.91,1.5,1.5,0,1,1,2.94.61,55.36,55.36,0,0,0-1.23,11.3v.29a1.49,1.49,0,0,1-1.49,1.51Zm315.69-3a1.5,1.5,0,0,1-.55-2.9c3.66-1.45,7.4-3,11.11-4.48a1.5,1.5,0,1,1,1.14,2.77c-3.72,1.53-7.47,3-11.15,4.5A1.5,1.5,0,0,1,489.47,490.24Zm22.21-9.11a1.5,1.5,0,0,1-.59-2.88q5.51-2.33,11-4.74a1.5,1.5,0,1,1,1.2,2.75q-5.52,2.42-11,4.75A1.51,1.51,0,0,1,511.68,481.13Zm22-9.6a1.5,1.5,0,0,1-.62-2.87q5.45-2.45,10.91-5a1.5,1.5,0,0,1,1.26,2.72q-5.47,2.54-10.94,5A1.49,1.49,0,0,1,533.68,471.53Zm-355.26-1.69a1.58,1.58,0,0,1-.52-.09,1.5,1.5,0,0,1-.89-1.93,113.24,113.24,0,0,1,4.91-11.13,1.5,1.5,0,0,1,2.68,1.36,106,106,0,0,0-4.77,10.82A1.51,1.51,0,0,1,178.42,469.84Zm377.05-8.38a1.5,1.5,0,0,1-.65-2.86q5.43-2.58,10.8-5.2a1.5,1.5,0,1,1,1.31,2.69q-5.37,2.63-10.82,5.22A1.5,1.5,0,0,1,555.47,461.46ZM577,450.92a1.5,1.5,0,0,1-.67-2.84q5.37-2.7,10.68-5.44a1.5,1.5,0,1,1,1.37,2.67q-5.31,2.73-10.71,5.45A1.44,1.44,0,0,1,577,450.92Zm-387.9-2.51a1.5,1.5,0,0,1-1.27-2.29c2-3.29,4.27-6.68,6.68-10.08a1.5,1.5,0,0,1,2.45,1.74c-2.37,3.34-4.59,6.68-6.58,9.92A1.49,1.49,0,0,1,189.13,448.41Zm409.23-8.5a1.5,1.5,0,0,1-.7-2.83c3.52-1.86,7.07-3.77,10.56-5.67a1.5,1.5,0,0,1,1.43,2.63c-3.49,1.91-7,3.82-10.59,5.69A1.46,1.46,0,0,1,598.36,439.91Zm21.08-11.49a1.5,1.5,0,0,1-.73-2.81c3.48-1.95,7-3.94,10.42-5.91a1.5,1.5,0,1,1,1.5,2.6c-3.45,2-7,4-10.46,5.93A1.47,1.47,0,0,1,619.44,428.42Zm20.81-12a1.5,1.5,0,0,1-.77-2.79c3.42-2,6.88-4.1,10.28-6.17a1.5,1.5,0,1,1,1.56,2.56c-3.42,2.08-6.88,4.16-10.31,6.19A1.5,1.5,0,0,1,640.25,416.45ZM660.75,404a1.5,1.5,0,0,1-.8-2.77c3.39-2.12,6.79-4.29,10.11-6.43a1.5,1.5,0,1,1,1.63,2.52c-3.33,2.15-6.74,4.32-10.15,6.45A1.42,1.42,0,0,1,660.75,404Zm20.17-13a1.52,1.52,0,0,1-1.25-.67,1.5,1.5,0,0,1,.42-2.08c3.35-2.23,6.69-4.49,9.93-6.71a1.5,1.5,0,1,1,1.69,2.47c-3.24,2.23-6.6,4.5-10,6.73A1.5,1.5,0,0,1,680.92,391Zm19.79-13.59a1.5,1.5,0,0,1-.87-2.72c3.28-2.32,6.55-4.68,9.72-7a1.5,1.5,0,0,1,1.78,2.42c-3.19,2.34-6.47,4.7-9.76,7A1.56,1.56,0,0,1,700.71,377.36Zm19.36-14.19a1.5,1.5,0,0,1-.9-2.7c3.21-2.44,6.4-4.9,9.47-7.32a1.5,1.5,0,1,1,1.86,2.35c-3.09,2.44-6.29,4.91-9.52,7.36A1.47,1.47,0,0,1,720.07,363.17Zm18.86-14.86a1.5,1.5,0,0,1-1-2.66c3.12-2.56,6.21-5.15,9.18-7.69a1.5,1.5,0,1,1,2,2.28c-3,2.56-6.09,5.16-9.22,7.73A1.56,1.56,0,0,1,738.93,348.31Zm18.23-15.62a1.5,1.5,0,0,1-1-2.62c3-2.68,6-5.41,8.81-8.09a1.5,1.5,0,1,1,2,2.18c-2.86,2.7-5.84,5.44-8.86,8.15A1.52,1.52,0,0,1,757.16,332.69Zm17.45-16.48a1.5,1.5,0,0,1-1.06-2.56c2.88-2.87,5.68-5.75,8.33-8.58a1.5,1.5,0,0,1,2.18,2.06c-2.67,2.84-5.49,5.75-8.39,8.64A1.45,1.45,0,0,1,774.61,316.21ZM791,298.71a1.56,1.56,0,0,1-1-.37,1.51,1.51,0,0,1-.14-2.12c2.67-3.06,5.25-6.14,7.66-9.16a1.5,1.5,0,1,1,2.34,1.87c-2.43,3.05-5,6.17-7.74,9.26A1.5,1.5,0,0,1,791,298.71Zm15-18.78a1.53,1.53,0,0,1-.88-.28,1.5,1.5,0,0,1-.34-2.09c2.39-3.34,4.62-6.66,6.63-9.88a1.5,1.5,0,0,1,2.55,1.59c-2.05,3.27-4.31,6.65-6.74,10A1.49,1.49,0,0,1,806,279.93Zm12.63-20.37a1.56,1.56,0,0,1-.69-.17,1.5,1.5,0,0,1-.64-2,110.14,110.14,0,0,0,4.87-10.77,1.5,1.5,0,1,1,2.8,1.08,112.77,112.77,0,0,1-5,11.06A1.49,1.49,0,0,1,818.61,259.56Zm8.47-22.36a1.24,1.24,0,0,1-.33,0,1.5,1.5,0,0,1-1.14-1.79,57.11,57.11,0,0,0,1.45-11.55,1.47,1.47,0,0,1,1.52-1.47,1.5,1.5,0,0,1,1.48,1.52A60.26,60.26,0,0,1,828.54,236,1.49,1.49,0,0,1,827.08,237.2Zm.1-23.73a1.51,1.51,0,0,1-1.45-1.12,37.76,37.76,0,0,0-2.3-6.37,40.21,40.21,0,0,0-2.3-4.16,1.5,1.5,0,0,1,2.54-1.61,41,41,0,0,1,2.47,4.5,40.23,40.23,0,0,1,2.49,6.87,1.51,1.51,0,0,1-1.07,1.84A1.58,1.58,0,0,1,827.18,213.47Zm-12.6-20a1.49,1.49,0,0,1-1-.37,53.31,53.31,0,0,0-9.58-6.63,1.5,1.5,0,1,1,1.45-2.63,57,57,0,0,1,10.11,7,1.5,1.5,0,0,1-1,2.63ZM793.8,181.77a1.48,1.48,0,0,1-.51-.09A106.22,106.22,0,0,0,782,178.34a1.5,1.5,0,1,1,.69-2.92,109.39,109.39,0,0,1,11.67,3.44,1.5,1.5,0,0,1-.51,2.91Zm-23.29-5.64-.22,0c-3.75-.56-7.73-1-11.82-1.34a1.5,1.5,0,1,1,.24-3c4.16.34,8.2.8,12,1.37a1.5,1.5,0,0,1-.22,3Z"/><path class="cls-3" d="M654.56,504.82h-4.34a1.5,1.5,0,0,1,0-3h0q6.07,0,12,0a1.47,1.47,0,0,1,1.52,1.48,1.5,1.5,0,0,1-1.48,1.52C659.71,504.81,657.14,504.82,654.56,504.82Zm-16.33-.2h0c-4-.1-8-.23-12-.4a1.5,1.5,0,1,1,.12-3c4,.16,8,.29,12,.39a1.5,1.5,0,0,1,0,3Zm36-.12a1.5,1.5,0,0,1-.05-3c4-.14,8.06-.32,12-.53a1.49,1.49,0,0,1,1.58,1.41A1.51,1.51,0,0,1,686.3,504c-3.92.22-8,.4-12,.53Zm-60-.86h-.08c-3.95-.22-8-.48-12-.77a1.5,1.5,0,1,1,.21-3c4,.28,8,.54,12,.77a1.5,1.5,0,0,1-.09,3Zm83.94-.49a1.5,1.5,0,0,1-.12-3c4-.33,8-.71,11.91-1.13a1.5,1.5,0,0,1,.33,3c-3.9.43-7.93.81-12,1.14Zm-107.87-1.24h-.13c-4-.34-8-.72-12-1.12a1.5,1.5,0,1,1,.29-3c4,.4,8,.77,11.93,1.11a1.5,1.5,0,0,1-.12,3Zm131.73-1.39a1.5,1.5,0,0,1-.21-3c4-.57,8-1.21,11.79-1.9a1.5,1.5,0,0,1,.53,3c-3.83.69-7.83,1.33-11.9,1.91Zm-155.61-1h-.18c-3.93-.44-7.94-.92-11.93-1.43a1.5,1.5,0,1,1,.38-3c4,.5,8,1,11.89,1.42a1.5,1.5,0,0,1-.16,3Zm-23.82-3h-.21c-3.92-.55-7.92-1.13-11.89-1.73a1.5,1.5,0,1,1,.45-3c3.95.6,7.94,1.17,11.86,1.72a1.5,1.5,0,0,1-.21,3Zm203-.27a1.5,1.5,0,0,1-.33-3c4-.91,7.88-1.89,11.55-2.93a1.5,1.5,0,0,1,.82,2.89c-3.72,1.05-7.66,2.05-11.71,3A1.24,1.24,0,0,1,745.66,496.24Zm-226.77-3.31-.24,0c-3.93-.65-7.92-1.32-11.85-2a1.5,1.5,0,1,1,.52-3c3.92.69,7.9,1.37,11.81,2a1.51,1.51,0,0,1-.24,3Zm249.84-3.27a1.5,1.5,0,0,1-.51-2.91c3.89-1.39,7.59-2.88,11-4.44a1.5,1.5,0,0,1,1.24,2.73c-3.49,1.59-7.28,3.12-11.24,4.53A1.51,1.51,0,0,1,768.73,489.66Zm-273.48-.88a1.37,1.37,0,0,1-.28,0q-5.87-1.1-11.8-2.28a1.5,1.5,0,0,1-1.18-1.76,1.52,1.52,0,0,1,1.77-1.18c3.93.78,7.86,1.54,11.76,2.27a1.5,1.5,0,0,1-.27,3Zm-23.54-4.67a1.63,1.63,0,0,1-.31,0q-5.85-1.23-11.74-2.53a1.5,1.5,0,1,1,.65-2.93q5.87,1.31,11.71,2.52a1.5,1.5,0,0,1-.31,3Zm318.75-4.53a1.47,1.47,0,0,1-1.28-.72,1.49,1.49,0,0,1,.5-2.06,71.22,71.22,0,0,0,9.5-6.86,1.5,1.5,0,1,1,2,2.26,73.17,73.17,0,0,1-9.91,7.16A1.51,1.51,0,0,1,790.46,479.58Zm-342.18-.65a2,2,0,0,1-.34,0q-5.88-1.36-11.69-2.79a1.5,1.5,0,0,1,.71-2.92q5.79,1.43,11.66,2.79a1.5,1.5,0,0,1-.34,3ZM425,473.23a1.57,1.57,0,0,1-.37-.05c-3.84-1-7.75-2-11.63-3.05a1.5,1.5,0,1,1,.78-2.89c3.84,1,7.7,2,11.59,3a1.5,1.5,0,0,1-.37,3ZM401.78,467a1.4,1.4,0,0,1-.41-.06c-3.84-1.08-7.73-2.19-11.56-3.31a1.5,1.5,0,0,1,.85-2.88c3.81,1.12,7.69,2.23,11.52,3.3a1.5,1.5,0,0,1-.4,2.95Zm406.46-3.25a1.45,1.45,0,0,1-.86-.28,1.5,1.5,0,0,1-.37-2.09,35.47,35.47,0,0,0,5.06-10.25,1.5,1.5,0,1,1,2.87.86,38.6,38.6,0,0,1-5.47,11.12A1.5,1.5,0,0,1,808.24,463.76Zm-429.5-3.51a1.67,1.67,0,0,1-.44-.06c-3.83-1.18-7.7-2.38-11.47-3.59a1.5,1.5,0,1,1,.91-2.86c3.77,1.2,7.61,2.41,11.44,3.58a1.5,1.5,0,0,1-.44,2.93Zm-22.87-7.31a1.58,1.58,0,0,1-.47-.07c-3.79-1.27-7.62-2.57-11.38-3.88a1.5,1.5,0,0,1,1-2.84c3.76,1.31,7.57,2.61,11.35,3.87a1.5,1.5,0,0,1-.48,2.92Zm-22.67-7.89a1.52,1.52,0,0,1-.51-.09c-3.77-1.37-7.56-2.78-11.27-4.18a1.5,1.5,0,1,1,1.06-2.81c3.7,1.4,7.48,2.81,11.23,4.17a1.5,1.5,0,0,1-.51,2.91Zm481.73-3.83a1.5,1.5,0,0,1-1.5-1.43,41.74,41.74,0,0,0-2.24-11.32,1.5,1.5,0,0,1,2.85-1,44.85,44.85,0,0,1,2.39,12.14,1.5,1.5,0,0,1-1.43,1.57Zm-504.18-4.68a1.54,1.54,0,0,1-.55-.11c-3.74-1.48-7.49-3-11.14-4.52a1.5,1.5,0,1,1,1.14-2.77c3.64,1.51,7.38,3,11.11,4.5a1.5,1.5,0,0,1-.56,2.9Zm-22.17-9.19a1.41,1.41,0,0,1-.6-.13c-3.7-1.6-7.4-3.24-11-4.87a1.51,1.51,0,0,1-.74-2,1.49,1.49,0,0,1,2-.75c3.59,1.63,7.27,3.27,10.95,4.86a1.5,1.5,0,0,1-.59,2.88Zm519-8.74a1.5,1.5,0,0,1-1.3-.76,88.67,88.67,0,0,0-6.59-9.76,1.5,1.5,0,0,1,2.37-1.84,89.81,89.81,0,0,1,6.82,10.11,1.49,1.49,0,0,1-.55,2.05A1.53,1.53,0,0,1,807.61,418.61Zm-540.89-1.19a1.51,1.51,0,0,1-.65-.15c-3.65-1.75-7.29-3.52-10.81-5.29a1.5,1.5,0,0,1,1.35-2.68c3.5,1.76,7.12,3.53,10.76,5.26a1.51,1.51,0,0,1-.65,2.86Zm-21.45-10.78a1.51,1.51,0,0,1-.71-.17c-3.59-1.91-7.15-3.85-10.57-5.76a1.5,1.5,0,0,1,1.47-2.62c3.4,1.91,6.93,3.83,10.51,5.73a1.5,1.5,0,0,1-.7,2.82Zm547.82-7.07a1.49,1.49,0,0,1-1.09-.47c-2.6-2.75-5.45-5.55-8.49-8.33a1.5,1.5,0,0,1,2-2.21c3.09,2.83,6,5.68,8.64,8.48a1.5,1.5,0,0,1-.06,2.12A1.47,1.47,0,0,1,793.09,399.57Zm-568.76-4.68a1.5,1.5,0,0,1-.76-.21c-3.51-2.1-7-4.23-10.25-6.34a1.5,1.5,0,1,1,1.61-2.52c3.27,2.09,6.7,4.2,10.18,6.28a1.5,1.5,0,0,1-.78,2.79Zm-20.21-12.95a1.49,1.49,0,0,1-.85-.26c-3.38-2.34-6.68-4.71-9.79-7.05a1.5,1.5,0,0,1,1.8-2.4c3.08,2.32,6.34,4.67,9.69,7a1.49,1.49,0,0,1-.85,2.73ZM185,367.49a1.46,1.46,0,0,1-1-.35c-3.2-2.66-6.25-5.36-9.06-8A1.5,1.5,0,1,1,177,357c2.77,2.61,5.77,5.26,8.92,7.89a1.5,1.5,0,0,1,.19,2.11A1.48,1.48,0,0,1,185,367.49ZM167.57,351a1.47,1.47,0,0,1-1.11-.49,115.79,115.79,0,0,1-7.7-9.39,1.5,1.5,0,1,1,2.42-1.77,113.65,113.65,0,0,0,7.5,9.15,1.49,1.49,0,0,1-.1,2.11A1.51,1.51,0,0,1,167.57,351Zm-14-19.39a1.5,1.5,0,0,1-1.33-.8,58.67,58.67,0,0,1-4.61-11.36,1.5,1.5,0,0,1,2.89-.81,55.37,55.37,0,0,0,4.37,10.77,1.5,1.5,0,0,1-.63,2A1.56,1.56,0,0,1,153.59,331.6Zm-6.06-22.86h0a1.5,1.5,0,0,1-1.47-1.53,35.87,35.87,0,0,1,2.4-12.22,1.5,1.5,0,0,1,2.8,1.08,33.18,33.18,0,0,0-1.41,4.65,34.09,34.09,0,0,0-.79,6.55A1.5,1.5,0,0,1,147.53,308.74Zm8.3-22a1.5,1.5,0,0,1-1.17-2.44,54.83,54.83,0,0,1,8.77-8.63,1.49,1.49,0,1,1,1.86,2.34,51.82,51.82,0,0,0-8.29,8.17A1.48,1.48,0,0,1,155.83,286.7Zm18.49-15.07a1.5,1.5,0,0,1-.74-2.81,112.74,112.74,0,0,1,10.89-5.39,1.5,1.5,0,0,1,1.19,2.75,110.2,110.2,0,0,0-10.6,5.25A1.52,1.52,0,0,1,174.32,271.63Z"/><path class="cls-3" d="M745.88,381q-3.75,0-7.61-.08a1.5,1.5,0,0,1-1.46-1.54,1.48,1.48,0,0,1,1.53-1.46c2.55.06,5.08.09,7.54.08,1.48,0,3,0,4.4,0a1.54,1.54,0,0,1,1.53,1.48,1.5,1.5,0,0,1-1.48,1.52C748.86,381,747.38,381,745.88,381Zm16.42-.48a1.5,1.5,0,0,1-.09-3c4.1-.25,8.09-.61,11.86-1.06a1.5,1.5,0,1,1,.36,3c-3.83.46-7.88.82-12,1.08Zm-36-.08h-.09c-3.9-.22-8-.5-12-.84a1.5,1.5,0,1,1,.25-3c4,.34,8,.62,11.93.83a1.5,1.5,0,0,1-.08,3Zm-23.92-2h-.16c-3.9-.42-7.92-.91-12-1.44a1.5,1.5,0,1,1,.39-3c4,.52,8,1,11.88,1.43a1.5,1.5,0,0,1-.16,3Zm83.7-.86a1.5,1.5,0,0,1-.29-3,112.73,112.73,0,0,0,11.49-2.87,1.5,1.5,0,0,1,.88,2.87,118,118,0,0,1-11.79,2.94A1.43,1.43,0,0,1,786.1,377.61Zm-107.5-2.26-.23,0c-3.88-.59-7.88-1.23-11.87-1.92a1.5,1.5,0,1,1,.5-3c4,.68,8,1.32,11.82,1.91a1.5,1.5,0,0,1-.22,3Zm-23.66-4-.28,0c-3.87-.73-7.84-1.51-11.8-2.33a1.5,1.5,0,1,1,.6-2.94c3.95.81,7.9,1.59,11.76,2.32a1.5,1.5,0,0,1-.28,3Zm154-.95a1.5,1.5,0,0,1-.66-2.85,49.24,49.24,0,0,0,9.82-6.19,1.49,1.49,0,1,1,1.91,2.3,51.9,51.9,0,0,1-10.42,6.59A1.51,1.51,0,0,1,808.91,370.36Zm-177.48-3.87a1.84,1.84,0,0,1-.33,0c-3.88-.86-7.82-1.76-11.72-2.68a1.5,1.5,0,1,1,.69-2.92c3.88.92,7.81,1.82,11.68,2.67a1.5,1.5,0,0,1-.32,3ZM608.06,361a1.47,1.47,0,0,1-.36,0c-3.86-1-7.77-2-11.65-3a1.5,1.5,0,0,1,.77-2.9c3.86,1,7.76,2,11.6,3a1.5,1.5,0,0,1-.36,2.95Zm218.72-6.07a1.42,1.42,0,0,1-.74-.2,1.49,1.49,0,0,1-.56-2,27.39,27.39,0,0,0,1.77-3.71,27.74,27.74,0,0,0,1.69-7,1.5,1.5,0,0,1,3,.32,31.07,31.07,0,0,1-1.87,7.8,31.69,31.69,0,0,1-2,4.12A1.52,1.52,0,0,1,826.78,354.92Zm-241.93-.05a1.37,1.37,0,0,1-.4-.05c-3.82-1.06-7.71-2.16-11.56-3.28a1.5,1.5,0,1,1,.83-2.88c3.84,1.11,7.72,2.21,11.53,3.27a1.5,1.5,0,0,1-.4,2.94Zm-23.05-6.68a1.67,1.67,0,0,1-.44-.06c-3.83-1.16-7.69-2.36-11.48-3.55a1.5,1.5,0,0,1,.9-2.86c3.78,1.19,7.63,2.38,11.45,3.53a1.5,1.5,0,0,1-.43,2.94ZM538.9,341a1.47,1.47,0,0,1-.46-.07q-5.69-1.86-11.41-3.8a1.5,1.5,0,0,1,1-2.84q5.7,1.94,11.37,3.79a1.49,1.49,0,0,1,1,1.89A1.51,1.51,0,0,1,538.9,341Zm-22.73-7.71a1.49,1.49,0,0,1-.5-.08q-5.64-2-11.31-4a1.5,1.5,0,0,1,1-2.82q5.65,2.06,11.29,4a1.5,1.5,0,0,1-.5,2.91Zm313.46-1.6a1.5,1.5,0,0,1-1.46-1.17,55.42,55.42,0,0,0-3.81-11,1.5,1.5,0,0,1,2.73-1.25,59.29,59.29,0,0,1,4,11.62,1.5,1.5,0,0,1-1.14,1.79A1.84,1.84,0,0,1,829.63,331.67Zm-336-6.58a1.42,1.42,0,0,1-.53-.1q-5.59-2.1-11.23-4.27a1.5,1.5,0,1,1,1.08-2.8q5.61,2.18,11.2,4.26a1.5,1.5,0,0,1,.88,1.93A1.48,1.48,0,0,1,493.61,325.09Zm-22.39-8.65a1.55,1.55,0,0,1-.56-.11q-5.61-2.24-11.14-4.5a1.5,1.5,0,1,1,1.14-2.78q5.52,2.26,11.11,4.49a1.5,1.5,0,0,1-.55,2.9ZM820,309.85a1.49,1.49,0,0,1-1.26-.7c-2-3.13-4.31-6.39-6.86-9.67a1.5,1.5,0,0,1,2.37-1.84c2.61,3.36,5,6.69,7,9.9a1.51,1.51,0,0,1-1.27,2.31Zm-371-2.52a1.51,1.51,0,0,1-.58-.12q-5.57-2.35-11-4.73a1.51,1.51,0,0,1-.78-2,1.48,1.48,0,0,1,2-.77q5.48,2.37,11,4.72a1.5,1.5,0,0,1-.59,2.88Zm-22-9.57a1.5,1.5,0,0,1-.61-.14q-5.52-2.46-10.94-5a1.5,1.5,0,1,1,1.25-2.72q5.42,2.49,10.91,5a1.49,1.49,0,0,1,.76,2A1.52,1.52,0,0,1,427,297.76Zm378.31-6.89a1.51,1.51,0,0,1-1.12-.5c-2.53-2.83-5.3-5.73-8.2-8.64a1.5,1.5,0,1,1,2.12-2.12c2.94,2.94,5.74,5.89,8.32,8.76a1.5,1.5,0,0,1-1.12,2.5ZM405.19,287.7a1.48,1.48,0,0,1-.64-.14c-3.61-1.72-7.25-3.47-10.83-5.22a1.5,1.5,0,0,1,1.32-2.7c3.57,1.75,7.2,3.5,10.8,5.21a1.5,1.5,0,0,1-.65,2.85Zm-21.56-10.55A1.51,1.51,0,0,1,383,277c-3.57-1.8-7.17-3.65-10.7-5.48a1.5,1.5,0,1,1,1.39-2.66c3.51,1.83,7.1,3.66,10.66,5.46a1.51,1.51,0,0,1,.67,2A1.49,1.49,0,0,1,383.63,277.15Zm-21.3-11.07a1.53,1.53,0,0,1-.71-.18c-3.55-1.91-7.1-3.84-10.56-5.76a1.5,1.5,0,1,1,1.46-2.62c3.44,1.91,7,3.84,10.52,5.73a1.51,1.51,0,0,1-.71,2.83Zm-21-11.64a1.48,1.48,0,0,1-.75-.2c-3.49-2-7-4-10.39-6.05a1.5,1.5,0,0,1,1.53-2.58c3.39,2,6.87,4,10.36,6a1.5,1.5,0,0,1-.75,2.8ZM320.68,242.2a1.52,1.52,0,0,1-.79-.22c-3.45-2.12-6.88-4.27-10.19-6.39a1.5,1.5,0,1,1,1.61-2.52c3.3,2.1,6.72,4.24,10.15,6.35a1.5,1.5,0,0,1-.78,2.78Zm-20.24-12.92a1.52,1.52,0,0,1-.83-.25c-3.37-2.24-6.72-4.52-9.95-6.76a1.5,1.5,0,1,1,1.71-2.46c3.21,2.23,6.55,4.49,9.9,6.72a1.5,1.5,0,0,1,.42,2.08A1.47,1.47,0,0,1,300.44,229.28Zm-19.72-13.69a1.47,1.47,0,0,1-.88-.29c-3.29-2.39-6.54-4.82-9.65-7.2a1.5,1.5,0,1,1,1.83-2.38c3.09,2.37,6.31,4.78,9.59,7.16a1.49,1.49,0,0,1,.33,2.09A1.52,1.52,0,0,1,280.72,215.59ZM261.67,201a1.47,1.47,0,0,1-.94-.34c-3.18-2.58-6.29-5.18-9.24-7.74a1.5,1.5,0,1,1,2-2.26c2.92,2.53,6,5.11,9.16,7.68a1.5,1.5,0,0,1-.95,2.66Zm-18.12-15.74a1.46,1.46,0,0,1-1-.41c-3-2.83-5.93-5.67-8.62-8.44a1.5,1.5,0,1,1,2.15-2.09c2.66,2.74,5.53,5.54,8.52,8.35a1.49,1.49,0,0,1,.07,2.12A1.51,1.51,0,0,1,243.55,185.24ZM226.85,168a1.49,1.49,0,0,1-1.13-.51c-2.76-3.19-5.31-6.36-7.59-9.44a1.5,1.5,0,1,1,2.41-1.78c2.23,3,4.74,6.12,7.45,9.25a1.51,1.51,0,0,1-.15,2.12A1.55,1.55,0,0,1,226.85,168ZM212.67,148.7a1.49,1.49,0,0,1-1.29-.74A80.9,80.9,0,0,1,205.94,137a1.5,1.5,0,1,1,2.79-1.11A78.29,78.29,0,0,0,214,146.44a1.49,1.49,0,0,1-.52,2.05A1.54,1.54,0,0,1,212.67,148.7Zm-8.52-22.22a1.51,1.51,0,0,1-1.49-1.29,38.85,38.85,0,0,1-.39-5.42,32.59,32.59,0,0,1,.75-7,1.5,1.5,0,1,1,2.93.65,29.72,29.72,0,0,0-.68,6.39,35.89,35.89,0,0,0,.36,5,1.5,1.5,0,0,1-1.27,1.7Zm5.25-22.77a1.54,1.54,0,0,1-.89-.28,1.5,1.5,0,0,1-.32-2.1,38,38,0,0,1,8.94-8.63,1.5,1.5,0,0,1,1.73,2.46,35,35,0,0,0-8.25,7.94A1.49,1.49,0,0,1,209.4,103.71Zm19.09-14a1.52,1.52,0,0,1-1.38-.92,1.5,1.5,0,0,1,.79-2,90.29,90.29,0,0,1,11.53-4,1.5,1.5,0,1,1,.8,2.9,86.94,86.94,0,0,0-11.15,3.82A1.37,1.37,0,0,1,228.49,89.68Zm23-6.48a1.5,1.5,0,0,1-.25-3c3.78-.66,7.81-1.21,12-1.64a1.5,1.5,0,0,1,.3,3c-4.1.42-8.07,1-11.78,1.61Z"/><path class="cls-3" d="M247.84,297.81h0c-4.11,0-8.16-.07-12-.19a1.51,1.51,0,0,1-1.46-1.55,1.48,1.48,0,0,1,1.55-1.45c3.85.12,7.87.19,12,.19a1.5,1.5,0,0,1,0,3Zm12-.15a1.5,1.5,0,0,1,0-3c3.88-.09,7.9-.24,12-.44a1.5,1.5,0,0,1,.14,3c-4.08.2-8.12.34-12,.44Zm-36-.64h-.1c-4.16-.29-8.21-.66-12-1.1a1.5,1.5,0,1,1,.34-3c3.77.43,7.77.8,11.88,1.08a1.5,1.5,0,0,1-.1,3Zm60-.49a1.5,1.5,0,0,1-.1-3c3.89-.26,7.9-.57,11.93-.92a1.5,1.5,0,1,1,.26,3c-4.05.35-8.08.66-12,.92Zm23.91-2.06a1.5,1.5,0,0,1-.15-3c3.91-.4,7.92-.84,11.9-1.31a1.5,1.5,0,1,1,.36,3c-4,.48-8,.92-11.95,1.33ZM200,294.2l-.27,0c-4.21-.75-8.19-1.63-11.84-2.61a1.5,1.5,0,1,1,.78-2.9c3.56,1,7.46,1.82,11.59,2.56a1.5,1.5,0,0,1-.26,3Zm131.53-2.54a1.5,1.5,0,0,1-.2-3c3.9-.52,7.9-1.08,11.87-1.66a1.5,1.5,0,1,1,.43,3c-4,.58-8,1.14-11.9,1.66Zm23.75-3.46a1.5,1.5,0,0,1-.23-3c3.88-.62,7.86-1.27,11.82-2a1.5,1.5,0,0,1,.51,3c-4,.68-8,1.33-11.86,1.95ZM177,287.78a1.51,1.51,0,0,1-.58-.12,52.49,52.49,0,0,1-10.79-5.94,1.5,1.5,0,1,1,1.78-2.42,49.83,49.83,0,0,0,10.17,5.6,1.5,1.5,0,0,1-.58,2.88Zm202-3.62a1.5,1.5,0,0,1-.27-3q5.85-1.06,11.78-2.22a1.5,1.5,0,0,1,.57,3q-5.94,1.15-11.81,2.22Zm23.56-4.57a1.5,1.5,0,0,1-.3-3c3.89-.79,7.8-1.62,11.73-2.46a1.5,1.5,0,1,1,.64,2.93q-5.92,1.28-11.76,2.47Zm23.47-5a1.5,1.5,0,0,1-.33-3q5.81-1.31,11.68-2.7a1.5,1.5,0,0,1,.69,2.92q-5.9,1.4-11.71,2.71A1.86,1.86,0,0,1,426,274.54Zm-267.48-1.35a1.51,1.51,0,0,1-1.33-.81,21.29,21.29,0,0,1-1.7-4.29,21.56,21.56,0,0,1-.75-5.69,23.48,23.48,0,0,1,.13-2.49,1.5,1.5,0,1,1,3,.32c-.07.73-.11,1.46-.11,2.17a18.16,18.16,0,0,0,.65,4.9,17.82,17.82,0,0,0,1.46,3.69,1.51,1.51,0,0,1-1.33,2.2ZM449.37,269a1.5,1.5,0,0,1-.36-3q5.79-1.43,11.63-2.92a1.5,1.5,0,0,1,.74,2.91q-5.85,1.5-11.65,2.93A1.53,1.53,0,0,1,449.37,269Zm23.25-6a1.5,1.5,0,0,1-.39-2.95q4.62-1.23,9.26-2.5l2.31-.63a1.5,1.5,0,1,1,.8,2.89l-2.32.64q-4.65,1.28-9.27,2.5A1.31,1.31,0,0,1,472.62,263.06Zm23.13-6.38a1.5,1.5,0,0,1-.41-3q5.79-1.65,11.51-3.35a1.5,1.5,0,0,1,.86,2.88Q502,255,496.17,256.62A1.52,1.52,0,0,1,495.75,256.68Zm23-6.82a1.5,1.5,0,0,1-.43-2.93q5.76-1.77,11.44-3.57a1.5,1.5,0,0,1,.91,2.86q-5.7,1.8-11.48,3.58A1.61,1.61,0,0,1,518.77,249.86Zm22.89-7.25a1.5,1.5,0,0,1-.47-2.93q5.74-1.87,11.38-3.79a1.5,1.5,0,0,1,1,2.84q-5.65,1.92-11.4,3.8A1.6,1.6,0,0,1,541.66,242.61Zm22.74-7.71a1.5,1.5,0,0,1-.5-2.91q5.7-2,11.29-4a1.5,1.5,0,0,1,1,2.82q-5.61,2-11.33,4A1.4,1.4,0,0,1,564.4,234.9ZM587,226.72a1.5,1.5,0,0,1-.53-2.9c3.78-1.42,7.54-2.86,11.2-4.28a1.5,1.5,0,0,1,1.09,2.8c-3.67,1.42-7.45,2.87-11.24,4.29A1.58,1.58,0,0,1,587,226.72ZM609.35,218a1.5,1.5,0,0,1-.56-2.89c3.71-1.5,7.45-3,11.09-4.54a1.5,1.5,0,1,1,1.15,2.76c-3.65,1.53-7.39,3.06-11.12,4.56A1.43,1.43,0,0,1,609.35,218Zm22.15-9.25a1.47,1.47,0,0,1-1.37-.9,1.5,1.5,0,0,1,.77-2c3.7-1.6,7.39-3.23,11-4.85a1.5,1.5,0,0,1,1.23,2.74c-3.59,1.62-7.29,3.25-11,4.86A1.61,1.61,0,0,1,631.5,208.78Zm21.89-9.86a1.5,1.5,0,0,1-.64-2.86c3.65-1.71,7.28-3.46,10.8-5.18a1.5,1.5,0,1,1,1.32,2.69c-3.53,1.73-7.18,3.48-10.84,5.2A1.5,1.5,0,0,1,653.39,198.92Zm21.55-10.58a1.5,1.5,0,0,1-.68-2.84c3.6-1.85,7.16-3.73,10.59-5.58a1.5,1.5,0,0,1,1.43,2.64c-3.45,1.86-7,3.75-10.65,5.61A1.53,1.53,0,0,1,674.94,188.34Zm21.11-11.44a1.5,1.5,0,0,1-.74-2.8c3.54-2,7-4.07,10.3-6.08a1.5,1.5,0,1,1,1.56,2.56c-3.32,2-6.81,4.08-10.37,6.12A1.46,1.46,0,0,1,696.05,176.9Zm20.49-12.52a1.5,1.5,0,0,1-.83-2.75c3.44-2.26,6.76-4.53,9.86-6.75a1.5,1.5,0,1,1,1.74,2.44c-3.13,2.24-6.48,4.53-9.95,6.81A1.48,1.48,0,0,1,716.54,164.38Zm19.48-14a1.5,1.5,0,0,1-.93-2.67c3.26-2.6,6.31-5.2,9-7.72a1.5,1.5,0,0,1,2,2.21c-2.79,2.56-5.89,5.21-9.21,7.85A1.52,1.52,0,0,1,736,150.37Zm17.57-16.31a1.47,1.47,0,0,1-1-.38,1.5,1.5,0,0,1-.12-2.12,70.74,70.74,0,0,0,7.1-9.32,1.5,1.5,0,1,1,2.54,1.59,75.09,75.09,0,0,1-7.4,9.73A1.51,1.51,0,0,1,753.59,134.06Zm12.14-20.38a1.57,1.57,0,0,1-.37-.05,1.51,1.51,0,0,1-1.08-1.83,22.81,22.81,0,0,0,.76-5.66,18.56,18.56,0,0,0-.65-4.9c0-.13-.07-.25-.12-.38a1.5,1.5,0,1,1,2.85-1,5,5,0,0,1,.16.55,21.44,21.44,0,0,1,.76,5.68,26,26,0,0,1-.85,6.41A1.51,1.51,0,0,1,765.73,113.68Zm-7.67-20.82a1.48,1.48,0,0,1-.89-.29,59.18,59.18,0,0,0-10.11-5.86A1.5,1.5,0,0,1,748.33,84,61.86,61.86,0,0,1,759,90.16a1.5,1.5,0,0,1-.9,2.7ZM736.51,82.51a1.47,1.47,0,0,1-.46-.07,115.59,115.59,0,0,0-11.45-3,1.5,1.5,0,0,1,.63-2.94c4,.87,8,1.92,11.74,3.13a1.5,1.5,0,0,1-.46,2.93ZM677.26,79a1.5,1.5,0,0,1-.33-3,97.3,97.3,0,0,1,12-1.88,1.49,1.49,0,0,1,1.63,1.35,1.5,1.5,0,0,1-1.35,1.64,91,91,0,0,0-11.66,1.82A1.24,1.24,0,0,1,677.26,79Zm35.82-1.49h-.18c-4-.46-7.94-.73-11.82-.8a1.5,1.5,0,1,1,0-3c4,.07,8.06.35,12.12.82a1.5,1.5,0,0,1-.17,3Z"/><ellipse class="cls-2" cx="760.25" cy="86.62" rx="31.29" ry="31.33"/><path class="cls-3" d="M760.18,119.46A32.83,32.83,0,0,1,727.8,91.34a32.79,32.79,0,1,1,64.9-9.45h0A32.88,32.88,0,0,1,765,119.11,33.67,33.67,0,0,1,760.18,119.46Zm.13-62.68a30.51,30.51,0,0,0-4.35.31,29.85,29.85,0,0,0-13.52,53.44,29.55,29.55,0,0,0,22.1,5.61,29.86,29.86,0,0,0,25.19-33.82h0a29.81,29.81,0,0,0-29.42-25.54Z"/><path class="cls-7" d="M736.86,76.21l9.45,15.41a1.1,1.1,0,0,0,1.5.39h0l6.78-4.17a1.11,1.11,0,0,0-.05-1.87l-1.89-1.1a1.6,1.6,0,0,0-2.19.61l0,0-.06.12a1.57,1.57,0,0,1-2.17.62,1.7,1.7,0,0,1-.82-1.07l-1.27-5.23a1.62,1.62,0,0,1,1-1.92l4.94-1.78a1.59,1.59,0,0,1,1.33.14,1.63,1.63,0,0,1,.7,2.19l0,0-.06.12a1.7,1.7,0,0,0,.69,2.25l1.81,1a1.07,1.07,0,0,0,1.47-.43,1,1,0,0,0,.12-.54l-.27-8.12a1.13,1.13,0,0,0-1.12-1.09l-17.68.26a2.68,2.68,0,0,0-2.61,2.79A2.75,2.75,0,0,0,736.86,76.21Z"/><path class="cls-7" d="M780.62,70.7l-19,.24A1.06,1.06,0,0,0,760.56,72v0l.4,8.83a1.19,1.19,0,0,0,1.79,1l2.38-1.46a1.18,1.18,0,0,0,.37-1.62h0l-.46-.75a1.09,1.09,0,0,1,.28-1.51l0,0,.63-.39a1.11,1.11,0,0,1,.89-.1l5.68,1.83a1.14,1.14,0,0,1,.77,1.26l-.93,5.9a1.07,1.07,0,0,1-.49.74l-.64.39a1.07,1.07,0,0,1-1.48-.38h0l-.48-.77a1.17,1.17,0,0,0-1.6-.42h0L765.33,86a1.2,1.2,0,0,0-.34,1.65,1.24,1.24,0,0,0,.42.4l7.64,4.33a1.07,1.07,0,0,0,1.46-.41v0l8.81-16.85a3,3,0,0,0-2.71-4.42Z"/><path class="cls-7" d="M763.72,112.27l8.19-15.61a1.14,1.14,0,0,0-.45-1.52l-7.14-4a1.06,1.06,0,0,0-1.46.43,1,1,0,0,0-.13.54l.11,2.67A1.14,1.14,0,0,0,764,95.92h1.19A1.12,1.12,0,0,1,766.3,97l0,.79a1,1,0,0,1-.33.82l-4.3,4.08a1.07,1.07,0,0,1-1.44,0l-4.68-4a1.15,1.15,0,0,1-.4-.82l0-.78a1.06,1.06,0,0,1,1-1.11h1.2a1.06,1.06,0,0,0,1-1.1h0l-.1-2.65a1.12,1.12,0,0,0-1.19-1,1.06,1.06,0,0,0-.46.13l-6.74,4.13a1.1,1.1,0,0,0-.37,1.45L759,112.34a2.72,2.72,0,0,0,3.73,1A2.58,2.58,0,0,0,763.72,112.27Z"/><ellipse class="cls-2" cx="520.19" cy="333" rx="47.5" ry="47.56"/><path d="M520.17,382.09a49.09,49.09,0,1,1,44.58-28.67l-1.37-.63,1.37.63a49.14,49.14,0,0,1-44.58,28.67Zm0-95.17A46.08,46.08,0,1,0,562,352.17h0a46.08,46.08,0,0,0-41.81-65.25Z"/><path d="M520.17,373.74a40.74,40.74,0,1,1,40.15-47.39,1.51,1.51,0,0,1-1.24,1.73,1.49,1.49,0,0,1-1.72-1.24,37.74,37.74,0,1,0-2.92,21.86,1.5,1.5,0,1,1,2.73,1.25,40.79,40.79,0,0,1-37,23.79Z"/><path class="cls-7" d="M513.7,300.85,504.45,321a1.35,1.35,0,0,0,.64,1.8h0l9,4.13a1.35,1.35,0,0,0,1.78-.74,1.34,1.34,0,0,0,.1-.59l-.18-2.68a2,2,0,0,0-2.16-1.83h-.19a2,2,0,0,1-2.17-1.8,2.06,2.06,0,0,1,.55-1.57l4.49-4.85a2,2,0,0,1,2.66-.27l5.28,3.86a2.06,2.06,0,0,1-1,3.67h0l-.16,0a2.06,2.06,0,0,0-1.84,2.23l.24,2.54a1.35,1.35,0,0,0,1.47,1.2,1.26,1.26,0,0,0,.64-.24l8.16-5.78a1.37,1.37,0,0,0,.33-1.9l-12.59-18a3.36,3.36,0,0,0-4.69-.78A3.32,3.32,0,0,0,513.7,300.85Z"/><path class="cls-7" d="M549.87,342l-13.49-19.34a1.34,1.34,0,0,0-1.86-.33l0,0-8.8,6.4a1.47,1.47,0,0,0,.22,2.51l3.17,1.45A1.44,1.44,0,0,0,531,332h0l.45-1a1.33,1.33,0,0,1,1.74-.74l0,0,.84.38a1.3,1.3,0,0,1,.71.84l2.09,7.07a1.37,1.37,0,0,1-.76,1.64l-6.71,3.05a1.32,1.32,0,0,1-1.1,0l-.85-.38a1.33,1.33,0,0,1-.64-1.78h0l.46-1a1.46,1.46,0,0,0-.69-1.94h0l-3.11-1.43a1.48,1.48,0,0,0-1.94.77,1.52,1.52,0,0,0-.11.7l.87,10.78a1.34,1.34,0,0,0,1.44,1.21h0l23.47-2.4a3.7,3.7,0,0,0,3.28-4.08A3.66,3.66,0,0,0,549.87,342Z"/><path class="cls-7" d="M495.37,352.89l21.76-2.2a1.38,1.38,0,0,0,1.23-1.5l-.91-10A1.34,1.34,0,0,0,516,338a1.29,1.29,0,0,0-.65.24l-2.66,1.92a1.38,1.38,0,0,0-.33,1.91l.84,1.21a1.37,1.37,0,0,1-.32,1.9l-.78.57A1.39,1.39,0,0,1,511,346l-7.19-1.65a1.33,1.33,0,0,1-1-1.47l.81-7.48a1.37,1.37,0,0,1,.57-1l.77-.56a1.34,1.34,0,0,1,1.87.31h0l.84,1.21a1.33,1.33,0,0,0,1.85.33h0l2.64-1.9a1.38,1.38,0,0,0,.24-1.93,1.56,1.56,0,0,0-.46-.38l-8.94-4.1a1.35,1.35,0,0,0-1.75.6L492,348.12a3.37,3.37,0,0,0,1.62,4.47A3.44,3.44,0,0,0,495.37,352.89Z"/><path class="cls-3" d="M659.12,36.73h0l-2.79-.06a1.5,1.5,0,0,1,.06-3l2.79.06a1.5,1.5,0,0,1,0,3Z"/><path class="cls-3" d="M672.52,37h0l-2.8-.06a1.5,1.5,0,0,1-1.47-1.53A1.46,1.46,0,0,1,669.75,34l2.8.06a1.5,1.5,0,0,1,0,3Z"/><path class="cls-3" d="M664.26,44.94h0a1.5,1.5,0,0,1-1.47-1.53l.06-2.8a1.47,1.47,0,0,1,1.53-1.46,1.49,1.49,0,0,1,1.47,1.53l-.06,2.8A1.49,1.49,0,0,1,664.26,44.94Z"/><path class="cls-3" d="M664.53,31.53h0A1.5,1.5,0,0,1,663,30l.06-2.8a1.5,1.5,0,1,1,3,.06l-.06,2.8A1.49,1.49,0,0,1,664.53,31.53Z"/><path class="cls-3" d="M34.26,429.72a10.13,10.13,0,0,1-9.85-7.89h0a10.12,10.12,0,1,1,12.12,7.63A10.27,10.27,0,0,1,34.26,429.72Zm0-17.28a7.34,7.34,0,0,0-1.6.18,7.15,7.15,0,0,0-5.35,8.55h0a7.12,7.12,0,1,0,10.73-7.63A7,7,0,0,0,34.29,412.44Z"/><path class="cls-3" d="M29.4,390.91a7.45,7.45,0,1,1,1.67-.19A7.4,7.4,0,0,1,29.4,390.91Zm0-11.89a4.19,4.19,0,0,0-1,.12,4.45,4.45,0,0,0-1.38,8.09,4.39,4.39,0,0,0,3.35.56,4.43,4.43,0,0,0,3.33-5.31,4.39,4.39,0,0,0-2-2.77A4.43,4.43,0,0,0,29.42,379Z"/><path class="cls-3" d="M369.94,742.89a5.93,5.93,0,1,1,7.1,4.47A5.94,5.94,0,0,1,369.94,742.89Z"/><path class="cls-6" d="M26.45,168.42a8,8,0,1,1,9.62,6.05A8,8,0,0,1,26.45,168.42Z"/><path d="M208,719.44a1.57,1.57,0,0,1-.8-.23l-2.8-1.76a1.5,1.5,0,0,1,1.6-2.54l2.8,1.76a1.5,1.5,0,0,1-.8,2.77Z"/><path d="M221.39,727.88a1.46,1.46,0,0,1-.8-.23l-2.8-1.76a1.5,1.5,0,0,1,1.59-2.54l2.81,1.76a1.5,1.5,0,0,1,.47,2.07A1.52,1.52,0,0,1,221.39,727.88Z"/><path d="M208.18,730.9a1.57,1.57,0,0,1-.8-.23,1.5,1.5,0,0,1-.47-2.07l1.76-2.81a1.5,1.5,0,0,1,2.54,1.6l-1.76,2.8A1.48,1.48,0,0,1,208.18,730.9Z"/><path d="M216.61,717.46a1.42,1.42,0,0,1-.79-.23,1.49,1.49,0,0,1-.48-2.06l1.76-2.81a1.5,1.5,0,0,1,2.54,1.6l-1.76,2.8A1.49,1.49,0,0,1,216.61,717.46Z"/><polygon class="cls-2" points="822.78 736.58 709.06 802.16 595.85 736.19 710.34 669.51 822.78 736.58"/><path d="M709.06,803.66a1.6,1.6,0,0,1-.76-.2l-113.21-66a1.51,1.51,0,0,1,0-2.6l114.5-66.68a1.5,1.5,0,0,1,1.52,0l112.44,67.07a1.5,1.5,0,0,1,0,2.59L709.81,803.46A1.53,1.53,0,0,1,709.06,803.66ZM598.83,736.19l110.23,64.24,110.76-63.88-109.48-65.3Z"/><polygon class="cls-8" points="709.08 838.09 709.08 801.61 822.83 736.39 822.83 770.98 709.08 838.09"/><path d="M709.08,839.59a1.51,1.51,0,0,1-1.5-1.5V801.61a1.52,1.52,0,0,1,.75-1.3l113.76-65.22a1.49,1.49,0,0,1,1.5,0,1.51,1.51,0,0,1,.74,1.3V771a1.49,1.49,0,0,1-.73,1.29L709.84,839.38A1.48,1.48,0,0,1,709.08,839.59Zm1.5-37.11v33l110.75-65.33V739Z"/><polygon class="cls-9" points="709.08 838.09 709.08 801.61 596.32 735.96 596.32 771.31 709.08 838.09"/><path d="M709.08,839.59a1.48,1.48,0,0,1-.76-.21L595.55,772.6a1.49,1.49,0,0,1-.74-1.29V736a1.51,1.51,0,0,1,2.26-1.3l112.77,65.66a1.48,1.48,0,0,1,.74,1.29v36.48a1.51,1.51,0,0,1-1.5,1.5ZM597.81,770.45l109.77,65v-33L597.81,738.57Z"/><polygon class="cls-2" points="822.78 682.07 709.06 747.66 595.85 681.69 710.34 615.01 822.78 682.07"/><path d="M709.06,749.16a1.6,1.6,0,0,1-.76-.2L595.09,683a1.48,1.48,0,0,1-.74-1.29,1.5,1.5,0,0,1,.74-1.3l114.5-66.68a1.5,1.5,0,0,1,1.52,0l112.44,67.07a1.49,1.49,0,0,1,0,2.58L709.81,749A1.53,1.53,0,0,1,709.06,749.16ZM598.83,681.69l110.23,64.24,110.76-63.88-109.48-65.3Z"/><polygon class="cls-8" points="709.08 783.59 709.08 747.11 822.83 681.89 822.83 716.48 709.08 783.59"/><path d="M709.08,785.09a1.51,1.51,0,0,1-1.5-1.5V747.11a1.51,1.51,0,0,1,.75-1.3l113.76-65.22a1.49,1.49,0,0,1,2.24,1.3v34.59a1.51,1.51,0,0,1-.73,1.29L709.84,784.88A1.48,1.48,0,0,1,709.08,785.09Zm1.5-37.11v33l110.75-65.34V684.48Z"/><polygon class="cls-6" points="709.08 783.59 709.08 747.11 596.32 681.46 596.32 716.81 709.08 783.59"/><path d="M709.08,785.09a1.48,1.48,0,0,1-.76-.21L595.55,718.1a1.49,1.49,0,0,1-.74-1.29V681.46a1.51,1.51,0,0,1,2.26-1.3l112.77,65.65a1.51,1.51,0,0,1,.74,1.3v36.48a1.51,1.51,0,0,1-1.5,1.5ZM597.81,716l109.77,65V748L597.81,684.06Z"/><polygon class="cls-2" points="822.78 627.57 709.06 693.16 595.85 627.19 710.34 560.5 822.78 627.57"/><path d="M709.06,694.66a1.5,1.5,0,0,1-.76-.21l-113.21-66a1.5,1.5,0,0,1,0-2.59l114.5-66.68a1.5,1.5,0,0,1,1.52,0l112.44,67.06a1.51,1.51,0,0,1,.73,1.3,1.48,1.48,0,0,1-.75,1.29L709.81,694.46A1.53,1.53,0,0,1,709.06,694.66ZM598.83,627.19l110.23,64.23,110.76-63.87-109.48-65.3Z"/><polygon class="cls-8" points="709.08 729.08 709.08 692.61 822.83 627.39 822.83 661.98 709.08 729.08"/><path d="M709.08,730.58a1.48,1.48,0,0,1-.74-.19,1.51,1.51,0,0,1-.76-1.31V692.61a1.5,1.5,0,0,1,.75-1.3l113.76-65.22a1.49,1.49,0,0,1,2.24,1.3V662a1.51,1.51,0,0,1-.73,1.29L709.84,730.38A1.57,1.57,0,0,1,709.08,730.58Zm1.5-37.1v33l110.75-65.34V630Z"/><polygon class="cls-6" points="709.08 729.08 709.08 692.61 596.32 626.95 596.32 662.3 709.08 729.08"/><path d="M709.08,730.58a1.48,1.48,0,0,1-.76-.21L595.55,663.59a1.49,1.49,0,0,1-.74-1.29V627a1.5,1.5,0,0,1,2.26-1.29l112.77,65.65a1.5,1.5,0,0,1,.74,1.3v36.47a1.51,1.51,0,0,1-.76,1.31A1.48,1.48,0,0,1,709.08,730.58ZM597.81,661.45l109.77,65v-33L597.81,629.56Z"/><polygon class="cls-2" points="822.78 573.07 709.06 638.65 595.85 572.68 710.34 506 822.78 573.07"/><path d="M709.06,640.16a1.5,1.5,0,0,1-.76-.21L595.09,574a1.5,1.5,0,0,1,0-2.59l114.5-66.68a1.5,1.5,0,0,1,1.52,0l112.44,67.07a1.5,1.5,0,0,1,0,2.59L709.81,640A1.44,1.44,0,0,1,709.06,640.16ZM598.83,572.69l110.23,64.23,110.76-63.87L710.34,507.74Z"/><polygon class="cls-8" points="709.08 674.58 709.08 638.11 822.83 572.88 822.83 607.48 709.08 674.58"/><path d="M709.08,676.08a1.4,1.4,0,0,1-.74-.2,1.48,1.48,0,0,1-.76-1.3V638.11a1.5,1.5,0,0,1,.75-1.3l113.76-65.23a1.51,1.51,0,0,1,1.5,0,1.5,1.5,0,0,1,.74,1.3v34.59a1.51,1.51,0,0,1-.73,1.29l-113.76,67.1A1.48,1.48,0,0,1,709.08,676.08Zm1.5-37.1v33l110.75-65.34V575.47Z"/><polygon class="cls-6" points="709.08 674.58 709.08 638.11 596.32 572.45 596.32 607.8 709.08 674.58"/><path d="M709.08,676.08a1.48,1.48,0,0,1-.76-.21L595.55,609.09a1.49,1.49,0,0,1-.74-1.29V572.45a1.51,1.51,0,0,1,.76-1.3,1.49,1.49,0,0,1,1.5,0l112.77,65.65a1.5,1.5,0,0,1,.74,1.3v36.47a1.51,1.51,0,0,1-.76,1.31A1.48,1.48,0,0,1,709.08,676.08ZM597.81,607l109.77,65V639L597.81,575.06Z"/><path class="cls-8" d="M687.31,644.16c0,2.27-1.85,3.05-4.12,1.74s-4.12-4.23-4.12-6.5,1.84-3.06,4.12-1.74S687.31,641.88,687.31,644.16Z"/><path class="cls-8" d="M619.37,604.93c0,2.28-1.85,3.06-4.12,1.74s-4.12-4.22-4.12-6.5,1.84-3,4.12-1.74S619.37,602.66,619.37,604.93Z"/><path class="cls-8" d="M670.32,634.35c0,2.28-1.84,3.06-4.12,1.74s-4.12-4.22-4.12-6.5,1.85-3.05,4.12-1.74S670.32,632.07,670.32,634.35Z"/><path class="cls-8" d="M653.34,624.54c0,2.28-1.85,3.06-4.12,1.75s-4.12-4.23-4.12-6.5,1.84-3.06,4.12-1.75S653.34,622.27,653.34,624.54Z"/><path class="cls-8" d="M636.35,614.74c0,2.27-1.84,3-4.12,1.74s-4.12-4.22-4.12-6.5,1.85-3.06,4.12-1.74S636.35,612.46,636.35,614.74Z"/><path class="cls-8" d="M687.31,698.57c0,2.28-1.85,3.06-4.12,1.74s-4.12-4.22-4.12-6.49,1.84-3.06,4.12-1.75S687.31,696.3,687.31,698.57Z"/><path class="cls-8" d="M619.37,659.35c0,2.27-1.85,3-4.12,1.74s-4.12-4.22-4.12-6.5,1.84-3.05,4.12-1.74S619.37,657.07,619.37,659.35Z"/><path class="cls-8" d="M670.32,688.77c0,2.27-1.84,3.05-4.12,1.74s-4.12-4.23-4.12-6.5,1.85-3.06,4.12-1.74S670.32,686.49,670.32,688.77Z"/><path class="cls-8" d="M653.34,679c0,2.28-1.85,3.06-4.12,1.74s-4.12-4.22-4.12-6.5,1.84-3.05,4.12-1.74S653.34,676.69,653.34,679Z"/><path class="cls-8" d="M636.35,669.15c0,2.28-1.84,3.06-4.12,1.75s-4.12-4.23-4.12-6.5,1.85-3.06,4.12-1.74S636.35,666.88,636.35,669.15Z"/><path class="cls-8" d="M687.31,753.08c0,2.27-1.85,3-4.12,1.74s-4.12-4.23-4.12-6.5,1.84-3.06,4.12-1.74S687.31,750.8,687.31,753.08Z"/><path class="cls-8" d="M619.37,713.85c0,2.28-1.85,3.06-4.12,1.74s-4.12-4.22-4.12-6.5,1.84-3.05,4.12-1.74S619.37,711.57,619.37,713.85Z"/><path class="cls-8" d="M670.32,743.27c0,2.27-1.84,3.05-4.12,1.74s-4.12-4.22-4.12-6.5,1.85-3,4.12-1.74S670.32,741,670.32,743.27Z"/><path class="cls-8" d="M653.34,733.46c0,2.28-1.85,3.06-4.12,1.74s-4.12-4.22-4.12-6.49,1.84-3.06,4.12-1.75S653.34,731.19,653.34,733.46Z"/><path class="cls-8" d="M636.35,723.66c0,2.27-1.84,3.05-4.12,1.74s-4.12-4.23-4.12-6.5,1.85-3.06,4.12-1.74S636.35,721.38,636.35,723.66Z"/><path class="cls-10" d="M687.31,807.58c0,2.27-1.85,3-4.12,1.74s-4.12-4.22-4.12-6.5,1.84-3.06,4.12-1.74S687.31,805.3,687.31,807.58Z"/><path class="cls-10" d="M619.37,768.35c0,2.28-1.85,3.06-4.12,1.74s-4.12-4.22-4.12-6.5,1.84-3.05,4.12-1.74S619.37,766.08,619.37,768.35Z"/><path class="cls-10" d="M670.32,797.77c0,2.28-1.84,3.06-4.12,1.74s-4.12-4.22-4.12-6.5,1.85-3,4.12-1.74S670.32,795.5,670.32,797.77Z"/><path class="cls-10" d="M653.34,788c0,2.28-1.85,3.06-4.12,1.75s-4.12-4.23-4.12-6.5,1.84-3.06,4.12-1.74S653.34,785.69,653.34,788Z"/><path class="cls-10" d="M636.35,778.16c0,2.27-1.84,3.05-4.12,1.74s-4.12-4.22-4.12-6.5,1.85-3,4.12-1.74S636.35,775.88,636.35,778.16Z"/><path class="cls-6" d="M731.18,644.16c0,2.27,1.84,3.05,4.12,1.74s4.12-4.23,4.12-6.5-1.85-3.06-4.12-1.74S731.18,641.88,731.18,644.16Z"/><path class="cls-6" d="M799.12,604.93c0,2.28,1.84,3.06,4.12,1.74s4.12-4.22,4.12-6.5-1.84-3-4.12-1.74S799.12,602.66,799.12,604.93Z"/><path class="cls-6" d="M748.16,634.35c0,2.28,1.85,3.06,4.12,1.74s4.12-4.22,4.12-6.5-1.84-3.05-4.12-1.74S748.16,632.07,748.16,634.35Z"/><path class="cls-6" d="M765.15,624.54c0,2.28,1.84,3.06,4.12,1.75s4.12-4.23,4.12-6.5-1.84-3.06-4.12-1.75S765.15,622.27,765.15,624.54Z"/><path class="cls-6" d="M782.13,614.74c0,2.27,1.85,3,4.12,1.74s4.12-4.22,4.12-6.5-1.84-3.06-4.12-1.74S782.13,612.46,782.13,614.74Z"/><path class="cls-6" d="M731.18,698.57c0,2.28,1.84,3.06,4.12,1.74s4.12-4.22,4.12-6.49-1.85-3.06-4.12-1.75S731.18,696.3,731.18,698.57Z"/><path class="cls-6" d="M799.12,659.35c0,2.27,1.84,3,4.12,1.74s4.12-4.22,4.12-6.5-1.84-3.05-4.12-1.74S799.12,657.07,799.12,659.35Z"/><path class="cls-6" d="M748.16,688.77c0,2.27,1.85,3.05,4.12,1.74s4.12-4.23,4.12-6.5-1.84-3.06-4.12-1.74S748.16,686.49,748.16,688.77Z"/><path class="cls-6" d="M765.15,679c0,2.28,1.84,3.06,4.12,1.74s4.12-4.22,4.12-6.5-1.84-3.05-4.12-1.74S765.15,676.69,765.15,679Z"/><path class="cls-6" d="M782.13,669.15c0,2.28,1.85,3.06,4.12,1.75s4.12-4.23,4.12-6.5-1.84-3.06-4.12-1.74S782.13,666.88,782.13,669.15Z"/><path class="cls-6" d="M731.18,753.08c0,2.27,1.84,3,4.12,1.74s4.12-4.23,4.12-6.5-1.85-3.06-4.12-1.74S731.18,750.8,731.18,753.08Z"/><path class="cls-6" d="M799.12,713.85c0,2.28,1.84,3.06,4.12,1.74s4.12-4.22,4.12-6.5-1.84-3.05-4.12-1.74S799.12,711.57,799.12,713.85Z"/><path class="cls-6" d="M748.16,743.27c0,2.27,1.85,3.05,4.12,1.74s4.12-4.22,4.12-6.5-1.84-3-4.12-1.74S748.16,741,748.16,743.27Z"/><path class="cls-6" d="M765.15,733.46c0,2.28,1.84,3.06,4.12,1.74s4.12-4.22,4.12-6.49-1.84-3.06-4.12-1.75S765.15,731.19,765.15,733.46Z"/><path class="cls-6" d="M782.13,723.66c0,2.27,1.85,3.05,4.12,1.74s4.12-4.23,4.12-6.5-1.84-3.06-4.12-1.74S782.13,721.38,782.13,723.66Z"/><path class="cls-6" d="M731.18,807.58c0,2.27,1.84,3,4.12,1.74s4.12-4.22,4.12-6.5-1.85-3.06-4.12-1.74S731.18,805.3,731.18,807.58Z"/><path class="cls-6" d="M799.12,768.35c0,2.28,1.84,3.06,4.12,1.74s4.12-4.22,4.12-6.5-1.84-3.05-4.12-1.74S799.12,766.08,799.12,768.35Z"/><path class="cls-6" d="M748.16,797.77c0,2.28,1.85,3.06,4.12,1.74s4.12-4.22,4.12-6.5-1.84-3-4.12-1.74S748.16,795.5,748.16,797.77Z"/><path class="cls-6" d="M765.15,788c0,2.28,1.84,3.06,4.12,1.75s4.12-4.23,4.12-6.5-1.84-3.06-4.12-1.74S765.15,785.69,765.15,788Z"/><path class="cls-6" d="M782.13,778.16c0,2.27,1.85,3.05,4.12,1.74s4.12-4.22,4.12-6.5-1.84-3-4.12-1.74S782.13,775.88,782.13,778.16Z"/><polygon class="cls-2" points="133.45 713.62 131.3 770.65 105.95 776.98 106.4 714.52 133.45 713.62"/><path d="M106,778.48a1.49,1.49,0,0,1-1.5-1.51l.44-62.46a1.51,1.51,0,0,1,1.45-1.49l27.05-.9a1.51,1.51,0,0,1,1.55,1.56l-2.15,57a1.49,1.49,0,0,1-1.13,1.39l-25.35,6.33A1.49,1.49,0,0,1,106,778.48ZM107.89,716l-.42,59.08,22.38-5.58,2-54.3Z"/><path class="cls-6" d="M135.75,756.86A202.78,202.78,0,0,1,150.8,776a11.08,11.08,0,0,1-2.07,14.58C136.66,800.94,108,822.35,81,836.71c-1.85,1-5.76,1.73-9.47-2.06-12.44-12.73,10.63-32.95,31.56-61.79a3.59,3.59,0,0,1,3.58-1.43l4.91.94a12.43,12.43,0,0,0,12.69-5.31l6.59-9.88A3.07,3.07,0,0,1,135.75,756.86Z"/><path d="M77.73,839a10.08,10.08,0,0,1-7.25-3.3C60,825,72.09,809.9,87.36,790.79c4.75-5.94,9.65-12.08,14.53-18.81a5.12,5.12,0,0,1,5.09-2l4.91.94A10.9,10.9,0,0,0,123,766.23l6.59-9.89a4.57,4.57,0,0,1,7.24-.47h0A204.8,204.8,0,0,1,152,775.2a12.57,12.57,0,0,1-2.34,16.56c-12.56,10.74-41,31.93-68,46.27A8.56,8.56,0,0,1,77.73,839ZM106,772.87a2.12,2.12,0,0,0-1.71.87c-4.92,6.78-9.85,13-14.62,18.92C74.79,811.32,64,824.8,72.63,833.6c3.59,3.68,7,2.13,7.68,1.78,26.73-14.23,55-35.25,67.44-45.9a9.58,9.58,0,0,0,1.8-12.61,202,202,0,0,0-14.93-19h0a1.56,1.56,0,0,0-1.29-.54,1.55,1.55,0,0,0-1.2.7l-6.59,9.88a13.9,13.9,0,0,1-14.22,6l-4.91-.94Z"/><path class="cls-2" d="M150,774.92s.52.75.76,1.12a11.08,11.08,0,0,1-2.07,14.58C136.66,800.94,108,822.35,81,836.71c-1.85,1-5.76,1.73-9.47-2.06A23.28,23.28,0,0,1,69,831l1.87-1.1a629.75,629.75,0,0,0,75.92-52.35Z"/><path d="M77.73,839a10.08,10.08,0,0,1-7.25-3.3,22.9,22.9,0,0,1-2.78-4,1.5,1.5,0,0,1,.55-2l1.86-1.09a630.61,630.61,0,0,0,75.74-52.22l3.25-2.62a1.52,1.52,0,0,1,1.16-.31,1.48,1.48,0,0,1,1,.64s.52.75.76,1.12a12.57,12.57,0,0,1-2.34,16.56c-12.56,10.74-41,31.93-68,46.27A8.56,8.56,0,0,1,77.73,839Zm-6.66-7.5a14,14,0,0,0,1.56,2.1c3.59,3.68,7,2.13,7.68,1.78,26.73-14.23,55-35.25,67.44-45.9a9.58,9.58,0,0,0,2-12.37l-2,1.59a633.58,633.58,0,0,1-76.1,52.48Z"/><path d="M107.05,794.32a1.63,1.63,0,0,1-.31,0l-16.18-3.38a1.5,1.5,0,0,1,.61-2.94l16.18,3.38a1.5,1.5,0,0,1-.3,3Z"/><path d="M98.11,801.62a2,2,0,0,1-.34,0l-13.13-3a1.5,1.5,0,0,1,.67-2.92l13.13,3a1.5,1.5,0,0,1-.33,3Z"/><polygon class="cls-2" points="135.82 747.11 127.18 808.97 153.14 806.02 162.75 749.76 135.82 747.11"/><path d="M127.18,810.47a1.51,1.51,0,0,1-1.48-1.71l8.63-61.86a1.51,1.51,0,0,1,1.63-1.29l26.94,2.66a1.49,1.49,0,0,1,1,.58,1.51,1.51,0,0,1,.29,1.16l-9.61,56.26a1.51,1.51,0,0,1-1.31,1.24l-26,3Zm9.92-61.73-8.17,58.52,22.92-2.61L161,751.1Z"/><path class="cls-6" d="M159.27,800.24a203.6,203.6,0,0,1,2.09,24.29,11.08,11.08,0,0,1-9.72,11.07c-15.75,2-51.47,4.23-81.89,1.47-2.08-.19-5.77-1.71-6.79-6.91-3.45-17.46,27.55-26,60.86-38.66a3.6,3.6,0,0,1,3.79.77l3.59,3.47c3.59,3.49,8.3,8.72,12.9,6.76L155,797.84A3.07,3.07,0,0,1,159.27,800.24Z"/><path d="M101.45,839.87c-10.56,0-21.49-.37-31.84-1.31-3.06-.28-7-2.57-8.12-8.11-3.24-16.41,19.72-24.84,48.8-35.52,4.23-1.56,8.6-3.16,13-4.83a5.09,5.09,0,0,1,5.36,1.09l3.59,3.48.95.93c3.14,3.08,7,6.92,10.33,5.52l10.92-4.66a4.58,4.58,0,0,1,6.32,3.57h0a205.76,205.76,0,0,1,2.1,24.49,12.57,12.57,0,0,1-11,12.57A435.66,435.66,0,0,1,101.45,839.87Zm23.66-47.11a2.17,2.17,0,0,0-.75.14c-4.42,1.68-8.8,3.29-13,4.84C84.69,807.53,61.69,816,64.43,829.87c1,5,4.72,5.64,5.46,5.7,30.15,2.74,65.3.63,81.56-1.46a9.57,9.57,0,0,0,8.41-9.56,203.1,203.1,0,0,0-2.07-24.1,1.58,1.58,0,0,0-2.17-1.23l-10.93,4.66c-5.13,2.19-10-2.63-13.6-6.14l-.94-.92-3.59-3.48A2.08,2.08,0,0,0,125.11,792.76Z"/><path class="cls-2" d="M161.34,823.19s0,.9,0,1.34a11.08,11.08,0,0,1-9.72,11.07c-15.75,2-51.47,4.23-81.89,1.47-2.08-.19-5.77-1.71-6.79-6.91a22.38,22.38,0,0,1-.12-4.47l2.15.11a629.32,629.32,0,0,0,92.2-2.21Z"/><path d="M101.45,839.87c-10.56,0-21.49-.37-31.84-1.31-3.06-.28-7-2.57-8.12-8.11a23.06,23.06,0,0,1-.15-4.86,1.49,1.49,0,0,1,1.57-1.4l2.16.11a630.33,630.33,0,0,0,92-2.2l4.15-.41a1.56,1.56,0,0,1,1.15.38,1.49,1.49,0,0,1,.5,1.09s0,.91,0,1.35a12.58,12.58,0,0,1-11,12.58A435.66,435.66,0,0,1,101.45,839.87Zm-37.17-12.6a14.8,14.8,0,0,0,.15,2.6c1,5,4.72,5.64,5.46,5.7,30.15,2.74,65.3.63,81.56-1.46a9.59,9.59,0,0,0,8.41-9.27l-2.52.25a635.12,635.12,0,0,1-92.42,2.21Z"/><path d="M115.56,816.11a1.45,1.45,0,0,1-1.07-.46l-13.75-14.17a1.5,1.5,0,0,1,2.16-2.09l13.74,14.17a1.5,1.5,0,0,1-1.08,2.55Z"/><path d="M104.08,817.32a1.49,1.49,0,0,1-1.08-.46L91.29,804.75a1.5,1.5,0,1,1,2.15-2.09l11.72,12.12a1.5,1.5,0,0,1,0,2.12A1.53,1.53,0,0,1,104.08,817.32Z"/><path class="cls-3" d="M108,367.89S51,490.06,30.22,548.44C26.28,559.54,38,579.92,38,579.92L99.9,756.7l28.92.33s7.92-118-24-181.69a22.09,22.09,0,0,1-.3-19.1l47.33-103,12.25-64.51Z"/><path class="cls-3" d="M213.28,392.77s-21.26,138.3-24,173.4,5.92,64.84,3.93,93.46C191,691.07,162.88,780,162.88,780l-35.78-1.47L125.4,435,117,375.3Z"/><path class="cls-11" d="M198.47,464.29a1.5,1.5,0,0,1-1.1-.48c-16.85-18-19.49-43.06-19.6-44.12a1.5,1.5,0,1,1,3-.29c0,.25,2.66,25.12,18.8,42.36a1.49,1.49,0,0,1-.07,2.12A1.47,1.47,0,0,1,198.47,464.29Z"/><path class="cls-11" d="M124.11,519.24H124a1.51,1.51,0,0,1-1.43-1.57c.45-10.39.24-32.24.08-44.34a44,44,0,0,0-5.43-20.56c-3.81-6.9-6.53-12.11-8.06-15.48L107,432.38a1.5,1.5,0,0,1,2.73-1.24l2.24,4.9c1.49,3.26,4.24,8.54,8,15.28a46.84,46.84,0,0,1,5.81,22c.2,14.81.35,34.57-.08,44.51A1.51,1.51,0,0,1,124.11,519.24Z"/><path class="cls-11" d="M127.1,754.57a1.5,1.5,0,0,1-1.5-1.5c0-62-3-134.21-3.06-134.93a1.5,1.5,0,0,1,3-.12c0,.72,3.06,73,3.06,135.05A1.5,1.5,0,0,1,127.1,754.57Z"/><path class="cls-2" d="M56.37,293.06l-14.43,1.83A82.89,82.89,0,0,0,29,274c-3.3-4-16.4-36.66-12.2-34.62,25.43,12.38,22.83-6.69,32.9-3.39,3.62,1.19,5.64,7.21,6.54,15.95C57.42,263.91,56.37,293.06,56.37,293.06Z"/><path class="cls-3" d="M41.94,296.39a1.49,1.49,0,0,1-1.4-1A82.72,82.72,0,0,0,27.81,275c-1.77-2.14-5.62-10.79-8.49-18.23-6.17-15.94-5-17.48-4.38-18.22a2,2,0,0,1,2.47-.48c15,7.32,19.34,3.27,23.14-.29,2.45-2.3,5-4.68,9.58-3.17,4,1.32,6.51,7,7.56,17.21,1.21,11.92.23,40.11.18,41.31a1.49,1.49,0,0,1-1.31,1.43l-14.43,1.83ZM17.53,241.44c1,6.11,9.65,28.1,12.59,31.63a87.69,87.69,0,0,1,12.77,20.19l12-1.52c.18-5.74.83-29.32-.22-39.62-1.18-11.58-4-14.17-5.51-14.67-2.78-.92-4.1.17-6.58,2.5C38.67,243.65,33.31,248.69,17.53,241.44Zm38.84,51.62h0Z"/><polygon class="cls-2" points="65.63 282.15 33.49 283.5 2.93 229.26 35.06 227.91 65.63 282.15"/><path class="cls-3" d="M33.49,285a1.48,1.48,0,0,1-1.3-.76L1.63,230a1.51,1.51,0,0,1,0-1.47,1.55,1.55,0,0,1,1.25-.77L35,226.41a1.5,1.5,0,0,1,1.37.76l30.56,54.24a1.49,1.49,0,0,1-1.24,2.23L33.56,285Zm-28-54.34L34.35,282l28.77-1.21-28.91-51.3Z"/><path class="cls-2" d="M3.31,243.13a6.83,6.83,0,0,1,7.46-3.94c3.2.65,7.32,3,9.91,10.25,4.55,12.71,15.64,28.4,6.84,28.4C21.89,277.84,5,267.63,2,256.43A21.73,21.73,0,0,1,3.31,243.13Z"/><path class="cls-3" d="M27.52,279.34c-6.56,0-23.88-10.89-27-22.53A23.05,23.05,0,0,1,2,242.5H2a8.32,8.32,0,0,1,9.12-4.78c3.45.7,8.17,3.21,11,11.21,1.3,3.65,3.15,7.54,4.94,11.3,3.71,7.81,6.64,14,4.6,17.22A4.5,4.5,0,0,1,27.52,279.34Zm-18-38.77a5.39,5.39,0,0,0-4.83,3.2h0a20.15,20.15,0,0,0-1.21,12.28c2.76,10.42,19,20.29,24.06,20.29.84,0,1.37-.16,1.58-.5,1.17-1.83-2.13-8.76-4.77-14.32-1.82-3.83-3.7-7.79-5.06-11.58-1.89-5.29-4.93-8.5-8.79-9.28A5.5,5.5,0,0,0,9.5,240.57Zm-6.19,2.56h0Z"/><path class="cls-6" d="M271.44,289.12A74.2,74.2,0,0,0,206,241.77c-23.83-1.26-65.05,4.51-83,32.15-10.92,16.85-18.62,31-32.15,33.42C71.71,310.78,60.44,290,60.44,290L37.28,292.5S46.09,355,86,364.93a38.5,38.5,0,0,0,16.92-.07c-1.69,6.42-3.25,12.31-3.25,12.31s57.75,21.3,82.8,26c24.21,4.55,36.38,1.12,36.38,1.12l5.37-45.24s6.1,23.69,3.39,39.62c-7.41,43.58-39.24,45.72-39.24,45.72a57.49,57.49,0,0,0,11.08,17.46l.5.55s70.82,11,80.84-73.59C286.16,343.68,279.88,311.16,271.44,289.12Z"/><path class="cls-3" d="M104.75,356a1.1,1.1,0,0,1-.31,0,1.49,1.49,0,0,1-1.16-1.77c7.22-35,25.23-67.3,25.41-67.63a1.5,1.5,0,0,1,2.62,1.47c-.18.32-18,32.2-25.1,66.77A1.49,1.49,0,0,1,104.75,356Z"/><path class="cls-3" d="M224.25,360.57a1.5,1.5,0,0,1-1.39-.93l-18.44-44.71a1.5,1.5,0,0,1,2.78-1.15l18.44,44.71a1.5,1.5,0,0,1-.82,2A1.46,1.46,0,0,1,224.25,360.57Z"/><path class="cls-2" d="M200.36,190.62l11.41,52.64a5.12,5.12,0,0,1-2.52,5.57L207,250.07a34.22,34.22,0,0,1-22,3.87h0a5.12,5.12,0,0,1-4.31-4.78l-2.2-39.93Z"/><path class="cls-3" d="M190.37,255.87a35.18,35.18,0,0,1-5.61-.45,6.66,6.66,0,0,1-5.57-6.18L177,209.31a1.5,1.5,0,0,1,.53-1.23l21.87-18.6a1.5,1.5,0,0,1,2.44.83L213.24,243a6.61,6.61,0,0,1-3.26,7.2l-2.23,1.23A35.94,35.94,0,0,1,190.37,255.87Zm-10.34-46,2.16,39.19a3.64,3.64,0,0,0,3.05,3.38,32.86,32.86,0,0,0,21-3.7l2.23-1.24a3.61,3.61,0,0,0,1.79-3.94l-10.88-50.19Z"/><path class="cls-2" d="M161,165.36c-16.93,11.53-10.72,22.88-10.72,22.88,1.06,3.28,3.54,10.93,3.13,12.48-.5,1.89-2.67,5.39-2.56,6.44s2.24,2.74,5.65,2.68c0,0,5.25,15.92,10.13,17.54s19.9-7.53,19.9-7.53l2.46-1.78c7.94-5.74,11.49-14.48,11.79-24.28C200.81,193.79,199.82,138.94,161,165.36Z"/><path class="cls-3" d="M168,229.05a5.82,5.82,0,0,1-1.79-.25c-4.86-1.6-9.3-13.32-10.75-17.5-3.44-.29-5.86-2.18-6.05-4-.1-1,.43-2.12,1.37-4.1a20.59,20.59,0,0,0,1.23-2.89c.08-.63-.38-3.18-3.07-11.54-.72-1.52-5.47-13.27,11.26-24.67h0c10.91-7.43,20.06-9.32,27.21-5.61,14.25,7.37,14.9,34.12,14.92,35.25-.34,11.09-4.63,19.89-12.41,25.53l-2.46,1.78-.1.06C185,222.56,174,229.05,168,229.05Zm-11.45-20.71a1.5,1.5,0,0,1,1.43,1c2.08,6.31,6.3,15.63,9.17,16.58s12.6-3.71,18.6-7.35l2.41-1.75c7-5.06,10.86-13.06,11.17-23.11,0-.18-.63-26-13.3-32.57-6.1-3.15-14.22-1.33-24.14,5.43h0c-15.5,10.55-10.46,20.5-10.24,20.92a2.72,2.72,0,0,1,.11.25c2.67,8.28,3.53,11.89,3.15,13.33a22.58,22.58,0,0,1-1.42,3.42A20.22,20.22,0,0,0,152.4,207c.31.41,1.64,1.4,4.1,1.36Zm4.5-43h0Z"/><path class="cls-3" d="M165,155.05c-4.6,2.42-8.63,6.68-11.1,7.58-4,1.45-8.23-3.09-12.91.1a12.48,12.48,0,0,0-5.27,11.87,11.08,11.08,0,0,0,.51,2.34c3.71,10.84,11.17,11.49,14.09,11.3,0,0,15.82-5.52,19.16-5.53,3.14,0,8.85,3.48,11.85,9.72a2,2,0,0,0,2.16,1.09h0a2,2,0,0,0,1.69-2.15c-.24-3.29-.32-10,2.81-10.94,3.67-1.14,10.23,5.08,6.52,10.92a3,3,0,0,0,2.1,4.57,5.54,5.54,0,0,0,5.47-2.5s5.4-19.28-2.71-32.42S171.11,151.83,165,155.05Z"/><path class="cls-3" d="M150.54,209.73a1.48,1.48,0,0,1-.75-.2c-2-1.15-3.74-3.83-4.76-7.17-1.61-5.3-.66-9.79,2.24-10.67s6.09,2.25,7.72,7.41a1.5,1.5,0,1,1-2.86.9c-1.25-3.94-3.39-5.62-4-5.44s-1.47,2.85-.24,6.93c.88,2.91,2.34,4.83,3.4,5.45a1.5,1.5,0,0,1-.76,2.79Z"/><path class="cls-3" d="M162.21,205.61a6.27,6.27,0,0,1-4.11-1.76,12.49,12.49,0,0,1-3.48-5.72c-1.56-5.13-.06-10,3.41-11a5.72,5.72,0,0,1,5.48,1.55,12.45,12.45,0,0,1,3.49,5.73c1.56,5.13.05,10-3.42,11A4.88,4.88,0,0,1,162.21,205.61Zm-2.83-15.71a1.92,1.92,0,0,0-.48.07c-1.57.48-2.54,3.59-1.41,7.29a9.59,9.59,0,0,0,2.6,4.35,3,3,0,0,0,2.62.93c1.57-.48,2.54-3.59,1.42-7.29a9.63,9.63,0,0,0-2.61-4.35A3.42,3.42,0,0,0,159.38,189.9Z"/><path class="cls-3" d="M164.14,193a1.5,1.5,0,0,1-.49-2.91l17.39-6a1.5,1.5,0,0,1,1,2.83l-17.39,6A1.4,1.4,0,0,1,164.14,193Z"/><path class="cls-8" d="M313.87,581.73a67.51,67.51,0,0,0-10.38,4.78l-14.2-10.88-12.6,10.51,8.17,16a69,69,0,0,0-6.57,9.33l-17.77-2.33-5.65,15.4,15,9.71a68.23,68.23,0,0,0-1,11.39l-16.54,6.87,2.8,16.16,17.89.89a68.47,68.47,0,0,0,4.78,10.38L266.94,694.1l10.51,12.59,15.95-8.17a68.13,68.13,0,0,0,9.33,6.57l-2.32,17.77,15.4,5.65,9.71-15a68.11,68.11,0,0,0,11.38,1L343.77,731l16.16-2.8.9-17.9a68,68,0,0,0,10.38-4.78l14.2,10.88L398,705.93,389.84,690a69,69,0,0,0,6.57-9.33L414.18,683l5.65-15.4-15-9.71a68.23,68.23,0,0,0,1-11.39l16.54-6.87-2.8-16.16-17.89-.89a68.47,68.47,0,0,0-4.78-10.38L407.75,598l-10.5-12.59-15.95,8.17A68.75,68.75,0,0,0,372,587l2.32-17.77-15.4-5.65-9.71,15a68.11,68.11,0,0,0-11.38-1L330.93,561l-16.16,2.8Zm16.26,22.7a42.23,42.23,0,1,1-34.38,48.82A42.22,42.22,0,0,1,330.13,604.43Z"/><path class="cls-3" d="M350.37,737.19a1.51,1.51,0,0,1-1.39-.93l-6.49-15.63a68.4,68.4,0,0,1-9.65-.86L323.66,734a1.49,1.49,0,0,1-1.77.6l-15.4-5.65a1.51,1.51,0,0,1-1-1.61l2.19-16.79A71.26,71.26,0,0,1,299.8,705l-15.07,7.72a1.49,1.49,0,0,1-1.83-.37l-10.51-12.59a1.5,1.5,0,0,1,0-1.88l10.28-13.42a70.4,70.4,0,0,1-4.05-8.8l-16.91-.85a1.49,1.49,0,0,1-1.4-1.24l-2.81-16.16a1.51,1.51,0,0,1,.91-1.64L274,649.23a69.92,69.92,0,0,1,.85-9.66l-14.2-9.17a1.5,1.5,0,0,1-.59-1.78l5.65-15.4a1.5,1.5,0,0,1,1.6-1l16.79,2.2a69.16,69.16,0,0,1,5.58-7.91L282,591.47a1.5,1.5,0,0,1,.37-1.84l12.59-10.51a1.5,1.5,0,0,1,1.88,0l13.42,10.28a68.42,68.42,0,0,1,8.8-4.06l.85-16.9a1.5,1.5,0,0,1,1.24-1.41l16.16-2.8a1.5,1.5,0,0,1,1.64.9l6.49,15.63a69.64,69.64,0,0,1,9.65.86l9.18-14.2a1.51,1.51,0,0,1,1.78-.6l15.39,5.66a1.48,1.48,0,0,1,1,1.6l-2.19,16.79a70.34,70.34,0,0,1,7.91,5.57l15.07-7.72a1.5,1.5,0,0,1,1.84.37l10.5,12.6a1.49,1.49,0,0,1,0,1.87L405.26,617a69.69,69.69,0,0,1,4.06,8.8l16.9.85a1.49,1.49,0,0,1,1.4,1.24L430.43,644a1.52,1.52,0,0,1-.9,1.65l-15.64,6.49a69.91,69.91,0,0,1-.85,9.65l14.2,9.18a1.49,1.49,0,0,1,.59,1.77l-5.65,15.4a1.5,1.5,0,0,1-1.6,1l-16.79-2.19a70.22,70.22,0,0,1-5.57,7.9l7.72,15.07a1.5,1.5,0,0,1-.38,1.84L393,722.24a1.5,1.5,0,0,1-1.87,0L377.68,712a70.54,70.54,0,0,1-8.81,4L368,733a1.5,1.5,0,0,1-1.24,1.4l-16.17,2.8A1.07,1.07,0,0,1,350.37,737.19Zm-18.26-20.56.26,0a66.11,66.11,0,0,0,11.14,1,1.49,1.49,0,0,1,1.37.93L351.29,734l13.8-2.39.84-16.69a1.51,1.51,0,0,1,1-1.34,65.57,65.57,0,0,0,10.15-4.68,1.52,1.52,0,0,1,1.66.12L392,719.17l10.75-9-7.62-14.88a1.49,1.49,0,0,1,.18-1.64,67.59,67.59,0,0,0,6.43-9.13,1.5,1.5,0,0,1,1.49-.73L419.78,686l4.82-13.15-14-9.06a1.51,1.51,0,0,1-.66-1.52,67,67,0,0,0,1-11.13,1.48,1.48,0,0,1,.92-1.37l15.44-6.42-2.4-13.79-16.69-.84a1.49,1.49,0,0,1-1.33-1,67.83,67.83,0,0,0-4.68-10.14,1.52,1.52,0,0,1,.11-1.66l10.15-13.25-9-10.75-14.88,7.62a1.51,1.51,0,0,1-1.65-.18,67.22,67.22,0,0,0-9.12-6.43,1.5,1.5,0,0,1-.73-1.49l2.16-16.58L366.1,570,357,584a1.51,1.51,0,0,1-1.52.67,65.9,65.9,0,0,0-11.13-1,1.5,1.5,0,0,1-1.38-.92l-6.41-15.44-13.8,2.39-.83,16.7a1.49,1.49,0,0,1-1,1.33,67,67,0,0,0-10.15,4.68,1.5,1.5,0,0,1-1.65-.11L295.92,582.2l-10.75,9,7.63,14.88a1.49,1.49,0,0,1-.19,1.64,68,68,0,0,0-6.43,9.13,1.49,1.49,0,0,1-1.49.73l-16.57-2.17-4.83,13.15,14,9.06a1.48,1.48,0,0,1,.66,1.52,67,67,0,0,0-1,11.13,1.52,1.52,0,0,1-.93,1.38L260.63,658l2.39,13.8,16.69.83a1.5,1.5,0,0,1,1.34,1,66,66,0,0,0,4.68,10.15,1.5,1.5,0,0,1-.12,1.65L275.46,698.7l9,10.76,14.88-7.63A1.51,1.51,0,0,1,301,702a67.59,67.59,0,0,0,9.13,6.43,1.5,1.5,0,0,1,.73,1.48l-2.17,16.58,13.14,4.83,9.06-14A1.52,1.52,0,0,1,332.11,716.63ZM320.47,586.37h0Zm23.38,108a43.73,43.73,0,0,1-7.38-86.82h0a43.72,43.72,0,0,1,14.95,86.16A44.16,44.16,0,0,1,343.85,694.42ZM344,610a40.91,40.91,0,0,0-7,.61,40.72,40.72,0,0,0,6.94,80.85,41.57,41.57,0,0,0,7-.6A40.73,40.73,0,0,0,344,610Zm-7.3-.87h0Z"/><path class="cls-8" d="M476.39,569.71a40.13,40.13,0,0,0-6.27,2.89l-8.6-6.58-7.61,6.35,4.94,9.65a42.5,42.5,0,0,0-4,5.64l-10.74-1.4-3.42,9.31,9.09,5.87a40.39,40.39,0,0,0-.61,6.89l-10,4.16,1.7,9.77,10.82.54a41.17,41.17,0,0,0,2.89,6.28L448,637.67l6.36,7.62,9.64-4.94a41,41,0,0,0,5.65,4l-1.41,10.75,9.31,3.42,5.88-9.09a41.31,41.31,0,0,0,6.88.61l4.16,10,9.77-1.69.54-10.82a40.78,40.78,0,0,0,6.28-2.9l8.59,6.58,7.62-6.35-4.94-9.65a40.31,40.31,0,0,0,4-5.64l10.75,1.4,3.42-9.31-9.09-5.87a41.34,41.34,0,0,0,.61-6.89l10-4.15-1.7-9.78-10.82-.54a41.62,41.62,0,0,0-2.89-6.28l6.58-8.59-6.36-7.62-9.64,5a42,42,0,0,0-5.65-4l1.41-10.75-9.32-3.41-5.87,9.08a41.31,41.31,0,0,0-6.88-.6l-4.16-10-9.77,1.69Zm9.84,13.73A25.54,25.54,0,1,1,465.43,613,25.54,25.54,0,0,1,486.23,583.44Z"/><path class="cls-3" d="M498.47,664.32a1.5,1.5,0,0,1-1.39-.92l-3.78-9.1a44,44,0,0,1-5.15-.45l-5.34,8.26a1.5,1.5,0,0,1-1.77.6l-9.32-3.42a1.52,1.52,0,0,1-1-1.61l1.28-9.77a43.91,43.91,0,0,1-4.22-3L459,649.43a1.49,1.49,0,0,1-1.83-.37l-6.36-7.62a1.49,1.49,0,0,1,0-1.87l6-7.81a43.63,43.63,0,0,1-2.16-4.7l-9.84-.49a1.5,1.5,0,0,1-1.4-1.24l-1.7-9.78a1.5,1.5,0,0,1,.91-1.64l9.09-3.78a44,44,0,0,1,.46-5.15l-8.27-5.34a1.52,1.52,0,0,1-.59-1.78l3.42-9.31a1.5,1.5,0,0,1,1.6-1l9.78,1.28a42.21,42.21,0,0,1,3-4.22l-4.5-8.77a1.5,1.5,0,0,1,.38-1.84l7.61-6.35a1.5,1.5,0,0,1,1.88,0l7.81,6a43.47,43.47,0,0,1,4.69-2.16l.5-9.84a1.49,1.49,0,0,1,1.24-1.4l9.77-1.7a1.52,1.52,0,0,1,1.65.9l3.77,9.1A41.58,41.58,0,0,1,501,569l5.34-8.27a1.51,1.51,0,0,1,1.78-.59l9.31,3.42a1.48,1.48,0,0,1,1,1.6l-1.27,9.77a44.3,44.3,0,0,1,4.21,3l8.78-4.49a1.5,1.5,0,0,1,1.83.37l6.36,7.62a1.5,1.5,0,0,1,0,1.87l-6,7.82a43.53,43.53,0,0,1,2.17,4.69l9.84.5a1.49,1.49,0,0,1,1.4,1.24l1.69,9.77a1.49,1.49,0,0,1-.9,1.64l-9.1,3.78a43.79,43.79,0,0,1-.45,5.15l8.26,5.34a1.51,1.51,0,0,1,.6,1.78l-3.42,9.31a1.49,1.49,0,0,1-1.6,1L531.08,634a41.55,41.55,0,0,1-3,4.22l4.5,8.78a1.49,1.49,0,0,1-.38,1.83l-7.62,6.36a1.5,1.5,0,0,1-1.87,0l-7.81-6a41,41,0,0,1-4.7,2.16l-.49,9.84a1.5,1.5,0,0,1-1.24,1.41l-9.78,1.69A1.06,1.06,0,0,1,498.47,664.32Zm-11-13.61.26,0a39.2,39.2,0,0,0,6.63.59,1.51,1.51,0,0,1,1.38.92l3.69,8.9,7.41-1.28.49-9.63a1.48,1.48,0,0,1,1-1.33,39.23,39.23,0,0,0,6.05-2.79,1.5,1.5,0,0,1,1.65.11l7.64,5.86,5.78-4.82-4.4-8.58a1.51,1.51,0,0,1,.19-1.65,40.36,40.36,0,0,0,3.83-5.44,1.49,1.49,0,0,1,1.49-.73l9.56,1.25,2.59-7.06-8.08-5.22a1.51,1.51,0,0,1-.67-1.52,39.39,39.39,0,0,0,.59-6.63,1.5,1.5,0,0,1,.92-1.38l8.9-3.7L543,599.19l-9.63-.48a1.5,1.5,0,0,1-1.33-1,39.55,39.55,0,0,0-2.79-6,1.5,1.5,0,0,1,.12-1.66l5.85-7.64-4.82-5.77L521.85,581a1.51,1.51,0,0,1-1.65-.18,40.36,40.36,0,0,0-5.44-3.83,1.53,1.53,0,0,1-.73-1.49l1.25-9.56-7.06-2.59L503,571.43a1.48,1.48,0,0,1-1.52.66,40.26,40.26,0,0,0-6.63-.58,1.51,1.51,0,0,1-1.38-.93l-3.7-8.9L482.36,563l-.48,9.62a1.52,1.52,0,0,1-1,1.34,39.19,39.19,0,0,0-6,2.78,1.5,1.5,0,0,1-1.66-.11l-7.64-5.85-5.77,4.82,4.39,8.58a1.47,1.47,0,0,1-.18,1.64,41,41,0,0,0-3.83,5.44,1.5,1.5,0,0,1-1.49.73l-9.56-1.25-2.59,7.06L454.6,603a1.49,1.49,0,0,1,.67,1.51,39.41,39.41,0,0,0-.59,6.64,1.51,1.51,0,0,1-.93,1.38l-8.9,3.69,1.29,7.41,9.62.49a1.49,1.49,0,0,1,1.34,1,39.67,39.67,0,0,0,2.79,6,1.5,1.5,0,0,1-.12,1.65l-5.85,7.64,4.82,5.78,8.58-4.4A1.49,1.49,0,0,1,469,642a40.36,40.36,0,0,0,5.44,3.83,1.49,1.49,0,0,1,.73,1.49l-1.25,9.55,7.06,2.6,5.23-8.09A1.49,1.49,0,0,1,487.43,650.71Zm-7.05-78.19h0Zm14.19,65.93a27.05,27.05,0,1,1,4.63-.4A27.08,27.08,0,0,1,494.57,638.45Zm0-51.08a24,24,0,1,0,23.67,19.93A24.06,24.06,0,0,0,494.6,587.37Z"/><rect class="cls-2" x="20.39" y="35.05" width="170.31" height="92.18" rx="12.24"/><path class="cls-3" d="M178.47,128.73H32.63A13.76,13.76,0,0,1,18.89,115V47.28A13.76,13.76,0,0,1,32.63,33.55H178.47A13.75,13.75,0,0,1,192.2,47.28V58a1.5,1.5,0,1,1-3,0V47.28a10.74,10.74,0,0,0-10.73-10.73H32.63A10.75,10.75,0,0,0,21.89,47.28V115a10.75,10.75,0,0,0,10.74,10.74H178.47A10.75,10.75,0,0,0,189.2,115V73.61a1.5,1.5,0,0,1,3,0V115A13.75,13.75,0,0,1,178.47,128.73Z"/><path class="cls-3" d="M111.94,59.2H92.33A2.36,2.36,0,0,1,90,56.84h0a2.36,2.36,0,0,1,2.36-2.36h19.61a2.36,2.36,0,0,1,2.36,2.36h0A2.35,2.35,0,0,1,111.94,59.2Z"/><path class="cls-12" d="M175.48,73.06H92.33A2.36,2.36,0,0,1,90,70.7h0a2.36,2.36,0,0,1,2.36-2.36h83.15a2.36,2.36,0,0,1,2.36,2.36h0A2.36,2.36,0,0,1,175.48,73.06Z"/><path class="cls-12" d="M175.48,83.35H92.33A2.36,2.36,0,0,1,90,81h0a2.36,2.36,0,0,1,2.36-2.36h83.15A2.36,2.36,0,0,1,177.84,81h0A2.36,2.36,0,0,1,175.48,83.35Z"/><path class="cls-12" d="M147.41,93.64H92.33A2.36,2.36,0,0,1,90,91.28h0a2.36,2.36,0,0,1,2.36-2.36h55.08a2.36,2.36,0,0,1,2.36,2.36h0A2.35,2.35,0,0,1,147.41,93.64Z"/><path class="cls-12" d="M175.48,103.94H92.33A2.36,2.36,0,0,1,90,101.58h0a2.36,2.36,0,0,1,2.36-2.36h83.15a2.36,2.36,0,0,1,2.36,2.36h0A2.36,2.36,0,0,1,175.48,103.94Z"/><path class="cls-7" d="M32.47,54.81V77a1.36,1.36,0,0,0,1.33,1.37h9.93a1.37,1.37,0,0,0,1.16-2L43.6,74a2,2,0,0,0-2.72-.77l0,0-.14.08A2,2,0,0,1,38,72.59a2.07,2.07,0,0,1-.16-1.65l2.06-6.28A2,2,0,0,1,42.2,63.3l6.4,1.31a2.06,2.06,0,0,1,.64,3.74l0,0-.14.08a2.06,2.06,0,0,0-.74,2.8l1.28,2.2a1.34,1.34,0,0,0,1.83.49,1.44,1.44,0,0,0,.49-.49l5-8.66a1.38,1.38,0,0,0-.49-1.86L37.5,51.87a3.35,3.35,0,0,0-5,2.94Z"/><path class="cls-7" d="M82.5,77.13,62.18,65.18a1.34,1.34,0,0,0-1.84.47v0L55,75.17a1.47,1.47,0,0,0,.56,2,1.52,1.52,0,0,0,.69.19h3.48a1.46,1.46,0,0,0,1.44-1.46h0V74.81a1.34,1.34,0,0,1,1.28-1.4h1a1.33,1.33,0,0,1,1,.46l4.84,5.56a1.38,1.38,0,0,1,0,1.81l-4.83,5.57a1.37,1.37,0,0,1-1,.46H62.5a1.34,1.34,0,0,1-1.33-1.35h0V84.81a1.45,1.45,0,0,0-1.43-1.47H56.3a1.47,1.47,0,0,0-1.44,1.5,1.52,1.52,0,0,0,.19.69L60.34,95a1.34,1.34,0,0,0,1.81.5h0l20.33-12a3.7,3.7,0,0,0,0-6.35Z"/><path class="cls-7" d="M37.5,109.75,56.36,98.68a1.4,1.4,0,0,0,.5-1.88l-5-8.71A1.34,1.34,0,0,0,50,87.6a1.28,1.28,0,0,0-.49.49L47.92,91a1.38,1.38,0,0,0,.5,1.87l1.27.75a1.39,1.39,0,0,1,.5,1.86l-.48.84a1.35,1.35,0,0,1-.89.65l-7.22,1.5a1.35,1.35,0,0,1-1.54-.91l-2.38-7.14a1.41,1.41,0,0,1,.11-1.12l.47-.83a1.33,1.33,0,0,1,1.83-.5h0l1.27.75a1.33,1.33,0,0,0,1.82-.48h0l1.61-2.83a1.36,1.36,0,0,0-.59-1.85,1.24,1.24,0,0,0-.57-.15H33.81a1.35,1.35,0,0,0-1.34,1.27v22.18a3.36,3.36,0,0,0,3.33,3.38A3.47,3.47,0,0,0,37.5,109.75Z"/><path class="cls-3" d="M428.5,800.51a349.32,349.32,0,0,1-106.93-17,1.5,1.5,0,1,1,.92-2.85,345.81,345.81,0,0,0,112.76,16.79h0a1.5,1.5,0,0,1,0,3C433,800.48,430.77,800.51,428.5,800.51Z"/><path class="cls-3" d="M487.82,792.23a1.5,1.5,0,0,1-.35-3,330.65,330.65,0,0,0,88-34.91A1.5,1.5,0,0,1,577,757a333.69,333.69,0,0,1-88.79,35.23A1.45,1.45,0,0,1,487.82,792.23Z"/><path class="cls-3" d="M422.37,817.72a360,360,0,0,1-65-6,1.5,1.5,0,0,1,.54-3c53.26,9.78,106.25,7.48,157.48-6.85,10-2.79,19.9-6,29.53-9.71A1.5,1.5,0,0,1,546,795c-9.71,3.68-19.73,7-29.78,9.79A347.24,347.24,0,0,1,422.37,817.72Z"/><path class="cls-3" d="M336.85,810.8a7.81,7.81,0,0,1-1.79-.21,7.75,7.75,0,0,1-5.78-9.34h0a7.77,7.77,0,1,1,7.57,9.55Zm-4.65-8.86a4.69,4.69,0,0,0,.58,3.6,4.75,4.75,0,0,0,3,2.13,4.7,4.7,0,0,0,3.6-.58,4.77,4.77,0,0,0-1.42-8.7,4.69,4.69,0,0,0-3.6.58,4.75,4.75,0,0,0-2.13,3Z"/></g></svg>
