<svg xmlns="http://www.w3.org/2000/svg" viewBox="0 0 859.62 872.68"><defs><style>.cls-1,.cls-6,.cls-9{fill:#00ca55;}.cls-1{opacity:0.2;}.cls-2{fill:#fff;}.cls-3,.cls-6{opacity:0.1;}.cls-4{fill:#0b6732;}.cls-5{fill:#99b9ff;}.cls-7{fill:#01411c;}.cls-8{fill:#caddff;}</style></defs><g id="Capa_2" data-name="Capa 2"><g id="Capa_1-2" data-name="Capa 1"><g id="Collaboration"><path class="cls-1" d="M491.8.63C465,.58,210.4-20.25,76.56,182,5.31,289.65-32.89,490.27,37,586.19c20.62,28.32,31.43,22.09,141.67,89.14,151.33,92,150.62,115.73,213.26,136.78,81.55,27.42,202,27.36,292.3-40,102.41-76.38,117.56-203.31,132.73-330.43,14.88-124.76,30-251.17-49.22-344.27C685.6.93,553.67.72,491.8.63Z"/><path class="cls-2" d="M665.23,554.15a2.22,2.22,0,0,0-1.74-2.17l-14.71-3.3a2.21,2.21,0,0,1-1.68-1.74,69,69,0,0,0-2.27-8.5,2.22,2.22,0,0,1,.58-2.34l11.06-10.24a2.23,2.23,0,0,0,.41-2.75l-6.61-11.43a2.24,2.24,0,0,0-2.6-1l-14.39,4.51a2.23,2.23,0,0,1-2.33-.66,67.4,67.4,0,0,0-6.22-6.2,2.23,2.23,0,0,1-.66-2.32l4.47-14.43a2.25,2.25,0,0,0-1-2.59l-11.44-6.58a2.24,2.24,0,0,0-2.75.42l-10.2,11.09a2.2,2.2,0,0,1-2.34.59,70.77,70.77,0,0,0-8.5-2.25,2.21,2.21,0,0,1-1.74-1.68l-3.34-14.71a2.23,2.23,0,0,0-2.17-1.73l-13.2,0a2.22,2.22,0,0,0-2.17,1.74l-3.3,14.72a2.23,2.23,0,0,1-1.74,1.69,69,69,0,0,0-8.5,2.27,2.22,2.22,0,0,1-2.34-.58l-10.22-11.06a2.25,2.25,0,0,0-2.76-.41l-11.42,6.62a2.23,2.23,0,0,0-1,2.59l4.5,14.41a2.21,2.21,0,0,1-.66,2.32,71.48,71.48,0,0,0-6.2,6.23,2.21,2.21,0,0,1-2.32.66l-14.41-4.46a2.23,2.23,0,0,0-2.59,1l-6.58,11.45a2.22,2.22,0,0,0,.42,2.75l11.07,10.2a2.2,2.2,0,0,1,.59,2.34,70.43,70.43,0,0,0-2.25,8.51,2.21,2.21,0,0,1-1.67,1.74l-14.71,3.35a2.23,2.23,0,0,0-1.73,2.17v13.21a2.23,2.23,0,0,0,1.74,2.17l14.72,3.3a2.22,2.22,0,0,1,1.68,1.74,69,69,0,0,0,2.27,8.5,2.22,2.22,0,0,1-.58,2.34l-11.06,10.24a2.22,2.22,0,0,0-.41,2.75l6.61,11.42a2.22,2.22,0,0,0,2.59,1l14.4-4.51a2.21,2.21,0,0,1,2.32.66,70,70,0,0,0,6.22,6.2,2.21,2.21,0,0,1,.67,2.32l-4.47,14.42a2.22,2.22,0,0,0,1,2.59L541,639.38a2.23,2.23,0,0,0,2.75-.42L554,627.87a2.19,2.19,0,0,1,2.33-.59,70.43,70.43,0,0,0,8.51,2.25,2.21,2.21,0,0,1,1.74,1.67l3.34,14.71a2.22,2.22,0,0,0,2.17,1.74l13.2,0a2.23,2.23,0,0,0,2.17-1.74l3.3-14.73a2.22,2.22,0,0,1,1.74-1.68,68.38,68.38,0,0,0,8.49-2.27,2.21,2.21,0,0,1,2.34.58l10.23,11.05a2.22,2.22,0,0,0,2.75.42l11.43-6.62a2.22,2.22,0,0,0,1-2.59l-4.5-14.41a2.23,2.23,0,0,1,.66-2.32,71.59,71.59,0,0,0,6.21-6.23,2.21,2.21,0,0,1,2.32-.67l14.41,4.47a2.25,2.25,0,0,0,2.59-1L657,598.42a2.22,2.22,0,0,0-.42-2.75l-11.08-10.2a2.22,2.22,0,0,1-.59-2.34,67.36,67.36,0,0,0,2.25-8.51,2.23,2.23,0,0,1,1.68-1.75l14.71-3.34a2.23,2.23,0,0,0,1.73-2.17Zm-92.81,50.46A44.15,44.15,0,1,1,622.26,567,44.15,44.15,0,0,1,572.42,604.61Z"/><path d="M572.05,649.15a3.71,3.71,0,0,1-3.64-2.9l-3.33-14.72a.71.71,0,0,0-.58-.53,70.93,70.93,0,0,1-8.68-2.3.73.73,0,0,0-.76.18L544.86,640a3.71,3.71,0,0,1-4.6.71l-11.44-6.59a3.7,3.7,0,0,1-1.7-4.33l4.46-14.42a.7.7,0,0,0-.22-.75,71.69,71.69,0,0,1-6.35-6.34.7.7,0,0,0-.75-.22l-14.4,4.51a3.72,3.72,0,0,1-4.34-1.69l-6.61-11.43a3.7,3.7,0,0,1,.69-4.6l11.06-10.24a.73.73,0,0,0,.18-.76,69.84,69.84,0,0,1-2.32-8.69.72.72,0,0,0-.54-.57l-14.71-3.3a3.7,3.7,0,0,1-2.92-3.63V554.42a3.71,3.71,0,0,1,2.9-3.64l14.7-3.34a.71.71,0,0,0,.54-.57,71.24,71.24,0,0,1,2.3-8.7.73.73,0,0,0-.18-.76l-11.08-10.2a3.7,3.7,0,0,1-.7-4.6l6.58-11.45a3.71,3.71,0,0,1,4.33-1.7l14.41,4.46a.71.71,0,0,0,.75-.22,71.8,71.8,0,0,1,6.34-6.36.7.7,0,0,0,.22-.75L527,492.18a3.72,3.72,0,0,1,1.69-4.34l11.42-6.62a3.73,3.73,0,0,1,4.61.69L554.89,493a.73.73,0,0,0,.76.18,69.69,69.69,0,0,1,8.68-2.32.72.72,0,0,0,.57-.54l3.3-14.73a3.71,3.71,0,0,1,3.64-2.91l13.19,0h0a3.69,3.69,0,0,1,3.63,2.9L592,490.24a.71.71,0,0,0,.57.54,71.57,71.57,0,0,1,8.69,2.3.71.71,0,0,0,.76-.19l10.2-11.08a3.69,3.69,0,0,1,4.6-.71l11.44,6.58A3.72,3.72,0,0,1,630,492l-4.47,14.42a.72.72,0,0,0,.23.75,73.06,73.06,0,0,1,6.35,6.34.71.71,0,0,0,.75.22l14.39-4.51a3.72,3.72,0,0,1,4.35,1.69l6.61,11.43a3.71,3.71,0,0,1-.69,4.6L646.43,537.2a.71.71,0,0,0-.18.76,69.84,69.84,0,0,1,2.32,8.69.72.72,0,0,0,.54.57l14.71,3.29a3.71,3.71,0,0,1,2.91,3.64l0,13.2a3.71,3.71,0,0,1-2.9,3.64l-14.71,3.35a.72.72,0,0,0-.54.57,70.61,70.61,0,0,1-2.3,8.69.71.71,0,0,0,.19.76l11.08,10.21a3.7,3.7,0,0,1,.7,4.6l-6.58,11.45a3.72,3.72,0,0,1-4.34,1.7l-14.41-4.46a.71.71,0,0,0-.75.22,71.69,71.69,0,0,1-6.33,6.36.72.72,0,0,0-.23.75l4.51,14.41a3.72,3.72,0,0,1-1.69,4.34L617,640.56a3.71,3.71,0,0,1-4.61-.7l-10.23-11.05a.71.71,0,0,0-.76-.18,71.83,71.83,0,0,1-8.68,2.32.73.73,0,0,0-.57.54l-3.3,14.73a3.7,3.7,0,0,1-3.63,2.91l-13.2,0Zm-16.47-23.49a3.75,3.75,0,0,1,1.19.19,66.86,66.86,0,0,0,8.32,2.2,3.73,3.73,0,0,1,2.91,2.82l3.34,14.71a.72.72,0,0,0,.71.57h0l13.2,0a.72.72,0,0,0,.7-.57l3.3-14.72a3.72,3.72,0,0,1,2.91-2.83,68.06,68.06,0,0,0,8.31-2.22,3.71,3.71,0,0,1,3.93,1l10.22,11.06a.73.73,0,0,0,.9.13l11.42-6.62a.71.71,0,0,0,.33-.85l-4.5-14.41a3.74,3.74,0,0,1,1.1-3.89,68.41,68.41,0,0,0,6.07-6.09,3.74,3.74,0,0,1,3.89-1.11l14.41,4.46a.72.72,0,0,0,.85-.33l6.58-11.45a.72.72,0,0,0-.14-.9l-11.07-10.2a3.72,3.72,0,0,1-1-3.92,66.86,66.86,0,0,0,2.2-8.32,3.74,3.74,0,0,1,2.82-2.92l14.7-3.34a.73.73,0,0,0,.57-.71l0-13.21a.73.73,0,0,0-.57-.71l-14.71-3.3a3.71,3.71,0,0,1-2.82-2.9,68.71,68.71,0,0,0-2.22-8.32,3.72,3.72,0,0,1,1-3.92l11.06-10.24a.73.73,0,0,0,.13-.9L649,512.43a.74.74,0,0,0-.85-.33l-14.4,4.51a3.7,3.7,0,0,1-3.89-1.1,69.77,69.77,0,0,0-6.09-6.07,3.73,3.73,0,0,1-1.1-3.89l4.46-14.42a.73.73,0,0,0-.33-.85l-11.44-6.58a.72.72,0,0,0-.89.14l-10.21,11.09a3.7,3.7,0,0,1-3.91,1,71.59,71.59,0,0,0-8.32-2.2,3.73,3.73,0,0,1-2.92-2.81l-3.33-14.72a.73.73,0,0,0-.71-.56h0l-13.2,0a.73.73,0,0,0-.71.57l-3.3,14.72a3.74,3.74,0,0,1-2.9,2.83,68.71,68.71,0,0,0-8.32,2.22,3.72,3.72,0,0,1-3.92-1L542.47,484a.72.72,0,0,0-.9-.13l-11.43,6.62a.73.73,0,0,0-.33.84l4.5,14.41a3.71,3.71,0,0,1-1.09,3.89,67.2,67.2,0,0,0-6.07,6.1,3.75,3.75,0,0,1-3.9,1.11l-14.4-4.47a.73.73,0,0,0-.85.34l-6.58,11.44a.71.71,0,0,0,.13.9l11.08,10.21a3.72,3.72,0,0,1,1,3.91,67.48,67.48,0,0,0-2.2,8.33,3.75,3.75,0,0,1-2.82,2.92l-14.71,3.34a.72.72,0,0,0-.56.71v13.21a.74.74,0,0,0,.57.71l14.71,3.29a3.72,3.72,0,0,1,2.83,2.91,69.2,69.2,0,0,0,2.22,8.32,3.74,3.74,0,0,1-1,3.92L501.64,597a.73.73,0,0,0-.14.9l6.62,11.42a.72.72,0,0,0,.85.33l14.39-4.5a3.73,3.73,0,0,1,3.9,1.09,68.41,68.41,0,0,0,6.08,6.08,3.71,3.71,0,0,1,1.11,3.89L530,630.65a.72.72,0,0,0,.34.84l11.43,6.59a.73.73,0,0,0,.9-.14l10.2-11.09A3.72,3.72,0,0,1,555.58,625.66Zm23-19.12a45.77,45.77,0,0,1-6.36-.45h0a45.58,45.58,0,1,1,6.36.45Zm-5.94-3.42A42.65,42.65,0,1,0,536.31,555a42.69,42.69,0,0,0,36.32,48.15Z"/><path class="cls-2" d="M597.53,210.29l-3.46-12.65-14.3.65a54.58,54.58,0,0,0-4.6-7.89l7.57-12.14L573.42,169l-12.06,7.72a54,54,0,0,0-7.92-4.52l.49-14.32-12.67-3.33-6.58,12.71a53.57,53.57,0,0,0-9.13.06l-6.73-12.64-12.64,3.46.65,14.31a54.58,54.58,0,0,0-7.89,4.6l-12.12-7.58-9.22,9.33,7.71,12.07a54.81,54.81,0,0,0-4.51,7.92l-14.31-.49L463.17,211l12.69,6.58a54.75,54.75,0,0,0,.06,9.14l-12.63,6.73,3.46,12.64,14.3-.65a54.1,54.1,0,0,0,4.59,7.9l-7.57,12.14,9.32,9.22L499.45,267a55.82,55.82,0,0,0,7.92,4.52l-.49,14.32,12.68,3.32,6.58-12.7a54.63,54.63,0,0,0,9.13-.06L542,289.05l12.64-3.46L554,271.28a54,54,0,0,0,7.89-4.6L574,274.25l9.22-9.32-7.72-12.07a55.38,55.38,0,0,0,4.52-7.93l14.31.5,3.32-12.69L585,226.16a54.75,54.75,0,0,0-.07-9.14Zm-58.21,44.15A33.76,33.76,0,1,1,563,213,33.73,33.73,0,0,1,539.32,254.44Z"/><path d="M520.34,290.93l-15-3.94.5-14.53a56.38,56.38,0,0,1-6.41-3.66l-12.24,7.84-11-10.91,7.68-12.32a56.7,56.7,0,0,1-3.72-6.39l-14.51.66-4.09-15,12.82-6.83a55.44,55.44,0,0,1-.05-7.4l-12.89-6.69,3.93-15,14.53.5a57.31,57.31,0,0,1,3.65-6.42l-7.83-12.25,10.9-11,12.31,7.69a56.7,56.7,0,0,1,6.39-3.72l-.66-14.52,15-4.1,6.83,12.84a55.3,55.3,0,0,1,7.39-.06l6.68-12.89,15,3.93-.5,14.54a56.3,56.3,0,0,1,6.41,3.65l12.25-7.83,11,10.91L577,190.36a55.16,55.16,0,0,1,3.71,6.39l14.52-.66,4.09,15-12.82,6.83a55.44,55.44,0,0,1,0,7.4L599.4,232l-3.93,15-14.52-.5a57.86,57.86,0,0,1-3.65,6.41l7.82,12.25-10.9,11-12.31-7.69a55.22,55.22,0,0,1-6.39,3.72l.66,14.53-14.95,4.09L534.41,278a57.18,57.18,0,0,1-7.4.06Zm-11.92-6.23,10.36,2.72,6.48-12.52,1,.08a53.81,53.81,0,0,0,8.88-.07l1-.09,6.63,12.47,10.33-2.83-.64-14.11.9-.43a52.31,52.31,0,0,0,7.67-4.47l.81-.57,12,7.47,7.53-7.62-7.61-11.9.56-.82a53.3,53.3,0,0,0,4.4-7.71l.42-.9,14.1.49,2.71-10.37L583.38,227l.08-1a52.73,52.73,0,0,0-.06-8.88l-.09-1,12.45-6.63-2.82-10.34-14.1.65-.43-.9a52.94,52.94,0,0,0-4.47-7.68l-.57-.81,7.47-12L573.22,171l-11.89,7.61-.82-.57a52.74,52.74,0,0,0-7.7-4.39l-.9-.42.48-14.11L542,156.35l-6.49,12.52-1-.08a52.73,52.73,0,0,0-8.88.06l-1,.09-6.63-12.46-10.32,2.83.64,14.11-.9.42a53.22,53.22,0,0,0-7.67,4.47l-.82.58L487,171.42,479.51,179l7.6,11.89-.56.82a53.48,53.48,0,0,0-4.39,7.72l-.42.9-14.1-.49-2.72,10.37,12.51,6.48-.08,1a53.81,53.81,0,0,0,.07,8.88l.09,1-12.46,6.64,2.83,10.33,14.1-.64.42.9a53.33,53.33,0,0,0,4.47,7.68l.57.81-7.46,12,7.61,7.54,11.89-7.61.82.56a54.39,54.39,0,0,0,7.71,4.4l.9.42Zm21.93-27.54a35.31,35.31,0,1,1,9.36-1.27h0A35.24,35.24,0,0,1,530.35,257.16Zm.11-67.55A32.27,32.27,0,1,0,538.92,253h0a32.27,32.27,0,0,0,7.45-59.14A32,32,0,0,0,530.46,189.61Z"/><g class="cls-3"><path class="cls-4" d="M697,388l-3.83-14-15.78.71a61,61,0,0,0-5.07-8.71l8.35-13.4L670.4,342.47,657.08,351a61,61,0,0,0-8.75-5l.55-15.81-14-3.67-7.26,14a59.59,59.59,0,0,0-10.08.08l-7.42-14-14,3.82.72,15.8a60,60,0,0,0-8.71,5.07L574.78,343,564.6,353.28l8.52,13.33a61,61,0,0,0-5,8.75l-15.79-.54-3.67,14,14,7.27a60.76,60.76,0,0,0,.07,10.09l-14,7.43,3.83,14,15.78-.71a60,60,0,0,0,5.07,8.71L565.13,449l10.28,10.18,13.32-8.52a61.41,61.41,0,0,0,8.74,5l-.54,15.81,14,3.67,7.26-14a59.59,59.59,0,0,0,10.08-.08l7.42,14,14-3.82-.72-15.8a60,60,0,0,0,8.71-5.07L671,458.63l10.18-10.29L672.69,435a61,61,0,0,0,5-8.75l15.79.54,3.67-14-14-7.27a60.76,60.76,0,0,0-.07-10.09Zm-64.27,48.75A37.27,37.27,0,1,1,658.83,391,37.24,37.24,0,0,1,632.74,436.76Z"/></g><g class="cls-3"><path class="cls-4" d="M482.52,563.68l-1.77-6.47-7.31.33a27.74,27.74,0,0,0-2.35-4L475,547.3l-4.76-4.71L464,546.53a28.41,28.41,0,0,0-4-2.31l.25-7.32-6.48-1.7-3.36,6.5a28,28,0,0,0-4.67,0l-3.44-6.47L435.82,537l.33,7.31a28.68,28.68,0,0,0-4,2.35l-6.21-3.87-4.71,4.77,3.95,6.17a27.48,27.48,0,0,0-2.31,4.05l-7.32-.25-1.7,6.49,6.49,3.36a27,27,0,0,0,0,4.67l-6.46,3.44,1.77,6.47,7.31-.33a27.47,27.47,0,0,0,2.35,4l-3.88,6.2,4.77,4.72,6.17-4a27.87,27.87,0,0,0,4.05,2.31l-.26,7.32,6.49,1.7,3.36-6.49a27,27,0,0,0,4.67,0l3.44,6.47,6.46-1.77-.33-7.32a27.74,27.74,0,0,0,4-2.35l6.2,3.87,4.71-4.76-3.94-6.17a28.51,28.51,0,0,0,2.31-4.06l7.31.25,1.7-6.48-6.49-3.37a28,28,0,0,0,0-4.67Zm-29.76,22.58a17.26,17.26,0,1,1,12.08-21.21A17.25,17.25,0,0,1,452.76,586.26Z"/></g><path class="cls-5" d="M466,477.61h-.17c-4-.44-8-.91-11.94-1.4a1.5,1.5,0,0,1,.37-3c3.95.49,8,1,11.9,1.4a1.5,1.5,0,0,1-.16,3Zm-23.82-2.95-.21,0c-3.95-.54-7.95-1.11-11.89-1.7a1.5,1.5,0,0,1,.44-3c3.93.59,7.92,1.16,11.86,1.7a1.5,1.5,0,0,1-.2,3Zm-23.74-3.55-.24,0c-3.94-.64-7.92-1.32-11.85-2a1.5,1.5,0,0,1,.52-3c3.91.69,7.89,1.36,11.81,2a1.5,1.5,0,0,1-.24,3ZM394.79,467l-.28,0c-3.94-.74-7.91-1.52-11.79-2.3a1.5,1.5,0,1,1,.59-2.94c3.87.78,7.83,1.55,11.76,2.3a1.5,1.5,0,0,1-.28,3Z"/><path d="M356.81,585.12a10.44,10.44,0,1,1,10.44-10.44A10.45,10.45,0,0,1,356.81,585.12Zm0-17.88a7.44,7.44,0,1,0,7.44,7.44A7.45,7.45,0,0,0,356.81,567.24Z"/><path d="M149.16,231.16a1.5,1.5,0,0,1-1.14-2.48c57.28-66.46,113.2-99.9,150-116.26,40-17.76,66.83-19.79,67.1-19.81a1.5,1.5,0,0,1,.21,3c-.26,0-26.71,2-66.26,19.63-36.5,16.23-92,49.43-148.8,115.4A1.52,1.52,0,0,1,149.16,231.16Z"/><path d="M160.23,189.49a1.52,1.52,0,0,1-1.08-.46,1.5,1.5,0,0,1,0-2.12C222.51,126.1,280.08,97.53,317.24,84.27c40.35-14.4,66.12-14.37,66.37-14.37a1.5,1.5,0,1,1,0,3c-.3,0-25.63,0-65.52,14.26-36.84,13.17-93.94,41.54-156.8,101.91A1.5,1.5,0,0,1,160.23,189.49Z"/><path d="M542.69,835.12a554.34,554.34,0,0,1-79.78-6.21A641.27,641.27,0,0,1,382.74,812a1.5,1.5,0,0,1,.86-2.88c1.34.4,135.08,39.66,235.95,14.65a1.5,1.5,0,1,1,.72,2.91C595.35,832.87,568.52,835.12,542.69,835.12Z"/><path d="M544,852.72c-57,0-108.24-9.87-109-10a1.5,1.5,0,0,1,.57-3c1.22.24,122.32,23.56,198.85-1.91a1.5,1.5,0,1,1,1,2.84C608,849.77,575.13,852.72,544,852.72Z"/><path d="M371.18,815.83a1.52,1.52,0,0,1-1.07-.45l-19.34-19.66a1.52,1.52,0,0,1-.34-1.56,1.49,1.49,0,0,1,1.25-1l25.26-2.82a1.48,1.48,0,0,1,1.3.51,1.5,1.5,0,0,1,.32,1.36l-5.93,22.48a1.49,1.49,0,0,1-1.06,1.07A1.74,1.74,0,0,1,371.18,815.83Zm-16.1-20L370.4,811.4l4.7-17.82Z"/><path d="M128.7,242.88a1.5,1.5,0,0,1-1-2.64l4.85-4.13a1.5,1.5,0,1,1,1.94,2.28l-4.84,4.13A1.5,1.5,0,0,1,128.7,242.88Z"/><path d="M113.39,255.93a1.5,1.5,0,0,1-1.15-.52,1.51,1.51,0,0,1,.17-2.12l4.85-4.13a1.5,1.5,0,0,1,1.94,2.28l-4.84,4.14A1.49,1.49,0,0,1,113.39,255.93Z"/><path d="M119,242.11a1.5,1.5,0,0,1-1.14-.53l-4.13-4.84a1.5,1.5,0,1,1,2.28-2l4.13,4.85a1.49,1.49,0,0,1-.16,2.11A1.52,1.52,0,0,1,119,242.11Z"/><path d="M132.05,257.42a1.5,1.5,0,0,1-1.14-.53l-4.13-4.84a1.5,1.5,0,1,1,2.29-2L133.2,255a1.5,1.5,0,0,1-.17,2.11A1.52,1.52,0,0,1,132.05,257.42Z"/><path d="M490.18,649.36a1.47,1.47,0,0,1-1.14-.53,1.49,1.49,0,0,1,.16-2.11l4.85-4.13a1.5,1.5,0,0,1,1.95,2.28L491.15,649A1.5,1.5,0,0,1,490.18,649.36Z"/><path d="M474.87,662.41a1.5,1.5,0,0,1-1-2.64l4.85-4.13a1.5,1.5,0,0,1,1.95,2.28l-4.85,4.13A1.45,1.45,0,0,1,474.87,662.41Z"/><path d="M480.48,648.59a1.5,1.5,0,0,1-1.14-.53l-4.13-4.84a1.5,1.5,0,0,1,2.29-2l4.13,4.85a1.5,1.5,0,0,1-.17,2.11A1.52,1.52,0,0,1,480.48,648.59Z"/><path d="M493.54,663.9a1.51,1.51,0,0,1-1.15-.53l-4.13-4.84a1.5,1.5,0,0,1,2.29-1.95l4.13,4.85a1.5,1.5,0,0,1-1.14,2.47Z"/><path class="cls-2" d="M459.46,702.8a1.5,1.5,0,0,1,0-3c3.93-.06,7.94-.19,11.93-.39a1.5,1.5,0,1,1,.15,3c-4,.2-8.08.33-12,.39Zm-12-.06h0c-4.05-.1-8.1-.28-12-.54a1.5,1.5,0,0,1,.19-3c3.9.26,7.92.44,11.93.54a1.5,1.5,0,0,1,0,3Zm36-1.14a1.5,1.5,0,0,1-.12-3c3.94-.33,7.94-.74,11.89-1.21a1.5,1.5,0,0,1,.35,3c-4,.47-8,.89-12,1.22Zm-59.89-.45h-.17c-4-.45-8.06-1-12-1.62a1.5,1.5,0,0,1,.48-3c3.84.62,7.82,1.16,11.81,1.6a1.5,1.5,0,0,1-.16,3Zm83.72-2.38a1.5,1.5,0,0,1-.22-3c3.94-.6,7.9-1.27,11.78-2a1.5,1.5,0,0,1,.56,3c-3.92.73-7.92,1.41-11.89,2Zm-107.4-1.45a1.73,1.73,0,0,1-.32,0l-3.45-.78c-2.78-.65-5.57-1.36-8.28-2.12a1.5,1.5,0,1,1,.8-2.89c2.68.75,5.42,1.45,8.16,2.09,1.13.27,2.27.52,3.4.77a1.5,1.5,0,0,1-.31,3Zm131-3a1.52,1.52,0,0,1-1.47-1.17,1.5,1.5,0,0,1,1.14-1.79c3.94-.89,7.85-1.84,11.6-2.84a1.5,1.5,0,1,1,.77,2.9c-3.79,1-7.73,2-11.72,2.86A1.22,1.22,0,0,1,530.84,694.34Zm-154.1-3.46a1.62,1.62,0,0,1-.49-.08c-3.82-1.32-7.62-2.77-11.3-4.31a1.5,1.5,0,1,1,1.16-2.77c3.62,1.52,7.36,2.94,11.12,4.24a1.5,1.5,0,0,1-.49,2.92ZM554,688.16a1.5,1.5,0,0,1-.45-2.93c4-1.25,7.78-2.56,11.26-3.89a1.5,1.5,0,0,1,1.07,2.8c-3.54,1.35-7.38,2.68-11.43,4A1.41,1.41,0,0,1,554,688.16Zm-199.41-6.54a1.44,1.44,0,0,1-.67-.16c-3.61-1.8-7.19-3.73-10.64-5.76a1.49,1.49,0,1,1,1.51-2.58c3.4,2,6.92,3.89,10.47,5.65a1.51,1.51,0,0,1-.67,2.85ZM333.93,669.5a1.47,1.47,0,0,1-.85-.26c-3.32-2.27-6.61-4.68-9.75-7.16a1.5,1.5,0,0,1,1.86-2.36c3.09,2.44,6.31,4.81,9.58,7a1.5,1.5,0,0,1-.84,2.74Zm-18.82-14.86a1.47,1.47,0,0,1-1-.39c-3-2.71-5.89-5.55-8.66-8.46a1.5,1.5,0,0,1,2.17-2.07c2.72,2.86,5.58,5.65,8.51,8.31a1.5,1.5,0,0,1-1,2.61Zm-16.54-17.37a1.5,1.5,0,0,1-1.16-.54c-2.57-3.13-5-6.37-7.34-9.63a1.5,1.5,0,0,1,2.45-1.73c2.26,3.2,4.69,6.38,7.21,9.45a1.49,1.49,0,0,1-1.16,2.45Zm-13.82-19.59a1.49,1.49,0,0,1-1.28-.74c-.31-.5-.6-1-.89-1.51a1.49,1.49,0,0,1,.54-2,1.51,1.51,0,0,1,2.05.54l.87,1.49a1.49,1.49,0,0,1-.52,2.05A1.43,1.43,0,0,1,284.75,617.68Z"/><path class="cls-2" d="M234.14,255.31a1.49,1.49,0,0,1-.81-.23,1.5,1.5,0,0,1-.45-2.08c2.1-3.27,4.46-6.6,7-9.9a1.5,1.5,0,1,1,2.38,1.83c-2.49,3.23-4.79,6.49-6.85,9.7A1.49,1.49,0,0,1,234.14,255.31Zm14.56-19a1.51,1.51,0,0,1-1.12-2.5c2.6-2.93,5.38-5.89,8.29-8.8a1.51,1.51,0,0,1,2.12,0,1.49,1.49,0,0,1,0,2.12c-2.86,2.87-5.61,5.78-8.16,8.67A1.49,1.49,0,0,1,248.7,236.27Zm16.93-17a1.51,1.51,0,0,1-1.11-.5,1.49,1.49,0,0,1,.11-2.11c2.93-2.65,6-5.29,9.16-7.87a1.5,1.5,0,1,1,1.9,2.32c-3.11,2.55-6.16,5.16-9.05,7.77A1.51,1.51,0,0,1,265.63,219.27ZM284.18,204a1.46,1.46,0,0,1-1.2-.6,1.5,1.5,0,0,1,.3-2.1c3.16-2.37,6.45-4.74,9.79-7a1.5,1.5,0,0,1,1.7,2.47c-3.3,2.28-6.56,4.62-9.69,7A1.45,1.45,0,0,1,284.18,204Zm19.74-13.64a1.5,1.5,0,0,1-.81-2.76c3.35-2.13,6.8-4.25,10.28-6.3a1.5,1.5,0,1,1,1.52,2.59c-3.44,2-6.87,4.12-10.19,6.24A1.54,1.54,0,0,1,303.92,190.4Zm20.68-12.17a1.51,1.51,0,0,1-1.32-.79,1.49,1.49,0,0,1,.6-2c3.5-1.91,7.1-3.79,10.68-5.58a1.5,1.5,0,1,1,1.35,2.68c-3.56,1.78-7.12,3.64-10.6,5.53A1.4,1.4,0,0,1,324.6,178.23ZM346,167.46a1.51,1.51,0,0,1-.63-2.87c2.6-1.2,5.26-2.39,7.9-3.54l3.12-1.35a1.51,1.51,0,0,1,2,.8,1.49,1.49,0,0,1-.8,2l-3.1,1.34c-2.62,1.14-5.25,2.32-7.83,3.52A1.56,1.56,0,0,1,346,167.46Zm22.1-9.4a1.5,1.5,0,0,1-.55-2.9c3.75-1.45,7.55-2.86,11.3-4.18a1.5,1.5,0,1,1,1,2.83c-3.73,1.31-7.5,2.71-11.21,4.15A1.47,1.47,0,0,1,368.14,158.06Zm22.64-7.95a1.5,1.5,0,0,1-.45-2.93c3.84-1.21,7.72-2.36,11.55-3.42a1.5,1.5,0,0,1,.81,2.89c-3.8,1-7.66,2.19-11.46,3.39A1.76,1.76,0,0,1,390.78,150.11Zm23.12-6.4a1.5,1.5,0,0,1-.34-3c3.93-.94,7.89-1.8,11.78-2.57a1.5,1.5,0,1,1,.58,2.94c-3.85.76-7.77,1.62-11.67,2.55A2,2,0,0,1,413.9,143.71Zm23.54-4.65a1.5,1.5,0,0,1-.23-3c4-.63,8.05-1.16,12-1.59a1.5,1.5,0,0,1,.32,3c-3.87.42-7.85.95-11.83,1.57Z"/><polygon class="cls-2" points="61.69 783.33 49.77 815.49 66.67 820.68 79.42 790.77 61.69 783.33"/><path d="M66.67,822.18a1.62,1.62,0,0,1-.44-.07l-16.9-5.19a1.49,1.49,0,0,1-.91-.77,1.51,1.51,0,0,1-.06-1.18l11.92-32.16a1.5,1.5,0,0,1,.81-.85,1.47,1.47,0,0,1,1.18,0L80,789.38a1.51,1.51,0,0,1,.8,2l-12.75,29.9A1.5,1.5,0,0,1,66.67,822.18Zm-14.94-7.66,14.09,4.33,11.63-27.28-14.9-6.25Z"/><path class="cls-6" d="M69.86,813.82h0a14.88,14.88,0,0,1-15.56-6.63l-1.73-2.75a1.76,1.76,0,0,0-2.73-.29L34.39,819.87A7.91,7.91,0,0,0,33.33,830a78.13,78.13,0,0,0,12.92,14.19c10.72,9,18.39,25.37,31.27,24.1s12.35-2,14.44-5.58-2.32-12.62-10.44-23.28c-5-6.52-8.6-19.32-9.6-24.22A1.74,1.74,0,0,0,69.86,813.82Z"/><path d="M76.12,869.83c-8.79,0-15.25-7.5-21.51-14.76a85,85,0,0,0-9.32-9.76,79.54,79.54,0,0,1-13.18-14.47,9.48,9.48,0,0,1,1.25-12.07L48.77,803.1a3.25,3.25,0,0,1,5.06.54l1.74,2.75a13.45,13.45,0,0,0,14,6h0a3.26,3.26,0,0,1,2.45.48,3.17,3.17,0,0,1,1.38,2c1,5.06,4.67,17.48,9.33,23.61,6.47,8.5,13.55,19.73,10.54,24.94-.15.25-.28.48-.4.71-2.1,3.76-3.31,4.44-15.19,5.61A13.64,13.64,0,0,1,76.12,869.83Zm-25-64.7a.23.23,0,0,0-.18.07L35.45,820.92a6.41,6.41,0,0,0-.9,8.18A76.89,76.89,0,0,0,47.22,843a88.2,88.2,0,0,1,9.66,10.1c6.41,7.43,12.46,14.45,20.49,13.66,11.19-1.1,11.48-1.62,12.87-4.1l.42-.74c1.22-2.11-.75-9-10.33-21.63-5.37-7.06-9-20.62-9.88-24.82a.2.2,0,0,0-.1-.15.26.26,0,0,0-.19,0h0A16.44,16.44,0,0,1,53,808l-1.74-2.76a.26.26,0,0,0-.19-.11Zm18.77,8.69h0Z"/><path d="M63.43,833.7a1.5,1.5,0,0,1-.28-3l12.2-2.38a1.5,1.5,0,0,1,.58,2.95l-12.21,2.38A1.36,1.36,0,0,1,63.43,833.7Z"/><path d="M66.49,841.46a1.5,1.5,0,0,1-.29-3l12.94-2.55a1.5,1.5,0,0,1,.58,2.95l-12.94,2.55Z"/><path class="cls-2" d="M91.42,863.52S83.51,871,71.36,861c-8.1-6.67-36.87-41.39-36.87-41.39L30.88,823a4.87,4.87,0,0,0-.46,6.56c7.08,8.92,26.24,32.12,38.66,38.19C84.55,875.34,91.42,863.52,91.42,863.52Z"/><path d="M78.8,871.8a23.56,23.56,0,0,1-10.38-2.68c-12.59-6.16-31.59-29-39.17-38.61a6.39,6.39,0,0,1,.6-8.58l3.61-3.4a1.49,1.49,0,0,1,1.12-.4,1.47,1.47,0,0,1,1.06.54c.29.34,28.78,34.68,36.67,41.19,11,9.06,18,2.64,18.07,2.57a1.5,1.5,0,0,1,2.34,1.84A16.79,16.79,0,0,1,78.8,871.8Zm-44.45-50-2.44,2.31a3.37,3.37,0,0,0-.31,4.52c5.81,7.34,25.76,31.73,38.14,37.79,6.48,3.17,11.28,2.7,14.59,1.24-3.68.19-8.44-1-13.93-5.5C63.07,856.12,39.63,828.14,34.35,821.81Z"/><polygon class="cls-2" points="153.55 795.13 142.96 841.37 161.86 851.83 174.98 801.59 153.55 795.13"/><path d="M161.86,853.33a1.41,1.41,0,0,1-.72-.19l-18.91-10.46a1.49,1.49,0,0,1-.73-1.64l10.59-46.24a1.46,1.46,0,0,1,.7-1,1.5,1.5,0,0,1,1.19-.14l21.43,6.46a1.48,1.48,0,0,1,1,1.81l-13.12,50.24a1.46,1.46,0,0,1-.86,1A1.48,1.48,0,0,1,161.86,853.33Zm-17.19-12.72,16.23,9,12.27-47L154.65,797Z"/><path class="cls-6" d="M140.22,839.16a171.94,171.94,0,0,0-1.58,20.21,9.2,9.2,0,0,0,8.1,9.15c13,1.59,42.58,3.22,67.73.74,1.72-.17,4.76-1.45,5.57-5.78,2.75-14.54-22.4-17.93-50-28.27a3,3,0,0,0-3.12.67l-3,2.91A10.24,10.24,0,0,1,152.78,841l-9.06-3.81A2.54,2.54,0,0,0,140.22,839.16Z"/><path d="M185.61,872a353.45,353.45,0,0,1-39.05-2,10.7,10.7,0,0,1-9.42-10.64,170.69,170.69,0,0,1,1.6-20.41h0a4,4,0,0,1,5.56-3.2l9.06,3.81a8.73,8.73,0,0,0,9.54-1.85l2.95-2.91a4.46,4.46,0,0,1,4.7-1c6.44,2.41,12.62,4.4,18.61,6.33,19.39,6.25,34.7,11.18,32.36,23.62-.9,4.75-4.28,6.74-6.91,7C205.19,871.68,195.17,872,185.61,872Zm-42.87-33.6a1.07,1.07,0,0,0-.51.14,1,1,0,0,0-.52.78h0a170.1,170.1,0,0,0-1.57,20,7.69,7.69,0,0,0,6.78,7.65c13.45,1.64,42.5,3.19,67.4.74.58-.06,3.49-.54,4.25-4.57,1.85-9.84-11.65-14.18-30.33-20.2-6-1.94-12.24-4-18.74-6.38a1.5,1.5,0,0,0-1.55.32L165,839.86a11.69,11.69,0,0,1-12.8,2.47l-9.06-3.81A1.05,1.05,0,0,0,142.74,838.44Zm-2.52.72h0Z"/><path class="cls-2" d="M138.65,858.26s0,.75,0,1.11a9.2,9.2,0,0,0,8.1,9.15c13,1.59,42.58,3.22,67.73.74,1.72-.17,4.76-1.45,5.57-5.78a19.39,19.39,0,0,0,.08-3.72l-1.79.1a519,519,0,0,1-76.25-1.29Z"/><path d="M185.61,872a353.45,353.45,0,0,1-39.05-2,10.7,10.7,0,0,1-9.42-10.64v-1.13a1.53,1.53,0,0,1,.5-1.1,1.49,1.49,0,0,1,1.14-.38l3.43.31a517.34,517.34,0,0,0,76,1.29l1.78-.1a1.5,1.5,0,0,1,1.58,1.39,19.64,19.64,0,0,1-.09,4.11c-.9,4.75-4.28,6.74-6.91,7C205.19,871.68,195.17,872,185.61,872ZM140.15,859.9a7.69,7.69,0,0,0,6.77,7.13c13.45,1.64,42.5,3.19,67.4.74.58-.06,3.49-.54,4.25-4.57a11.35,11.35,0,0,0,.11-1.85h-.26a521.94,521.94,0,0,1-76.47-1.3Z"/><path d="M176.45,852.35a1.48,1.48,0,0,1-1-.43,1.5,1.5,0,0,1,0-2.12L185,840a1.5,1.5,0,0,1,2.15,2.1l-9.6,9.79A1.48,1.48,0,0,1,176.45,852.35Z"/><path d="M186,853.29a1.49,1.49,0,0,1-1.09-2.53l7.67-8.12a1.5,1.5,0,0,1,2.18,2.06L187,852.82A1.45,1.45,0,0,1,186,853.29Z"/><path d="M243.26,566.07c3.67,1.4,8.35,2.78,8.35,2.78s.36,6.45-9.92,13.52c-8.23,5.66-37.73,21.77-85.57,10.48-13.19-3.12-27.19-14.76-19-28.7,11-18.58,59.17-14.84,59.17-14.84Z"/><path class="cls-7" d="M172.85,533.59c.36,2.61-13.57,23-15.82,44.18-3.07,28.9-3.22,51.12-18.78,77.62C123.53,680.44,97.48,682.84,58,786.68c-2.64,6.91,7.48,13,7.48,13l8.87,3.18a9,9,0,0,0,8.53-4.31C93.39,781.21,143.39,733.22,156,714c14.82-22.55,56.45-78.65,60.74-106.72,4.06-26.46,5.06-64.65,5.16-68.94a.42.42,0,0,0-.39-.44Z"/><path class="cls-7" d="M239.47,539.39s20.44,67.56-8.76,148c-21.13,58.15-49.45,116.82-58.14,135.07a9.22,9.22,0,0,1-9.42,5.19l-10.19-1c-5.49-.65-7.52-7.9-7.88-11.33-1.74-16.34,1-38.21,6.89-64.26,3.35-14.89,11.47-30.71,14.3-44.5,3.87-18.88,6.78-34.92,7.43-43.17,3.2-40.88-5.18-58.85-4-87.74,1.3-31.47,10.16-46.8,10.16-46.8Z"/><path class="cls-8" d="M154.57,720.43a1.48,1.48,0,0,1-.8-.23,1.5,1.5,0,0,1-.46-2.07c.06-.09,5.67-8.88,13.45-20l.71-1c13.79-19.75,39.46-56.52,47.52-93.25a1.5,1.5,0,1,1,2.93.64c-8.19,37.32-34.08,74.4-48,94.33l-.71,1c-7.74,11.1-13.33,19.83-13.38,19.92A1.5,1.5,0,0,1,154.57,720.43Z"/><path d="M237.53,360.72a25.88,25.88,0,0,0,2.46-9.43c.38-6.87-1.35-17.07-12.57-24.66-18.66-12.62-39.3,8.79-47.41,11.23-10.32,3.1-28.48-5-35.3-3.85-6.3,1-30.39,1.26-35.4,31.3a60.05,60.05,0,0,0-.7,10c0,4.26-1.07,15.66-15.45,25.8-19.22,13.55-37.67,53.4-8.52,75.21,7,5.22,16.44,4.27,24,1.85a45,45,0,0,0,4.35-1.64c4.39-1.9,9.2-7.77,14.47-6.85,15.45,2.72,64.64,25.7,60.62-29.84-1.13-15.62-.86-26,13-29.24,5.33-1.25,14.68,2.76,25,.28,22-5.28,16.41-29.74,12.14-37.85C235.09,367.08,236.32,363.33,237.53,360.72Z"/><path class="cls-2" d="M295.35,320.22a.52.52,0,0,0-.61-.46l-3.94.71a.74.74,0,0,1-.85-.84,26.93,26.93,0,0,0,.2-7c-.76-6.11,1.05-17.16,1.13-20.72s-.65-5.43-2.84-5.67a3.83,3.83,0,0,0-4.08,2.9c-.12.44-.25,1.4-.41,2.52-.81,5.53-11.11,12.49-11.11,12.49s-.94,1.42-.46,2.14l4.6,7c.8,1.38.78,4.64.51,7.92a1.53,1.53,0,0,1-1.35,1.4l-4.43.51a.55.55,0,0,0-.49.53c-.11,4.36-1.24,37.48-9,53-7.6,15.2-32.66,24.21-49.26,20.58-1.25-.28-2.52-.53-3.79-.76-11.48-2-24.4,3-36.19,8.89-18.53,9.32-17.85,24.72-15,44.62,2.21,15.29,5.88,9.44,7.78,29.61,3,31.59-18.07,72-26.73,84.57-.69,1,21.83-11.67,35.89-13.6a78.42,78.42,0,0,1,40.18,4.65L248.43,569a1.53,1.53,0,0,0,2.11-1.48c-.51-10.3-2.51-51.76-3.46-86.65a37.63,37.63,0,0,1,3.08-16l.76-1.78a30.42,30.42,0,0,0-.13-25.28l-3.34-7.35c.18-.83.38-1.32.62-1.4,10.4-3.53,30.79-12.06,37-25.37C298.8,374.48,295.81,326,295.35,320.22Z"/><path d="M249,570.6a3,3,0,0,1-1.17-.24L214.56,556.6a77.17,77.17,0,0,0-39.4-4.56c-10,1.38-24.56,8.4-31.55,11.77-4.69,2.26-4.87,2.35-5.7,1.37a1.56,1.56,0,0,1-.09-1.87c9.85-14.31,29.28-53.58,26.47-83.58-1-10.85-2.49-13.85-4.06-17-1.32-2.67-2.68-5.43-3.71-12.52C153.6,430,152.91,413.78,172.31,404c10.68-5.38,24.56-11.26,37.13-9,1.23.22,2.53.47,3.84.76,15.38,3.37,40.06-4.69,47.6-19.78,7.65-15.31,8.74-48.62,8.84-52.37a2,2,0,0,1,1.82-2l4.43-.51c.47-5.3-.1-6.76-.29-7.08l-4.56-6.91c-.94-1.43.12-3.26.47-3.79a1.6,1.6,0,0,1,.41-.41c2.71-1.84,9.88-7.48,10.46-11.47l.06-.42c.15-1,.27-1.79.38-2.25a5.35,5.35,0,0,1,5.71-4c4.32.47,4.21,5.36,4.17,7.2,0,1.18-.22,3-.46,5.31-.5,4.72-1.18,11.17-.68,15.19a26.63,26.63,0,0,1-.08,6.34l2.92-.53a2,2,0,0,1,2.36,1.82h0c.18,2.16,4.14,53.25-10.38,84.23-6.57,14-28,22.74-37.42,26l3.12,6.87a31.91,31.91,0,0,1,.14,26.5l-.77,1.77a36.12,36.12,0,0,0-2.95,15.34c.94,34.46,2.88,75,3.45,86.61a3,3,0,0,1-3,3.18Zm-62.61-22.33a78.21,78.21,0,0,1,29.29,5.55L249,567.59c-.54-11.63-2.48-52.2-3.42-86.7a38.8,38.8,0,0,1,3.2-16.6l.77-1.78a30.22,30.22,0,0,0,2.43-9.17,29.8,29.8,0,0,0-2.56-14.9l-3.33-7.35a1.49,1.49,0,0,1-.11-.93c.24-1.1.6-2.17,1.61-2.51,8.81-3,30-11.38,36.15-24.59,13.05-27.83,10.68-74,10.19-81.63l-2.86.51a2.21,2.21,0,0,1-1.94-.59,2.24,2.24,0,0,1-.67-1.93,25.92,25.92,0,0,0,.21-6.58c-.55-4.36.15-11,.66-15.87.23-2.15.43-4,.45-5.07.09-4-.9-4.08-1.5-4.15a2.33,2.33,0,0,0-2.47,1.78c-.08.31-.19,1.11-.32,2l-.06.42c-.83,5.65-9.52,12-11.46,13.32a2,2,0,0,0-.2.47l4.46,6.78c.59,1,1.25,2.94.76,8.87a3,3,0,0,1-2.68,2.76l-3.61.41c-.21,6.45-1.61,37.75-9.14,52.81-8.12,16.24-34.5,25-50.92,21.37-1.28-.28-2.53-.53-3.73-.74-11.69-2.08-25,3.58-35.25,8.75-17.65,8.88-17,23.45-14.17,43.06,1,6.62,2.16,9.05,3.43,11.62,1.62,3.28,3.29,6.67,4.36,18.07,2.64,28.2-13.72,64.19-24.23,81.3,7.37-3.56,21.56-10.28,31.7-11.68A85,85,0,0,1,186.41,548.27Z"/><path class="cls-2" d="M198.9,355.62c3.65,1.44,5.47,1,9.95-1.34,8.73-4.57,12.24-14.39,14.74-10,2.19,3.83,1.37,6.57,7,11,.53.42.32,1.31-.13,1.82L228.05,360a5.12,5.12,0,0,0-.64,3c.24,2.35.78,7.21.26,8.11-1.52,2.63-9.91,4-9.91,4l-1,17.43a9.21,9.21,0,0,0,2.35,6.68l1.83,2s-.12,4.85-14.95,5.68a30.4,30.4,0,0,1-10-1.63,1.68,1.68,0,0,1-.81-2.61c2.48-3.34,8.39-12,6.69-32.26a1.72,1.72,0,0,0-1-1.41c-2.14-1-8-4.08-7.92-8.39C193,356,196.24,354.58,198.9,355.62Z"/><path d="M205.14,408.41a33.48,33.48,0,0,1-9.59-1.72,3.13,3.13,0,0,1-2-2,3.18,3.18,0,0,1,.48-2.89c2-2.7,8.11-10.92,6.4-31.24a.25.25,0,0,0-.14-.19c-3.3-1.55-8.83-4.89-8.78-9.75,0-2.63,1-4.71,2.7-5.86a5.68,5.68,0,0,1,5.28-.49h0c3.05,1.2,4.35,1,8.7-1.27,3.75-2,6.48-5,8.67-7.37s3.77-4.11,5.64-3.9a3.27,3.27,0,0,1,2.44,1.84,21,21,0,0,1,1.55,3.57,13,13,0,0,0,5,7,2.31,2.31,0,0,1,.88,1.66,3.19,3.19,0,0,1-.81,2.34L229.22,361a4.24,4.24,0,0,0-.31,1.86l0,.48c.58,5.63.59,7.55,0,8.53-1.49,2.59-7.09,4-9.78,4.51l-.9,16.24a7.79,7.79,0,0,0,2,5.6l1.82,2a1.55,1.55,0,0,1,.39,1c0,1-.94,6.28-16.36,7.15C205.8,408.41,205.47,408.41,205.14,408.41Zm-7.92-51.61a2.42,2.42,0,0,0-1.37.4,4,4,0,0,0-1.38,3.41c0,3.4,5.4,6.22,7.06,7a3.26,3.26,0,0,1,1.85,2.65c1.8,21.45-4.81,30.35-7,33.28a.21.21,0,0,0,0,.18.14.14,0,0,0,.1.1,29.49,29.49,0,0,0,9.49,1.56c9.14-.51,12.46-2.64,13.31-3.85L218,400.19a10.78,10.78,0,0,1-2.74-7.77l1-17.43a1.5,1.5,0,0,1,1.26-1.4c3.65-.59,8-2,8.81-3.19.23-1-.21-5.35-.36-6.8l-.05-.48c-.08-.84.06-3,1-4.1l2.32-2.89h0a15.63,15.63,0,0,1-5.62-8,18.18,18.18,0,0,0-1.34-3.09,2.19,2.19,0,0,0-.21-.32,16.74,16.74,0,0,0-3,2.91c-2.23,2.45-5.28,5.8-9.49,8-4.75,2.49-7,3-11.2,1.41A3.07,3.07,0,0,0,197.22,356.8Z"/><path class="cls-2" d="M165.29,412.54c-9.47,7.28-13.53,26.84-14.14,42.35l2,38.81a16.4,16.4,0,0,0,14.22,16.91l102.34,12.9,2.91-26.63-80-16.49a5.46,5.46,0,0,1-4.36-5.93l3-28.23Z"/><path class="cls-2" d="M272.64,501l7.82-.91a48.9,48.9,0,0,1,10.12-.12l5.66.53a3.34,3.34,0,0,1,2.19,1.12l.07.08a3.33,3.33,0,0,1,.19,4.16h0a3.32,3.32,0,0,1-2.55,1.36l-5.52.23a.32.32,0,0,0-.08.62l9.52,2.8a6.44,6.44,0,0,0,2.69.21l4.32-.58c3.29-.45,6.91,1.21,7.85,4.21a2.21,2.21,0,0,1-1.19,2.77l0,0-6,2.1a38.26,38.26,0,0,1-19,1.6l-17.94-3Z"/><path d="M295.06,523.24a40.63,40.63,0,0,1-6.6-.55l-17.94-3a1.52,1.52,0,0,1-1.23-1.73A1.5,1.5,0,0,1,271,516.7l17.94,3a36.94,36.94,0,0,0,18.21-1.54l6-2.1c.31-.12.4-.58.29-.92-.66-2.12-3.45-3.55-6.22-3.18l-4.32.58a7.93,7.93,0,0,1-3.32-.25l-9.51-2.8a1.82,1.82,0,0,1,.44-3.56l5.51-.23a1.82,1.82,0,0,0,1.3-3l-.07-.08a1.88,1.88,0,0,0-1.2-.62l-5.66-.52a46.53,46.53,0,0,0-9.8.11l-7.83.91a1.52,1.52,0,0,1-1.66-1.32,1.49,1.49,0,0,1,1.32-1.66l7.82-.91a50.51,50.51,0,0,1,10.43-.12l5.66.53a4.76,4.76,0,0,1,3.17,1.62l.07.08a4.83,4.83,0,0,1-2.23,7.81l3.09.91a5,5,0,0,0,2.07.16l4.32-.58c4.22-.57,8.39,1.74,9.48,5.25a3.72,3.72,0,0,1-2.07,4.62L308.16,521A39.79,39.79,0,0,1,295.06,523.24Z"/><path d="M269.71,525h-.19L167.18,512.1a17.85,17.85,0,0,1-15.54-18.39l-1.58-30.82a116.71,116.71,0,0,1,1.51-26.48,80.13,80.13,0,0,1,7.29-22.69,1.5,1.5,0,1,1,2.66,1.38,77.32,77.32,0,0,0-7,21.84,113.59,113.59,0,0,0-1.46,25.8l1.58,30.88a.33.33,0,0,1,0,.14,14.87,14.87,0,0,0,12.93,15.37l100.81,12.7,2.6-23.75-78.65-16.22a6.94,6.94,0,0,1-5.56-7.4l-2.18-21.52a1.5,1.5,0,0,1,3-.31l2.19,21.68a1.6,1.6,0,0,1,0,.31,4,4,0,0,0,3.16,4.3l80,16.49a1.51,1.51,0,0,1,1.19,1.64l-2.91,26.62a1.56,1.56,0,0,1-.56,1A1.52,1.52,0,0,1,269.71,525Z"/><path d="M221.66,467.39a1.46,1.46,0,0,1-.75-.2,1.49,1.49,0,0,1-.56-2c4.67-8.17,2.35-21,2.33-21.14a1.5,1.5,0,1,1,2.95-.55c.1.57,2.54,14.07-2.67,23.17A1.49,1.49,0,0,1,221.66,467.39Z"/><path d="M275.79,324.14a1.5,1.5,0,0,1-.16-3l7.37-.78a1.49,1.49,0,0,1,1.65,1.33,1.5,1.5,0,0,1-1.33,1.65l-7.37.78Z"/><path class="cls-4" d="M528,391.41,524.69,364l-29.24-2.71a115.12,115.12,0,0,0-7-17.81l18.94-23.2-16.23-21.92L464.37,311a112.3,112.3,0,0,0-14.78-11.69l5.2-29.78L430,259l-17.09,24.67a108.74,108.74,0,0,0-18.57-2.47l-10-28.33-26.69,3.64-2.87,30.08A110.8,110.8,0,0,0,337.45,294L315,274.68l-21.45,16.85L305.72,319a117.31,117.31,0,0,0-11.5,15.27l-28.93-5.1-10.46,25.56,23.86,17.37a118.44,118.44,0,0,0-2.55,19.1L248.5,401.62,251.83,429l29.24,2.71a115.7,115.7,0,0,0,7,17.81l-18.93,23.2,16.23,21.92L312.15,482a113,113,0,0,0,14.77,11.7l-5.19,29.77L346.51,534l17.08-24.66a107.75,107.75,0,0,0,18.57,2.46l10,28.33,26.7-3.63,2.87-30.08a111.23,111.23,0,0,0,17.37-7.36l22.42,19.28,21.46-16.86L470.8,474.08a117.63,117.63,0,0,0,11.5-15.28l28.92,5.11,10.47-25.56L497.83,421a117.29,117.29,0,0,0,2.54-19.11ZM396.82,467.08c-37.95,5.17-72.55-22.23-77.28-61.21s22.2-74.76,60.15-79.93,72.56,22.24,77.29,61.21S434.77,461.91,396.82,467.08Z"/><path d="M392.12,541.64a1.48,1.48,0,0,1-1.41-1l-9.63-27.38A111,111,0,0,1,364.25,511l-16.51,23.84a1.51,1.51,0,0,1-1.82.52l-24.78-10.56a1.49,1.49,0,0,1-.89-1.63l5-28.82a114.86,114.86,0,0,1-13.41-10.61L286,496a1.51,1.51,0,0,1-1.85-.47L268,473.64a1.49,1.49,0,0,1,.05-1.84l18.32-22.45a117.09,117.09,0,0,1-6.39-16.2l-28.24-2.63a1.49,1.49,0,0,1-1.35-1.31L247,401.8a1.52,1.52,0,0,1,1-1.59L274.7,390.1A118.72,118.72,0,0,1,277,372.68L254,355.89a1.5,1.5,0,0,1-.51-1.78l10.47-25.56a1.49,1.49,0,0,1,1.64-.91l27.94,4.93A118.25,118.25,0,0,1,304,318.68l-11.75-26.54a1.5,1.5,0,0,1,.44-1.79l21.46-16.85a1.48,1.48,0,0,1,1.9,0l21.65,18.62a111.86,111.86,0,0,1,15.77-6.68l2.78-29.11A1.49,1.49,0,0,1,357.5,255l26.69-3.64a1.52,1.52,0,0,1,1.62,1l9.63,27.39A108.54,108.54,0,0,1,412.26,282l16.52-23.84a1.49,1.49,0,0,1,1.82-.53l24.78,10.56a1.5,1.5,0,0,1,.89,1.64l-5,28.81a113.93,113.93,0,0,1,13.4,10.61L490.49,297a1.5,1.5,0,0,1,1.85.46l16.22,21.92a1.5,1.5,0,0,1,0,1.84l-18.33,22.46a117.13,117.13,0,0,1,6.4,16.2l28.24,2.62a1.5,1.5,0,0,1,1.35,1.31l3.32,27.42a1.5,1.5,0,0,1-1,1.58l-26.73,10.12a121.54,121.54,0,0,1-2.32,17.41l23.07,16.79a1.52,1.52,0,0,1,.51,1.79l-10.47,25.55a1.5,1.5,0,0,1-1.65.91L483,460.45a119.39,119.39,0,0,1-10.46,13.9l11.75,26.53a1.5,1.5,0,0,1-.45,1.79l-21.45,16.86a1.52,1.52,0,0,1-1.91,0l-21.64-18.62a113,113,0,0,1-15.77,6.67l-2.78,29.11A1.5,1.5,0,0,1,419,538l-26.7,3.64Zm-28.53-33.79.33,0a107,107,0,0,0,18.31,2.43,1.53,1.53,0,0,1,1.35,1l9.55,27.18,24.31-3.31,2.75-28.9a1.51,1.51,0,0,1,1-1.28,109.53,109.53,0,0,0,17.14-7.26,1.5,1.5,0,0,1,1.68.19l21.48,18.48L481.09,501l-11.66-26.34a1.51,1.51,0,0,1,.25-1.61A116.37,116.37,0,0,0,481,458a1.48,1.48,0,0,1,1.53-.68l27.73,4.9,9.56-23.35L497,422.19a1.52,1.52,0,0,1-.59-1.53,116,116,0,0,0,2.51-18.87,1.51,1.51,0,0,1,1-1.32l26.54-10.05-3-25.05-28-2.6a1.49,1.49,0,0,1-1.3-1.06,114.44,114.44,0,0,0-6.93-17.57,1.52,1.52,0,0,1,.18-1.62l18.2-22.29-14.8-20L465,312.4a1.51,1.51,0,0,1-1.67-.26,110,110,0,0,0-14.58-11.54,1.49,1.49,0,0,1-.64-1.51l5-28.61-22.56-9.61-16.39,23.66a1.51,1.51,0,0,1-1.56.61,107.29,107.29,0,0,0-18.31-2.43,1.49,1.49,0,0,1-1.35-1l-9.56-27.18-24.3,3.31-2.76,28.9a1.49,1.49,0,0,1-1,1.28,109.53,109.53,0,0,0-17.14,7.26,1.5,1.5,0,0,1-1.69-.19L315,276.62,295.42,292l11.67,26.35a1.49,1.49,0,0,1-.25,1.6A115.35,115.35,0,0,0,295.49,335a1.5,1.5,0,0,1-1.53.67l-27.74-4.9-9.56,23.36,22.91,16.67a1.51,1.51,0,0,1,.58,1.54,116.8,116.8,0,0,0-2.51,18.86,1.5,1.5,0,0,1-1,1.33l-26.54,10,3,25,28,2.6a1.52,1.52,0,0,1,1.3,1.06,113,113,0,0,0,6.93,17.57,1.5,1.5,0,0,1-.19,1.62l-18.19,22.29,14.8,20,25.65-12.17a1.5,1.5,0,0,1,1.67.27,111.56,111.56,0,0,0,14.57,11.54,1.5,1.5,0,0,1,.65,1.51l-5,28.6L346,532.15l16.39-23.66A1.49,1.49,0,0,1,363.59,507.85Zm24-38.64a68.6,68.6,0,0,1-42.1-14.46,71.86,71.86,0,0,1-27.44-48.7c-4.82-39.72,22.74-76.32,61.44-81.59A68.63,68.63,0,0,1,431,338.27,71.92,71.92,0,0,1,458.47,387c4.82,39.72-22.75,76.33-61.45,81.6h0A69.71,69.71,0,0,1,387.59,469.21Zm9-3.61.2,1.48-.2-1.48c37.08-5.06,63.49-40.17,58.87-78.27a68.86,68.86,0,0,0-26.3-46.68,65.6,65.6,0,0,0-49.29-13.22c-37.09,5.05-63.5,40.16-58.87,78.26a68.93,68.93,0,0,0,26.29,46.69A65.67,65.67,0,0,0,396.62,465.6Z"/><path class="cls-4" d="M782.76,155.51V137.09l-19.63-4.42a75.41,75.41,0,0,0-3.3-12.4l14.77-13.63-9.21-16-19.21,6a77.52,77.52,0,0,0-9.06-9.06l6-19.21-16-9.21L713.52,74a76.69,76.69,0,0,0-12.4-3.3L696.69,51H678.28l-4.43,19.62a76.69,76.69,0,0,0-12.4,3.3L647.83,59.19l-16,9.21,6,19.21a76.84,76.84,0,0,0-9.07,9.06l-19.21-6-9.2,16,14.76,13.63a75.41,75.41,0,0,0-3.3,12.4l-19.62,4.42v18.42l19.62,4.42a75.41,75.41,0,0,0,3.3,12.4L600.38,186l9.2,15.95,19.21-6a76.84,76.84,0,0,0,9.07,9.06l-6,19.21,16,9.21,13.62-14.76a77.73,77.73,0,0,0,12.4,3.3l4.43,19.62h18.41L701.12,222a77.73,77.73,0,0,0,12.4-3.3l13.63,14.76,16-9.21-6-19.21a77.52,77.52,0,0,0,9.06-9.06l19.21,6L774.6,186l-14.77-13.63a75.41,75.41,0,0,0,3.3-12.4Zm-95.27,38.2a47.41,47.41,0,1,1,47.4-47.41A47.41,47.41,0,0,1,687.49,193.71Z"/><path d="M690.29,236.66H671.87a1.49,1.49,0,0,1-1.46-1.17l-4.21-18.65A78.93,78.93,0,0,1,655.48,214l-13,14a1.5,1.5,0,0,1-1.85.28l-15.95-9.21a1.49,1.49,0,0,1-.68-1.74l5.68-18.27a80.38,80.38,0,0,1-7.83-7.83l-18.27,5.68a1.49,1.49,0,0,1-1.74-.68l-9.21-15.95a1.51,1.51,0,0,1,.28-1.85l14-13a76.73,76.73,0,0,1-2.85-10.72l-18.66-4.21a1.5,1.5,0,0,1-1.17-1.46V130.68a1.51,1.51,0,0,1,1.17-1.46L604.14,125A77.47,77.47,0,0,1,607,114.29l-14-13a1.5,1.5,0,0,1-.28-1.85l9.21-16a1.5,1.5,0,0,1,1.74-.68l18.27,5.69a79.28,79.28,0,0,1,7.83-7.83L624,62.44a1.5,1.5,0,0,1,.68-1.75l15.95-9.21a1.49,1.49,0,0,1,1.85.29l13,14A77.47,77.47,0,0,1,666.2,63l4.21-18.66a1.5,1.5,0,0,1,1.46-1.17h18.42a1.5,1.5,0,0,1,1.46,1.17L696,63a77.47,77.47,0,0,1,10.72,2.85l13-14a1.49,1.49,0,0,1,1.85-.29l16,9.21a1.5,1.5,0,0,1,.68,1.75l-5.69,18.27a77.27,77.27,0,0,1,7.84,7.83l18.27-5.69a1.5,1.5,0,0,1,1.74.68l9.21,16a1.5,1.5,0,0,1-.28,1.85l-14,13A77.47,77.47,0,0,1,758,125l18.66,4.21a1.51,1.51,0,0,1,1.17,1.46V149.1a1.5,1.5,0,0,1-1.17,1.46L758,154.77a77.1,77.1,0,0,1-2.85,10.72l14,13a1.51,1.51,0,0,1,.28,1.85l-9.21,15.95a1.49,1.49,0,0,1-1.74.68l-18.27-5.68a78.31,78.31,0,0,1-7.84,7.83l5.69,18.27a1.49,1.49,0,0,1-.68,1.74l-16,9.21a1.5,1.5,0,0,1-1.85-.28l-13-14A78.93,78.93,0,0,1,696,216.84l-4.21,18.65A1.49,1.49,0,0,1,690.29,236.66Zm-17.22-3h16l4.16-18.45a1.51,1.51,0,0,1,1.2-1.15,74.21,74.21,0,0,0,12.16-3.23,1.51,1.51,0,0,1,1.61.39L721,225.1l13.87-8L729.28,199a1.5,1.5,0,0,1,.46-1.59,76.16,76.16,0,0,0,8.89-8.89,1.49,1.49,0,0,1,1.59-.46l18.06,5.62,8-13.87L752.41,167a1.49,1.49,0,0,1-.39-1.61,75.71,75.71,0,0,0,3.23-12.16,1.52,1.52,0,0,1,1.15-1.2l18.45-4.16v-16l-18.45-4.16a1.5,1.5,0,0,1-1.15-1.2A75.87,75.87,0,0,0,752,114.37a1.49,1.49,0,0,1,.39-1.61l13.88-12.82-8-13.87-18.06,5.62a1.49,1.49,0,0,1-1.59-.46,76.86,76.86,0,0,0-8.89-8.88,1.5,1.5,0,0,1-.46-1.59l5.62-18.07-13.87-8L708.22,68.56a1.52,1.52,0,0,1-1.61.4,75.24,75.24,0,0,0-12.16-3.24,1.5,1.5,0,0,1-1.2-1.15l-4.16-18.45h-16l-4.16,18.45a1.5,1.5,0,0,1-1.2,1.15A75.24,75.24,0,0,0,655.55,69a1.52,1.52,0,0,1-1.61-.4L641.13,54.68l-13.87,8,5.62,18.07a1.5,1.5,0,0,1-.46,1.59,75.31,75.31,0,0,0-8.89,8.88,1.49,1.49,0,0,1-1.59.46l-18.06-5.62-8,13.87,13.88,12.82a1.49,1.49,0,0,1,.39,1.61,75.31,75.31,0,0,0-3.23,12.15,1.5,1.5,0,0,1-1.15,1.2l-18.45,4.16v16l18.45,4.16a1.52,1.52,0,0,1,1.15,1.2,75.71,75.71,0,0,0,3.23,12.16,1.49,1.49,0,0,1-.39,1.61l-13.88,12.81,8,13.87,18.06-5.62a1.49,1.49,0,0,1,1.59.46,75.4,75.4,0,0,0,8.89,8.89,1.5,1.5,0,0,1,.46,1.59l-5.62,18.06,13.87,8,12.81-13.88a1.51,1.51,0,0,1,1.61-.39,74.21,74.21,0,0,0,12.16,3.23,1.51,1.51,0,0,1,1.2,1.15ZM776.35,149.1h0Zm-95.27,39.7A48.91,48.91,0,1,1,730,139.89,49,49,0,0,1,681.08,188.8Zm0-94.82A45.91,45.91,0,1,0,727,139.89,46,46,0,0,0,681.08,94Z"/><polygon class="cls-2" points="806.66 768.32 822.24 816.06 834.04 815.25 830.52 765.98 806.66 768.32"/><path d="M822.23,817.56a1.49,1.49,0,0,1-1.42-1l-15.57-47.75a1.5,1.5,0,0,1,1.28-2l23.85-2.33a1.49,1.49,0,0,1,1.11.34,1.53,1.53,0,0,1,.53,1l3.52,49.28a1.49,1.49,0,0,1-1.39,1.6l-11.8.81Zm-13.56-47.93,14.63,44.85,9.13-.62-3.3-46.24Z"/><path class="cls-2" d="M811.27,822.56V791.74L820,805.55l1.19-11.94,11.6-1.5s18.47,24.57,25.22,65.08a8.14,8.14,0,0,1-8,9.49H838a12.45,12.45,0,0,1-11-6.59L814.3,835.15A27.56,27.56,0,0,1,811.27,822.56Z"/><path d="M850,868.18H838a13.94,13.94,0,0,1-12.31-7.38l-12.76-25a29.3,29.3,0,0,1-3.19-13.27V791.74a1.49,1.49,0,0,1,2.76-.8l6.4,10.13.76-7.61a1.51,1.51,0,0,1,1.3-1.34l11.59-1.5a1.48,1.48,0,0,1,1.39.59c.19.24,18.77,25.33,25.51,65.73a9.64,9.64,0,0,1-9.5,11.24Zm-37.21-71.26v25.64a26.36,26.36,0,0,0,2.86,11.91l12.75,24.94a10.93,10.93,0,0,0,9.65,5.77h12a6.65,6.65,0,0,0,6.55-7.74c-6-36-21.47-59.46-24.45-63.73l-9.52,1.23-1.08,10.76a1.5,1.5,0,0,1-2.76.65Z"/><path d="M841.59,844.31a2,2,0,0,1-1.71-1L821.6,813.42a2,2,0,1,1,3.41-2.08l18.28,29.93a2,2,0,0,1-1.7,3Z"/><path d="M838.73,859.78a7.64,7.64,0,0,1-6.91-4c-4.51-8.39-14.77-27.54-20.55-38.62v5.42a27.56,27.56,0,0,0,3,12.59l12.75,24.94a12.45,12.45,0,0,0,11,6.59h12a8.15,8.15,0,0,0,8.09-7.34Z"/><path class="cls-2" d="M698.74,774.2,695.09,831s19.39-2.61,26.76-19l2-39.1Z"/><path d="M695.09,832.49a1.51,1.51,0,0,1-1-.4,1.55,1.55,0,0,1-.48-1.2l3.65-56.79a1.5,1.5,0,0,1,1.42-1.4l25.16-1.27a1.48,1.48,0,0,1,1.14.43,1.51,1.51,0,0,1,.43,1.14l-2,39.1a1.43,1.43,0,0,1-.13.54c-7.63,16.92-27.1,19.73-27.93,19.84Zm5.06-56.86-3.44,53.52c4.83-1.11,18-5.18,23.66-17.49l1.94-37.15Z"/><path class="cls-2" d="M693.94,803.25a59.12,59.12,0,0,1,7.5-.07,7.24,7.24,0,0,1,6.72,7.71l-.25,4s11.6-11.71,13.94-12.89c1.31-.66,4.55,5.22,7.17,10.56a15.7,15.7,0,0,1-.87,15.4l-23.77,37.15a13.24,13.24,0,0,1-11.16,6.11h-20.7A8.3,8.3,0,0,1,665,859.41,28.49,28.49,0,0,1,673.12,849a23,23,0,0,0,7.78-11.5l9-31A4.5,4.5,0,0,1,693.94,803.25Z"/><path d="M693.22,872.68h-20.7a9.8,9.8,0,0,1-8.9-13.89,30.08,30.08,0,0,1,8.56-10.93,21.36,21.36,0,0,0,7.28-10.75l9-31a6,6,0,0,1,5.36-4.34h0a61.49,61.49,0,0,1,7.69-.07,8.75,8.75,0,0,1,8.13,9.3c3.74-3.7,9.71-9.45,11.52-10.36a2,2,0,0,1,1.59-.1c.79.27,2.44.82,7.59,11.34a17.31,17.31,0,0,1-.94,16.87l-23.78,37.15A14.67,14.67,0,0,1,693.22,872.68Zm5.22-68.09c-1.67,0-3.22.08-4.4.16a3,3,0,0,0-2.68,2.17l-9,31a24.36,24.36,0,0,1-8.28,12.25,27,27,0,0,0-7.71,9.84,6.8,6.8,0,0,0,6.17,9.64h20.7a11.69,11.69,0,0,0,9.89-5.42l23.78-37.15a14.29,14.29,0,0,0,.78-13.93c-3.37-6.87-5-9-5.61-9.58-2.25,1.61-9,8.19-13.09,12.3a1.49,1.49,0,0,1-2.56-1.15l.25-4a5.74,5.74,0,0,0-5.32-6.12C700.37,804.61,699.39,804.59,698.44,804.59Zm-4.5-1.34h0Z"/><path d="M698.22,859.94a8.38,8.38,0,0,1-6.93,3.68h-27a8.3,8.3,0,0,0,8.27,7.56h20.7a13.24,13.24,0,0,0,11.16-6.11l23.77-37.15a15.71,15.71,0,0,0,1.4-14.17Z"/><path d="M687.34,850.16a2,2,0,0,1-1.7-3.06l18-28.71a2,2,0,1,1,3.39,2.13l-18,28.7A2,2,0,0,1,687.34,850.16Z"/><path d="M696.93,516.39l-6.5,11.31S680.08,677,695.59,792.22c0,0,9.8,4.06,29.89-.11,0,0,29-129,24.26-192.66,0,0,23.86,111,53.55,178,0,0,23.6,2.09,32.89-1.14,0,0-1.58-81.5-4.78-101.76-6.08-38.5-40.46-154.11-40.46-154.11Z"/><path class="cls-2" d="M747.3,596.2a1.52,1.52,0,0,1-1.45-1.1l-5.43-19.45-13.07-5.46a1.5,1.5,0,0,1,1.16-2.77l13.73,5.74a1.49,1.49,0,0,1,.87,1l5.63,20.15a1.49,1.49,0,0,1-1,1.85A1.39,1.39,0,0,1,747.3,596.2Z"/><path class="cls-2" d="M707.35,373.15S692,471.3,690.83,491.08s-2.48,41.46-2.48,41.46c3.8,19.32,105.61,10.77,108.78-1.83,0,0-6.43-48-2-83.8s-20.1-94.81-20.1-94.81l-62.46,3.82Z"/><path d="M730.5,545.39q-2.65,0-5.16-.06c-16.51-.44-36.58-3-38.46-12.5a1.59,1.59,0,0,1,0-.38c0-.22,1.35-21.91,2.47-41.46s15.91-114.06,16.54-118.07a1.55,1.55,0,0,1,0-.21l5.24-17.23a1.5,1.5,0,0,1,1.34-1.06L775,350.6a1.52,1.52,0,0,1,1.48.92c1,2.43,24.65,59.81,20.2,95.58-4.38,35.19,1.91,82.93,2,83.41a1.57,1.57,0,0,1,0,.57C796.3,540.15,758,545.39,730.5,545.39Zm-40.64-13c1.37,5.65,14.62,9.35,35.56,9.9,33.35.88,67.86-5.93,70.18-11.76-.56-4.34-6.17-49.83-1.93-83.84,4-32.48-16.45-85.21-19.6-93.07l-60.35,3.69-4.91,16.13c-.57,3.69-15.38,98.49-16.48,117.68C691.26,509.7,690,530.15,689.86,532.43Z"/><path class="cls-2" d="M777.47,163.81c-.53,1.92.36,4.16.86,5.83s4.06,8.77,4.06,8.77a45.53,45.53,0,0,0-2.61,6.73c-2.81-2.87-8.9-2.71-8.9-2.71l8.42,15.7c3.07,7.58,12.15,5.14,12.15,5.14l-.33-28.14L780,160.35A7.86,7.86,0,0,0,777.47,163.81Z"/><path d="M788.26,205.17c-3.7,0-8.24-1.37-10.32-6.4l-8.38-15.64a1.49,1.49,0,0,1,1.28-2.2A18.17,18.17,0,0,1,779,182.7c.67-1.92,1.34-3.45,1.73-4.28-.93-1.88-3.38-6.86-3.83-8.35l-.22-.71c-.54-1.72-1.22-3.87-.65-6h0a9.25,9.25,0,0,1,3.05-4.25,1.5,1.5,0,0,1,2.12.29l11.13,14.78a1.46,1.46,0,0,1,.3.88l.33,28.15a1.5,1.5,0,0,1-1.11,1.46A14.13,14.13,0,0,1,788.26,205.17ZM773.48,184.1l7.14,13.32a1,1,0,0,1,.07.15c2,4.89,7,4.79,9.24,4.47l-.3-26.4-9.81-13a4.62,4.62,0,0,0-.91,1.59h0c-.34,1.22.17,2.83.62,4.24.08.27.16.52.24.76.33,1.12,2.61,5.82,4,8.52a1.49,1.49,0,0,1,0,1.35,44.66,44.66,0,0,0-2.51,6.49,1.51,1.51,0,0,1-2.51.62C777.49,184.94,775.3,184.35,773.48,184.1Z"/><path class="cls-2" d="M661.52,184.56c1.51,1.3,2,3.66,2.52,5.33s1.47,9.55,1.47,9.55a44.68,44.68,0,0,1,5.91,4.16c.75-3.95,5.9-7.19,5.9-7.19L679,214.15c1.64,8-7.26,11-7.26,11l-15.32-23.61,1.08-18.48A7.92,7.92,0,0,1,661.52,184.56Z"/><path d="M671.75,226.66a1.51,1.51,0,0,1-1.26-.68l-15.32-23.62a1.42,1.42,0,0,1-.24-.9L656,183a1.51,1.51,0,0,1,.51-1,1.47,1.47,0,0,1,1.09-.37,9.21,9.21,0,0,1,4.9,1.84h0c1.63,1.42,2.25,3.58,2.75,5.32.07.25.14.49.21.71.45,1.48,1.18,7,1.44,9.07.78.48,2.19,1.38,3.81,2.61a18.28,18.28,0,0,1,5.8-6,1.49,1.49,0,0,1,2.29,1.13l1.69,17.66c1.44,7.31-4.77,11.47-8.27,12.65A1.61,1.61,0,0,1,671.75,226.66ZM658,201.14l14.37,22.15c2.06-1,6.27-3.7,5.22-8.84,0,0,0-.11,0-.16l-1.43-15c-1.38,1.23-2.87,2.93-3.2,4.64a1.5,1.5,0,0,1-2.43.87,44,44,0,0,0-5.69-4,1.51,1.51,0,0,1-.75-1.12c-.37-3-1.08-8.17-1.42-9.29-.07-.24-.14-.5-.22-.76-.41-1.43-.87-3-1.84-3.88a4.48,4.48,0,0,0-1.63-.82Z"/><path class="cls-2" d="M733.59,330.11l-7,23.55s9.18,6.9,33.56,0l-5.5-29.52Z"/><path d="M740.61,358.23c-10.27,0-14.66-3.17-14.92-3.37a1.49,1.49,0,0,1-.54-1.63l7-23.55a1.51,1.51,0,0,1,1-1l21.06-6a1.53,1.53,0,0,1,1.2.17,1.47,1.47,0,0,1,.68,1l5.5,29.51a1.51,1.51,0,0,1-1.06,1.72A73.66,73.66,0,0,1,740.61,358.23ZM728.36,353c2.69,1.32,11.79,4.53,30.06-.37L753.48,326l-18.69,5.28Z"/><path class="cls-9" d="M779.63,205.41l16.61-1.76s71.83,83.63,8,183.54l20.08,81.21a6.13,6.13,0,0,1-4,7.3c-11.39,3.76-38.41,11.71-56.56,9.23l-5.29-140.4,8.25,4S805.45,311.76,779.63,205.41Z"/><path d="M771.2,486.9a57,57,0,0,1-7.66-.48,1.51,1.51,0,0,1-1.3-1.43L757,344.58a1.51,1.51,0,0,1,.68-1.31,1.49,1.49,0,0,1,1.47-.09l7.27,3.51c2.31-2.59,9.86-12.06,15.12-30.54,5.78-20.31,9.9-55.95-3.32-110.39a1.51,1.51,0,0,1,.23-1.22,1.53,1.53,0,0,1,1.07-.63l16.61-1.75a1.5,1.5,0,0,1,1.3.51c.18.21,18.28,21.54,28.23,54.85,9.16,30.67,13.14,78.05-19.76,129.93L825.78,468a7.67,7.67,0,0,1-5,9.09C811.18,480.29,789,486.9,771.2,486.9Zm-6-3.3c17.92,1.93,44.06-5.83,54.64-9.32a4.66,4.66,0,0,0,3-5.52l-20.09-81.21a1.55,1.55,0,0,1,.2-1.17c32.66-51.13,28.77-97.83,19.76-128-8.86-29.63-24.2-49.52-27.15-53.16l-14.1,1.5c12.93,54.32,8.68,90.06,2.8,110.54-6.5,22.61-16.15,32-16.55,32.34a1.49,1.49,0,0,1-1.69.26l-6-2.9Z"/><path class="cls-9" d="M719.43,349.63c-32.69-51.83-40.5-124.47-40.5-124.47l-14.48-2.74c-31.84,122.11,19.11,159.72,19.11,159.72l-12.33,87.07A11.86,11.86,0,0,0,678.86,482c16.18,6.06,33.73,3.73,33.73,3.73,2.08-70.35,16.58-139.6,16.58-139.6Z"/><path d="M704.15,487.65a75.36,75.36,0,0,1-25.82-4.28A13.29,13.29,0,0,1,669.75,469L682,382.78c-2.87-2.4-13.57-12.43-21.3-34.21-8.06-22.7-14.19-63.09,2.35-126.53a1.5,1.5,0,0,1,1.73-1.1l14.48,2.75a1.49,1.49,0,0,1,1.21,1.31c.08.72,8.05,71.94,39.64,122.8l8.6-3.12a1.51,1.51,0,0,1,2,1.72c-.14.69-14.5,69.93-16.55,139.34a1.52,1.52,0,0,1-1.31,1.44A70.75,70.75,0,0,1,704.15,487.65Zm-38.6-263.5c-15.92,61.93-9.93,101.27-2.07,123.42,8.5,24,20.85,33.27,21,33.37a1.49,1.49,0,0,1,.59,1.41l-12.32,87.07a10.32,10.32,0,0,0,6.66,11.14c13.18,4.93,27.48,4.15,31.75,3.78,2-61.59,13.43-122.69,16-135.93L719.94,351a1.5,1.5,0,0,1-1.78-.61c-30.3-48-39.43-114.62-40.59-124Z"/><path d="M772.39,480.76a1.5,1.5,0,0,1-1.5-1.42l-6.57-125a1.5,1.5,0,0,1,3-.16l6.56,125a1.49,1.49,0,0,1-1.41,1.57Z"/><path d="M704.92,481.54h-.09a1.5,1.5,0,0,1-1.41-1.58c3.89-69.37,14.05-121.62,14.16-122.14a1.5,1.5,0,0,1,2.94.58c-.1.52-10.23,52.58-14.11,121.72A1.49,1.49,0,0,1,704.92,481.54Z"/><path d="M748.29,282.62c7.53,2.1,7.1,8.42,18.32,13.52,4.94,2.24,7.55,2.16,9.78,5.22,3.91,5.34,1.39,13,1.15,13.73-1.51,4.41-3.49,4.42-10,12.14s-7.6,11.32-10.63,11.17c-3.56-.18-4.11-5.26-8-5.75-5-.64-7.37,7.46-13.08,8.82-3.93.94-11.65-1.23-20.82-12.86,1.61-1.92,4.59-6,7.84-9.44,10.18-10.78,16-11.75,15.71-15.76-.4-6.15-11.29-7.3-11.14-12.15S739.15,280.08,748.29,282.62Z"/><path class="cls-2" d="M757.13,310.83l-4.3,1s-8.53,11.42-12.3,14.82-15.18-7.49-15.18-7.49l.28-3-3.1-3.08s12.5-7.4,18.79-15.73A21.62,21.62,0,0,1,757.13,310.83Z"/><path d="M758.46,311.53a31,31,0,0,1-5.3,1.74l.87-.57c-1.88,2.5-3.78,4.95-5.73,7.39a91,91,0,0,1-6.22,7.14l-.45.43c-.06.06-.19.16-.32.26l-.38.27a4.25,4.25,0,0,1-1.69.55,7.07,7.07,0,0,1-2.91-.35,19.88,19.88,0,0,1-4.5-2.23,54.71,54.71,0,0,1-7.51-5.93,1.47,1.47,0,0,1-.47-1.2v0l.28-3h0l.43,1.21-2.78-3.41h0l0-.07a1.07,1.07,0,0,1,.15-1.5l.11-.07c1.69-1.07,3.37-2.24,5-3.43s3.23-2.45,4.79-3.74a51.72,51.72,0,0,0,8.32-8.56h0l0,0a1.44,1.44,0,0,1,1.38-.53,20.44,20.44,0,0,1,2.88.77,26,26,0,0,1,2.67,1.12,22.31,22.31,0,0,1,4.82,3.17,21.62,21.62,0,0,1,3.89,4.27,22.82,22.82,0,0,1,1.51,2.46,7.56,7.56,0,0,1,.76,1.8A11.22,11.22,0,0,1,758.46,311.53Zm-2.65-1.4a8.34,8.34,0,0,0-.73-.41c-.18-.13-.14-.19-.41-.64a18.68,18.68,0,0,0-1.33-2.14,18.91,18.91,0,0,0-3.37-3.72,19.74,19.74,0,0,0-4.21-2.76,21.42,21.42,0,0,0-2.32-1,16.83,16.83,0,0,0-2.34-.64l1.42-.58h0A54.51,54.51,0,0,1,733.4,307q-2.48,1.9-5.06,3.66c-1.72,1.16-3.46,2.27-5.28,3.33l.21-1.64h0l3.42,2.76a1.23,1.23,0,0,1,.45,1.06v.15h0l-.29,3-.45-1.23a52.29,52.29,0,0,0,7.05,5.57,17.24,17.24,0,0,0,3.79,1.9,4.16,4.16,0,0,0,1.65.23,1.49,1.49,0,0,0,.51-.14.27.27,0,0,1,.08-.07.59.59,0,0,0,.14-.11l.38-.37a86.84,86.84,0,0,0,6-6.86q2.89-3.6,5.66-7.3a1.51,1.51,0,0,1,.85-.56h0A12.19,12.19,0,0,1,755.81,310.13Z"/><path class="cls-2" d="M749.81,321.25s7.57-6.12,9.63-2.09S753,329.73,749.81,321.25Z"/></g></g></g></svg>
