<svg width="298" height="324" viewBox="0 0 298 324" fill="none" xmlns="http://www.w3.org/2000/svg">
<path d="M0 24.1804L48.2581 0L96.5161 24.1804L48.2581 48.1786L0 24.1804Z" transform="translate(201 59.1138)" fill="#F9F9F9"/>
<path d="M0 74.1625V24.0893L47.9869 0V50.3439L0 74.1625Z" transform="translate(249.348 83.2942)" fill="#F2F6F6"/>
<path d="M0 84.9892V24.0893L47.9869 0V61.1706L0 84.9892Z" transform="translate(249.348 83.5647)" fill="#F2F6F6"/>
<path d="M0 84.9892V24.0893L47.9869 0V61.1706L0 84.9892Z" transform="translate(249.348 83.5647) scale(-1 1)" fill="#E9F7FF"/>
<path d="M0 15.6872L31.5 0L63 15.6872L31.5 31.2562L0 15.6872Z" transform="translate(31 125)" fill="#F9F9F9"/>
<path d="M0 48.1134V15.6281L31.323 0V32.6609L0 48.1134Z" transform="translate(62.5586 140.687)" fill="#F2F6F6"/>
<path d="M0 55.1373V15.6281L31.323 0V39.6848L0 55.1373Z" transform="translate(62.5586 140.863)" fill="#F2F6F6"/>
<path d="M0 55.1373V15.6281L31.323 0V39.6848L0 55.1373Z" transform="translate(62.5586 140.863) scale(-1 1)" fill="#E9F7FF"/>
<path d="M0 24.1804L48.2581 0L96.5161 24.1804L48.2581 48.1786L0 24.1804Z" transform="translate(100.719 214.56)" fill="#F9F9F9"/>
<path d="M0 74.1625V24.0893L47.9869 0V50.3439L0 74.1625Z" transform="translate(149.066 238.74)" fill="#F2F6F6"/>
<path d="M0 84.9892V24.0893L47.9869 0V61.1706L0 84.9892Z" transform="translate(149.066 239.011)" fill="#F2F6F6"/>
<path d="M0 84.9892V24.0893L47.9869 0V61.1706L0 84.9892Z" transform="translate(149.066 239.011) scale(-1 1)" fill="#E0F2FF"/>
<path d="M0 24.1804L48.2581 0L96.5161 24.1804L48.2581 48.1786L0 24.1804Z" fill="#F9F9F9"/>
<path d="M0 74.1625V24.0893L47.9869 0V50.3439L0 74.1625Z" transform="translate(48.3477 24.1804)" fill="#F2F6F6"/>
<path d="M0 84.9892V24.0893L47.9869 0V61.1706L0 84.9892Z" transform="translate(48.3477 24.451)" fill="#F2F6F6"/>
<path d="M0 84.9892V24.0893L47.9869 0V61.1706L0 84.9892Z" transform="translate(48.3477 24.451) scale(-1 1)" fill="#E9F7FF"/>
</svg>
