<?xml version="1.0" encoding="utf-8"?>
<!-- Generator: Adobe Illustrator 22.1.0, SVG Export Plug-In . SVG Version: 6.00 Build 0)  -->
<svg version="1.1" id="Capa_1" xmlns="http://www.w3.org/2000/svg" xmlns:xlink="http://www.w3.org/1999/xlink" x="0px" y="0px"
	 viewBox="0 0 612 792" style="enable-background:new 0 0 612 792;" xml:space="preserve">
<style type="text/css">
	.st0{fill: none;}
</style>
<g>
	<path class="st0" d="M87.3,620.6c0-149.4,0-298.7,0-448.1c149.4,0,298.7,0,448.1,0c0,149.4,0,298.7,0,448.1
		C386,620.6,236.6,620.6,87.3,620.6z M332.1,370.6c-0.3-4.4-0.6-8.6-0.9-12.8c-0.1-2.2,2-4.2,3-4.3c3.3-0.3,6.9-1.5,9.9,1.4
		c0.5,0.4,1.2,0.9,1.8,0.9c2.5-0.3,3.6,1.5,4.9,2.9c1.1,1.1,2.1,2.3,3.2,3.5c9.2,10.1,18.5,20.3,27.7,30.4c0.7,0.8,0.9,1.5,0.4,2.5
		c-1.1,2.2-1.1,4.5,0,6.7c0.6,1.1,0.3,1.7-0.4,2.5c-9.9,10.5-19.8,21.1-29.6,31.7c-1.1,1.2-2.1,2.1-4,1.8c-0.8-0.1-2.1,0.4-2.6,1
		c-1.1,1.5-2.6,1.5-4.1,1.5c-1.2,0-2.4,0-3.6,0.2c-2,0.2-4.3-1.8-4.3-3.8c0-3.3,0-6.6,0-9.8c0-1.3,0.3-2,1.5-2.6
		c3.3-1.5,4.9-4.8,4.4-8.3c-0.5-3.3-3.2-6-6.5-6.6c-3.5-0.6-6.8,1.1-8.5,4.4c-0.5,1.1-1.2,1.5-2.4,1.5c-9.4-0.1-18.8,0-28.2,0
		c-1.1,0-1.8-0.2-2.4-1.4c-1.9-3.5-5.9-5-9.5-3.7c-3.7,1.4-5.8,5-5.2,8.9c0.7,3.8,3.9,6.6,7.9,6.5c1.4,0,2.1,0.4,2.8,1.6
		c11.6,19.4,23.1,38.8,34.8,58.1c0.8,1.4,0.9,2.3,0,3.8c-1.9,3-1.4,6.6,0.9,9.1c2.3,2.5,5.7,3.4,8.8,2.2c3.2-1.3,5.3-4.2,5.1-7.7
		c-0.1-1.8,0.7-2.3,1.9-3c14.1-8,28.2-16,42.4-24c0.8-0.5,1.9-0.7,2.9-0.7c2.2,0.1,3.7-0.8,4.7-2.7c0.4-0.8,1.1-1.5,1.9-2
		c6.1-3.5,12.2-6.9,18.2-10.4c1.1-0.6,1.8-0.8,3-0.2c2.8,1.5,6-0.4,6.2-3.5c0.1-1.3,0.5-1.8,1.5-2.4c16.1-9.1,32.2-18.2,48.2-27.3
		c1.1-0.6,2-0.7,3.2,0c3.2,2,6.9,1.6,9.5-0.9c2.7-2.5,3.2-5.9,1.7-9.4c-0.4-0.9-0.5-2-0.2-2.9c2.5-7.2,0-13.7-6.7-17.4
		c-1.9-1-3.8-2-5.6-3.2c-0.7-0.5-1.4-1.5-1.5-2.4c-0.5-3.3-2.6-4.9-5.8-4.2c-0.8,0.2-1.8,0.1-2.5-0.3c-11.1-6.4-22.2-12.8-33.3-19.3
		c-0.6-0.4-1.1-1.1-1.3-1.8c-0.8-2.9-2.9-4.1-5.8-3.5c-0.9,0.2-2,0-2.8-0.4c-7.5-4.2-14.9-8.5-22.2-12.8c-0.6-0.4-1.2-1.2-1.4-2
		c-0.6-3-3-4.5-6-3.7c-0.9,0.2-2.2,0.1-3-0.3c-14.3-8.2-28.6-16.5-43-24.8c-1.6-0.9-2.5-1.8-2.6-3.8c-0.2-3.2-2.1-5.5-5.2-6.7
		c-3-1.1-5.8-0.5-8.1,1.7c-2.3,2.2-3.2,5-2.1,7.9c0.7,1.9,0.2,3.2-0.7,4.7c-11.5,19.2-22.9,38.4-34.3,57.6c-0.8,1.4-1.7,2-3.5,1.9
		c-3.9-0.2-7.2,2.7-7.9,6.5c-0.7,3.7,1.6,7.5,5.2,8.8c3.6,1.3,7.6-0.2,9.4-3.6c0.7-1.3,1.5-1.7,2.9-1.7c8.9,0.1,17.8,0.1,26.6,0
		c1.5,0,2.4,0.3,3.1,1.8c1.4,2.9,3.9,4.2,7.1,4.1c3.1-0.1,5.4-1.5,6.8-4.3C340.4,377.4,338.1,372.8,332.1,370.6z M198.3,286.2
		c16,3.6,31.7,7.2,47.4,10.8c1.5,0.3,3,0.6,3.8,2.3c0.3,0.7,1.4,0.9,2.2,1.4c1,0.7,2.1,1.2,2.9,2.1c0.8,0.8,1.4,1.9,2.1,2.9
		c1.3,1.7,0.6,5.6-1.3,6.9c-3.2,2.2-6.5,4.3-9.6,6.5c-1.3,0.9-2.3,1.1-3.8,0.3c-3-1.6-6.4-0.9-8.7,1.3c-2.4,2.4-3.1,5.2-2.1,8.4
		c1.1,3.2,3.9,5.4,7.3,5.3c1.7,0,2.5,0.6,3.3,1.9c3.9,6.6,7.9,13.2,11.9,19.7c1,1.6,1,2.7,0.2,4.4c-2,3.9-0.1,8.7,3.9,10.5
		c4,1.8,8.7,0,10.5-4.1c1.5-3.5,0.5-6.5-1.9-9.2c0.1-0.3,0.2-0.5,0.3-0.7c11.6-20.1,23.2-40.1,34.8-60.2c0.7-1.2,1.4-1.2,2.5-1.1
		c3.9,0.4,7-1.5,8.4-4.9c1.3-3.2,0.3-6.9-2.4-9.1c-2.7-2.2-6.5-2.4-9.6-0.2c-1.1,0.8-1.7,0.6-2.7,0c-14-8.2-27.9-16.3-41.9-24.4
		c-0.6-0.4-1.2-1.3-1.4-2c-0.8-2.8-3-4.1-5.8-3.4c-0.8,0.2-1.8,0.2-2.4-0.2c-4.8-2.7-9.6-5.5-14.3-8.3c-0.7-0.4-1.4-1.3-1.6-2.1
		c-0.9-2.6-2.8-3.7-5.5-3.3c-0.9,0.2-2.1,0.1-2.9-0.4c-16.8-9.7-33.6-19.6-50.4-29.3c-1.5-0.8-1.8-1.7-1.8-3.3c0-3.3-1.7-5.7-4.7-7
		c-3-1.3-6-1-8.3,1.3c-1.6,1.6-3.2,1.8-5.2,1.6c-3.1-0.3-5.9,0.5-8.3,2.5c-3.8,3.1-5.4,7.2-5.2,12c0.1,1.7,0.1,3.2-1.7,4.4
		c-2.2,1.4-2,4.3-0.3,6.3c0.7,0.8,1.2,2,1.2,3.1c0.1,6.9,0.1,13.9,0,20.8c0,1-0.5,2.1-1.1,2.9c-1.5,2-1.5,4-0.1,6
		c0.6,0.8,1.1,1.9,1.1,2.9c0.1,15.1,0.1,30.3,0,45.4c0,0.9-0.5,2-1.1,2.6c-2,2.1-2,4.6,0,6.7c0.6,0.6,1.2,1.6,1.2,2.4
		c0.1,18.7,0.1,37.4,0,56.2c0,0.8-0.6,2-1.3,2.4c-3.1,2.1-4.7,5.4-3.8,8.8c0.9,3.4,3.8,5.9,7.2,6.1c3.7,0.2,6.8-1.8,8-5.5
		c0.4-1.3,0.9-1.7,2.3-1.7c22.6,0,45.2,0,67.8,0.1c0.7,0,1.8,0.7,2.1,1.3c2.1,3.8,6,5.5,9.8,4.2c3.7-1.3,6-5,5.4-8.8
		c-0.6-4-4-6.7-8.3-6.6c-1.2,0-1.8-0.3-2.5-1.3c-4.4-7.5-8.9-15-13.3-22.5c-0.3-0.5-0.2-1.5,0.2-2.1c2.1-3.3,2.2-7,0.1-9.8
		c-2-2.7-5.7-3.8-8.8-2.7c-3.6,1.2-5.5,4.2-5.4,8.4c0,0.8-0.5,1.9-1.1,2.3c-3,2-6,3.9-9.1,5.7c-0.6,0.4-1.6,0.2-2.4,0.2
		c-2.3,0-3.4-1.6-4.3-3.3c-1.4-2.6-4-4.7-2.6-8.2c0.2-0.4,0-1.2-0.3-1.5c-1.9-1.9-0.9-3.8-0.3-5.8c0.6-1.9,1.2-3.8,1.8-5.8
		c3.5-11.7,7-23.4,10.6-35c0.2-0.6,0.9-1.6,1.3-1.6C194.2,292.1,196.8,290,198.3,286.2z M188.4,505.1c-0.3-0.8-0.5-1.5-0.7-2.2
		c-3.6-13.4-7.1-26.7-10.7-40.1c-0.5-1.7-1.1-3.4,0.3-5c0.4-0.5,0.5-1.6,0.3-2.1c-0.9-2.2,0.2-3.7,1.4-5.3c1.2-1.7,2.3-3.5,3.6-5.2
		c0.4-0.6,1-1.2,1.6-1.4c2.7-0.6,5.3-1.1,7.5,1.5c0.8,0.9,2.2,1.4,3,2.3c0.6,0.7,1.1,1.7,1.1,2.6c0,3.5,1.7,6.4,4.8,7.7
		c3,1.2,6.2,0.6,8.4-1.7c2.4-2.4,2.8-5.3,1.1-8.6c-0.6-1.2-0.6-2.1,0-3.3c4.1-7.4,8.1-14.8,12.1-22.2c0.7-1.4,1.4-2.1,3.2-2.2
		c3.7-0.1,6.7-3.2,7.2-6.8c0.4-3.6-2-6.9-5.7-8.1c-3.3-1-7,0.4-8.6,3.8c-0.8,1.6-1.8,1.7-3.2,1.7c-22.1,0-44.2,0-66.2,0
		c-1.6,0-2.5-0.3-3.3-1.9c-1.3-2.8-4.8-4.4-7.7-3.9c-3.2,0.6-5.8,3-6.5,6.3c-0.6,2.7,0.9,6.2,3.5,7.7c1.4,0.8,1.8,1.6,1.8,3.2
		c-0.1,16.6,0,33.3-0.1,49.9c0,1-0.4,2-0.9,2.8c-1.1,1.8-1.2,3.4,0,5.2c0.5,0.8,0.9,1.9,0.9,2.8c0.1,7.1,0.1,14.2,0,21.3
		c0,1-0.5,2.1-1.1,2.9c-1.5,2-1.5,3.7,0,5.7c0.6,0.8,1.1,1.8,1.1,2.7c0.1,17.5,0,34.9,0.1,52.4c0,1.2-0.3,1.9-1.5,2.4
		c-3.2,1.3-4.9,3.8-4.8,7.1c0.1,3.3,1.9,5.5,5,6.8c0.6,0.3,1.1,1.1,1.5,1.8c1.5,2.3,2.5,5,4.4,6.9c4.9,4.8,11.7,4.5,16.9,1.4
		c3.3-1.9,6.6-3.8,9.9-5.6c0.6-0.3,1.4-0.4,2-0.2c2.9,0.7,4.7-0.4,5.6-3.2c0.2-0.7,0.7-1.5,1.3-1.8c8.5-5,17.1-9.9,25.6-14.7
		c0.5-0.3,1.2-0.4,1.8-0.3c2.4,0.3,3.7-0.4,4.9-2.5c0.4-0.8,1-1.7,1.8-2.2c10.4-6.1,20.8-12.2,31.3-18.1c1-0.6,2.5-0.7,3.7-0.6
		c2.4,0.2,3.9-0.8,4.8-3.1c0.3-0.8,0.9-1.7,1.6-2.2c4.1-2.5,8.3-4.9,12.5-7.3c10.1-5.9,20.3-11.7,30.4-17.7c1.8-1.1,3.1-1.6,5.2-0.4
		c2.8,1.7,5.9,1.1,8.2-1.1c2.3-2.2,3.1-5.4,1.9-8.4c-1.1-2.9-4-5.2-6.9-4.7c-2.5,0.4-3.3-1-4.2-2.6c-10.9-18.9-21.7-37.9-32.7-56.8
		c-0.9-1.6-1.1-2.8-0.1-4.4c1.8-3.2,1.1-6.5-1.5-9c-2.5-2.4-5.9-2.8-9.1-1c-3.5,2-4.6,6.4-2.8,10.3c0.4,0.8,0.7,2.1,0.3,2.8
		c-4.4,7.7-8.9,15.3-13.4,23c-0.5,0.9-1,1.6-2.4,1.4c-3.8-0.4-6.9,1.6-8.2,4.9c-1.2,3-0.2,6.5,2.4,8.6c2.8,2.3,6.2,2.2,9.5,0
		c0.6-0.4,1.9-0.5,2.5-0.2c3.5,1.7,6.9,3.6,10.3,5.5c1.3,0.7,2.7,3.9,2,5c-2.3,3.3-2.6,8.3-7.5,9.5c-0.4,0.1-0.7,0.5-1.1,0.8
		c-1.1,0.6-2.1,1.4-3.2,1.7c-7.4,2-14.8,3.8-22.3,5.7c-6.8,1.7-13.7,3.5-20.6,5.2c-1,0.2-2,0.9-2.9-0.6
		C196.3,504.6,194.2,503.8,188.4,505.1z"/>
	<path d="M332.1,370.6c6,2.2,8.3,6.8,5.9,11.6c-1.4,2.8-3.7,4.2-6.8,4.3c-3.2,0.1-5.7-1.3-7.1-4.1c-0.7-1.5-1.6-1.8-3.1-1.8
		c-8.9,0.1-17.8,0.1-26.6,0c-1.4,0-2.2,0.4-2.9,1.7c-1.8,3.4-5.8,4.8-9.4,3.6c-3.7-1.3-5.9-5.1-5.2-8.8c0.7-3.9,4-6.8,7.9-6.5
		c1.8,0.1,2.6-0.5,3.5-1.9c11.4-19.2,22.9-38.4,34.3-57.6c0.9-1.5,1.4-2.8,0.7-4.7c-1.1-3-0.2-5.8,2.1-7.9c2.3-2.2,5.1-2.8,8.1-1.7
		c3.1,1.1,5,3.4,5.2,6.7c0.1,2.1,1,2.9,2.6,3.8c14.4,8.2,28.6,16.5,43,24.8c0.8,0.5,2.1,0.6,3,0.3c2.9-0.8,5.4,0.7,6,3.7
		c0.1,0.7,0.7,1.6,1.4,2c7.4,4.3,14.8,8.6,22.2,12.8c0.8,0.4,1.9,0.6,2.8,0.4c2.9-0.6,5,0.6,5.8,3.5c0.2,0.7,0.7,1.5,1.3,1.8
		c11.1,6.5,22.1,12.9,33.3,19.3c0.7,0.4,1.7,0.4,2.5,0.3c3.2-0.6,5.3,0.9,5.8,4.2c0.1,0.9,0.8,1.9,1.5,2.4c1.8,1.2,3.7,2.2,5.6,3.2
		c6.8,3.7,9.2,10.1,6.7,17.4c-0.3,0.9-0.2,2,0.2,2.9c1.5,3.5,0.9,6.9-1.7,9.4c-2.6,2.4-6.2,2.9-9.5,0.9c-1.2-0.8-2.1-0.7-3.2,0
		c-16.1,9.1-32.1,18.2-48.2,27.3c-1,0.6-1.5,1.1-1.5,2.4c-0.2,3.1-3.4,5-6.2,3.5c-1.2-0.7-1.9-0.4-3,0.2
		c-6.1,3.5-12.2,6.9-18.2,10.4c-0.8,0.4-1.4,1.2-1.9,2c-1.1,1.9-2.5,2.8-4.7,2.7c-1,0-2.1,0.2-2.9,0.7c-14.1,8-28.3,16-42.4,24
		c-1.2,0.7-2.1,1.2-1.9,3c0.3,3.5-1.8,6.4-5.1,7.7c-3,1.2-6.5,0.3-8.8-2.2c-2.3-2.5-2.7-6.1-0.9-9.1c0.9-1.4,0.8-2.4,0-3.8
		c-11.6-19.3-23.2-38.7-34.8-58.1c-0.7-1.2-1.4-1.6-2.8-1.6c-4,0.1-7.3-2.7-7.9-6.5c-0.7-3.8,1.5-7.5,5.2-8.9
		c3.6-1.3,7.7,0.2,9.5,3.7c0.6,1.1,1.3,1.4,2.4,1.4c9.4,0,18.8,0,28.2,0c1.2,0,1.8-0.3,2.4-1.5c1.6-3.3,5-5,8.5-4.4
		c3.3,0.6,6,3.3,6.5,6.6c0.5,3.5-1.1,6.7-4.4,8.3c-1.2,0.6-1.6,1.3-1.5,2.6c0.1,3.3,0,6.6,0,9.8c0,2,2.4,4,4.3,3.8
		c1.2-0.1,2.4-0.2,3.6-0.2c1.6,0,3,0,4.1-1.5c0.5-0.6,1.8-1.1,2.6-1c1.9,0.3,2.8-0.6,4-1.8c9.8-10.6,19.7-21.2,29.6-31.7
		c0.8-0.8,1-1.4,0.4-2.5c-1.2-2.2-1.2-4.5,0-6.7c0.5-1.1,0.4-1.7-0.4-2.5c-9.3-10.1-18.5-20.3-27.7-30.4c-1.1-1.2-2.1-2.3-3.2-3.5
		c-1.3-1.4-2.4-3.2-4.9-2.9c-0.5,0.1-1.3-0.4-1.8-0.9c-2.9-2.9-6.6-1.7-9.9-1.4c-1.1,0.1-3.2,2.1-3,4.3
		C331.5,362,331.8,366.3,332.1,370.6z"/>
	<path d="M198.3,286.2c-1.5,3.8-4.1,5.9-8.2,5.9c-0.5,0-1.1,1-1.3,1.6c-3.6,11.7-7.1,23.4-10.6,35c-0.6,1.9-1.2,3.8-1.8,5.8
		c-0.6,2-1.6,3.9,0.3,5.8c0.3,0.3,0.4,1.1,0.3,1.5c-1.4,3.5,1.3,5.6,2.6,8.2c0.9,1.7,2,3.4,4.3,3.3c0.8,0,1.8,0.1,2.4-0.2
		c3.1-1.8,6.2-3.7,9.1-5.7c0.6-0.4,1.1-1.5,1.1-2.3c0-4.1,1.9-7.1,5.4-8.4c3.2-1.1,6.8,0,8.8,2.7c2.1,2.8,2.1,6.5-0.1,9.8
		c-0.3,0.5-0.5,1.6-0.2,2.1c4.4,7.5,8.9,15,13.3,22.5c0.6,1.1,1.3,1.4,2.5,1.3c4.3-0.1,7.6,2.7,8.3,6.6c0.6,3.8-1.6,7.5-5.4,8.8
		c-3.8,1.3-7.7-0.5-9.8-4.2c-0.4-0.6-1.4-1.3-2.1-1.3c-22.6-0.1-45.2,0-67.8-0.1c-1.4,0-1.9,0.5-2.3,1.7c-1.2,3.6-4.4,5.7-8,5.5
		c-3.4-0.2-6.3-2.7-7.2-6.1c-0.9-3.4,0.7-6.7,3.8-8.8c0.7-0.5,1.3-1.6,1.3-2.4c0.1-18.7,0.1-37.4,0-56.2c0-0.8-0.6-1.8-1.2-2.4
		c-2-2.1-2-4.6,0-6.7c0.6-0.7,1.1-1.7,1.1-2.6c0.1-15.1,0.1-30.3,0-45.4c0-1-0.5-2.1-1.1-2.9c-1.4-1.9-1.4-4,0.1-6
		c0.6-0.8,1.1-1.9,1.1-2.9c0.1-6.9,0.1-13.9,0-20.8c0-1-0.6-2.2-1.2-3.1c-1.7-2-1.8-4.9,0.3-6.3c1.8-1.2,1.8-2.7,1.7-4.4
		c-0.2-4.9,1.5-8.9,5.2-12c2.4-2,5.2-2.8,8.3-2.5c2,0.2,3.6,0,5.2-1.6c2.3-2.3,5.3-2.6,8.3-1.3c3,1.3,4.7,3.7,4.7,7
		c0,1.6,0.4,2.4,1.8,3.3c16.8,9.7,33.6,19.6,50.4,29.3c0.8,0.5,2,0.5,2.9,0.4c2.7-0.5,4.6,0.7,5.5,3.3c0.3,0.8,0.9,1.7,1.6,2.1
		c4.7,2.9,9.5,5.6,14.3,8.3c0.7,0.4,1.7,0.4,2.4,0.2c2.8-0.7,5,0.5,5.8,3.4c0.2,0.8,0.8,1.6,1.4,2c13.9,8.2,27.9,16.3,41.9,24.4
		c1,0.6,1.6,0.7,2.7,0c3.1-2.2,6.9-2,9.6,0.2c2.7,2.2,3.7,6,2.4,9.1c-1.4,3.4-4.5,5.3-8.4,4.9c-1.1-0.1-1.9-0.1-2.5,1.1
		c-11.6,20.1-23.2,40.1-34.8,60.2c-0.1,0.2-0.2,0.4-0.3,0.7c2.3,2.7,3.4,5.7,1.9,9.2c-1.8,4.1-6.4,5.9-10.5,4.1
		c-4-1.8-5.9-6.5-3.9-10.5c0.9-1.7,0.8-2.8-0.2-4.4c-4.1-6.5-8-13.1-11.9-19.7c-0.8-1.3-1.6-2-3.3-1.9c-3.4,0.1-6.2-2.1-7.3-5.3
		c-1.1-3.2-0.4-6,2.1-8.4c2.3-2.3,5.7-2.9,8.7-1.3c1.5,0.8,2.5,0.6,3.8-0.3c3.2-2.3,6.4-4.4,9.6-6.5c1.8-1.2,2.5-5.1,1.3-6.9
		c-0.7-1-1.3-2-2.1-2.9c-0.8-0.8-1.9-1.4-2.9-2.1c-0.7-0.5-1.9-0.7-2.2-1.4c-0.8-1.7-2.3-1.9-3.8-2.3
		C230,293.4,214.3,289.8,198.3,286.2z"/>
	<path d="M188.4,505.1c5.8-1.3,7.9-0.5,10.6,4.3c0.8,1.5,1.9,0.8,2.9,0.6c6.9-1.7,13.7-3.4,20.6-5.2c7.4-1.9,14.9-3.7,22.3-5.7
		c1.1-0.3,2.2-1.1,3.2-1.7c0.4-0.2,0.7-0.7,1.1-0.8c5-1.2,5.2-6.2,7.5-9.5c0.8-1.1-0.7-4.3-2-5c-3.4-1.9-6.8-3.7-10.3-5.5
		c-0.7-0.3-1.9-0.2-2.5,0.2c-3.4,2.2-6.7,2.2-9.5,0c-2.6-2.1-3.5-5.6-2.4-8.6c1.3-3.3,4.4-5.3,8.2-4.9c1.4,0.2,1.9-0.5,2.4-1.4
		c4.5-7.6,9-15.3,13.4-23c0.4-0.7,0.1-2-0.3-2.8c-1.9-3.9-0.8-8.3,2.8-10.3c3.1-1.8,6.5-1.4,9.1,1c2.6,2.5,3.3,5.8,1.5,9
		c-1,1.7-0.8,2.8,0.1,4.4c10.9,18.9,21.8,37.8,32.7,56.8c0.9,1.6,1.7,3,4.2,2.6c2.9-0.5,5.7,1.8,6.9,4.7c1.2,3,0.4,6.2-1.9,8.4
		c-2.3,2.2-5.4,2.9-8.2,1.1c-2-1.3-3.3-0.7-5.2,0.4c-10.1,6-20.3,11.8-30.4,17.7c-4.2,2.4-8.4,4.8-12.5,7.3
		c-0.7,0.4-1.3,1.4-1.6,2.2c-0.9,2.3-2.5,3.2-4.8,3.1c-1.2-0.1-2.7,0.1-3.7,0.6c-10.5,6-20.9,12-31.3,18.1c-0.8,0.4-1.3,1.3-1.8,2.2
		c-1.1,2.2-2.5,2.9-4.9,2.5c-0.6-0.1-1.3,0-1.8,0.3c-8.6,4.9-17.1,9.8-25.6,14.7c-0.6,0.4-1.1,1.1-1.3,1.8c-0.9,2.8-2.8,3.9-5.6,3.2
		c-0.6-0.1-1.5-0.1-2,0.2c-3.3,1.8-6.6,3.6-9.9,5.6c-5.2,3.1-11.9,3.5-16.9-1.4c-1.9-1.8-2.9-4.6-4.4-6.9c-0.4-0.7-0.9-1.5-1.5-1.8
		c-3.1-1.3-4.9-3.6-5-6.8c-0.1-3.4,1.6-5.9,4.8-7.1c1.2-0.5,1.5-1.2,1.5-2.4c0-17.5,0-34.9-0.1-52.4c0-0.9-0.5-1.9-1.1-2.7
		c-1.5-2-1.5-3.7,0-5.7c0.6-0.8,1.1-1.9,1.1-2.9c0.1-7.1,0.1-14.2,0-21.3c0-1-0.4-2-0.9-2.8c-1.1-1.8-1.1-3.4,0-5.2
		c0.5-0.8,0.9-1.9,0.9-2.8c0.1-16.6,0-33.3,0.1-49.9c0-1.5-0.5-2.4-1.8-3.2c-2.6-1.5-4.1-5-3.5-7.7c0.7-3.3,3.3-5.8,6.5-6.3
		c2.8-0.5,6.3,1.2,7.7,3.9c0.8,1.6,1.7,1.9,3.3,1.9c22.1,0,44.2,0,66.2,0c1.4,0,2.4-0.1,3.2-1.7c1.6-3.4,5.3-4.9,8.6-3.8
		c3.7,1.2,6.1,4.5,5.7,8.1c-0.4,3.6-3.5,6.7-7.2,6.8c-1.7,0.1-2.4,0.8-3.2,2.2c-4,7.4-8,14.8-12.1,22.2c-0.7,1.2-0.7,2.1,0,3.3
		c1.7,3.3,1.2,6.2-1.1,8.6c-2.2,2.3-5.5,3-8.4,1.7c-3.1-1.3-4.8-4.1-4.8-7.7c0-0.9-0.5-1.9-1.1-2.6c-0.9-0.9-2.2-1.4-3-2.3
		c-2.2-2.5-4.8-2.1-7.5-1.5c-0.6,0.1-1.2,0.8-1.6,1.4c-1.2,1.7-2.3,3.5-3.6,5.2c-1.1,1.6-2.3,3.1-1.4,5.3c0.2,0.6,0.1,1.7-0.3,2.1
		c-1.4,1.7-0.8,3.3-0.3,5c3.6,13.4,7.1,26.7,10.7,40.1C187.9,503.6,188.1,504.2,188.4,505.1z"/>
</g>
</svg>
