<svg width="48" height="63" viewBox="0 0 48 63" fill="none" xmlns="http://www.w3.org/2000/svg">
<path fill-rule="evenodd" clip-rule="evenodd" d="M26.7645 0C27.1167 0 27.4688 0.0735123 27.821 0.110268C28.3844 0.257293 28.9831 0.404317 29.5466 0.66161C29.8988 0.808635 30.1805 1.06593 30.5326 1.1762C30.9905 1.43349 31.3074 1.87456 31.7652 2.13186C32.0822 2.46266 32.3287 2.6832 32.6104 3.014C32.7513 3.19778 32.8922 3.38156 33.033 3.6021C33.1034 3.85939 33.3147 4.04317 33.3852 4.30047C33.4908 4.59452 33.6317 4.92532 33.6669 5.25613C33.7373 5.62369 33.843 6.028 33.843 6.39557C33.8078 9.33606 33.7373 12.3133 33.843 15.2538C33.9839 16.1359 33.9134 17.0181 34.1599 17.8635C34.2656 18.4883 34.3712 19.1499 34.6178 19.6645C35.0756 20.5099 35.4277 21.4288 35.9208 22.2742C36.2025 22.5683 36.4138 22.9358 36.6955 23.2666C37.2238 24.0753 37.6816 25.0309 38.2803 25.766C38.6324 26.5379 39.055 27.273 39.4776 28.0449C39.7946 29.0006 40.3228 29.9195 40.5341 30.9119C40.8511 32.0513 41.168 33.154 41.3441 34.4405C41.6963 36.4253 41.9428 38.4102 42.1893 40.4317C42.1893 41.5344 42.0484 42.6004 42.0836 43.703C41.978 44.0706 42.0484 44.4382 41.978 44.8057C41.8723 45.3203 41.5906 45.7981 41.485 46.276C41.5202 46.57 41.3793 46.8273 41.4497 47.1214C41.661 47.5992 41.6963 48.1505 41.8019 48.6651C41.978 48.7754 42.0836 49.0327 42.2949 49.1797C42.6471 49.1062 42.9993 49.29 43.3866 49.2165C43.8445 49.1062 44.3023 49.1062 44.7249 49.0327C45.2531 48.9592 45.7814 49.1429 46.2744 49.0694C46.6266 49.29 47.0139 49.4737 47.3309 49.6943C47.6126 49.8781 47.7183 50.2456 48 50.4294C47.8944 50.9072 48 51.4218 47.8943 51.8997C47.4013 52.598 47.0139 53.3331 46.5561 54.0315C45.7814 54.8401 45.1475 55.7958 44.4079 56.6412C43.4923 57.6336 42.6823 58.6628 41.7667 59.6552C40.675 60.3168 39.865 61.3092 38.8437 62.0443C38.3859 62.2649 37.9985 62.6324 37.5055 62.7427C37.0829 62.8897 36.6603 62.9632 36.2377 63C35.8855 63 35.4982 63 35.1108 63C34.7586 62.8897 34.3712 62.853 34.0543 62.7427C33.843 62.5957 33.5965 62.5589 33.3852 62.4487C32.9978 62.2281 32.7161 61.8606 32.3287 61.5665C32.2583 61.3092 32.0117 61.1254 31.8357 60.9049C31.6596 60.4638 31.4483 60.0228 31.3426 59.5449C31.3426 59.3244 31.2722 59.1039 31.237 58.8833C30.3214 58.9568 29.4057 58.9936 28.4901 59.0671C27.5393 59.0303 26.5884 58.9936 25.6376 59.0303C24.405 58.8466 23.1724 58.773 21.9398 58.5158C21.0594 58.2952 20.179 58.1114 19.3338 57.8174C18.6999 57.5233 17.9956 57.3028 17.3969 57.0088C17.2913 56.8617 17.08 56.825 17.0095 56.7147C16.6926 56.972 16.5165 57.3763 16.2348 57.6704C16.0235 58.2585 15.6361 58.773 15.3544 59.3244C15.2487 59.4714 15.0374 59.6184 15.0374 59.8022C14.7909 60.0228 14.5796 60.2433 14.3331 60.5006C13.8753 60.6844 13.4527 61.0152 12.9949 61.0519C12.854 61.199 12.5371 61.0519 12.4314 61.199C12.0088 61.3092 11.5862 61.0887 11.1636 61.1622C10.6706 60.9417 10.1071 60.7579 9.61409 60.5006C8.76889 59.986 7.9237 59.5082 7.04329 59.0303C5.31768 57.7071 3.62729 56.3471 1.97212 54.9137C1.44387 54.3623 0.915627 53.811 0.387381 53.2964C0.246515 52.8553 0.105649 52.451 1.04953e-09 52.0099C0.105649 51.6791 0.211299 51.4218 0.281731 51.091C0.422597 50.944 0.563463 50.7602 0.704329 50.6132C0.880411 50.2089 1.40866 50.2089 1.76082 50.0251C2.1482 49.8781 2.50037 49.9148 2.88775 49.8413C3.34556 49.8413 3.69773 49.584 4.08511 49.5105C4.12032 49.3635 4.22597 49.29 4.26119 49.1062C4.36684 48.5916 4.12032 48.077 4.15554 47.5624C4.26119 47.2684 4.36684 46.9743 4.47249 46.6803C4.54292 46.4597 4.78943 46.2392 4.96552 46.1289C5.10638 46.0922 5.1416 45.9452 5.31768 45.9452C5.66985 45.9084 6.12766 45.9084 6.44461 45.9452C6.79677 46.0922 7.14894 46.2024 7.5011 46.3495C7.67718 46.423 7.95891 46.3862 8.17021 46.3862C8.38151 46.2392 8.48716 45.9084 8.73368 45.7614C8.98019 45.1733 9.33235 44.5852 9.71974 44.1074C9.82538 44.0706 9.8606 43.9236 9.96625 43.9236C10.1423 43.8133 10.0719 43.556 10.0719 43.4825C9.89582 42.2695 10.0367 41.0566 10.0367 39.8804C10.1423 38.9247 10.2128 37.9323 10.3888 37.0134C10.5649 36.1313 10.7762 35.2859 10.9171 34.4037C11.2693 33.3746 11.6919 32.3086 12.0792 31.3162C13.9457 27.3466 16.0587 23.5239 18.0308 19.6278C18.383 19.0764 18.6647 18.4883 19.0169 17.937C19.0169 17.9002 19.0169 17.8635 19.0169 17.8267C18.9464 17.3121 19.193 16.7976 19.1225 16.283C19.1225 14.8495 19.1225 13.4527 19.1225 12.0193C19.0169 11.1371 19.1225 10.2182 19.0169 9.33606C19.0169 9.22579 18.9817 9.15228 18.9817 9.04201C18.9817 8.19662 18.9817 7.35123 18.9817 6.50583C19.0521 6.46908 19.0169 6.43232 19.0169 6.39557C18.9464 6.13827 19.1225 5.95449 19.0521 5.73396C19.193 5.43991 19.2282 5.1091 19.2986 4.81505C19.5803 4.1902 19.9325 3.6021 20.3903 3.12427C20.7777 2.6832 21.2355 2.35239 21.6581 1.94807C22.2216 1.47025 22.8907 1.10268 23.5598 0.735123C23.9824 0.588098 24.3698 0.330805 24.898 0.257293C25.4967 0.0735122 26.1306 0 26.7645 0Z" fill="black"/>
<path fill-rule="evenodd" clip-rule="evenodd" d="M3.64065 0.321616C3.92239 0.505397 4.1689 0.725933 4.48585 0.909714C4.73236 1.46106 4.48585 2.04915 4.52107 2.63725C4.27455 3.37237 4.09847 4.21777 3.39414 4.62208C2.97154 4.62208 2.54895 4.47506 2.16157 4.32803C2.51373 4.18101 3.04198 3.99723 3.21806 3.5194C3.42936 3.18859 3.53501 2.82103 3.53501 2.41672C3.49979 1.97564 3.42936 1.49781 3.14763 1.09349C2.90111 0.799445 2.61938 0.615665 2.30243 0.542153C1.73897 0.431884 1.31637 0.799446 1.06986 1.16701C0.928991 1.4243 0.788125 1.71835 0.752908 2.0124C0.647259 2.63725 0.858557 3.29886 1.14029 3.8502C0.893774 3.59291 0.43596 3.55615 0.295094 3.22535C-0.0922869 2.26969 -0.0922864 1.20376 0.259878 0.28486C1.3868 -0.0827011 2.58416 -0.119457 3.64065 0.321616Z" transform="translate(25.7656 9.30884)" fill="white"/>
<path fill-rule="evenodd" clip-rule="evenodd" d="M2.31548 0.0328073C2.52678 0.216588 2.87894 0.143076 3.09024 0.400369C3.44241 1.31927 3.47762 2.31169 3.26632 3.23059C3.01981 3.23059 2.77329 3.70842 2.66764 3.48788C2.94938 2.78952 2.94938 1.94413 2.562 1.24576C2.3507 0.95171 2.06896 0.657661 1.7168 0.657661C1.47029 0.767929 1.18855 0.804686 1.01247 1.06198C0.589875 1.57656 0.554659 2.27493 0.589876 2.89979C0.695525 3.52464 1.08291 4.07598 1.61115 4.33327C1.36464 4.4803 1.11812 4.59057 0.83639 4.66408C0.484225 4.22301 0.308143 3.67166 0.132061 3.15708C-0.0792375 2.3852 0.0264121 1.61332 0.0264121 0.841442C0.308143 0.510636 0.660308 0.2901 1.01247 0.106319C1.32942 -0.0774615 1.9281 0.0328073 2.31548 0.0328073Z" transform="translate(19.7295 9.56055)" fill="white"/>
<path fill-rule="evenodd" clip-rule="evenodd" d="M17.2979 0.0695932C17.6148 0.988496 17.7557 1.94416 18.0022 2.89982C18.2839 3.96574 18.7769 4.9214 19.1643 5.91382C19.5869 6.72245 19.9743 7.56784 20.3265 8.44999C20.3265 8.48675 20.3617 8.5235 20.3617 8.56026C21.1717 10.4348 21.9816 12.3094 22.8268 14.1839C23.3199 15.5807 23.8129 17.0142 24.1651 18.4844C24.2003 19.2195 24.482 19.9547 24.4116 20.7265C24.0242 22.16 23.7425 23.6303 23.2846 25.027C23.179 25.2843 23.0733 25.5416 22.8973 25.7621C22.7916 25.7621 22.7916 25.8724 22.7212 25.8724C22.5451 26.0562 22.369 26.24 22.2634 26.4972C22.0873 26.9751 22.0169 27.4897 22.0169 28.0042C21.8056 27.9675 21.6647 27.8205 21.4886 27.747C21.1364 27.6367 20.8195 27.5264 20.4321 27.4529C20.0095 27.4897 19.27 27.1956 19.1643 27.7102C18.9882 27.9675 18.8122 28.041 18.6361 28.3351C18.4248 29.695 18.2839 31.0918 18.2135 32.4885C18.2487 33.4074 18.1078 34.3263 18.1783 35.282C17.6148 35.6863 16.9457 35.9803 16.2766 36.2009C15.7483 36.3846 15.2553 36.5684 14.6214 36.6052C14.0579 36.7155 13.4593 36.7155 12.931 36.789C12.0858 36.8257 11.2054 36.789 10.3602 36.8257C9.72632 36.7522 9.05721 36.6419 8.49374 36.5684C7.29638 36.2744 6.13424 35.9436 5.04253 35.3187C5.07775 34.8776 5.28905 34.3998 5.14818 33.922C4.51429 32.0842 3.63387 30.3199 2.92955 28.5188C2.29565 26.7913 1.80262 25.027 1.13351 23.3362C0.746128 22.4541 0.358747 21.5719 0.0770156 20.653C-0.0990666 20.4325 0.077015 20.1384 0.112231 19.9179C0.358746 18.6682 0.851777 17.5288 1.30959 16.3526C2.01392 14.8823 2.64781 13.3386 3.49301 11.9418C3.91561 11.2067 3.88039 10.3613 4.12691 9.58943C4.40864 8.63377 4.86645 7.78838 5.25383 6.90623C5.85251 5.91382 6.27511 4.84789 6.83857 3.89223C7.3316 2.78955 7.71898 1.57659 8.24723 0.584179C8.56417 0.914985 8.95156 1.13552 9.2685 1.46633C9.72632 1.68686 10.2193 1.94416 10.7124 1.9074C11.4167 2.01767 12.121 1.9074 12.7901 1.9074C13.741 1.76037 14.6566 1.53984 15.5018 1.02525C16.1005 0.731204 16.664 0.29013 17.2274 0.0695932C17.2274 -0.0406752 17.2626 -0.0039191 17.2979 0.0695932Z" transform="translate(12.3193 17.9778)" fill="white"/>
<path fill-rule="evenodd" clip-rule="evenodd" d="M-2.6868e-07 0.147023C-2.6868e-07 0.110267 0.035217 0.0367572 0.035217 1.12171e-06C0.035217 0.0367572 -2.6868e-07 0.110267 -2.6868e-07 0.147023Z" transform="translate(12.1846 31.7209)" fill="white"/>
<path fill-rule="evenodd" clip-rule="evenodd" d="M0 0.036755V-5.60854e-07C0 0.0367556 0 0.036755 0 0.036755Z" transform="translate(11.9023 32.7498)" fill="white"/>
<path fill-rule="evenodd" clip-rule="evenodd" d="M5.30007 0.037033C5.5818 0.110545 5.89875 0.147301 6.14527 0.331082C6.2157 0.478106 6.39178 0.551618 6.427 0.698643C7.37784 1.24998 8.29347 1.80133 9.38518 2.02186C9.87821 1.94835 10.3712 2.16889 10.7938 2.42618C10.8995 2.57321 11.0404 2.72023 11.1812 2.8305C11.2517 3.19806 11.4629 3.45535 11.3573 3.89643C11.2869 4.11696 11.2516 4.37426 11.1108 4.55804C10.8995 4.74182 10.7938 5.03587 10.5825 5.18289C9.59648 5.66072 8.7865 6.32233 7.76522 6.72665C6.70873 7.20448 5.37051 7.31475 3.99707 7.38826C3.60968 7.31475 3.18709 7.31475 2.83492 7.20448C2.58841 7.13097 2.30668 6.94718 2.09538 6.87367C1.4967 6.35909 0.792369 5.91801 0.334556 5.2564C0.299339 5.03587 0.19369 4.99911 0.123258 4.81533C-0.0528246 4.48452 -0.0176077 3.7494 0.0880416 3.4186C0.123258 3.19806 0.299339 2.97752 0.334556 2.79374C1.0741 2.2424 1.98973 1.98511 2.72927 1.47052C3.11665 0.955937 3.78577 0.808911 4.13793 0.331082C4.4901 0.220813 4.87747 -0.109992 5.30007 0.037033Z" transform="translate(19.5283 12.0925)" fill="#F3D05A"/>
<path fill-rule="evenodd" clip-rule="evenodd" d="M9.79017 0C9.33236 0.514586 8.66324 0.624855 8.02935 0.882148C6.55026 1.13944 5.03595 1.32322 3.55686 1.43349C2.95818 1.47025 2.25385 1.47025 1.65517 1.43349C1.23258 1.35998 0.809978 1.13944 0.457813 0.918903C0.281731 0.698366 0 0.47783 0 0.183781C0.49303 0.404317 0.774762 1.06593 1.37344 1.10268C2.67645 1.35998 3.97946 1.13944 5.28247 1.06593C6.83199 0.882148 8.52238 0.441074 9.79017 0Z" transform="translate(19.6514 16.3564)" fill="black"/>
<path fill-rule="evenodd" clip-rule="evenodd" d="M-5.3736e-07 0.110268C-5.3736e-07 0.073512 0.0352167 0.0367561 0.0352167 0C0.0352167 0.0367561 0.0704323 0.073512 -5.3736e-07 0.110268Z" transform="translate(18.9814 6.43237)" fill="#D2D2D2"/>
<path fill-rule="evenodd" clip-rule="evenodd" d="M2.67645 0.108884C2.85253 0.14564 2.9934 0.366176 3.16948 0.366176C3.38078 0.586713 3.55686 0.844006 3.76816 1.1013C3.83859 1.54237 4.19075 1.87318 4.15554 2.35101C3.83859 2.16723 3.59208 1.94669 3.31034 1.76291C2.21863 1.32184 1.05649 1.39535 1.07472e-06 1.76291C0.0352175 1.50562 0.28173 1.28508 0.316947 1.02779C0.563462 0.62347 0.986061 0.32942 1.40866 0.14564C1.79604 -0.111653 2.25385 0.0353718 2.67645 0.108884Z" transform="translate(26.0947 7.86719)" fill="#D2D2D2"/>
<path fill-rule="evenodd" clip-rule="evenodd" d="M1.69039 0.0183783C1.86647 0.0551345 1.97212 0.275671 2.18342 0.275671C2.39472 0.56972 2.67645 0.790257 2.85253 1.12106C2.9934 1.26809 2.95818 1.48862 3.02861 1.59889C2.85253 1.3416 2.50037 1.41511 2.25385 1.23133C1.86647 1.23133 1.26779 1.12106 0.98606 1.3416C0.59868 1.48862 0.246516 1.74592 5.3736e-07 2.07672C5.3736e-07 1.96645 5.3736e-07 1.85618 5.3736e-07 1.74592C0.10565 1.3416 0.246514 0.937281 0.422597 0.56972C0.633895 0.422696 0.739545 0.165402 0.98606 0.0918902C1.12693 -0.0551343 1.47909 0.0183783 1.69039 0.0183783Z" transform="translate(19.792 8.32544)" fill="#D2D2D2"/>
<path fill-rule="evenodd" clip-rule="evenodd" d="M0.0352167 0.294049C2.67631e-07 0.183781 -5.3736e-07 0.110269 -5.3736e-07 2.80427e-07C-5.3736e-07 0.0735125 2.67631e-07 0.183781 0.0352167 0.294049Z" transform="translate(18.9814 9.07886)" fill="#D2D2D2"/>
<path fill-rule="evenodd" clip-rule="evenodd" d="M0.0264126 0.110268C-0.00880384 0.073512 -0.00880384 0.0367561 0.0264126 0C0.0264126 0.0367561 0.0264126 0.073512 0.0264126 0.110268Z" transform="translate(18.9902 17.8267)" fill="#D2D2D2"/>
<path fill-rule="evenodd" clip-rule="evenodd" d="M0.0352164 0.110268C0.0352164 0.0735117 5.3736e-07 0.0367572 5.3736e-07 1.12171e-06C0.0704334 1.12171e-06 0.0352164 0.0735117 0.0352164 0.110268Z" transform="translate(32.6455 26.3904)" fill="#D2D2D2"/>
<path fill-rule="evenodd" clip-rule="evenodd" d="M0 0.110268C0 0.0735117 0.0352159 0.0367572 0.0352159 1.12171e-06C0.0352159 0.0367572 0 0.0735117 0 0.110268Z" transform="translate(12.6064 30.6174)" fill="#D2D2D2"/>
<path fill-rule="evenodd" clip-rule="evenodd" d="M1.81904 0.162249C1.85425 0.419542 1.85425 0.750349 1.92469 0.970885C1.60774 3.02923 1.39644 5.05081 1.18514 7.10916C1.00906 8.79994 1.04427 10.5275 0.797759 12.2183C0.762543 12.3653 0.656895 12.5491 0.480812 12.6593C0.339947 12.6961 0.269514 12.6226 0.234297 12.5491C0.163864 12.3653 0.0582149 12.2183 0.0582149 11.9977C-0.0474344 11.6302 0.022999 11.2626 0.022999 10.895C0.0934319 8.61616 0.339946 6.33728 0.586461 4.0584C0.762544 2.84545 0.832977 1.6325 1.22036 0.456299C1.29079 0.272518 1.36122 0.162251 1.50209 0.0519821C1.60774 0.015226 1.60774 -0.0215324 1.71339 0.0152238C1.71339 0.0519799 1.7486 0.0887366 1.81904 0.162249Z" transform="translate(21.5283 32.771)" fill="#D2D2D2"/>
<path fill-rule="evenodd" clip-rule="evenodd" d="M11.3749 0.0735117C11.6214 0.18378 11.7623 0.404318 12.0088 0.551343C12.2553 1.13944 12.5723 1.65403 12.7836 2.24212C13.4879 4.11669 14.0514 6.06476 14.65 7.97608C14.6853 8.30689 14.8261 8.56418 14.8966 8.93174C14.967 10.4387 15.3544 11.909 15.3896 13.4527C15.3191 13.8203 15.46 14.3349 15.2839 14.6289C15.1431 15.217 14.8613 15.7316 14.5796 16.283C14.2979 16.577 14.0514 16.9078 13.6288 17.0181C13.4175 17.1651 13.1709 17.2386 12.854 17.3121C12.3258 17.4592 11.6566 17.5327 11.058 17.4592C10.6354 17.2754 10.1423 17.1651 9.71974 16.9813C8.76889 16.3932 7.78283 15.8786 6.83199 15.3273C5.24725 14.0041 3.59208 12.7544 2.04255 11.4312C1.47909 10.8431 0.915627 10.2182 0.316948 9.63011C0.246515 9.2993 0.105649 8.93174 -4.19812e-09 8.60094C0.105649 8.23337 0.281731 7.86581 0.387381 7.49825C0.528246 7.38798 0.704329 7.16744 0.809978 7.09393C1.19736 6.94691 1.54952 6.72637 1.9369 6.68962C2.3595 6.57935 2.92296 6.65286 3.31034 6.43232C3.59208 6.24854 4.04989 6.24854 4.15554 5.88098C4.19076 5.73395 4.26119 5.62369 4.33162 5.47666C4.2964 5.14586 4.22597 4.81505 4.22597 4.521C4.19076 4.33722 4.15554 3.96966 4.26119 3.82264C4.26119 3.49183 4.54292 3.23454 4.57814 2.94049C4.719 2.86698 4.85987 2.71995 5.03595 2.6832C5.28246 2.71995 5.49376 2.53617 5.74028 2.64644C5.98679 2.6832 6.23331 2.64644 6.51504 2.79347C6.76156 2.94049 7.14894 2.94049 7.36023 3.12427C7.53632 3.16103 7.74761 3.12427 7.95891 3.16103C8.24064 2.90373 8.38151 2.60969 8.69846 2.35239C8.90976 1.94808 9.08584 1.54376 9.33235 1.1762C9.47322 0.992415 9.61409 0.808634 9.75495 0.624854C9.96625 0.551341 10.1071 0.330804 10.3184 0.294048C10.6001 0.110267 10.9523 5.60854e-07 11.3045 5.60854e-07C11.3045 0.0367567 11.3397 0.0367556 11.3749 0.0735117Z" transform="translate(0.175781 43.519)" fill="#F3D05A"/>
<path fill-rule="evenodd" clip-rule="evenodd" d="M2.47049 0.121519C2.68179 0.121519 2.89309 0.268544 3.10439 0.3053C3.24525 0.378812 3.31569 0.562594 3.52699 0.562594C3.59742 1.15069 3.45655 1.73879 3.59742 2.36365C3.66785 2.62094 3.7735 2.91498 3.91437 3.13552C4.1961 3.53984 4.68913 3.72362 5.04129 4.05442C5.49911 4.27496 5.95692 4.53225 6.44995 4.60577C6.83733 4.71603 7.54166 4.8263 7.92904 4.60577C8.03469 4.4955 8.24599 4.45874 8.31642 4.38523C8.59815 4.09118 8.80945 3.79713 9.05597 3.46633C9.37291 2.69445 9.79551 1.95933 10.1477 1.2242C10.2885 1.26096 10.3238 1.44474 10.4294 1.51825C10.7816 2.10635 10.6407 2.91499 11.0281 3.46633C11.2042 3.5766 11.3098 3.87064 11.5563 3.87064C11.8733 3.94416 12.2959 3.83389 12.5776 3.94416C13.5285 3.72362 14.5145 3.68686 15.4654 3.79713C15.7823 3.87064 16.064 4.12794 16.3458 4.20145C16.5923 4.45874 16.7684 4.75279 17.0149 5.01009C17.0149 5.48792 17.0149 5.96575 16.874 6.40682C16.381 7.14194 15.9584 7.91382 15.4654 8.64894C14.5849 9.49433 13.8806 10.5603 13.1411 11.4792C12.5072 12.0673 12.0141 12.8391 11.4155 13.464C11.2042 13.6845 10.9577 13.8683 10.7464 14.1256C10.4646 14.2726 10.2885 14.5667 9.97159 14.6769C9.37291 15.265 8.7038 15.6694 8.14034 16.331C7.78818 16.478 7.43601 16.7353 7.08385 16.9191C6.27387 17.2131 5.39346 17.3601 4.58348 17.3234C4.16088 17.1396 3.66785 17.2499 3.24526 16.9926C3.03396 16.8456 2.75223 16.772 2.54093 16.625C2.08311 16.2575 1.69573 15.8531 1.34357 15.3753C1.16748 15.118 1.09705 14.8607 0.991403 14.5667C0.639238 12.9862 0.357509 11.4057 0.00534432 9.82514C0.0405608 7.98733 -0.0650896 6.07601 0.0757761 4.34847C0.146209 3.83389 0.0405608 3.20903 0.181426 2.76796C0.251859 2.06959 0.427942 1.33447 0.498375 0.636106C0.709674 0.489081 0.815323 0.231789 1.02662 0.048008C1.48444 0.048008 2.11833 -0.0990176 2.47049 0.121519Z" transform="translate(30.7031 45.5295)" fill="#F3D05A"/>
<path fill-rule="evenodd" clip-rule="evenodd" d="M0.176082 0.11027C0.598679 0.477831 1.16214 0.661608 1.37344 1.24971C1.44387 1.43349 1.54952 1.69078 1.51431 1.87456C1.05649 2.49942 0.387381 2.94049 0.246515 3.74912C0.387381 2.49942 0.246515 1.24971 -5.3736e-07 0C0.0352159 0.0367561 0.140865 0.0367572 0.176082 0.11027Z" transform="translate(15.46 54.3987)" fill="#F3D05A"/>
<path fill-rule="evenodd" clip-rule="evenodd" d="M0.0352162 -1.12171e-06C0.0352162 0.036755 0.0352167 0.0735123 2.6868e-07 0.110268C2.6868e-07 0.0735123 0.0352162 0.036755 0.0352162 -1.12171e-06Z" transform="translate(12.1494 31.8672)" fill="white"/>
<path fill-rule="evenodd" clip-rule="evenodd" d="M0.105649 -1.12171e-06C0.105649 0.036755 0.0704331 0.0735117 2.6868e-07 0.147024C0.0704331 0.0735117 0.0704329 0.036755 0.105649 -1.12171e-06Z" transform="translate(11.7979 32.7861)" fill="white"/>
<path fill-rule="evenodd" clip-rule="evenodd" d="M0.0352159 -5.60854e-07C0.0352159 0.0367556 0.0352164 0.0735128 0 0.110269C0.0352164 0.0735128 0.0352159 0.0367556 0.0352159 -5.60854e-07Z" transform="translate(12.0791 32.0151)" fill="white"/>
<path fill-rule="evenodd" clip-rule="evenodd" d="M7.62939e-07 0C7.62939e-07 0 7.62939e-07 0.039996 7.62939e-07 0C7.62939e-07 0.039996 7.62939e-07 0 7.62939e-07 0Z" transform="translate(12.1494 31.9775)" fill="white"/>
<path fill-rule="evenodd" clip-rule="evenodd" d="M0.0352164 0C0.0352164 0.0367561 0.035217 0.0735134 5.3736e-07 0.11027C0.035217 0.0735134 0.0352164 0.0367561 0.0352164 0Z" transform="translate(12.0439 32.1616)" fill="white"/>
<path fill-rule="evenodd" clip-rule="evenodd" d="M0.0162532 5.77596e-07C0.0162532 0.0378539 -0.0203177 0.0378539 0.0162532 5.77596e-07C-0.0203177 0.0378539 0.0162532 0.0378539 0.0162532 5.77596e-07Z" transform="translate(12.0986 32.125)" fill="white"/>
<path fill-rule="evenodd" clip-rule="evenodd" d="M7.62939e-07 0C7.62939e-07 0.0367561 7.62939e-07 0.110269 7.62939e-07 0.147025C7.62939e-07 0.110269 7.62939e-07 0.0735123 7.62939e-07 0Z" transform="translate(11.6211 33.6318)" fill="white"/>
<path fill-rule="evenodd" clip-rule="evenodd" d="M0.035217 5.60854e-07C0.035217 0.0367567 0.0352162 0.0735111 -2.6868e-07 0.110267C-2.6868e-07 0.0735111 5.37885e-07 0.0367567 0.035217 5.60854e-07Z" transform="translate(12.0088 32.3086)" fill="white"/>
<path fill-rule="evenodd" clip-rule="evenodd" d="M1.52588e-06 1.15519e-06C1.52588e-06 0.0378545 1.52588e-06 0.0378545 1.52588e-06 1.15519e-06C1.52588e-06 0.0378545 1.52588e-06 0.0378545 1.52588e-06 1.15519e-06Z" transform="translate(12.0439 32.2722)" fill="white"/>
<path fill-rule="evenodd" clip-rule="evenodd" d="M0.08502 4.92532C0.0498036 4.92532 0.0850194 5.14586 0.120236 5.40315C0.155452 5.40315 0.155453 5.62369 0.155453 5.84422C0.120237 5.58693 0.08502 5.36639 0.08502 5.40315C0.08502 5.36639 0.0498041 5.18262 0.0498041 5.07235C0.0145877 4.92532 0.0145869 4.74154 0.0145869 4.85181C-0.0206296 4.63127 0.0145877 4.33722 0.0498041 4.07993C0.0498041 3.96966 0.049803 4.07993 0.120236 3.2713C0.225885 2.64644 0.401967 1.98483 1.17673 0C0.366751 2.24212 0.296318 2.60969 0.296318 2.6832C0.225885 2.83022 0.190669 3.27129 0.190669 3.56534C0.120236 3.82264 0.08502 4.48425 0.08502 4.92532Z" transform="translate(11.4668 30.6914)" fill="white"/>
<path fill-rule="evenodd" clip-rule="evenodd" d="M0.0352159 1.12171e-06L0 0.0367567L0.0352159 1.12171e-06Z" transform="translate(36.3789 26.9417)" fill="white"/>
<path fill-rule="evenodd" clip-rule="evenodd" d="M1.54952 4.44749C1.79604 5.14586 1.79604 5.95449 1.86647 6.6161C1.97212 7.7923 1.86647 9.00525 1.86647 10.1814C1.69039 12.1663 1.44387 14.1511 1.02128 16.1359C0.986061 16.3932 0.809977 16.6138 0.739545 16.8343C0.704328 16.8711 0.633895 16.8711 0.598678 16.8343C0.633895 16.6873 0.739544 16.577 0.774761 16.43C1.02128 15.2905 1.19736 14.1144 1.40866 12.9749C1.54952 12.0928 1.54952 11.2106 1.61996 10.3285L1.65517 10.2917C1.58474 9.66686 1.76082 9.04201 1.69039 8.41715C1.76082 8.3804 1.72561 8.27013 1.72561 8.23337C1.76082 7.38798 1.58474 6.54259 1.61996 5.6972C1.58474 4.99883 1.26779 4.33722 1.23258 3.67561C1.12693 3.014 0.845195 2.38915 0 -1.12171e-06C0.704329 1.76429 0.704328 1.80105 0.739545 1.80105C0.845194 2.13186 1.05649 2.4259 1.09171 2.75671C1.30301 3.23454 1.44387 3.85939 1.54952 4.44749Z" transform="translate(35.6748 25.2512)" fill="white"/>
<path fill-rule="evenodd" clip-rule="evenodd" d="M0.0352167 1.12171e-06C0.0352167 0.0367572 0.0352159 0.0735117 -5.3736e-07 0.110268C0.0352159 0.0735117 0.0352167 0.0367572 0.0352167 1.12171e-06Z" transform="translate(11.9385 32.4558)" fill="white"/>
<path fill-rule="evenodd" clip-rule="evenodd" d="M-7.62939e-07 -1.15519e-06C-7.62939e-07 0.0378522 -7.62939e-07 0.0378522 -7.62939e-07 -1.15519e-06C-7.62939e-07 0.0378522 -7.62939e-07 0.0378522 -7.62939e-07 -1.15519e-06Z" transform="translate(12.0088 32.4187)" fill="white"/>
<path fill-rule="evenodd" clip-rule="evenodd" d="M0.0264126 -5.60854e-07C-0.00880384 0.0367556 -0.00880384 0.0367556 0.0264126 -5.60854e-07C-0.00880384 0.0367556 -0.00880384 0.0367556 0.0264126 -5.60854e-07Z" transform="translate(11.9473 32.5667)" fill="white"/>
</svg>
