<?xml version="1.0" encoding="utf-8"?>
<!-- Generator: Adobe Illustrator 22.1.0, SVG Export Plug-In . SVG Version: 6.00 Build 0)  -->
<svg version="1.1" id="Layer_1" xmlns="http://www.w3.org/2000/svg" xmlns:xlink="http://www.w3.org/1999/xlink" x="0px" y="0px"
	 viewBox="0 0 320 120" style="enable-background:new 0 0 320 120;" xml:space="preserve">
<style type="text/css">
	.st0{fill:#FAAE1B;}
	.st1{fill:#FFFFFF;}
</style>
<g>
	<g>
		<g>
			<g>
				<polygon class="st0" points="91,87.3 97.1,106.1 58.5,80.4 57.6,74.8 89.3,95.7 86.3,86.5 				"/>
			</g>
			<g>
				<polygon class="st0" points="58.9,82.7 60.1,90.7 95.1,106.7 				"/>
			</g>
		</g>
		<g>
			<g>
				<polygon class="st1" points="49.4,98.3 33.4,109.9 45.9,65.3 50.9,62.7 40.8,99.4 48.7,93.6 				"/>
			</g>
			<g>
				<polygon class="st1" points="43.8,66.4 36.5,70.1 32.1,108.2 				"/>
			</g>
		</g>
		<g>
			<g>
				<polygon class="st0" points="26,62.1 10,50.5 56.3,48.6 60.3,52.6 22.4,54.4 30.2,60.1 				"/>
			</g>
			<g>
				<polygon class="st0" points="54.6,46.9 48.9,41.2 11.3,48.8 				"/>
			</g>
		</g>
		<g>
			<g>
				<polygon class="st0" points="53.2,28.7 59.3,9.9 75.4,53.4 72.9,58.4 59.5,22.9 56.5,32.1 				"/>
			</g>
			<g>
				<polygon class="st0" points="76.5,51.3 80.2,44.1 61.3,10.6 				"/>
			</g>
		</g>
		<g>
			<g>
				<polygon class="st1" points="93.4,44.3 113.1,44.3 76.7,73 71.2,72.2 100.9,48.4 91.1,48.4 				"/>
			</g>
			<g>
				<polygon class="st1" points="79.1,73.4 87.1,74.7 113.1,46.4 				"/>
			</g>
		</g>
	</g>
	<g>
		<path class="st1" d="M133.4,69h-12.5l-2.3,5.8H110l13.1-29.6h8.3l13.1,29.6h-8.7L133.4,69z M130.9,62.8l-3.8-9.5l-3.8,9.5H130.9z"
			/>
		<path class="st1" d="M175,45.1v29.6h-6.9L155,59v15.8h-8.2V45.1h6.9l13.1,15.8V45.1H175z"/>
		<path class="st1" d="M187.2,51.8h-9.1v-6.6h26.5v6.6h-9.1v23h-8.4V51.8z"/>
		<path class="st1" d="M220.7,66.9h-4.6v7.9h-8.4V45.1h13.5c2.7,0,5,0.4,7,1.3c2,0.9,3.5,2.2,4.6,3.8c1.1,1.7,1.6,3.6,1.6,5.8
			c0,2.1-0.5,4-1.5,5.6c-1,1.6-2.4,2.8-4.3,3.7l6.4,9.3h-9L220.7,66.9z M224.7,52.9c-0.9-0.8-2.2-1.1-3.9-1.1h-4.7v8.7h4.7
			c1.7,0,3-0.4,3.9-1.1c0.9-0.7,1.3-1.8,1.3-3.2C226,54.7,225.6,53.6,224.7,52.9z"/>
		<path class="st1" d="M239.1,45.1h8.4v29.6h-8.4V45.1z"/>
		<path class="st1" d="M277.2,68.3v6.5h-23.8V45.1h23.2v6.5h-14.9v5h13.2v6.3h-13.2v5.4H277.2z"/>
		<path class="st1" d="M300.4,74.8l-6.1-9.2l-6.1,9.2h-9.6l10.8-15l-10.3-14.6h9.4l5.9,8.5l5.8-8.5h9.1L299,59.4l11,15.3H300.4z"/>
	</g>
</g>
</svg>
