<svg width="221" height="51" viewBox="0 0 221 51" version="1.1" xmlns="http://www.w3.org/2000/svg" xmlns:xlink="http://www.w3.org/1999/xlink">
<title>Group</title>
<desc>Created using Figma</desc>
<g id="Canvas" transform="translate(3120 -45)">
<g id="Group">
<g id="Vector">
<use xlink:href="#path0_fill" transform="translate(-3055.6 55.7)" fill="#E94738"/>
</g>
<g id="Vector">
<use xlink:href="#path1_fill" transform="translate(-2994.2 55.7)" fill="#E94738"/>
</g>
<g id="Vector">
<use xlink:href="#path2_fill" transform="translate(-2994.2 62.9)" fill="#E94738"/>
</g>
<g id="Vector">
<use xlink:href="#path3_fill" transform="translate(-3028.2 55.7)" fill="#E94738"/>
</g>
<g id="Vector">
<use xlink:href="#path4_fill" transform="translate(-2981.2 55.7)" fill="#E94738"/>
</g>
<g id="Vector">
<use xlink:href="#path5_fill" transform="translate(-2952.5 55.7)" fill="#E94738"/>
</g>
<g id="Vector">
<use xlink:href="#path6_fill" transform="translate(-2926.9 55.7)" fill="#E94738"/>
</g>
<g id="Group">
<g id="Vector">
<use xlink:href="#path7_fill" transform="translate(-3120 46.8)" fill="#E94738"/>
</g>
<g id="Vector">
<use xlink:href="#path8_fill" transform="translate(-3093.2 60.8147)" fill="#E94738"/>
</g>
<g id="Vector">
<use xlink:href="#path9_fill" transform="translate(-3104.19 45)" fill="#E94738"/>
</g>
<g id="Vector">
<use xlink:href="#path10_fill" transform="translate(-3118.3 71.875)" fill="#EE782B"/>
</g>
</g>
</g>
</g>
<defs>
<path id="path0_fill" d="M 12.5 12.7L 24.9 -1.90735e-07L 19.2 -1.90735e-07L 4.3 15.2L 4.3 -1.90735e-07L 1.52588e-06 -1.90735e-07L 1.52588e-06 28.7L 4.3 28.7L 4.3 21L 9.5 15.7L 19.8 28.7L 25.2 28.7L 12.5 12.7Z"/>
<path id="path1_fill" d="M 4.30001 0L 3.05176e-06 0L 3.05176e-06 4.5L 4.30001 4.5L 4.30001 0Z"/>
<path id="path2_fill" d="M 4.30001 0L 3.05176e-06 0L 3.05176e-06 21.5L 4.30001 21.5L 4.30001 0Z"/>
<path id="path3_fill" d="M 16.7 -1.90735e-07L 13 -1.90735e-07L 3.05176e-06 28.7L 4.5 28.7L 7.9 21.2L 9 18.7L 20.7 18.7L 21.9 21.5L 25.1 28.8L 29.7 28.8L 16.7 -1.90735e-07ZM 14.8 5.7L 18.7 14.4L 10.9 14.4L 14.8 5.7Z"/>
<path id="path4_fill" d="M 15.9 17.3C 16.7 17.1 17.4 16.8 18.1 16.5C 19.1 16 19.9 15.4 20.6 14.7C 21.3 14 21.9 13.1 22.3 12.2C 22.7 11.2 22.9 10.1 22.9 8.9L 22.9 8.8C 22.9 7.6 22.7 6.5 22.3 5.6C 21.9 4.6 21.3 3.7 20.6 3C 19.7 2.1 18.5 1.4 17.1 0.8C 15.7 0.3 14.1 -1.90735e-07 12.4 -1.90735e-07L 3.05176e-06 -1.90735e-07L 3.05176e-06 28.7L 4.30001 28.7L 4.30001 18L 11.3 18L 19.3 28.7L 24.6 28.7L 15.9 17.3ZM 18.1 11.1C 17.8 11.7 17.3 12.2 16.8 12.7C 16.2 13.1 15.5 13.5 14.7 13.7C 13.9 13.9 13 14.1 12 14.1L 4.2 14.1L 4.2 4.1L 12.1 4.1C 14.2 4.1 15.8 4.5 16.9 5.4C 18 6.2 18.5 7.4 18.5 8.9L 18.5 9C 18.6 9.8 18.4 10.5 18.1 11.1Z"/>
<path id="path5_fill" d="M 4.39999 24.7L 4.39999 16.3L 21.2 16.3L 21.2 12.3L 4.39999 12.3L 4.39999 4L 21.2 4L 21.2 0.1L 0 -1.90735e-07L 0 28.7L 21.2 28.7L 21.2 24.7L 4.39999 24.7Z"/>
<path id="path6_fill" d="M 16.2 14.1L 26.8 -1.90735e-07L 21.7 -1.90735e-07L 13.7 10.9L 5.50001 -1.90735e-07L 0.4 -1.90735e-07L 11 14.1L 6.10352e-06 28.7L 5.00001 28.7L 13.5 17.3L 22 28.6L 22 28.7L 27.2 28.7L 16.2 14.1Z"/>
<path id="path7_fill" d="M 23 9.5L 13.8 0.3C 13.4 -0.1 12.8 -0.1 12.4 0.3L 0.3 12.5C 0.1 12.7 0 12.9 0 13.2L 0 31.5C 0 32.4 1 32.8 1.6 32.2L 10.5 23.3L 23 10.8C 23.4 10.5 23.4 9.8 23 9.5Z"/>
<path id="path8_fill" d="M 10 22.4853C 9.6 22.0853 9.6 21.4853 10 21.0853L 23 8.0853C 23.2 7.8853 23.3 7.6853 23.3 7.3853C 23.3 4.8853 23.3 2.5853 23.3 0.985295C 23.3 0.0852954 22.3 -0.314703 21.7 0.285297L 12.8 9.1853L 0.3 21.6853C -0.0999996 22.0853 -0.0999996 22.6853 0.3 23.0853L 9.5 32.2853C 9.9 32.6853 10.5 32.6853 10.9 32.2853L 23.1 20.0853C 23.3 19.8853 23.4 19.6853 23.4 19.4853C 23.4 18.4853 23.4 15.7853 23.4 12.5853C 23.4 11.8853 22.5 11.4853 22 11.9853L 11.4 22.4853C 11 22.8853 10.4 22.8853 10 22.4853Z"/>
<path id="path9_fill" d="M 9.1853 10.6L 21.6853 23.1C 22.0853 23.5 22.6853 23.5 23.0853 23.1L 32.2853 13.9C 32.6853 13.5 32.6853 12.9 32.2853 12.5L 19.9853 0.3C 19.7853 0.1 19.5853 0 19.3853 0C 18.4853 0 15.8853 0 12.8853 0C 11.9853 0 11.5853 1 12.1853 1.6L 22.4853 11.9C 22.8853 12.3 22.8853 12.9 22.4853 13.3C 22.0853 13.7 21.4853 13.7 21.0853 13.3L 8.0853 0.3C 7.8853 0.1 7.6853 0 7.3853 0C 4.8853 0 2.5853 0 0.985295 0C 0.0852954 0 -0.314703 1 0.285297 1.6L 9.1853 10.6Z"/>
<path id="path10_fill" d="M 9.5 0.225L 0.3 9.425C -0.1 9.825 -0.1 10.425 0.3 10.825L 12.5 23.025C 12.7 23.225 12.9 23.325 13.2 23.325C 15.4 23.325 26.6 23.325 31.6 23.325C 32.5 23.325 32.9 22.325 32.3 21.725L 23.3 12.725L 10.9 0.225C 10.5 -0.0749996 9.9 -0.0749996 9.5 0.225Z"/>
</defs>
</svg>
