<svg width="148" height="26" viewBox="0 0 148 26" fill="none" xmlns="http://www.w3.org/2000/svg">
<path d="M14.042 0C11.084 0 7.888 0.646002 5.032 2.958C2.72 4.828 0 8.296 0 14.11C0 18.122 1.428 20.638 3.026 22.202C4.726 23.868 7.446 25.16 11.526 25.16C14.484 25.16 17.68 24.514 20.536 22.202C22.848 20.332 25.568 16.864 25.568 11.05C25.568 7.038 24.14 4.522 22.542 2.958C20.842 1.292 18.122 0 14.042 0ZM12.07 19.448C10.166 19.448 8.908 18.632 8.194 17.85C7.038 16.558 6.868 14.858 6.868 13.702C6.868 10.676 7.82 8.806 8.84 7.718C9.894 6.596 11.56 5.712 13.498 5.712C15.402 5.712 16.66 6.528 17.374 7.31C18.53 8.602 18.7 10.302 18.7 11.458C18.7 14.484 17.748 16.354 16.728 17.442C15.674 18.564 14.008 19.448 12.07 19.448Z" fill="white"/>
<path d="M41.7998 0C38.8418 0 35.6458 0.646002 32.7898 2.958C30.4778 4.828 27.7578 8.296 27.7578 14.11C27.7578 18.122 29.1858 20.638 30.7838 22.202C32.4838 23.868 35.2038 25.16 39.2838 25.16C42.2418 25.16 45.4378 24.514 48.2938 22.202C50.6058 20.332 53.3258 16.864 53.3258 11.05C53.3258 7.038 51.8978 4.522 50.2998 2.958C48.5998 1.292 45.8798 0 41.7998 0ZM39.8278 19.448C37.9238 19.448 36.6658 18.632 35.9518 17.85C34.7958 16.558 34.6258 14.858 34.6258 13.702C34.6258 10.676 35.5778 8.806 36.5978 7.718C37.6518 6.596 39.3178 5.712 41.2558 5.712C43.1598 5.712 44.4178 6.528 45.1318 7.31C46.2878 8.602 46.4578 10.302 46.4578 11.458C46.4578 14.484 45.5058 16.354 44.4858 17.442C43.4318 18.564 41.7658 19.448 39.8278 19.448Z" fill="white"/>
<path d="M69.5576 0C66.5996 0 63.4036 0.646002 60.5476 2.958C58.2356 4.828 55.5156 8.296 55.5156 14.11C55.5156 18.122 56.9436 20.638 58.5416 22.202C60.2416 23.868 62.9616 25.16 67.0416 25.16C69.9996 25.16 73.1956 24.514 76.0516 22.202C78.3636 20.332 81.0836 16.864 81.0836 11.05C81.0836 7.038 79.6556 4.522 78.0576 2.958C76.3576 1.292 73.6376 0 69.5576 0ZM67.5856 19.448C65.6816 19.448 64.4236 18.632 63.7096 17.85C62.5536 16.558 62.3836 14.858 62.3836 13.702C62.3836 10.676 63.3356 8.806 64.3556 7.718C65.4096 6.596 67.0756 5.712 69.0136 5.712C70.9176 5.712 72.1756 6.528 72.8896 7.31C74.0456 8.602 74.2156 10.302 74.2156 11.458C74.2156 14.484 73.2636 16.354 72.2436 17.442C71.1896 18.564 69.5236 19.448 67.5856 19.448Z" fill="white"/>
<path d="M86.7894 0.680001L83.8654 24.48H96.0374C99.8114 24.48 101.715 23.018 102.633 22.1C103.823 20.876 104.639 19.278 104.639 17.136C104.639 15.3 103.959 14.076 103.279 13.362C102.531 12.58 101.409 12.002 100.355 11.764V11.696C100.661 11.594 101.681 11.22 102.531 10.54C103.755 9.588 104.673 8.126 104.673 5.916C104.673 4.148 103.993 2.992 103.279 2.278C101.749 0.748001 99.5394 0.680001 98.0434 0.680001H86.7894ZM92.2974 10.064L92.8754 5.44H95.6634C96.0374 5.44 97.0234 5.474 97.6354 5.882C98.2474 6.29 98.4174 6.936 98.4174 7.514C98.4174 8.126 98.3154 8.976 97.3974 9.554C96.6834 9.996 95.6294 10.064 95.0854 10.064H92.2974ZM91.1074 19.72L91.7194 14.824H94.7114C95.6294 14.824 96.5814 14.858 97.1934 15.3C97.4994 15.538 97.9754 16.014 97.9754 17C97.9754 18.088 97.4994 18.802 96.7854 19.21C95.9694 19.686 95.0174 19.72 94.0994 19.72H91.1074Z" fill="white"/>
<path d="M111.24 24.48H117.904L120.114 6.392H127.35L128.064 0.680001H106.928L106.214 6.392H113.45L111.24 24.48Z" fill="white"/>
<path d="M146.002 16.626C144.676 17.85 142.568 19.21 140.086 19.21C138.726 19.21 137.536 18.802 136.754 18.19C134.952 16.83 134.782 14.586 134.782 13.396C134.782 11.866 135.054 9.962 136.176 8.466C137.638 6.494 139.984 5.95 141.616 5.95C142.636 5.95 145.016 6.154 146.988 8.806L147.838 1.904C146.818 1.088 144.948 0 141.514 0C137.468 0 133.66 1.496 131.11 4.488C128.56 7.48 127.914 11.152 127.914 14.484C127.914 16.592 128.288 20.74 132.028 23.358C134.238 24.922 136.754 25.16 138.556 25.16C140.596 25.16 142.908 24.854 145.186 23.392L146.002 16.626Z" fill="white"/>
</svg>
