<svg width="85" height="74" viewBox="0 0 85 74" fill="none" xmlns="http://www.w3.org/2000/svg">
<path d="M30.1363 61.5349H3.88855C1.66652 61.5349 0 59.7209 0 57.6279V9.76744V7.95349C0 3.48837 3.47192 0 7.91597 0H63.7444C68.0496 0 71.6604 3.48837 71.6604 7.95349V41.0233" transform="translate(1 1)" stroke="#34C88A" stroke-width="2" stroke-linecap="round" stroke-linejoin="round"/>
<path d="M70.2716 -1.90735e-07H0" transform="translate(1.69531 13.8374)" stroke="#34C88A" stroke-width="2" stroke-linecap="round" stroke-linejoin="round"/>
<path d="M48.026 30H4.11232C1.76242 30 1.12052e-06 28.1944 1.12052e-06 26.1111V20.1389V3.88889C1.12052e-06 1.66667 1.90929 0 4.11232 0H47.8791C50.229 0 51.9914 1.80555 51.9914 3.88889V26.1111C52.1383 28.3333 50.3759 30 48.026 30Z" transform="translate(32 43)" stroke="#34C88A" stroke-width="2" stroke-linecap="round" stroke-linejoin="round"/>
<path d="M1.5 3C2.32843 3 3 2.32843 3 1.5C3 0.671573 2.32843 0 1.5 0C0.671573 0 0 0.671573 0 1.5C0 2.32843 0.671573 3 1.5 3Z" transform="translate(7 6)" stroke="#34C88A" stroke-width="2" stroke-linecap="round" stroke-linejoin="round"/>
<path d="M1.5 3C2.32843 3 3 2.32843 3 1.5C3 0.671573 2.32843 0 1.5 0C0.671573 0 0 0.671573 0 1.5C0 2.32843 0.671573 3 1.5 3Z" transform="translate(14 6)" stroke="#34C88A" stroke-width="2" stroke-linecap="round" stroke-linejoin="round"/>
<path d="M1.5 3C2.32843 3 3 2.32843 3 1.5C3 0.671573 2.32843 0 1.5 0C0.671573 0 0 0.671573 0 1.5C0 2.32843 0.671573 3 1.5 3Z" transform="translate(21 6)" stroke="#34C88A" stroke-width="2" stroke-linecap="round" stroke-linejoin="round"/>
<path d="M14.0266 0H0V8.93023H14.0266V0Z" transform="translate(8.5 23.3257)" stroke="#34C88A" stroke-width="2" stroke-linecap="round" stroke-linejoin="round"/>
<path d="M8.07396 0H0V8.07396H8.07396V0Z" transform="translate(36.7949 22.0625) scale(0.997624 1.00235) rotate(45)" stroke="#34C88A" stroke-width="2" stroke-linecap="round" stroke-linejoin="round"/>
<path d="M8.74923 0H0V8.7907H8.74923V0Z" transform="translate(51.6895 23.3257)" stroke="#34C88A" stroke-width="2" stroke-linecap="round" stroke-linejoin="round"/>
<path d="M8.33261 7.62939e-07H1.05955e-06" transform="translate(22.8027 27.791)" stroke="#34C88A" stroke-width="2" stroke-linecap="round" stroke-linejoin="round"/>
<path d="M-5.29773e-07 7.62939e-07H9.30474" transform="translate(42.5254 27.791)" stroke="#34C88A" stroke-width="2" stroke-linecap="round" stroke-linejoin="round"/>
<path d="M0 0V4.62791" transform="translate(36.832 33.9302)" stroke="#34C88A" stroke-width="2" stroke-linecap="round" stroke-linejoin="round"/>
<path d="M4.1663 8.37209C6.46729 8.37209 8.3326 6.49793 8.3326 4.18604C8.3326 1.87415 6.46729 -2.12913e-06 4.1663 -2.12913e-06C1.86532 -2.12913e-06 0 1.87415 0 4.18604C0 6.49793 1.86532 8.37209 4.1663 8.37209Z" transform="translate(14.332 45.791)" stroke="#34C88A" stroke-width="2" stroke-linecap="round" stroke-linejoin="round"/>
<path d="M4.58293 -1.52588e-06H5.29773e-07" transform="translate(22.6641 49.9766)" stroke="#34C88A" stroke-width="2" stroke-linecap="round" stroke-linejoin="round"/>
<path d="M-1.19066e-06 -1.52588e-06H4.5258" transform="translate(49 51)" stroke="#34C88A" stroke-width="2" stroke-linecap="round" stroke-linejoin="round"/>
<path d="M1.19066e-06 -1.52588e-06H10.6122" transform="translate(57.4258 51)" stroke="#34C88A" stroke-width="2" stroke-linecap="round" stroke-linejoin="round"/>
<path d="M0 -1.52588e-06H4.05761" transform="translate(71.9434 51)" stroke="#34C88A" stroke-width="2" stroke-linecap="round" stroke-linejoin="round"/>
<path d="M-1.19066e-06 7.62939e-07H12.485" transform="translate(49 56)" stroke="#34C88A" stroke-width="2" stroke-linecap="round" stroke-linejoin="round"/>
<path d="M0 7.62939e-07H4.05761" transform="translate(65.6973 56)" stroke="#34C88A" stroke-width="2" stroke-linecap="round" stroke-linejoin="round"/>
<path d="M-1.24659e-06 7.62939e-07H8.00623" transform="translate(49 61)" stroke="#34C88A" stroke-width="2" stroke-linecap="round" stroke-linejoin="round"/>
<path d="M-2.49317e-06 7.62939e-07H3.43124" transform="translate(60.9258 61)" stroke="#34C88A" stroke-width="2" stroke-linecap="round" stroke-linejoin="round"/>
<path d="M-1.24659e-06 7.62939e-07H5.39195" transform="translate(68.6074 61)" stroke="#34C88A" stroke-width="2" stroke-linecap="round" stroke-linejoin="round"/>
<path d="M-1.24659e-06 -7.62939e-07H10.7839" transform="translate(49 66)" stroke="#34C88A" stroke-width="2" stroke-linecap="round" stroke-linejoin="round"/>
<path d="M1.24659e-06 -7.62939e-07H1.96071" transform="translate(63.5391 66)" stroke="#34C88A" stroke-width="2" stroke-linecap="round" stroke-linejoin="round"/>
<path d="M5.44957e-07 0L5 5" transform="translate(39 59)" stroke="#34C88A" stroke-width="2" stroke-linecap="round" stroke-linejoin="round"/>
<path d="M5.44957e-07 5L5 0" transform="translate(39 59)" stroke="#34C88A" stroke-width="2" stroke-linecap="round" stroke-linejoin="round"/>
<path d="M5.44957e-07 0L5 5" transform="translate(39 49)" stroke="#34C88A" stroke-width="2" stroke-linecap="round" stroke-linejoin="round"/>
<path d="M5.44957e-07 5L5 0" transform="translate(39 49)" stroke="#34C88A" stroke-width="2" stroke-linecap="round" stroke-linejoin="round"/>
</svg>
