<svg width="84" height="78" viewBox="0 0 84 78" fill="none" xmlns="http://www.w3.org/2000/svg">
<path d="M-4.99372e-07 0.130639V3.266C-4.99372e-07 5.35624 1.7018 6.92391 3.66541 6.92391H47.7812C49.8757 6.92391 51.4466 5.2256 51.4466 3.266V9.96703e-07" transform="translate(26.709 67.2344)" stroke="#34C88A" stroke-width="2" stroke-linecap="round" stroke-linejoin="round"/>
<path d="M51.4466 24.4297V16.7219L34.6905 0H3.66541C1.57089 0 -4.99372e-07 1.69832 -4.99372e-07 3.65792V24.8216" transform="translate(26.709 1)" stroke="#34C88A" stroke-width="2" stroke-linecap="round" stroke-linejoin="round"/>
<path d="M9.98744e-07 0V13.064C9.98744e-07 15.1542 1.7018 16.7219 3.66541 16.7219H16.7562L9.98744e-07 0Z" transform="translate(61.1387 1)" stroke="#34C88A" stroke-width="2" stroke-linecap="round" stroke-linejoin="round"/>
<path d="M-9.98745e-07 -3.8147e-07H11.258" transform="translate(35.7422 11.9736)" stroke="#34C88A" stroke-width="2" stroke-linecap="round" stroke-linejoin="round"/>
<path d="M0 -3.81469e-07L11.8886 3.81469e-06" transform="translate(52 33.5293)" stroke="#34C88A" stroke-width="2" stroke-linecap="round" stroke-linejoin="round"/>
<path d="M0 3.81469e-07L9.38528 0" transform="translate(54.5 39.6694)" stroke="#34C88A" stroke-width="2" stroke-linecap="round" stroke-linejoin="round"/>
<path d="M0 1.52588e-06L8.3889 0" transform="translate(55.5 45.9399)" stroke="#34C88A" stroke-width="2" stroke-linecap="round" stroke-linejoin="round"/>
<path d="M4.99372e-07 -7.62939e-07H8.90171" transform="translate(37.8984 45.541)" stroke="#34C88A" stroke-width="2" stroke-linecap="round" stroke-linejoin="round"/>
<path d="M-9.98744e-07 3.8147e-07H6.80719" transform="translate(35.7422 17.4609)" stroke="#34C88A" stroke-width="2" stroke-linecap="round" stroke-linejoin="round"/>
<path d="M-7.62939e-07 -9.96703e-07V13.1946" transform="translate(78.2871 39.9307)" stroke="#34C88A" stroke-width="2" stroke-linecap="round" stroke-linejoin="round"/>
<path d="M4.71267 13.8478C2.09452 13.8478 9.98744e-07 11.7576 9.98744e-07 9.14479V4.70304C9.98744e-07 2.09024 2.09452 4.98352e-07 4.71267 4.98352e-07C7.33081 4.98352e-07 9.42534 2.09024 9.42534 4.70304V9.14479C9.42534 11.7576 7.33081 13.8478 4.71267 13.8478Z" transform="translate(73.5742 29.8716)" stroke="#34C88A" stroke-width="2" stroke-linecap="round" stroke-linejoin="round"/>
<path d="M4.71267 13.8478C2.09452 13.8478 9.98744e-07 11.7576 9.98744e-07 9.14479V4.70304C9.98744e-07 2.09024 2.09452 1.99341e-06 4.71267 1.99341e-06C7.33081 1.99341e-06 9.42534 2.09024 9.42534 4.70304V9.14479C9.42534 11.627 7.33081 13.8478 4.71267 13.8478Z" transform="translate(73.5742 48.5532)" stroke="#34C88A" stroke-width="2" stroke-linecap="round" stroke-linejoin="round"/>
<path d="M35.6723 35.6832C27.556 43.7829 14.2035 43.7829 6.0872 35.6832C-2.02906 27.5835 -2.02906 14.2582 6.0872 6.15858C8.96716 3.2845 12.3708 1.45554 16.0362 0.541063C22.8433 -1.02662 30.3051 0.802342 35.6723 6.15858C43.7885 14.2582 43.7885 27.5835 35.6723 35.6832Z" transform="translate(9.93359 25.9341)" stroke="#34C88A" stroke-width="2" stroke-linecap="round" stroke-linejoin="round"/>
<path d="M14 7.63126L8.72545 12.9058C7.26653 14.3647 4.79759 14.3647 3.33868 12.9058L1.09419 10.6613C-0.364729 9.20241 -0.364729 6.73347 1.09419 5.27455L6.36874 8.56205e-07" transform="translate(1 63)" stroke="#34C88A" stroke-width="2" stroke-linecap="round" stroke-linejoin="round"/>
<path d="M7.33082 -1.99341e-06L0 7.31583" transform="translate(8.82227 61.8784)" stroke="#34C88A" stroke-width="2" stroke-linecap="round" stroke-linejoin="round"/>
<path d="M3.8147e-07 0V26.6505" transform="translate(22.043 33.6602)" stroke="#34C88A" stroke-width="2" stroke-linecap="round" stroke-linejoin="round"/>
<path d="M-9.98745e-07 0L4.58176 4.5724" transform="translate(29 43.1895)" stroke="#34C88A" stroke-width="2" stroke-linecap="round" stroke-linejoin="round"/>
<path d="M-9.98745e-07 4.5724L4.58176 0" transform="translate(29 43.1895)" stroke="#34C88A" stroke-width="2" stroke-linecap="round" stroke-linejoin="round"/>
<path d="M0 0H5.10156" transform="translate(37.8984 35.3516)" stroke="#34C88A" stroke-width="2" stroke-linecap="round" stroke-linejoin="round"/>
<path d="M-9.98745e-07 9.96703e-07L4.58176 4.5724" transform="translate(29 33)" stroke="#34C88A" stroke-width="2" stroke-linecap="round" stroke-linejoin="round"/>
<path d="M-9.98745e-07 4.5724L4.58176 9.96703e-07" transform="translate(29 33)" stroke="#34C88A" stroke-width="2" stroke-linecap="round" stroke-linejoin="round"/>
<path d="M4.99372e-07 -1.52588e-06H6.41446" transform="translate(37.8984 55.7314)" stroke="#34C88A" stroke-width="2" stroke-linecap="round" stroke-linejoin="round"/>
<path d="M-9.98745e-07 -9.96703e-07L4.58176 4.57239" transform="translate(29 53.3794)" stroke="#34C88A" stroke-width="2" stroke-linecap="round" stroke-linejoin="round"/>
<path d="M-9.98745e-07 4.57239L4.58176 -9.96703e-07" transform="translate(29 53.3794)" stroke="#34C88A" stroke-width="2" stroke-linecap="round" stroke-linejoin="round"/>
</svg>
