<svg width="87" height="87" viewBox="0 0 87 87" fill="none" xmlns="http://www.w3.org/2000/svg">
<path d="M-3.28706e-07 0H5.1701" transform="translate(25.4707 36.0601)" stroke="#34C88A" stroke-width="2" stroke-linecap="round" stroke-linejoin="round"/>
<path d="M6.57412e-07 0H11.7189" transform="translate(34.7754 36.0601)" stroke="#34C88A" stroke-width="2" stroke-linecap="round" stroke-linejoin="round"/>
<path d="M-6.57412e-07 0H4.48075" transform="translate(50.8047 36.0601)" stroke="#34C88A" stroke-width="2" stroke-linecap="round" stroke-linejoin="round"/>
<path d="M-3.28706e-07 0H13.7869" transform="translate(25.4707 42.0464)" stroke="#34C88A" stroke-width="2" stroke-linecap="round" stroke-linejoin="round"/>
<path d="M-6.57412e-07 0H4.48075" transform="translate(43.9141 42.0464)" stroke="#34C88A" stroke-width="2" stroke-linecap="round" stroke-linejoin="round"/>
<path d="M0 1.90735e-07H4.99776" transform="translate(11.3398 15.1948)" stroke="#34C88A" stroke-width="2" stroke-linecap="round" stroke-linejoin="round"/>
<path d="M6.57412e-07 1.90735e-07H2.92972" transform="translate(20.9902 15.1948)" stroke="#34C88A" stroke-width="2" stroke-linecap="round" stroke-linejoin="round"/>
<path d="M6.57412e-07 1.90735e-07H4.13608" transform="translate(28.748 15.1948)" stroke="#34C88A" stroke-width="2" stroke-linecap="round" stroke-linejoin="round"/>
<path d="M12.5806 0H6.57412e-07" transform="translate(52.0117 7.84033)" stroke="#34C88A" stroke-width="2" stroke-linecap="round" stroke-linejoin="round"/>
<path d="M4.13608 0H1.31482e-06" transform="translate(43.5664 7.84033)" stroke="#34C88A" stroke-width="2" stroke-linecap="round" stroke-linejoin="round"/>
<path d="M9.30617 0H0" transform="translate(11.3398 7.84033)" stroke="#34C88A" stroke-width="2" stroke-linecap="round" stroke-linejoin="round"/>
<path d="M6.20412 0H6.57412e-07" transform="translate(25.3008 7.84033)" stroke="#34C88A" stroke-width="2" stroke-linecap="round" stroke-linejoin="round"/>
<path d="M0 0H0.689346" transform="translate(11.3398 1)" stroke="#34C88A" stroke-width="2" stroke-linecap="round" stroke-linejoin="round"/>
<path d="M-6.57412e-07 0H15.5103" transform="translate(17.2012 1)" stroke="#34C88A" stroke-width="2" stroke-linecap="round" stroke-linejoin="round"/>
<path d="M6.57412e-07 0H1.55103" transform="translate(46.8418 1)" stroke="#34C88A" stroke-width="2" stroke-linecap="round" stroke-linejoin="round"/>
<path d="M1.31482e-06 0H4.48075" transform="translate(65.9688 1)" stroke="#34C88A" stroke-width="2" stroke-linecap="round" stroke-linejoin="round"/>
<path d="M-6.57412e-07 0H7.92748" transform="translate(53.3926 1)" stroke="#34C88A" stroke-width="2" stroke-linecap="round" stroke-linejoin="round"/>
<path d="M0 7.62939e-07H5.51477" transform="translate(11.3398 86)" stroke="#34C88A" stroke-width="2" stroke-linecap="round" stroke-linejoin="round"/>
<path d="M-3.28706e-07 7.62939e-07H6.89346" transform="translate(22.0234 86)" stroke="#34C88A" stroke-width="2" stroke-linecap="round" stroke-linejoin="round"/>
<path d="M0 7.62939e-07H11.3742" transform="translate(11.3398 79.1582)" stroke="#34C88A" stroke-width="2" stroke-linecap="round" stroke-linejoin="round"/>
<path d="M-6.57412e-07 7.62939e-07H5.34243" transform="translate(28.4043 79.1582)" stroke="#34C88A" stroke-width="2" stroke-linecap="round" stroke-linejoin="round"/>
<path d="M6.57412e-07 7.62939e-07H4.48075" transform="translate(39.0859 79.1582)" stroke="#34C88A" stroke-width="2" stroke-linecap="round" stroke-linejoin="round"/>
<path d="M0 -1.52588e-06H3.10206" transform="translate(11.3398 72.1465)" stroke="#34C88A" stroke-width="2" stroke-linecap="round" stroke-linejoin="round"/>
<path d="M-3.28706e-07 -1.52588e-06H10.6849" transform="translate(18.5781 72.1465)" stroke="#34C88A" stroke-width="2" stroke-linecap="round" stroke-linejoin="round"/>
<path d="M1.31482e-06 -1.52588e-06H11.3742" transform="translate(34.0879 72.1465)" stroke="#34C88A" stroke-width="2" stroke-linecap="round" stroke-linejoin="round"/>
<path d="M1.31482e-06 -1.52588e-06H4.48075" transform="translate(65.9688 72.1465)" stroke="#34C88A" stroke-width="2" stroke-linecap="round" stroke-linejoin="round"/>
<path d="M-6.57412e-07 -1.52588e-06H11.3742" transform="translate(49.9473 72.1465)" stroke="#34C88A" stroke-width="2" stroke-linecap="round" stroke-linejoin="round"/>
<path d="M-3.28706e-07 3.8147e-07H8.61683" transform="translate(25.4707 48.2026)" stroke="#34C88A" stroke-width="2" stroke-linecap="round" stroke-linejoin="round"/>
<path d="M6.57412e-07 3.8147e-07H3.61907" transform="translate(38.2227 48.2026)" stroke="#34C88A" stroke-width="2" stroke-linecap="round" stroke-linejoin="round"/>
<path d="M1.31482e-06 3.8147e-07H5.6871" transform="translate(46.1484 48.2026)" stroke="#34C88A" stroke-width="2" stroke-linecap="round" stroke-linejoin="round"/>
<path d="M-3.28706e-07 7.62939e-07H11.5465" transform="translate(25.4707 54.3599)" stroke="#34C88A" stroke-width="2" stroke-linecap="round" stroke-linejoin="round"/>
<path d="M1.31482e-06 7.62939e-07H1.8957" transform="translate(40.9805 54.3599)" stroke="#34C88A" stroke-width="2" stroke-linecap="round" stroke-linejoin="round"/>
<path d="M73.76 6.29671V4.7887C73.76 2.22332 71.692 6.52408e-07 68.9346 6.52408e-07H4.82542C2.24037 6.52408e-07 8.21764e-08 2.0523 8.21764e-08 4.7887V35.7442C8.21764e-08 38.3096 2.06804 40.5329 4.82542 40.5329H69.1069C71.692 40.5329 73.9323 38.4806 73.76 35.7442V33.894" transform="translate(2.20508 23.4043)" stroke="#34C88A" stroke-width="2" stroke-linecap="round" stroke-linejoin="round"/>
<path d="M3.28706e-07 2.22332L2.24038 4.44665L6.72112 6.52408e-07" transform="translate(11.8594 32.811)" stroke="#34C88A" stroke-width="2" stroke-linecap="round" stroke-linejoin="round"/>
<path d="M3.28706e-07 2.22332L2.24038 4.44665L6.72112 -6.52408e-07" transform="translate(11.8594 44.4395)" stroke="#34C88A" stroke-width="2" stroke-linecap="round" stroke-linejoin="round"/>
<path d="M3.61907 1.30482e-06H0V13.682H4.13608" transform="translate(1 72.3179)" stroke="#34C88A" stroke-width="2" stroke-linecap="round" stroke-linejoin="round"/>
<path d="M3.61907 0H0V14.1951H4.13608" transform="translate(38.0508 1)" stroke="#34C88A" stroke-width="2" stroke-linecap="round" stroke-linejoin="round"/>
<path d="M19.9487 10.487C19.9487 15.7276 15.7058 19.974 10.4744 19.974C5.24295 19.974 1 15.7276 1 10.487C1 5.24633 5.24295 1 10.4744 1C15.7058 1 19.9487 5.24633 19.9487 10.487Z" transform="translate(66.0508 33.0127)" stroke="#34C88A" stroke-width="2"/>
<path d="M0 1.87267L3.74084 5.61802L9.35211 0" transform="translate(71.6641 40.5034)" stroke="#34C88A" stroke-width="2" stroke-linecap="round" stroke-linejoin="round"/>
</svg>
