<svg width="75" height="75" viewBox="0 0 75 75" fill="none" xmlns="http://www.w3.org/2000/svg">
<path d="M36.4325 12.883H21.9667C24.2437 11.4097 25.5831 8.59682 24.9134 5.51609C24.3776 2.83721 22.2345 0.828038 19.5557 0.158315C15.0016 -0.779296 11.1173 2.56931 11.1173 6.98948C11.1173 9.40048 12.3228 11.5436 14.3319 12.883H0V41.6811C0 45.8334 3.21382 49.4497 7.5 49.4497H36.5" transform="translate(1 24.5503)" stroke="#34C88A" stroke-width="2" stroke-linecap="round" stroke-linejoin="round"/>
<path d="M36.4325 36.4329V21.9669C37.9059 24.2439 40.7187 25.5834 43.7994 24.9137C46.4782 24.3779 48.4874 22.2348 49.1571 19.5559C50.0947 15.0018 46.7461 11.1174 42.326 11.1174C39.915 11.1174 37.7719 12.3229 36.4325 14.3321V0H7.63475C3.34858 0 0 3.34861 0 7.63483V36.4329" transform="translate(1 1)" stroke="#34C88A" stroke-width="2" stroke-linecap="round" stroke-linejoin="round"/>
<path d="M-1.0219e-06 36.4329H14.3319C12.0549 37.9063 10.7154 40.7191 11.3852 43.7998C11.9209 46.4787 14.064 48.4879 16.7429 49.1576C21.2969 50.0952 25.1813 46.7466 25.1813 42.3265C25.1813 39.9155 23.9758 37.7723 21.9667 36.4329H36.4325V7.63483C36.4325 3.48256 33.0839 0 28.7978 0H-1.0219e-06" transform="translate(37.5684 1)" stroke="#34C88A" stroke-width="2" stroke-linecap="round" stroke-linejoin="round"/>
<path d="M12.8829 1.02192e-06V14.466C11.4095 12.1889 8.59672 10.8495 5.51603 11.5192C2.83717 12.055 0.828028 14.1981 0.158313 16.877C-0.779289 21.4311 2.56929 25.3155 6.98941 25.3155C9.40038 25.3155 11.5435 24.11 12.8829 22.1008V36.5668H41.6807C45.8329 36.5668 49.3154 33.2182 49.3154 28.932V1.02192e-06" transform="translate(24.6836 37.4331)" stroke="#34C88A" stroke-width="2" stroke-linecap="round" stroke-linejoin="round"/>
</svg>
