<svg xmlns="http://www.w3.org/2000/svg" viewBox="0 0 837.72 616.96"><defs><style>.cls-1{fill:#1a1a1a;}.cls-2{fill:#00ca55;}.cls-3{fill:#fff;}.cls-4{fill:#3a3a3a;}.cls-5{fill:#ccc;}</style></defs><g id="Capa_2" data-name="Capa 2"><g id="Capa_1-2" data-name="Capa 1"><path class="cls-1" d="M42.7,333.17H294.54l3.8-24.17-9.45-16.15H67.94s-20,1.06-24.67,20.16Z"/><path class="cls-2" d="M189.85,276.28s1,35.91,12.58,56.15,22.2,34.91,46.2,35.87,39.09-14.37,60-12.95l33.78-.07s14.13.75,32.32,7.83,33.49,5.79,40.47,3.13S431.08,361.82,441,347a115.76,115.76,0,0,0,16.16-36.27c1.63-7,4.3-24.88,4.3-33a80.86,80.86,0,0,0,33.67,5.83c19.33-.75,25.71-.61,30.94-5.46,0,0-4.26,38.88-10.81,57.47s-17.66,49.06-33.66,65.11-30.95,31.06-57.82,40.24a132.72,132.72,0,0,1-49.77,7.08s-1.33,28,1.15,40.79A224.76,224.76,0,0,0,381.94,514l21,65.41H252s-6.88-51.21-7.88-80.7-.42-55.36-.42-55.36-26.34-1.22-51.58-22.11-36-38.8-45.49-58.93S132,320.81,130,309.09s-4.25-29.62-4.25-29.62,12.11,4.09,29.34,3.77S188.37,280.26,189.85,276.28Z"/><path class="cls-2" d="M268.5,135.38c-.46.09-15.18,4.59-26.87,2.72l-1.38-60.43-61-.94-1,.86c-2.23,11.82,2,26.49,2.54,28.26a21.36,21.36,0,0,1-42.71,0c.53-1.77,4.76-16.44,2.53-28.26l-1-.86-61.2.42L78.27,240l119.41.66h7.6l35.7-.78.65-60.25c11.7-1.85,26.41,2.63,26.56,2.67a23.44,23.44,0,1,0,.31-46.87Z"/><path class="cls-1" d="M596.81,94.1l-61.12-1v1l-1-.2c-2.23,11.83,2,26.5,2.54,28.27a21.36,21.36,0,0,1-42.72,0c.53-1.77,4.78-16.44,2.54-28.27l-1,.2v-1l-61.34.72-1.05,61.54h1l-.16.85c11.83,2.23,26.49-2,28.27-2.53a21.36,21.36,0,0,1,0,42.72c-1.78-.54-16.44-4.78-28.27-2.54l-.86,1.2.75,60.87L499,256.93h98.49V195.05h-1.09l.24-1.24c-11.83-2.24-26.5,2-28.27,2.54a21.36,21.36,0,0,1,0-42.72c1.77.53,16.44,4.77,28.27,2.53l-.31-1.62h1.16Z"/><path class="cls-3" d="M519.53,280.66s9.87-19.92,11.25-33.33H486.19s12.85-10,5.43-17.37-25.6,11.8-26.84,13.34-4.7,8.74-1.2,15.07,15.26,23.45,15.26,23.45S514.22,285.32,519.53,280.66Z"/><path class="cls-3" d="M172.93,282s13.93-20.19,14.77-22.23,5-10.23-.12-15.93-12.15-13.53-16.61-15-8.88-1.78-11.93,2.3-.35,10.33,5.88,16.18H121.86s7.72,27.27,11.9,34C133.76,281.29,163.43,285.45,172.93,282Z"/><path class="cls-3" d="M341.07,355.35l3.08-30.47s13-.69,13-11.21-10.81-11.33-13.8-11c0,0-2.94-12.67-7.47-16.78s-11.53-3.66-16.08-4.65S305,276.71,301.1,274c0,0-9.74,11.27-12,22.28-2.38,11.58,4.55,11.8,4.25,14.51-1.22,10.65-2.59,25.65,5.92,28.09s10.11,2.61,10.11,2.61l-1.54,13.28s-9.52,28.57,2.19,28.68,22-10.94,25.8-17.42A61.39,61.39,0,0,0,341.07,355.35Z"/><path class="cls-1" d="M292.63,325.86s-9.46,2.51-11.7,14.26a20.69,20.69,0,0,0,5.79,18.77s13.72-4.24,21.33-3.14l1.33-14.23S292.72,342.29,292.63,325.86Z"/><path class="cls-1" d="M341.79,355.35a41.65,41.65,0,0,1,19.62,2.91c10.62,4.24,20.29,7,20.29,7s13.05-7.16,12.06-19.41-10.87-20-16.94-20.8a50.66,50.66,0,0,0-11.45-.21s-2.21-7.07,4.77-16.84,8.7-19.94,5.9-27.41-13.57-17.59-27.51-19l-2.17-1.17s-11.36-12-25.91-12.93-28.88,5.24-34.3,15.57.76,25.54,2.74,29.75c0,0,3.77-6.28,4.79-8.49.67-1.44,5.51-4.53,5.51-4.53l1.91-5.8s7.25,6.17,16.85,6.87,15.13,1.67,19.44,7.43,4.77,14.79,4.77,14.79a8.69,8.69,0,0,1,8.16.73c4.52,2.65,7,6.5,6.37,11.45s-6.43,10.15-13.27,9.28Z"/><path class="cls-1" d="M130.44,274.57l2.71,6.37s-6.3-1.06-6.7-3.19S130.44,274.57,130.44,274.57Z"/><path class="cls-1" d="M180,271.44l-7,10.56s17.93-2.18,16.94-6.31C189.07,272.37,180,271.44,180,271.44Z"/><path class="cls-4" d="M522.62,275l-3.4,6.61s6.64-1.37,6.89-3.63-3.45-3.43-3.45-3.43Z"/><path class="cls-4" d="M478.84,281.82l-7.48-10s-10.09,1.79-9.33,4.45S478.84,281.82,478.84,281.82Z"/><path class="cls-5" d="M530.78,247.33,486.61,247l-6.26,5.94c.31,0-2.63,1.91-2.63,1.91,2.44.35,5.92-.68,9-1.91H529Z"/><path class="cls-3" d="M258.87,311.51a7.94,7.94,0,1,1-7.94-7.93A7.93,7.93,0,0,1,258.87,311.51Z"/><path class="cls-3" d="M286.48,311.51a7.94,7.94,0,1,1-7.94-7.93A7.93,7.93,0,0,1,286.48,311.51Z"/><path class="cls-1" d="M682.69,295.1S696.92,283,691.31,269c-3.92-9.82-15-14-26.18-17.4s-20.46-3.77-27.69-1.59-13.75,9.93-13.75,9.93-9.11-2.46-13.71,3.17-8.74,14.46-8.93,22.23,3,12.68-1.54,18.11-10.88,14.91-9.28,22.34,8.91,11.09,19.53,13.13,19.29,1.37,23.66-3,5.76-9.2,1.34-16.1c0,0-6.88,2.88-9.17-6.52,0,0-9.54-4.47-6.64-14.31s14.86-7.39,17.11-4.56a64.13,64.13,0,0,0,6-21.1s11.08-3.89,22.91-.74S686.36,283,682.69,295.1Z"/><path class="cls-2" d="M652.89,354.16l-.61,2.65s2.47,26.53-3.22,26.63-19.28-10.93-24.44-18.7-7.57-9.2-7.57-9.2v-1.78s-15.09-1.88-29.45,2.72-25.13,12.4-41.2,44.76S528,456,525.57,465.06s-7.6,40.62-6.27,50.27,12.79,56.17,46.31,64.07H716L714.21,552s21.75,4.5,40.24-24.33,18.83-41,18.83-41-19.25,4-26.84.41-22-83.86-22-83.86S716.14,358.13,652.89,354.16Z"/><path class="cls-1" d="M770,438l7.89-17.67s.63-10.67-8.58-12.58l-134.61,11s-7.57.53-10.76,9.83l-44.63,94s-3.72,14.36,9.83,16.08l133.49-12s5.71-.13,8.37-6.78Z"/><path class="cls-3" d="M770.49,407.4,763,401.24h-7.13L639.38,411.82s-14,.54-16.87,3.06-10.1,17.27-14.21,26.43S572,517.69,572,517.69s-1.85,5.71,1.33,9.16l5.51,5.52a16.48,16.48,0,0,1,.87-10.43c2.39-5.05,47.82-100.15,47.82-100.15A42.71,42.71,0,0,1,642,418.47C650.67,417.93,766,407.4,766,407.4Z"/><rect class="cls-3" x="330.55" y="515.56" width="235.06" height="92.49" rx="25.24"/><path class="cls-3" d="M681.8,474.77c-3.32,5.74-2.94,12.17.84,14.35s9.53-.7,12.85-6.45,2.94-12.17-.84-14.35S685.12,469,681.8,474.77Z"/><path class="cls-3" d="M638.08,314.34a6.09,6.09,0,1,1-6.09-6.08A6.09,6.09,0,0,1,638.08,314.34Z"/><path class="cls-1" d="M677.51,322.67s11.33,12.45,1.48,20.09-23.72,1-23.72,1l1.25-3.55s9.56.53,13.08-3.22S677.51,322.67,677.51,322.67Z"/><path class="cls-2" d="M6.61,491.05l49.46-30.61a3.06,3.06,0,0,1,4.67,2.75l-2.85,58.1a3.06,3.06,0,0,1-4.61,2.49l-13.37-7.89A3.06,3.06,0,0,0,35.72,517L16.28,550A3.06,3.06,0,0,1,12.09,551L1.51,544.79A3.07,3.07,0,0,1,.42,540.6l19.45-33a3.06,3.06,0,0,0-1.08-4.19L6.66,496.29A3.06,3.06,0,0,1,6.61,491.05Z"/><rect class="cls-2" x="84.64" y="420.71" width="37.28" height="41.62"/><rect class="cls-1" x="61.93" y="352.35" width="41.62" height="41.62"/><path class="cls-2" d="M811.67,216.94c-2.46-4.21-6.48-4.21-8.93,0l-18.89,32.34c-2.46,4.21-.48,7.65,4.39,7.65h37.94c4.88,0,6.85-3.44,4.39-7.65Z"/><path class="cls-3" d="M301.72,262.53a15.85,15.85,0,0,1,3.48-13.36c-8.48,2.44-15.59,7.33-19.05,13.93-5.43,10.33.76,25.54,2.74,29.75,0,0,3.77-6.28,4.79-8.49.67-1.44,5.51-4.53,5.51-4.53l1.91-5.8s7.25,6.17,16.85,6.87c6,.44,10.45,1,14,2.76l.88-.29S304.31,276.28,301.72,262.53Z"/><path class="cls-3" d="M293.47,331.48a18.73,18.73,0,0,1-.84-5.62s-9.46,2.51-11.7,14.26a20.69,20.69,0,0,0,5.79,18.77s5.28-1.23,8.24-1.95C284.79,345.91,290.13,334.91,293.47,331.48Z"/><path class="cls-3" d="M682.68,295.1S696.92,283,691.31,269c-3.92-9.82-15-14-26.18-17.4l-.69-.19c5.46,2.94,10.24,6.85,11.32,11.81,1.15,5.31-4.36,7.95-11.23,9.23l.48.11C676.83,275.68,686.36,283,682.68,295.1Z"/><path class="cls-3" d="M634.76,319.76a6.44,6.44,0,0,1-5.48-.47c1.14,4.79.69,19.68-28.43,16.82,1,.26,7.79,2.56,8.91,2.78,10.62,2,19.29,1.37,23.66-3S639.18,326.66,634.76,319.76Z"/><path class="cls-3" d="M677.51,322.67s-1,2.34-2.36,5.2c1.2,4.58,2.68,16.08-15.19,17.53,4.91,1.3,12.77,2.2,19-2.64C688.84,335.12,677.51,322.67,677.51,322.67Z"/><rect class="cls-1" x="321.13" y="524.47" width="235.06" height="92.49" rx="25.24"/><path class="cls-3" d="M776.68,423.94,770,438s-7.24,1.38-13.37,1.91S743,438,740.23,445.22s1.62,10,1.62,10-9.27,9.58-1.19,15.56c0,0-9.37,7.17.69,13.44s29.26,3.4,33.76,1.8,12.43-7.75,13.54-22.71,1-22.85-1.55-27.77S776.68,423.94,776.68,423.94Z"/><path d="M252,580.45a1.06,1.06,0,0,1-1-.9c-3.87-26.11-5.16-44.64-6.54-64.25-.33-4.65-.65-9.38-1-14.33-4.94-65.71,3.74-88.14,8.4-100.19.56-1.45,1.07-2.76,1.5-4a1,1,0,1,1,2,.69c-.43,1.25-.94,2.58-1.52,4.06-4.6,11.89-13.17,34-8.26,99.27.37,5,.7,9.69,1,14.34,1.37,19.57,2.67,38.06,6.52,64.09a1.06,1.06,0,0,1-.89,1.2Z"/><path d="M299.19,280.61a1.09,1.09,0,0,1-1-1.27c1.08-5,1.12-5.13,1.14-5.19a1.05,1.05,0,0,1,2,.74c0,.05-.35,1.62-1.06,4.9A1,1,0,0,1,299.19,280.61Z"/><path d="M315.12,342.6c-2.08,0-4.14,0-5.82-.11a24.28,24.28,0,0,1-9.12-1.9c-4.22-1.95-6.78-5.58-7.84-11.09-1.21-6.35-.89-12.12,0-18.82a1.05,1.05,0,1,1,2.09.27c-.83,6.5-1.14,12.08,0,18.15.92,4.8,3.1,7.94,6.66,9.58a21.66,21.66,0,0,0,8.32,1.71c3.47.14,8.58.17,12.17-.07a1.05,1.05,0,0,1,1.12,1,1,1,0,0,1-1,1.12C319.78,342.55,317.43,342.6,315.12,342.6Z"/><path d="M345.87,325.64l-.79,0A12.05,12.05,0,0,1,339,323.5a1,1,0,0,1,1.19-1.73,9.9,9.9,0,0,0,15.53-7.5,9.92,9.92,0,0,0-14.88-9.2,1.05,1.05,0,0,1-1.05-1.82,12,12,0,1,1,6.06,22.39Z"/><path d="M347.54,320.5a1,1,0,0,1-.74-.3l-6.61-6.61a1.08,1.08,0,0,1-.3-.89,1,1,0,0,1,.53-.77l8.87-5a1.06,1.06,0,0,1,1.43.41,1,1,0,0,1-.4,1.43l-7.66,4.27,5.63,5.63a1.06,1.06,0,0,1,0,1.49A1.08,1.08,0,0,1,347.54,320.5Z"/><path d="M312.09,384.41a29.45,29.45,0,0,1-3.32-.19,7,7,0,0,1-5.69-3.54c-4.12-7.31,3-23.55,3.93-25.53l1-13.71a1.05,1.05,0,0,1,2.1.16l-1,13.89a1,1,0,0,1-.1.37c-.08.17-7.86,17.1-4.09,23.78a5,5,0,0,0,4.09,2.49c24.21,2.57,31-26.71,31-27a1,1,0,0,1,1.26-.8,1,1,0,0,1,.8,1.25C342,355.88,335.46,384.41,312.09,384.41Z"/><path d="M312.46,325.63a11.05,11.05,0,0,1-4.21-.93,1.06,1.06,0,0,1,.82-1.95c2.26.95,4.2,1,5.74.23,2.61-1.35,3.4-4.73,3.41-4.76a1,1,0,0,1,1.25-.79,1,1,0,0,1,.79,1.26c0,.17-1,4.37-4.49,6.16A7.14,7.14,0,0,1,312.46,325.63Z"/><path d="M341.07,356.4a1.07,1.07,0,0,1-1.05-1.14l2.75-30.47a1.08,1.08,0,0,1,1.14-1,1,1,0,0,1,.95,1.14l-2.74,30.48A1,1,0,0,1,341.07,356.4Z"/><path d="M251.64,369.39c-12.51,0-24.92-3.77-34.71-13.6-6.78-6.81-12.38-15.52-17.1-26.63-6.65-15.61-10.56-34.38-11-52.85a1.05,1.05,0,0,1,1-1.08,1.07,1.07,0,0,1,1.08,1c.46,18.21,4.32,36.7,10.86,52.08,4.62,10.86,10.07,19.35,16.66,26,18,18.09,45.46,14.66,65.14,5.42A59.5,59.5,0,0,1,308,354.36a1.06,1.06,0,0,1,1.07,1,1,1,0,0,1-1,1.06,57.53,57.53,0,0,0-23.6,5.17A78.87,78.87,0,0,1,251.64,369.39Z"/><path d="M244.45,444.39c-21.06-1.55-36.72-10.29-53.77-22.92-36.34-26.93-61-80.52-65.95-143.37a1,1,0,0,1,1-1.13,1,1,0,0,1,1.13,1c4.92,62.25,29.26,115.28,65.11,141.85,16.75,12.42,32.11,21,52.6,22.51a1.05,1.05,0,0,1-.08,2.1Z"/><path d="M172.73,283.37a1,1,0,0,1-.55-.16,1,1,0,0,1-.34-1.45c0-.09,5.54-8.89,11.74-17.16s6.34-16.58,3.22-20.06l-1-1.1c-3.69-4.24-13.59-15.54-20.77-15a7.24,7.24,0,0,0-6.07,8.72c1.9,8.07,15.7,16.15,15.84,16.23a1,1,0,0,1,.39,1.43,1.06,1.06,0,0,1-1.44.39c-.6-.35-14.73-8.62-16.84-17.57a9.33,9.33,0,0,1,8-11.29,5.62,5.62,0,0,1,.58,0c8.18,0,17.77,11,21.92,15.77l.94,1.08c4.4,4.91,3.1,14.46-3.1,22.73s-11.58,16.91-11.63,17A1.07,1.07,0,0,1,172.73,283.37Z"/><path d="M153.53,284.53a114.75,114.75,0,0,1-18.43-1.3c-6.92-1.16-10.31-2.86-10.38-5.19,0-2.11,1.44-3,4.2-4a1.05,1.05,0,0,1,.69,2c-2.81,1-2.79,1.47-2.79,1.95s1.59,2,8.63,3.17a123,123,0,0,0,22.5,1.21c20.05-.54,30.9-4.29,30.85-6.06,0-.22-.32-2.18-9.27-3.44a1.05,1.05,0,0,1-.9-1.19,1,1,0,0,1,1.19-.89c7.39,1,11,2.83,11.08,5.47.16,5.79-21.45,7.9-32.89,8.21C156.5,284.51,155,284.53,153.53,284.53Z"/><path d="M159.85,272.88a1.07,1.07,0,0,1-1-.88c-2-12.06-9.26-23.61-9.33-23.72a1.05,1.05,0,1,1,1.77-1.13c.31.48,7.59,12,9.64,24.51a1.06,1.06,0,0,1-.87,1.21Z"/><path d="M400.24,369.39c-11.5,0-23.08-3.18-32.82-7.76-6.62-3.11-16.21-5.07-25.65-5.23a1,1,0,0,1-1-1.06,1.05,1.05,0,0,1,1.05-1c9.73.17,19.64,2.19,26.53,5.43,19.66,9.24,47.12,12.66,65.14-5.42,6.59-6.62,12-15.11,16.66-26,6.54-15.38,10.4-33.88,10.86-52.08a1.08,1.08,0,0,1,1.08-1,1.05,1.05,0,0,1,1,1.08c-.46,18.47-4.38,37.23-11,52.85-4.72,11.11-10.31,19.82-17.1,26.63C425.16,365.62,412.75,369.39,400.24,369.39Z"/><path d="M382.36,449.25q-4.17,0-8.38-.28a1,1,0,0,1-1-1.13,1,1,0,0,1,1.12-1c30.36,2.09,58.42-6.78,85.83-27.09,35.84-26.57,60.18-79.6,65.1-141.85a1,1,0,0,1,1.13-1,1.05,1.05,0,0,1,1,1.13c-5,62.85-29.62,116.44-65.95,143.37C436.29,439.93,409.81,449.25,382.36,449.25Z"/><path d="M479.15,283.37a1.07,1.07,0,0,1-.9-.5c-.05-.09-5.49-8.82-11.63-17s-7.5-17.82-3.1-22.73c3.65-4.09,14.3-16,23.22-16a8.72,8.72,0,0,1,6.9,3.32,6.37,6.37,0,0,1,1.42,5.17c-1.15,8.48-16.24,19-16.88,19.47a1,1,0,0,1-1.47-.26,1.06,1.06,0,0,1,.27-1.47c.15-.1,15-10.46,16-18a4.3,4.3,0,0,0-1-3.53,6.61,6.61,0,0,0-5.15-2.57c-5.44,0-12.67,5.08-21.65,15.12C462,248,462,256.24,468.3,264.6S480,281.67,480,281.76a1.05,1.05,0,0,1-.33,1.45A1,1,0,0,1,479.15,283.37Z"/><path d="M498.35,284.53c-1.47,0-3,0-4.48-.06-11.44-.31-33.05-2.42-32.89-8.22.07-2.63,3.7-4.42,11.08-5.46a1,1,0,0,1,1.19.89,1.05,1.05,0,0,1-.89,1.19c-9,1.26-9.27,3.22-9.28,3.44,0,1.77,10.8,5.52,30.85,6.06a122.66,122.66,0,0,0,22.5-1.21c7-1.18,8.61-2.69,8.63-3.17s0-1-2.79-1.95a1.05,1.05,0,0,1,.69-2c2.77,1,4.26,1.89,4.2,4-.06,2.32-3.46,4-10.38,5.18A114.75,114.75,0,0,1,498.35,284.53Z"/><path d="M296.11,312.57a7.72,7.72,0,0,1-1.7-.21c-5.45-1.28-8-9.68-5.79-19.12s8.21-15.85,13.66-14.57,8,9.67,5.79,19.11l-.22,1a15.25,15.25,0,0,1-2.28,6,1.05,1.05,0,1,1-1.76-1.15,13.26,13.26,0,0,0,2-5.29l.22-1c1.88-8-.06-15.61-4.22-16.58s-9.26,5-11.13,13,.06,15.61,4.22,16.59a6.28,6.28,0,0,0,1.27.15c.52-.1,1.06.46,1.06,1A1.05,1.05,0,0,1,296.11,312.57Z"/><path d="M320.94,316.82a6.61,6.61,0,0,1-1.4-.16c-2.71-.64-4.79-3.06-5.85-6.81a27.59,27.59,0,0,1,5.46-23.36c2.61-2.91,5.54-4.15,8.26-3.52s4.79,3,5.84,6.81a27.57,27.57,0,0,1-5.45,23.36C325.63,315.55,323.24,316.82,320.94,316.82ZM326,284.91c-1.7,0-3.54,1-5.3,3a25.52,25.52,0,0,0-5,21.38c.84,3,2.36,4.87,4.3,5.33s4.14-.57,6.21-2.88a25.43,25.43,0,0,0,5-21.38c-.83-3-2.36-4.88-4.29-5.33A4.06,4.06,0,0,0,326,284.91Z"/><path d="M314.48,300.26a1.08,1.08,0,0,1-.8-.35c-3-3.46-5.77-1.38-6.07-1.14a1.07,1.07,0,0,1-1.48-.14,1.05,1.05,0,0,1,.13-1.47c1.56-1.31,5.43-2.71,9,1.36a1,1,0,0,1-.1,1.48A1,1,0,0,1,314.48,300.26Z"/><path d="M716.41,553.11c-.76,0-1.51,0-2.26-.07a1,1,0,0,1-1-1.11,1.11,1.11,0,0,1,1.11-1,38.63,38.63,0,0,0,10.55-.85c21.49-4.63,39.31-35.36,47.45-63.76a1,1,0,0,1,1.3-.72,1.06,1.06,0,0,1,.72,1.3c-8.31,29-26.69,60.42-49,65.24A41.77,41.77,0,0,1,716.41,553.11Z"/><path d="M574.1,569.46a40.69,40.69,0,0,1-8.72-1,1,1,0,0,1-.79-1.25,1,1,0,0,1,1.25-.8c28.67,6.28,47.47-21.66,52.56-30.37a1,1,0,1,1,1.81,1.06C615.47,545.25,599.18,569.46,574.1,569.46Z"/><path d="M518.78,516.39a1,1,0,0,1-1-1,77.54,77.54,0,0,1,.78-14.17c8.85-68.31,24.74-96.52,38.75-121.42,16.6-29.48,50-28.18,59.9-27.07a1,1,0,0,1,.93,1.16,1,1,0,0,1-1.16.93c-9.53-1.08-41.87-2.35-57.84,26-13.92,24.73-29.7,52.76-38.5,120.66a75.63,75.63,0,0,0-.76,13.81,1.06,1.06,0,0,1-1,1.1Z"/><path d="M724.4,404.22a1,1,0,0,1-1-.74c-9.95-31.84-34.23-41.11-54.28-45.63-.09,0-11-2.24-16.3-2.64a1.06,1.06,0,0,1-1-1.13,1,1,0,0,1,1.13-1c5.43.41,16.13,2.59,16.59,2.69,20.61,4.65,45.57,14.19,55.84,47.06a1.05,1.05,0,0,1-.69,1.31A.87.87,0,0,1,724.4,404.22Z"/><path d="M660.52,341.67a27.71,27.71,0,0,1-7-1,121.51,121.51,0,0,1-11.83-3.74,1,1,0,0,1-.6-1.36,1.07,1.07,0,0,1,1.36-.6c3.34,1.3,8.24,2.78,11.6,3.67a21.8,21.8,0,0,0,8.46.83c3.89-.52,6.9-2.87,9.18-7.18a51.49,51.49,0,0,0,4.76-14c.07-.28,5.95-22.71,5.63-31.95a1,1,0,0,1,1-1.09,1.14,1.14,0,0,1,1.09,1c.33,9.56-5.44,31.58-5.68,32.51a53.43,53.43,0,0,1-4.95,14.55c-2.63,4.95-6.14,7.66-10.76,8.27A17.06,17.06,0,0,1,660.52,341.67Z"/><path d="M625.59,314.29a1,1,0,0,1-.34-.06A12,12,0,1,1,638,294.76a1.05,1.05,0,1,1-1.55,1.42,9.91,9.91,0,1,0-10.53,16.07,1,1,0,0,1-.34,2Z"/><path d="M625.83,309a1.05,1.05,0,0,1-.93-.55,1.06,1.06,0,0,1,.44-1.43l7-3.71-6-6.35a1,1,0,0,1,0-1.48,1.07,1.07,0,0,1,1.49,0l7,7.36a1,1,0,0,1,.28.89,1.06,1.06,0,0,1-.54.77l-8.27,4.35A1,1,0,0,1,625.83,309Z"/><path d="M591.77,477.26c-.84-.2-1.17-.78-1-1.34,7.72-27.26,7-67.88,7-68.28a1.05,1.05,0,1,1,2.1,0c0,.41.69,41.33-7.12,68.89A1,1,0,0,1,591.77,477.26Z"/><path d="M661.55,325.78a8,8,0,0,1-5.63-2c-2.86-2.67-2.66-7-2.66-7.14a1.05,1.05,0,0,1,2.1.1s-.14,3.52,2,5.51c1.28,1.18,3.15,1.63,5.59,1.33a1.08,1.08,0,0,1,1.17.92,1.05,1.05,0,0,1-.92,1.17A13.51,13.51,0,0,1,661.55,325.78Z"/><path d="M589.87,539.73A12.43,12.43,0,0,1,578.67,522l20.67-43.72a1,1,0,0,1,1.4-.5,1.06,1.06,0,0,1,.5,1.4l-20.67,43.72a10.33,10.33,0,0,0,10.27,14.69l130.88-11.73a10.37,10.37,0,0,0,8.41-5.88l15.36-32.51a1.05,1.05,0,1,1,1.9.9L732,520.87a12.47,12.47,0,0,1-10.13,7.07L591,539.68C590.64,539.71,590.25,539.73,589.87,539.73Z"/><path d="M611.23,456.61a1,1,0,0,1-1-1.5l14.14-29.9a12.47,12.47,0,0,1,10.13-7.07L765.42,406.4a12.43,12.43,0,0,1,12.35,17.69L771,438.45a1,1,0,1,1-1.9-.89l6.78-14.37a10.18,10.18,0,0,0-.87-10.32,10,10,0,0,0-9.38-4.37L634.72,420.23a10.37,10.37,0,0,0-8.41,5.88L612.18,456A1.05,1.05,0,0,1,611.23,456.61Z"/><path d="M582.35,536.86a1,1,0,0,1-.74-.31l-9.09-9a12.29,12.29,0,0,1-.63-11.74l45.73-96.78A12.45,12.45,0,0,1,627.75,412l130.88-11.75a12.87,12.87,0,0,1,5.32.67,1,1,0,0,1,.31.17l9.5,7.58a1.06,1.06,0,1,1-1.32,1.65l-9.36-7.48a10.18,10.18,0,0,0-4.26-.49L627.93,414.08a10.35,10.35,0,0,0-8.4,5.87l-45.74,96.78a10.16,10.16,0,0,0,.31,9.45l9,8.88a1,1,0,0,1,0,1.48A1,1,0,0,1,582.35,536.86Z"/><path d="M636.07,295.42a1.09,1.09,0,0,1-.68-.24,1.06,1.06,0,0,1-.14-1.48c3.71-4.49,5.78-20.4,5.8-20.56a1.06,1.06,0,0,1,.78-.88c.32-.09,32.73-8.35,42.29,13.54a1,1,0,0,1-.54,1.38,1.07,1.07,0,0,1-1.39-.54c-8.09-18.57-34.57-13.54-39.15-12.51-.46,3.28-2.52,16.49-6.16,20.91A1.07,1.07,0,0,1,636.07,295.42Z"/><path d="M620.22,341a53.86,53.86,0,0,1-7.46-.57c-9-1.25-19.64-3.64-22.79-11.05a13.53,13.53,0,0,1-.82-5.86,29.4,29.4,0,0,1,6.94-17.76l.79-.89c3.19-3.59,5.5-6.19,4.14-11.2-2.52-9.26-.35-20.85,5.25-28.17,3.31-4.34,7.44-6.62,11.93-6.62h5.49a1,1,0,0,1,0,2.1H618.2c-4.82,0-8.24,3.15-10.27,5.79-5.14,6.73-7.2,17.82-4.88,26.35,1.66,6.11-1.24,9.37-4.6,13.15l-.78.88a27.2,27.2,0,0,0-6.41,16.48,11.57,11.57,0,0,0,.64,4.93c2.74,6.43,12.75,8.61,21.15,9.79,10.11,1.42,16.91.11,20.24-3.87,4.48-5.34,3.51-11,.71-14a1,1,0,0,1,0-1.48,1.06,1.06,0,0,1,1.49.05c3.41,3.64,4.68,10.44-.63,16.76C632,339.25,627.1,341,620.22,341Z"/><path d="M716,579.58a1.06,1.06,0,0,1-1.05-.92c-3-23.42-2.69-50.74-2.68-51a1,1,0,0,1,1-1,1.12,1.12,0,0,1,1.05,1.06c0,.27-.3,27.45,2.67,50.73a1,1,0,0,1-.91,1.17Z"/><path d="M668.45,346.64a35.08,35.08,0,0,1-12.82-2.48,1.06,1.06,0,1,1,.83-1.94c6.35,2.7,20.53,4.53,24.54-3.4s-3.86-15.07-4.19-15.37a1.05,1.05,0,1,1,1.41-1.56c.09.08,9.34,8.58,4.65,17.88C680.28,344.91,674.4,346.63,668.45,346.64Z"/><path d="M759.12,489.52a76.65,76.65,0,0,1-8.77-.52c-6.45-.74-15.6-5.38-14.77-13a7.78,7.78,0,0,1,4.08-6,1.05,1.05,0,0,1,1,1.85,5.7,5.7,0,0,0-3,4.41c-.7,6.38,8.07,10.08,12.91,10.64,16.23,1.88,26.85-1.63,30.2-5.92,2.52-3.22,4.41-7.45,5.78-12.92A74.63,74.63,0,0,0,788.25,442c-1-8.95-12.09-17.13-12.19-17.22a1,1,0,1,1,1.23-1.69c.49.35,11.9,8.81,13.05,18.67a75.35,75.35,0,0,1-1.75,26.82c-1.43,5.77-3.45,10.25-6.15,13.71C778.82,486.91,770.08,489.52,759.12,489.52Z"/><path d="M751,458.28a19.9,19.9,0,0,1-2.76-.14l-.75-.1c-2.35-.31-5.9-.78-7.44-3.27a10.51,10.51,0,0,1-1.18-9.12,11.09,11.09,0,0,1,5.49-5.91c2.37-1.28,4.86-1.14,7.29-1,.54,0,1.09.07,1.64.08,20.5.5,24.28-3.9,24.31-3.95a1.06,1.06,0,0,1,1.46-.19,1,1,0,0,1,.25,1.43c-.39.55-4.38,5.35-26.08,4.81-.56,0-1.14-.05-1.7-.08-2.24-.13-4.32-.25-6.17.75a9.08,9.08,0,0,0-4.51,4.77,8.43,8.43,0,0,0,1,7.3c1,1.65,4,2,5.93,2.29l.78.11c4.54.67,24.56-1.49,26.32-2.18a1.07,1.07,0,0,1,1.36.6,1,1,0,0,1-.6,1.36C773.66,456.62,758.28,458.28,751,458.28Z"/><path d="M702.82,407.36a1,1,0,0,1-1.05-1.05v-4.14a1,1,0,1,1,2.1,0v4.14A1,1,0,0,1,702.82,407.36Z"/><path d="M754.81,474.45c-2.79,0-5.57-.1-8.16-.36-5.35-.55-10.84-4.14-10.26-10.75a12.41,12.41,0,0,1,5.44-8.62,1,1,0,1,1,1.19,1.73,10.43,10.43,0,0,0-4.54,7.07c-.45,5.19,4,8,8.38,8.47,12.06,1.25,28.74-1.09,28.9-1.12a1.05,1.05,0,0,1,.3,2.08A174.67,174.67,0,0,1,754.81,474.45Z"/><path d="M683.29,484.74a6.7,6.7,0,0,1-3.35-.88c-4.27-2.46-4.82-9.55-1.23-15.79s10-9.31,14.3-6.84,4.82,9.56,1.22,15.8a16.7,16.7,0,0,1-6.69,6.61A9.56,9.56,0,0,1,683.29,484.74Zm-2.75-15.62c-3,5.24-2.82,11,.46,12.92,1.49.88,3.48.78,5.6-.28a14.64,14.64,0,0,0,5.81-5.78c3-5.15,2.76-11.06-.45-12.92s-8.4.82-11.42,6.06Z"/><path d="M647.94,384.66c-9.59,0-29.39-25.43-31.73-28.47a1.07,1.07,0,0,1-.19-.88l3.59-15.71a1,1,0,1,1,2,.47l-3.47,15.22c9,11.69,25.05,29.11,30.53,27.15,3.67-1.27,3.58-15.17,2.33-24.64a1.53,1.53,0,0,1,0-.37l4-17.27a1.05,1.05,0,1,1,2.05.47l-3.92,17.09c.58,4.49,2.76,24.45-3.74,26.71A4.44,4.44,0,0,1,647.94,384.66Z"/><path d="M634.1,266.67a.92.92,0,0,1-.46-.11L626.28,263a1.05,1.05,0,0,1-.48-1.41,1,1,0,0,1,1.4-.48l7.36,3.59a1,1,0,0,1-.46,2Z"/><path d="M789.78,580.45H565.61a1.06,1.06,0,0,1,0-2.11H789.78a1.06,1.06,0,0,1,0,2.11Z"/><path d="M330.55,580.45H24a1.06,1.06,0,0,1,0-2.11H330.55a1.06,1.06,0,0,1,0,2.11Z"/><path d="M677.91,296.83c-.82-.21-1.42.09-1.95,3.08-.6,3.33.22,4,1,4s1.62-.92,1.81-3.32S679,297.11,677.91,296.83Z"/><path d="M656.37,293c-.83-.19-1.42.13-1.87,3.13-.51,3.34.32,4,1.08,4s1.58-1,1.72-3.37S657.45,293.26,656.37,293Z"/><path d="M34.35,552.5a4.11,4.11,0,0,1-2.07-.56l-10.59-6.25a4.1,4.1,0,0,1-1.45-5.62l19.44-33a2,2,0,0,0-.71-2.75l-12.12-7.15a4,4,0,0,1-2-3.49,4.08,4.08,0,0,1,1.94-3.54l49.47-30.62a4.12,4.12,0,0,1,6.27,3.7l-2.85,58.1a4.1,4.1,0,0,1-6.19,3.34L60.09,516.8a1.94,1.94,0,0,0-1.51-.22,2,2,0,0,0-1.23.93l-19.45,33A4.11,4.11,0,0,1,34.35,552.5ZM27.88,492a2,2,0,0,0,0,3.43L40,502.53a4.12,4.12,0,0,1,1.45,5.63l-19.44,33a2,2,0,0,0-.21,1.52,2,2,0,0,0,.92,1.23l10.58,6.24a2,2,0,0,0,2.75-.71l19.45-33a4.07,4.07,0,0,1,2.51-1.89,4,4,0,0,1,3.12.44l13.37,7.88a2,2,0,0,0,3-1.63l2.85-58.1a2,2,0,0,0-3.06-1.81L27.88,492Z"/><path d="M812.29,263.24H774.35c-2.75,0-4.82-1-5.86-2.78s-.82-4.08.56-6.46l18.88-32.33c1.39-2.37,3.3-3.68,5.38-3.68s4,1.3,5.38,3.67L817.59,254c1.39,2.37,1.59,4.66.56,6.45S815.05,263.24,812.29,263.24Zm-19-43.15c-1.31,0-2.57.94-3.55,2.64l-18.88,32.33c-1,1.7-1.2,3.25-.56,4.36s2.07,1.71,4,1.71h37.94c2,0,3.4-.61,4-1.71s.44-2.66-.55-4.35l-18.91-32.34C795.88,221,794.62,220.09,793.31,220.09Z"/><path d="M151.13,136.93a23.5,23.5,0,0,1-23.47-23.46c.1-.47,4.8-15.91,2.57-27.73a1.05,1.05,0,1,1,2.07-.39c2.23,11.83-2,26.5-2.54,28.27a21.36,21.36,0,0,0,42.72,0c-.53-1.77-4.77-16.44-2.54-28.27a1,1,0,0,1,1.23-.84,1.06,1.06,0,0,1,.84,1.23c-2.23,11.83,2.48,27.26,2.53,27.41A23.5,23.5,0,0,1,151.13,136.93Z"/><path d="M232.31,248.38h-42.9a1.06,1.06,0,0,1,0-2.11h41.85V186.46a1.05,1.05,0,0,1,.85-1c11.86-2.22,26.5,2,28.27,2.53a21.36,21.36,0,0,0,0-42.72c-1.77.54-16.43,4.79-28.27,2.55a1.05,1.05,0,0,1-.85-1V86.6H171a1,1,0,0,1,0-2.1h61.34a1,1,0,0,1,1.05,1v60.32c11.73,1.87,26.41-2.63,26.56-2.68a23.44,23.44,0,1,1,.31,46.88c-.47-.1-15.19-4.59-26.87-2.72v60A1.05,1.05,0,0,1,232.31,248.38Z"/><path d="M164.54,248.38h-94a1.05,1.05,0,0,1-1-1.06v-61a1,1,0,1,1,2.1,0v59.94h93a1.06,1.06,0,0,1,0,2.11Z"/><path d="M70.53,132.59a1,1,0,0,1-1-1.05v-46a1,1,0,0,1,1-1h60.74a1,1,0,0,1,0,2.1H71.58v44.94A1,1,0,0,1,70.53,132.59Z"/><path d="M503,136.93a23.49,23.49,0,0,1-23.45-23.46c.09-.47,4.8-15.91,2.58-27.73a1,1,0,0,1,.84-1.23,1.08,1.08,0,0,1,1.22.84c2.23,11.83-2,26.5-2.54,28.27a21.36,21.36,0,0,0,42.72,0c-.54-1.77-4.77-16.44-2.54-28.27a1.07,1.07,0,0,1,1.23-.84,1,1,0,0,1,.83,1.23c-2.22,11.83,2.48,27.26,2.53,27.42A23.49,23.49,0,0,1,503,136.93Z"/><path d="M449.78,189.9c-.47-.1-15.93-4.83-27.72-2.58a1.05,1.05,0,0,1-.4-2.07c11.84-2.22,26.5,2,28.27,2.55a21.36,21.36,0,0,0,0-42.72c-1.77.53-16.44,4.76-28.27,2.53a1.05,1.05,0,0,1,.4-2.07c11.83,2.24,27.25-2.47,27.41-2.52a23.44,23.44,0,1,1,.31,46.88Z"/><path d="M555.72,189.9a23.46,23.46,0,0,1,0-46.92c.46.09,15.92,4.81,27.73,2.56a1.07,1.07,0,0,1,1.22.84,1,1,0,0,1-.84,1.23c-11.81,2.23-26.5-2-28.26-2.53a21.36,21.36,0,0,0,0,42.72c1.77-.54,16.45-4.78,28.26-2.55a1,1,0,0,1,.84,1.23,1.08,1.08,0,0,1-1.22.84c-11.85-2.24-27.26,2.48-27.42,2.53A1.06,1.06,0,0,1,555.72,189.9Z"/><path d="M421.86,147.8a1,1,0,0,1-1.05-1.05V85.55a1,1,0,0,1,1.05-1H483.2a1.05,1.05,0,1,1,0,2.1H422.91v60.15A1,1,0,0,1,421.86,147.8Z"/><path d="M462.47,248.38H421.86a1.05,1.05,0,0,1-1.05-1.06V186.46a1.05,1.05,0,1,1,2.1,0v59.81h39.56a1.06,1.06,0,0,1,0,2.11Z"/><path d="M556.64,248.38H486.19a1.06,1.06,0,0,1,0-2.11h70.45a1.06,1.06,0,0,1,0,2.11Z"/><path d="M583.64,234.6a1,1,0,0,1-1-1V186.49a1.05,1.05,0,0,1,2.1,0v47.06A1,1,0,0,1,583.64,234.6Z"/><path d="M583.64,147a1,1,0,0,1-1-1.05V86.6H522.9a1.05,1.05,0,1,1,0-2.1h60.74a1,1,0,0,1,1.05,1V146A1,1,0,0,1,583.64,147Z"/><path d="M134.23,283.05a1.07,1.07,0,0,1-.87-.45c-6.55-9.5-11.52-34-11.73-35.07a1.05,1.05,0,1,1,2.06-.41c0,.25,5.1,25.14,11.4,34.28a1,1,0,0,1-.27,1.46A1,1,0,0,1,134.23,283.05Z"/><path d="M493.59,272.88a1.08,1.08,0,0,1-1-1.22c2.06-12.54,11.56-24.49,12-25a1,1,0,1,1,1.64,1.31c-.09.12-9.55,12-11.53,24A1,1,0,0,1,493.59,272.88Z"/><path d="M519.22,282.19a1.06,1.06,0,0,1-.87-1.65c6.3-9.14,11.36-33.19,11.4-33.43a1.07,1.07,0,0,1,1.25-.82,1.05,1.05,0,0,1,.81,1.25c-.21,1-5.18,24.7-11.73,34.19A1,1,0,0,1,519.22,282.19Z"/><path d="M382.55,516.39a1.07,1.07,0,0,1-1-.61c-17.82-38.23-3.75-106.86-3.61-107.55a1.08,1.08,0,0,1,1.25-.81,1.06,1.06,0,0,1,.82,1.24c-.15.68-14.07,68.64,3.45,106.23a1.06,1.06,0,0,1-.51,1.4A1,1,0,0,1,382.55,516.39Z"/><path d="M540.37,608.76H355.79a26.32,26.32,0,0,1-26.29-26.29v-41.9a26.31,26.31,0,0,1,26.29-26.28H540.37a26.31,26.31,0,0,1,26.29,26.28v41.9A26.32,26.32,0,0,1,540.37,608.76ZM355.79,516.39a24.21,24.21,0,0,0-24.19,24.18v41.9a24.22,24.22,0,0,0,24.19,24.19H540.37a24.22,24.22,0,0,0,24.19-24.19v-41.9a24.21,24.21,0,0,0-24.19-24.18Z"/><path d="M245,506.77H88.28a1,1,0,0,1,0-2.1H245a1.05,1.05,0,0,1,0,2.1Z"/><path d="M42.7,476a1,1,0,0,1-1.05-1.05V318.33a26.31,26.31,0,0,1,26.29-26.28h58.64a1,1,0,0,1,0,2.1H67.94a24.21,24.21,0,0,0-24.19,24.18V474.92A1,1,0,0,1,42.7,476Z"/><path d="M289,294.15H191.49a1.05,1.05,0,1,1,0-2.1H289a1,1,0,0,1,0,2.1Z"/><path d="M364.67,325.57a1,1,0,0,1-1.05-1c-.28-7.15,3.05-12.75,6.27-18.16,3.83-6.45,7.8-13.11,5.9-22.72-3.4-17.23-28.36-21.19-28.61-21.23a1.1,1.1,0,0,1-.59-.29c-9.34-9.35-20.71-14.29-32-13.81A35.23,35.23,0,0,0,289,260.9c-8.16,9.54-2.58,24.61,1.48,32.74a1.05,1.05,0,1,1-1.88.94c-5.24-10.5-9.7-25.11-1.19-35.05a37.37,37.37,0,0,1,27.17-13.29c11.69-.43,23.58,4.58,33.3,14.19,3.26.55,26.51,5.1,30,22.85,2.06,10.39-2.12,17.41-6.15,24.19-3.21,5.39-6.24,10.48-6,17a1.05,1.05,0,0,1-1,1.09Z"/><path d="M380.63,366.35a1.06,1.06,0,0,1-1-.67,1,1,0,0,1,.6-1.36,19.87,19.87,0,0,0,12.16-14.68c1.43-7.78-2.39-16.12-9.5-20.73-6.53-4.24-15.38-4.77-23.69-1.44a1.05,1.05,0,0,1-.79-2c8.95-3.59,18.53-3,25.63,1.62,7.81,5.07,12,14.27,10.42,22.88A22,22,0,0,1,381,366.28,1.22,1.22,0,0,1,380.63,366.35Z"/><path d="M287.33,360.31a1.11,1.11,0,0,1-.5-.12c-7.05-3.82-8.84-15.61-6-23.81,2.92-8.56,11.39-11.49,11.74-11.6a1,1,0,0,1,1.33.66,1,1,0,0,1-.66,1.33c-.08,0-7.84,2.73-10.42,10.29-2.8,8.2-.39,18.33,5.05,21.28a1,1,0,0,1-.5,2Z"/><path d="M342.77,304.17a1.06,1.06,0,0,1-1-.73c-.27-.84-.52-1.89-.8-3.08-.76-3.19-1.8-7.56-4.19-11.07-2.81-4.11-6.87-6.24-12.41-6.51-15.92-.76-27.82-10.58-28.32-11a1.05,1.05,0,0,1,1.35-1.61c.12.1,11.87,9.78,27.07,10.51,6.16.3,10.88,2.8,14,7.42,2.62,3.84,3.71,8.42,4.5,11.77.27,1.13.51,2.13.76,2.93a1,1,0,0,1-.67,1.32A1.26,1.26,0,0,1,342.77,304.17Z"/><path d="M299.86,317.79a1.09,1.09,0,0,1-.78-.34c-.15-.17-3.69-4.07-3.4-8.06.2-2.72,2.08-3.21,3.9-3.69a10.77,10.77,0,0,0,4.69-2.22c3.67-3.12,3.34-11.22,3.34-11.3a1.05,1.05,0,0,1,2.1-.1c0,.37.38,9.23-4.07,13a12.75,12.75,0,0,1-5.53,2.65c-1.9.51-2.25.69-2.33,1.81-.23,3.08,2.82,6.45,2.85,6.48a1,1,0,0,1-.06,1.49A1,1,0,0,1,299.86,317.79Z"/><path d="M282.64,334.22H202.87a1.05,1.05,0,1,1,0-2.1h79.77a1.05,1.05,0,0,1,0,2.1Z"/><path d="M135.89,334.22H50.05a1.05,1.05,0,1,1,0-2.1h85.84a1.05,1.05,0,0,1,0,2.1Z"/><path d="M278.54,321.06a9.24,9.24,0,1,1,9.23-9.23A9.24,9.24,0,0,1,278.54,321.06Zm0-16.37a7.14,7.14,0,1,0,7.13,7.14A7.14,7.14,0,0,0,278.54,304.69Z"/><path d="M250.93,321.06a9.24,9.24,0,1,1,9.24-9.23A9.24,9.24,0,0,1,250.93,321.06Zm0-16.37a7.14,7.14,0,1,0,7.13,7.14A7.14,7.14,0,0,0,250.93,304.69Z"/><path d="M453.12,79,452,77.24l.54.91-1,.28a51,51,0,0,0-1.95-5.19,1,1,0,1,1,1.93-.82C454,78.4,453.8,78.55,453.12,79ZM191.49,75.21a1.13,1.13,0,0,1-.36-.06,1.06,1.06,0,0,1-.62-1.35,70.32,70.32,0,0,1,5.6-11,1,1,0,0,1,1.44-.36,1.06,1.06,0,0,1,.36,1.45,69.88,69.88,0,0,0-5.43,10.63A1.05,1.05,0,0,1,191.49,75.21ZM445.08,63.05a1.06,1.06,0,0,1-.91-.53,111.41,111.41,0,0,0-6.55-10.05,1.05,1.05,0,0,1,1.7-1.24A112,112,0,0,1,446,61.47a1.06,1.06,0,0,1-.38,1.44A1.13,1.13,0,0,1,445.08,63.05ZM203.84,54.4a1,1,0,0,1-.64-.22,1,1,0,0,1-.19-1.47,117.3,117.3,0,0,1,7.93-9.29,1.05,1.05,0,0,1,1.53,1.44A113.25,113.25,0,0,0,204.68,54,1.06,1.06,0,0,1,203.84,54.4Zm227-10.89a1,1,0,0,1-.78-.34,116.83,116.83,0,0,0-8.49-8.46,1,1,0,1,1,1.4-1.56,117.11,117.11,0,0,1,8.65,8.61,1,1,0,0,1-.07,1.48A1.07,1.07,0,0,1,430.83,43.51ZM220.44,36.82a1.05,1.05,0,0,1-.69-1.85c3-2.62,6.26-5.16,9.59-7.54a1.05,1.05,0,1,1,1.22,1.72c-3.28,2.33-6.45,4.83-9.43,7.41A1,1,0,0,1,220.44,36.82Zm192.41-9.44a1,1,0,0,1-.62-.2,119.22,119.22,0,0,0-10-6.54,1.06,1.06,0,0,1-.38-1.44,1,1,0,0,1,1.43-.38,119.62,119.62,0,0,1,10.23,6.66A1.05,1.05,0,0,1,413.7,27,1.07,1.07,0,0,1,412.85,27.38ZM240.12,22.8a1,1,0,0,1-.52-2c3.48-2,7.12-3.91,10.8-5.63a1.05,1.05,0,1,1,.89,1.91c-3.63,1.69-7.21,3.55-10.64,5.55A1.09,1.09,0,0,1,240.12,22.8ZM392,15.23a1,1,0,0,1-.44-.1c-3.56-1.64-7.31-3.15-11.12-4.48a1.06,1.06,0,0,1-.64-1.34,1,1,0,0,1,1.34-.64c3.87,1.35,7.67,2.89,11.3,4.55a1.05,1.05,0,0,1-.44,2ZM262,12.57a1.05,1.05,0,0,1-.36-2c3.76-1.39,7.66-2.65,11.58-3.75a1,1,0,0,1,.57,2c-3.87,1.09-7.71,2.34-11.42,3.7A1,1,0,0,1,262,12.57ZM369.2,7.21c-4-1-8-1.86-12-2.56a1.05,1.05,0,0,1,.37-2.07c4.05.71,8.05,1.57,11.89,2.56a1,1,0,0,1,.76,1.28A1.06,1.06,0,0,1,369.2,7.21ZM285.25,6A1.05,1.05,0,0,1,285,3.9c3.88-.8,7.91-1.49,12-2a1.05,1.05,0,1,1,.29,2.08c-4,.55-8,1.23-11.85,2A.75.75,0,0,1,285.25,6Zm60.16-3q-6-.62-12.09-.83a1.05,1.05,0,0,1,0-2.1c4.14.15,8.22.43,12.16.83a1,1,0,0,1,.94,1.15A1.06,1.06,0,0,1,345.41,3Zm-36.22-.35a1,1,0,0,1-1.05-1,1,1,0,0,1,1-1.12c3.94-.3,8-.5,12.13-.58a1.06,1.06,0,0,1,1.07,1,1,1,0,0,1-1,1.07c-4.06.08-8.11.27-12,.57Z"/><path d="M111.62,403.35H70a1,1,0,0,1-1-1.05V360.68a1,1,0,0,1,1-1.05h41.63a1,1,0,0,1,1,1.05V402.3A1,1,0,0,1,111.62,403.35ZM71,401.25h39.53V361.73H71Z"/><path d="M111.62,472.48H87a1.05,1.05,0,1,1,0-2.1h23.61V430.86H71v27.32a1.05,1.05,0,0,1-2.1,0V429.8a1,1,0,0,1,1-1.05h41.63a1,1,0,0,1,1,1.05v41.63A1,1,0,0,1,111.62,472.48Z"/><path d="M185.11,416.57H109.55a1,1,0,1,1,0-2.1h75.56a1.05,1.05,0,1,1,0,2.1Z"/><path d="M682.15,298.06a1.05,1.05,0,0,1-.69-1.85c5.49-4.72,11.09-14.71,10.34-21.5-1.29-11.6-13-19.51-36-24.19-21.72-4.45-31.11,8.83-31.5,9.39a1.06,1.06,0,0,1-1.75-1.18c.1-.15,10.46-15,33.68-10.27,23.92,4.89,36.23,13.4,37.62,26,.84,7.55-5,18.16-11,23.32A1.05,1.05,0,0,1,682.15,298.06Z"/><path d="M632,321.48a7.14,7.14,0,1,1,7.13-7.14A7.14,7.14,0,0,1,632,321.48Zm0-12.17a5,5,0,1,0,5,5A5,5,0,0,0,632,309.31Z"/><path d="M649.13,289.79a1,1,0,0,1-.75-1.78,12.91,12.91,0,0,1,14.83-1.91,1.07,1.07,0,0,1,.46,1.42,1.06,1.06,0,0,1-1.41.47,10.63,10.63,0,0,0-12.38,1.49A1.05,1.05,0,0,1,649.13,289.79Z"/><path d="M682.41,295a1,1,0,0,1-1-.67c-1.37-3.51-5.21-3.35-5.3-3.35a1,1,0,0,1-1.09-1,1.05,1.05,0,0,1,1-1.1c1.74-.07,5.84.77,7.35,4.69a1,1,0,0,1-.6,1.36A1,1,0,0,1,682.41,295Z"/><path d="M652.89,411.84c-.52.12-1.06-.48-1-1.06.07-6.56-3.31-19.23-3.34-19.36a1.06,1.06,0,0,1,.75-1.28,1,1,0,0,1,1.29.74c.14.53,3.47,13.08,3.4,19.91A1,1,0,0,1,652.89,411.84Z"/><path d="M746.44,379.71a1,1,0,0,1-.62-.2,1.05,1.05,0,0,1-.23-1.47l.27-.38a1.05,1.05,0,1,1,1.73,1.2l-.3.43A1.06,1.06,0,0,1,746.44,379.71Zm6.83-10.61a1.08,1.08,0,0,1-.54-.15,1,1,0,0,1-.36-1.44c2-3.39,4.06-6.91,6-10.47a1.06,1.06,0,0,1,1.43-.42,1,1,0,0,1,.42,1.42c-2,3.59-4,7.14-6.05,10.55A1,1,0,0,1,753.27,369.1Zm11.61-21.26a1.12,1.12,0,0,1-.47-.11,1.06,1.06,0,0,1-.48-1.41c1.81-3.68,3.53-7.36,5.1-10.93a1,1,0,0,1,1.39-.54,1.06,1.06,0,0,1,.54,1.39c-1.59,3.59-3.32,7.3-5.14,11A1.06,1.06,0,0,1,764.88,347.84Zm9.75-22.16a1.33,1.33,0,0,1-.38-.07,1.05,1.05,0,0,1-.6-1.36c1.48-3.81,2.84-7.62,4.08-11.35a1.05,1.05,0,0,1,2,.67c-1.25,3.75-2.63,7.6-4.12,11.44A1.06,1.06,0,0,1,774.63,325.68Zm7.61-23c-.84-.19-1.17-.77-1-1.33,1.06-3.89,2-7.83,2.83-11.7a1.07,1.07,0,0,1,1.25-.81,1,1,0,0,1,.81,1.24c-.82,3.91-1.78,7.89-2.87,11.83A1,1,0,0,1,782.24,302.7Z"/><path d="M774.29,199.05a1.06,1.06,0,0,1-.91-.54c-.9-1.59-1.85-3.19-2.86-4.77a1.06,1.06,0,0,1,1.79-1.12c1,1.61,2,3.23,2.9,4.86a1,1,0,0,1-.4,1.43A1.07,1.07,0,0,1,774.29,199.05Zm-9.89-14.67a1.09,1.09,0,0,1-.83-.4c-2.46-3.1-5.13-6.13-7.92-9a1,1,0,1,1,1.5-1.46c2.84,2.92,5.56,6,8.07,9.15a1.06,1.06,0,0,1-.16,1.48A1.1,1.1,0,0,1,764.4,184.38Zm-80.12-.9a14,14,0,0,1-1.46-.08,1,1,0,0,1-.94-1.15,1.08,1.08,0,0,1,1.15-.94,16.55,16.55,0,0,0,10.71-3.08,1,1,0,0,1,1.19,1.73A19.44,19.44,0,0,1,684.28,183.48Zm-7.93-8.31a1.09,1.09,0,0,1-1-1.23,20.78,20.78,0,0,1,3.2-7.47,29.33,29.33,0,0,1,2.73-3.57,1,1,0,0,1,1.48-.09,1,1,0,0,1,.09,1.48,27.72,27.72,0,0,0-2.53,3.32,18.77,18.77,0,0,0-2.9,6.69A1,1,0,0,1,676.35,175.17Zm25.43-4.36a.91.91,0,0,1-.45-.11,1,1,0,0,1-.49-1.4,41.41,41.41,0,0,0,3.54-11.22,1,1,0,0,1,1.22-.86,1.06,1.06,0,0,1,.86,1.21,43.65,43.65,0,0,1-3.73,11.79A1,1,0,0,1,701.78,170.81ZM747.57,167a1.07,1.07,0,0,1-.69-.25c-2.88-2.47-6-4.91-9.21-7.26-.7-.5-.81-1.15-.47-1.63a1.07,1.07,0,0,1,1.46-.25c3.53,2.56,6.66,5,9.59,7.54a1.05,1.05,0,0,1-.68,1.85Zm-55.91-9.6a1.05,1.05,0,0,1-.48-2,45.43,45.43,0,0,1,11.73-3.89,1.1,1.1,0,0,1,1.23.84,1,1,0,0,1-.83,1.23,42.84,42.84,0,0,0-11.18,3.71A1.1,1.1,0,0,1,691.66,157.43Zm35.43-2.87a52.77,52.77,0,0,0-12-1.82,1.05,1.05,0,1,1,.08-2.1,52.63,52.63,0,0,1,12.18,1.85,1.05,1.05,0,0,1-.28,2.07Zm-21.21-7.32a1.05,1.05,0,0,1-1-1,47.4,47.4,0,0,0-2.47-11.55,1.06,1.06,0,0,1,.65-1.34,1,1,0,0,1,1.33.65,49.52,49.52,0,0,1,2.59,12.06,1.05,1.05,0,0,1-1,1.14ZM698,124.64a1,1,0,0,1-.87-.47,53.7,53.7,0,0,0-7.61-9.07,1.05,1.05,0,1,1,1.45-1.52,55.28,55.28,0,0,1,7.91,9.43,1.05,1.05,0,0,1-.3,1.46A1,1,0,0,1,698,124.64ZM680.64,108a1,1,0,0,1-.56-.16,59.52,59.52,0,0,0-10.66-5.23,1,1,0,0,1-.61-1.35,1,1,0,0,1,1.35-.62,62.3,62.3,0,0,1,11,5.41,1.05,1.05,0,0,1-.55,2Zm-81.77-2.77a1,1,0,0,1-.53-2,46.91,46.91,0,0,1,11.44-4.63,1.05,1.05,0,1,1,.56,2,44.58,44.58,0,0,0-10.94,4.41A1,1,0,0,1,598.87,105.23Zm59.25-5.69A121.23,121.23,0,0,0,646,98a1.06,1.06,0,0,1-1-1.12,1.07,1.07,0,0,1,1.13-1,112.06,112.06,0,0,1,12.12,1.56,1,1,0,0,1-.19,2.08Zm-36.18-1.09a1.05,1.05,0,0,1-.13-2.1A120.62,120.62,0,0,1,634,95.53a1.06,1.06,0,0,1,1.07,1,1,1,0,0,1-1,1.06,119,119,0,0,0-12,.81Z"/><path class="cls-3" d="M520.65,545.3H375.51a1,1,0,0,1,0-2.1H520.65a1.05,1.05,0,1,1,0,2.1Z"/><path class="cls-3" d="M520.65,579.83H375.51a1.05,1.05,0,1,1,0-2.1H520.65a1.05,1.05,0,1,1,0,2.1Z"/><path d="M823.25,278.32H761.84a14.48,14.48,0,0,1-14.46-14.46V219a14.47,14.47,0,0,1,14.46-14.46h61.41A14.48,14.48,0,0,1,837.72,219v44.9A14.48,14.48,0,0,1,823.25,278.32ZM761.84,206.6A12.37,12.37,0,0,0,749.48,219v44.9a12.38,12.38,0,0,0,12.36,12.36h61.41a12.38,12.38,0,0,0,12.37-12.36V219a12.38,12.38,0,0,0-12.37-12.36Z"/><path d="M666.32,318.57a1,1,0,0,1,0-2.1c4.37,0,7-3.53,8-5.14-2.41-1.67-5.64-4.25-5.64-6s2.4-12.41,2.68-13.61a1.05,1.05,0,0,1,2.05.46c-1,4.46-2.63,12-2.63,13.15.14.7,2.71,3,5.51,4.83a1.06,1.06,0,0,1,.37,1.32C676.57,311.75,673.29,318.57,666.32,318.57Z"/></g></g></svg>
