<?xml version="1.0" encoding="utf-8"?>
<!-- Generator: Adobe Illustrator 22.0.1, SVG Export Plug-In . SVG Version: 6.00 Build 0)  -->
<svg version="1.1" id="图层_1" xmlns="http://www.w3.org/2000/svg" xmlns:xlink="http://www.w3.org/1999/xlink" x="0px" y="0px"
	 viewBox="0 0 492.3 167.7" style="enable-background:new 0 0 492.3 167.7;" xml:space="preserve">
<style type="text/css">
	.st0{fill:#F8B616;}
</style>
<g>
	<path class="st0" d="M106,37.3c-6.5-6.1-14.2-10.9-23.1-14.4c-8.9-3.5-18.8-5.2-29.5-5.2H0v137h53.4c10.7,0,20.5-1.8,29.5-5.3
		c8.9-3.5,16.6-8.4,23.1-14.5c6.5-6.1,11.5-13.4,15-21.7c3.5-8.4,5.3-17.4,5.3-27v-0.4c0-9.7-1.8-18.6-5.3-26.9
		C117.5,50.7,112.5,43.5,106,37.3z M94.8,86.7c0,6.1-1,11.7-3,16.6c-2,5-4.8,9.3-8.4,12.9c-3.6,3.7-7.9,6.5-13,8.4
		c-5.1,2-10.7,2.9-16.8,2.9H30.1V45h23.3c6.1,0,11.7,1,16.8,3c5.1,2,9.4,4.9,13,8.5c3.6,3.7,6.4,8,8.4,13.1c2,5.1,3,10.6,3,16.6
		V86.7z"/>
	<path class="st0" d="M272.2,36c-6.5-6.3-14.1-11.4-23-15.1c-8.9-3.7-18.6-5.6-29.2-5.6c-10.6,0-20.3,1.9-29.3,5.6
		c-8.9,3.7-16.6,8.8-23.1,15.3c-6.5,6.5-11.5,14-15.2,22.5c-3.7,8.5-5.5,17.7-5.5,27.5v0.4c0,9.8,1.8,19,5.4,27.5
		c3.6,8.5,8.6,16,15.1,22.3c6.5,6.3,14.1,11.4,23,15.1c8.9,3.7,18.6,5.6,29.2,5.6c10.6,0,20.3-1.9,29.3-5.6
		c8.9-3.7,16.6-8.8,23.1-15.3c6.5-6.5,11.5-14,15.2-22.5c3.7-8.5,5.5-17.7,5.5-27.5v-0.4c0-9.8-1.8-19-5.4-27.5
		C283.7,49.8,278.7,42.4,272.2,36z M261.1,86.7c0,5.9-1,11.4-3,16.5c-2,5.2-4.8,9.7-8.4,13.6c-3.6,3.9-7.9,7-13,9.2
		c-5.1,2.2-10.6,3.3-16.6,3.3c-6.1,0-11.7-1.1-16.7-3.4c-5-2.3-9.4-5.4-13.1-9.3c-3.7-3.9-6.6-8.5-8.6-13.7c-2-5.2-3-10.8-3-16.6
		v-0.4c0-5.9,1-11.4,3-16.5c2-5.2,4.8-9.7,8.4-13.6c3.6-3.9,7.9-7,12.9-9.2c5-2.2,10.6-3.3,16.7-3.3c6,0,11.6,1.1,16.6,3.4
		c5.1,2.3,9.5,5.4,13.2,9.3c3.7,3.9,6.6,8.5,8.6,13.7c2,5.2,3,10.8,3,16.6V86.7z"/>
	<rect x="462.2" y="17.7" class="st0" width="30.1" height="137"/>
	<path class="st0" d="M418.3,79.1c5.8-3.6,13.9-11.4,13.9-26.9c0-20.8-16.8-33.1-44.8-33.1h-0.6V0h-28.2v19.1h-40.5v129.5h40.5v19.1
		h28.2v-19.1h2.4c15.3,0,27.2-3.3,35.4-9.8c8.3-6.6,12.6-16.1,12.6-28.2C437.2,90.3,425.2,82.1,418.3,79.1z M387.7,122.9h-41.4V43.9
		h37.2c8.5,0,21.2,5.1,21.2,12.7c0,11.4-10.5,13.5-13.8,13.9h-33.8v22.9h28.1c8.5,0,22.7,1.9,22.7,14.8
		C407.9,117.9,394.9,122.9,387.7,122.9z"/>
</g>
</svg>
