<svg width="468" height="212" viewBox="0 0 468 212" fill="none" xmlns="http://www.w3.org/2000/svg">
<path fill-rule="evenodd" clip-rule="evenodd" d="M185.81 23.5796C185.786 23.2688 185.664 22.9734 185.462 22.736C185.26 22.4987 184.988 22.3315 184.685 22.2586L93.4544 0.0406804C93.2239 -0.0135601 92.984 -0.0135601 92.7535 0.0406804L1.519 22.2586C1.2174 22.3335 0.94695 22.5014 0.745856 22.7384C0.544762 22.9755 0.423184 23.2697 0.398293 23.5796C0.276403 25.104 -10.7919 176.307 92.6248 211.522C92.9354 211.628 93.2724 211.628 93.583 211.522C197.003 176.307 185.935 25.104 185.81 23.5796Z" fill="#798CE5"/>
<path fill-rule="evenodd" clip-rule="evenodd" d="M168.958 39.5681C168.937 39.3159 168.837 39.0768 168.672 38.8847C168.508 38.6926 168.287 38.5572 168.041 38.4977L93.3901 20.3481C93.2011 20.3007 93.0034 20.3007 92.8145 20.3481L18.1706 38.4977C17.9246 38.5564 17.7036 38.6917 17.5393 38.884C17.375 39.0764 17.276 39.3159 17.2564 39.5681C17.1548 40.8113 8.09771 164.254 92.7264 193C92.9751 193.094 93.2498 193.094 93.4984 193C178.124 164.254 169.07 40.8113 168.968 39.5681" fill="white"/>
<path d="M92.0458 47.4404L42.2742 59.5334C42.1101 59.5751 41.9632 59.6671 41.854 59.7965C41.7447 59.9258 41.6785 60.0861 41.6647 60.2549C41.6004 61.0848 35.5635 143.381 91.9747 162.547C92.144 162.601 92.3269 162.601 92.4962 162.547C148.907 143.378 142.874 61.0848 142.806 60.2515C142.793 60.0822 142.727 59.9214 142.617 59.7922C142.507 59.6631 142.358 59.5725 142.193 59.5334L92.425 47.437C92.3008 47.404 92.1701 47.404 92.0458 47.437" fill="#798CE5"/>
<path d="M267.546 87.8974C265.887 90.2483 263.297 92.0876 259.766 93.4053C256.237 94.7264 252.286 95.387 247.915 95.387C243.493 95.387 239.562 94.3233 236.122 92.2028C232.682 90.0823 230.021 87.0811 228.132 83.1991C226.246 79.3172 225.288 74.8662 225.261 69.8495V62.7088C225.261 54.8704 227.241 48.6783 231.196 44.1392C235.154 39.6001 240.466 37.3271 247.143 37.3271C252.96 37.3271 257.639 38.8074 261.181 41.7714C264.726 44.732 266.835 48.8172 267.506 54.0168H262.731C262.037 49.874 260.348 46.7373 257.673 44.6033C254.998 42.4692 251.497 41.4022 247.177 41.4022C241.902 41.4022 237.727 43.2788 234.649 47.0286C231.572 50.7818 230.035 56.073 230.035 62.9019V69.5751C230.035 73.8737 230.763 77.6709 232.225 80.9669C233.684 84.2662 235.78 86.8203 238.509 88.6325C241.238 90.4448 244.374 91.3492 247.915 91.3492C252.029 91.3492 255.557 90.7056 258.506 89.4082C260.419 88.5546 261.841 87.5587 262.772 86.4206V71.8277H247.604V67.7933H267.546V87.8974ZM306.994 89.2931C304.201 93.3545 299.742 95.387 293.61 95.387C289.141 95.387 285.738 94.0862 283.409 91.4847C281.083 88.8866 279.894 85.0351 279.84 79.9405V52.6178H284.458V79.3612C284.458 87.3555 287.688 91.3526 294.155 91.3526C300.88 91.3526 305.132 88.5715 306.92 83.0094V52.6246H311.572V94.6045H307.072L306.994 89.2863V89.2931ZM350.13 94.6113C349.666 93.2902 349.368 91.3356 349.239 88.7511C347.602 90.8786 345.461 92.5653 343.009 93.6594C340.49 94.8111 337.822 95.387 335.002 95.387C330.966 95.387 327.702 94.259 325.207 92.0097C322.711 89.7571 321.465 86.9117 321.465 83.4735C321.465 79.3849 323.165 76.15 326.564 73.7687C329.967 71.3873 334.704 70.1984 340.785 70.1984H349.199V65.4221C349.199 62.4243 348.274 60.0633 346.426 58.3425C344.577 56.6217 341.882 55.7613 338.337 55.7613C335.107 55.7613 332.429 56.5878 330.309 58.2443C328.186 59.9041 327.127 61.8925 327.127 64.223L322.471 64.1824C322.471 60.8458 324.025 57.9529 327.127 55.5106C330.231 53.0649 334.044 51.8421 338.571 51.8421C343.253 51.8421 346.944 53.0141 349.646 55.3548C352.348 57.6955 353.739 60.9609 353.817 65.1545V85.0249C353.817 89.0864 354.244 92.1249 355.097 94.1438V94.6079H350.126L350.13 94.6113ZM335.544 91.2713C338.649 91.2713 341.422 90.5227 343.866 89.0221C346.224 87.6181 348.087 85.5158 349.199 83.0061V73.7687H340.897C336.268 73.8195 332.649 74.6697 330.038 76.3092C327.424 77.9555 326.118 80.2115 326.118 83.084C326.118 85.4382 326.991 87.3893 328.738 88.9441C330.482 90.4956 332.754 91.2713 335.544 91.2713ZM385.586 56.5777C384.549 56.392 383.498 56.3013 382.444 56.3067C379.546 56.3067 377.095 57.1129 375.094 58.732C373.089 60.3478 371.66 62.6953 370.807 65.7744V94.6079H366.189V52.6178H370.726L370.807 59.291C373.262 54.3251 377.206 51.8387 382.637 51.8387C383.931 51.8387 384.953 52.0081 385.701 52.3468L385.586 56.5777ZM389.612 73.2267C389.612 66.7059 391.068 61.5131 393.976 57.6447C396.885 53.7763 400.836 51.8421 405.827 51.8421C411.488 51.8421 415.808 54.0778 418.781 58.5559V35H423.399V94.6045H419.055L418.859 89.0153C415.886 93.2597 411.515 95.3836 405.749 95.3836C400.914 95.3836 397.013 93.4358 394.054 89.5403C391.092 85.6448 389.612 80.3876 389.612 73.7653V73.2233V73.2267ZM394.305 74.0396C394.305 79.3951 395.378 83.6192 397.525 86.7119C399.671 89.8046 402.698 91.3526 406.599 91.3526C412.317 91.3526 416.377 88.8256 418.781 83.7818V64.0672C416.377 58.6067 412.344 55.8765 406.68 55.8765C402.773 55.8765 399.736 57.411 397.562 60.4765C395.392 63.5421 394.305 68.0643 394.305 74.0396ZM462.113 94.6079C461.645 93.2868 461.347 91.3356 461.219 88.7477C459.582 90.876 457.443 92.5639 454.992 93.6594C452.473 94.8111 449.802 95.387 446.985 95.387C442.949 95.387 439.685 94.259 437.19 92.0097C434.694 89.7571 433.445 86.9117 433.445 83.4735C433.445 79.3849 435.145 76.15 438.547 73.7687C441.947 71.3873 446.687 70.1984 452.764 70.1984H461.182V65.4221C461.182 62.4243 460.257 60.0633 458.405 58.3425C456.56 56.6217 453.861 55.7613 450.32 55.7613C447.086 55.7613 444.412 56.5878 442.289 58.2443C440.169 59.9041 439.106 61.8925 439.106 64.223L434.454 64.1824C434.454 60.8458 436.005 57.9529 439.109 55.5106C442.211 53.0649 446.027 51.8421 450.553 51.8421C455.233 51.8421 458.923 53.0141 461.625 55.3548C464.33 57.6955 465.722 60.9609 465.796 65.1545V85.0249C465.796 89.0864 466.223 92.1249 467.076 94.1438V94.6079H462.113ZM447.527 91.2713C450.631 91.2713 453.404 90.5227 455.846 89.0221C458.205 87.6186 460.069 85.5163 461.182 83.0061V73.7687H452.88C448.251 73.8195 444.632 74.6697 442.018 76.3092C439.407 77.9555 438.1 80.2115 438.1 83.084C438.1 85.4382 438.974 87.3893 440.718 88.9441C442.465 90.4956 444.733 91.2713 447.527 91.2713ZM237.209 159.077L238.956 167.85L241.089 159.466L253.346 117.822H257.653L269.754 159.466L271.853 167.924L273.715 159.077L283.913 117.822H288.802L274.331 174.33H269.754L256.955 130.125L255.52 124.535L254.121 130.125L241.011 174.33H236.43L222 117.822H226.889L237.206 159.08L237.209 159.077ZM320.883 174.33C320.419 173.009 320.121 171.054 319.993 168.47C318.355 170.597 316.214 172.284 313.763 173.378C311.244 174.53 308.576 175.106 305.755 175.106C301.723 175.106 298.455 173.981 295.96 171.729C293.465 169.479 292.219 166.63 292.219 163.192C292.219 159.104 293.918 155.869 297.318 153.487C300.72 151.109 305.457 149.917 311.538 149.917H319.952V145.144C319.952 142.143 319.028 139.782 317.179 138.065C315.33 136.34 312.635 135.48 309.09 135.48C305.86 135.48 303.182 136.31 301.062 137.966C298.94 139.619 297.88 141.611 297.88 143.942L293.224 143.901C293.224 140.565 294.778 137.675 297.88 135.229C300.985 132.784 304.797 131.561 309.324 131.561C314.006 131.561 317.697 132.733 320.399 135.074C323.101 137.414 324.492 140.68 324.57 144.873V164.744C324.57 168.805 324.997 171.844 325.85 173.863V174.33H320.883ZM306.297 170.99C309.402 170.99 312.175 170.241 314.619 168.741C316.977 167.337 318.84 165.235 319.952 162.725V153.487H311.653C307.022 153.542 303.402 154.388 300.792 156.028C298.178 157.674 296.871 159.93 296.871 162.803C296.871 165.157 297.744 167.112 299.491 168.663C301.235 170.214 303.507 170.99 306.297 170.99ZM342.143 174.33H337.487V114.719H342.143V174.33ZM359.945 174.33H355.293V114.719H359.945V174.33ZM388.806 175.106C385.237 175.106 382.014 174.225 379.129 172.464C376.245 170.706 374.003 168.256 372.398 165.113C370.797 161.969 369.994 158.443 369.994 154.538V152.868C369.994 148.83 370.773 145.195 372.341 141.96C373.905 138.729 376.082 136.185 378.876 134.339C381.554 132.522 384.717 131.554 387.953 131.561C393.049 131.561 397.088 133.302 400.074 136.781C403.064 140.26 404.557 145.012 404.557 151.042V153.643H374.606V154.538C374.606 159.297 375.97 163.263 378.699 166.431C381.428 169.601 384.862 171.187 388.999 171.187C391.481 171.187 393.672 170.733 395.574 169.828C397.474 168.92 399.197 167.474 400.755 165.479L403.66 167.694C400.247 172.633 395.297 175.106 388.803 175.106H388.806ZM387.953 135.521C384.465 135.521 381.52 136.801 379.129 139.362C376.736 141.923 375.283 145.364 374.765 149.683H399.942V149.182C399.81 145.144 398.659 141.859 396.489 139.325C394.315 136.788 391.471 135.521 387.956 135.521H387.953ZM420.809 121.588V132.337H429.5V136.141H420.809V164.12C420.809 166.451 421.229 168.185 422.072 169.323C422.912 170.462 424.313 171.031 426.28 171.031C427.056 171.031 428.312 170.902 430.042 170.641L430.235 174.445C429.02 174.886 427.367 175.106 425.271 175.106C422.089 175.106 419.776 174.181 418.331 172.328C416.878 170.482 416.157 167.755 416.157 164.161V136.141H408.437V132.337H416.157V121.588H420.809Z" fill="#7A90E5"/>
</svg>
