<svg width="150" height="97" viewBox="0 0 150 97" fill="none" xmlns="http://www.w3.org/2000/svg">
<path d="M21.6976 2.61582H146.859V18.7732V94.3842H21.6976V2.61582Z" stroke="black" stroke-width="5.23164"/>
<rect x="9.54089" width="4.77049" height="97" fill="black"/>
<rect width="4.77049" height="97" fill="black"/>
<path d="M77.6786 70.5014C77.6786 68.9883 77.2691 67.8292 76.4501 67.0241C75.6311 66.219 74.1527 65.4347 72.015 64.6712C69.8773 63.9078 68.2393 63.1096 67.1011 62.2767C65.9767 61.4299 65.1299 60.4721 64.5608 59.4033C64.0055 58.3205 63.7279 57.0851 63.7279 55.697C63.7279 53.2955 64.5261 51.3174 66.1224 49.7627C67.7327 48.208 69.8357 47.4307 72.4315 47.4307C74.2083 47.4307 75.7907 47.8332 77.1789 48.6383C78.567 49.4296 79.6359 50.5331 80.3854 51.949C81.135 53.3649 81.5098 54.9196 81.5098 56.6131H77.6786C77.6786 54.7392 77.2275 53.2886 76.3252 52.2614C75.4229 51.2341 74.125 50.7205 72.4315 50.7205C70.8906 50.7205 69.6969 51.1509 68.8501 52.0115C68.0033 52.8721 67.58 54.0798 67.58 55.6345C67.58 56.9116 68.038 57.9804 68.9542 58.8411C69.8704 59.7017 71.2863 60.4721 73.2019 61.1523C76.1864 62.1379 78.3171 63.3525 79.5942 64.7962C80.8852 66.2398 81.5306 68.1277 81.5306 70.4597C81.5306 72.9167 80.7325 74.8878 79.1361 76.3731C77.5398 77.8445 75.3674 78.5803 72.6189 78.5803C70.8559 78.5803 69.2249 78.1985 67.7257 77.4351C66.2404 76.6577 65.0675 75.575 64.2068 74.1868C63.3601 72.7848 62.9367 71.1815 62.9367 69.377H66.7679C66.7679 71.2509 67.2885 72.7085 68.3296 73.7496C69.3845 74.7907 70.8143 75.3112 72.6189 75.3112C74.2985 75.3112 75.5617 74.8809 76.4085 74.0203C77.2552 73.1596 77.6786 71.9867 77.6786 70.5014ZM105.559 68.5441C105.393 71.7923 104.476 74.2771 102.811 75.9983C101.159 77.7196 98.8198 78.5803 95.7937 78.5803C92.7537 78.5803 90.3383 77.4281 88.5476 75.1238C86.7569 72.8056 85.8616 69.6685 85.8616 65.7123V60.2153C85.8616 56.273 86.7778 53.1567 88.6101 50.8663C90.4563 48.5759 92.9688 47.4307 96.1476 47.4307C99.0766 47.4307 101.339 48.3121 102.936 50.0751C104.546 51.8241 105.42 54.3297 105.559 57.5918H101.707C101.541 55.1209 101.02 53.358 100.145 52.303C99.2709 51.248 97.9383 50.7205 96.1476 50.7205C94.0793 50.7205 92.4899 51.5326 91.3794 53.1567C90.2689 54.7669 89.7137 57.1337 89.7137 60.257V65.8164C89.7137 68.8842 90.2273 71.2371 91.2545 72.8751C92.2956 74.513 93.8086 75.332 95.7937 75.332C97.7787 75.332 99.2084 74.8393 100.083 73.8537C100.957 72.8681 101.499 71.0983 101.707 68.5441H105.559ZM124.882 70.2515H114.637L112.285 78.1638H108.37L118.136 47.8471H121.405L131.191 78.1638H127.276L124.882 70.2515ZM115.637 66.9616H123.903L119.76 53.1775L115.637 66.9616Z" fill="black"/>
</svg>
