<svg width="164" height="60" viewBox="0 0 164 60" fill="none" xmlns="http://www.w3.org/2000/svg">
<path d="M13.1367 13.2656C14.6953 13.2656 15.9076 13.0492 16.7734 12.6162C18.1341 11.9359 18.8145 10.7113 18.8145 8.94238C18.8145 7.16113 18.0908 5.96126 16.6436 5.34277C15.8271 4.99642 14.6149 4.82324 13.0068 4.82324H6.41992V13.2656H13.1367ZM14.3799 25.8457C16.6436 25.8457 18.2578 25.1901 19.2227 23.8789C19.8288 23.0501 20.1318 22.0482 20.1318 20.873C20.1318 18.8939 19.2474 17.5456 17.4785 16.8281C16.5384 16.4447 15.2952 16.2529 13.749 16.2529H6.41992V25.8457H14.3799ZM2.80176 1.74316H14.5098C17.7012 1.74316 19.971 2.69564 21.3193 4.60059C22.111 5.72624 22.5068 7.02507 22.5068 8.49707C22.5068 10.2165 22.0182 11.6266 21.041 12.7275C20.5339 13.3089 19.804 13.8408 18.8516 14.3232C20.2493 14.8551 21.2946 15.4551 21.9873 16.123C23.2119 17.3105 23.8242 18.9495 23.8242 21.04C23.8242 22.7965 23.2738 24.3861 22.1729 25.8086C20.5277 27.9362 17.9115 29 14.3242 29H2.80176V1.74316ZM27.7949 9.2207H31.1904V29H27.7949V9.2207ZM27.7949 1.74316H31.1904V5.52832H27.7949V1.74316ZM36.9238 3.58008H40.3008V9.12793H43.4736V11.8555H40.3008V24.8252C40.3008 25.5179 40.5358 25.9818 41.0059 26.2168C41.2656 26.3529 41.6986 26.4209 42.3047 26.4209C42.4655 26.4209 42.6387 26.4209 42.8242 26.4209C43.0098 26.4085 43.2262 26.39 43.4736 26.3652V29C43.0902 29.1113 42.6882 29.1917 42.2676 29.2412C41.8594 29.2907 41.4141 29.3154 40.9316 29.3154C39.373 29.3154 38.3154 28.9196 37.7588 28.1279C37.2021 27.3239 36.9238 26.2848 36.9238 25.0107V11.8555H34.2334V9.12793H36.9238V3.58008ZM55.1074 8.68262C56.5176 8.68262 57.8844 9.0166 59.208 9.68457C60.5316 10.3402 61.5397 11.1937 62.2324 12.2451C62.9004 13.2471 63.3457 14.416 63.5684 15.752C63.7663 16.6673 63.8652 18.127 63.8652 20.1309H49.2998C49.3617 22.1471 49.8379 23.7676 50.7285 24.9922C51.6191 26.2044 52.9984 26.8105 54.8662 26.8105C56.6104 26.8105 58.002 26.2354 59.041 25.085C59.6348 24.417 60.0553 23.6439 60.3027 22.7656H63.5869C63.5003 23.4954 63.2096 24.3118 62.7148 25.2148C62.2324 26.1055 61.6882 26.8353 61.082 27.4043C60.0677 28.3939 58.8122 29.0618 57.3154 29.4082C56.5114 29.6061 55.6022 29.7051 54.5879 29.7051C52.1139 29.7051 50.0173 28.8083 48.2979 27.0146C46.5785 25.2087 45.7188 22.6852 45.7188 19.4443C45.7188 16.2529 46.5846 13.6615 48.3164 11.6699C50.0482 9.67839 52.3118 8.68262 55.1074 8.68262ZM60.4326 17.4775C60.2965 16.0303 59.9811 14.8737 59.4863 14.0078C58.571 12.3997 57.0433 11.5957 54.9033 11.5957C53.3695 11.5957 52.083 12.1523 51.0439 13.2656C50.0049 14.3665 49.4544 15.7705 49.3926 17.4775H60.4326ZM78.6719 13.2656C80.2305 13.2656 81.4427 13.0492 82.3086 12.6162C83.6693 11.9359 84.3496 10.7113 84.3496 8.94238C84.3496 7.16113 83.626 5.96126 82.1787 5.34277C81.3623 4.99642 80.1501 4.82324 78.542 4.82324H71.9551V13.2656H78.6719ZM79.915 25.8457C82.1787 25.8457 83.793 25.1901 84.7578 23.8789C85.3639 23.0501 85.667 22.0482 85.667 20.873C85.667 18.8939 84.7826 17.5456 83.0137 16.8281C82.0736 16.4447 80.8304 16.2529 79.2842 16.2529H71.9551V25.8457H79.915ZM68.3369 1.74316H80.0449C83.2363 1.74316 85.5062 2.69564 86.8545 4.60059C87.6462 5.72624 88.042 7.02507 88.042 8.49707C88.042 10.2165 87.5534 11.6266 86.5762 12.7275C86.069 13.3089 85.3392 13.8408 84.3867 14.3232C85.7845 14.8551 86.8298 15.4551 87.5225 16.123C88.7471 17.3105 89.3594 18.9495 89.3594 21.04C89.3594 22.7965 88.8089 24.3861 87.708 25.8086C86.0628 27.9362 83.4466 29 79.8594 29H68.3369V1.74316ZM113.61 1.74316V4.99023H104.426V29H100.678V4.99023H91.4932V1.74316H113.61ZM128.491 1.00098C131.942 1.00098 134.62 1.91016 136.525 3.72852C138.43 5.54688 139.488 7.61263 139.698 9.92578H136.099C135.69 8.16927 134.874 6.77767 133.649 5.75098C132.437 4.72428 130.73 4.21094 128.528 4.21094C125.844 4.21094 123.673 5.15723 122.016 7.0498C120.37 8.93001 119.548 11.8184 119.548 15.7148C119.548 18.9062 120.29 21.4977 121.774 23.4893C123.271 25.4684 125.498 26.458 128.454 26.458C131.175 26.458 133.247 25.4128 134.67 23.3223C135.424 22.2214 135.987 20.7741 136.358 18.9805H139.958C139.636 21.8503 138.573 24.2562 136.767 26.1982C134.602 28.5361 131.683 29.7051 128.009 29.7051C124.842 29.7051 122.183 28.7464 120.03 26.8291C117.198 24.2933 115.781 20.3783 115.781 15.084C115.781 11.0638 116.845 7.76725 118.973 5.19434C121.273 2.39876 124.446 1.00098 128.491 1.00098Z" fill="white"/>
<path d="M4.21875 8.00391C4.61328 8.00391 4.9375 7.96289 5.19141 7.88086C5.64453 7.72852 6.01562 7.43555 6.30469 7.00195C6.53516 6.6543 6.70117 6.20898 6.80273 5.66602C6.86133 5.3418 6.89062 5.04102 6.89062 4.76367C6.89062 3.69727 6.67773 2.86914 6.25195 2.2793C5.83008 1.68945 5.14844 1.39453 4.20703 1.39453H2.13867V8.00391H4.21875ZM0.966797 0.392578H4.45312C5.63672 0.392578 6.55469 0.8125 7.20703 1.65234C7.78906 2.41016 8.08008 3.38086 8.08008 4.56445C8.08008 5.47852 7.9082 6.30469 7.56445 7.04297C6.95898 8.34766 5.91797 9 4.44141 9H0.966797V0.392578ZM9.44531 2.75391H10.5176V9H9.44531V2.75391ZM9.44531 0.392578H10.5176V1.58789H9.44531V0.392578ZM14.332 2.61328C14.8242 2.61328 15.2539 2.73438 15.6211 2.97656C15.8203 3.11328 16.0234 3.3125 16.2305 3.57422V2.7832H17.2031V8.49023C17.2031 9.28711 17.0859 9.91602 16.8516 10.377C16.4141 11.2285 15.5879 11.6543 14.373 11.6543C13.6973 11.6543 13.1289 11.502 12.668 11.1973C12.207 10.8965 11.9492 10.4238 11.8945 9.7793H12.9668C13.0176 10.0605 13.1191 10.2773 13.2715 10.4297C13.5098 10.6641 13.8848 10.7812 14.3965 10.7812C15.2051 10.7812 15.7344 10.4961 15.9844 9.92578C16.1328 9.58984 16.2012 8.99023 16.1895 8.12695C15.9785 8.44727 15.7246 8.68555 15.4277 8.8418C15.1309 8.99805 14.7383 9.07617 14.25 9.07617C13.5703 9.07617 12.9746 8.83594 12.4629 8.35547C11.9551 7.87109 11.7012 7.07227 11.7012 5.95898C11.7012 4.9082 11.957 4.08789 12.4688 3.49805C12.9844 2.9082 13.6055 2.61328 14.332 2.61328ZM16.2305 5.83594C16.2305 5.05859 16.0703 4.48242 15.75 4.10742C15.4297 3.73242 15.0215 3.54492 14.5254 3.54492C13.7832 3.54492 13.2754 3.89258 13.002 4.58789C12.8574 4.95898 12.7852 5.44531 12.7852 6.04688C12.7852 6.75391 12.9277 7.29297 13.2129 7.66406C13.502 8.03125 13.8887 8.21484 14.373 8.21484C15.1309 8.21484 15.6641 7.87305 15.9727 7.18945C16.1445 6.80273 16.2305 6.35156 16.2305 5.83594ZM18.7969 2.75391H19.8691V9H18.7969V2.75391ZM18.7969 0.392578H19.8691V1.58789H18.7969V0.392578ZM21.6797 0.972656H22.7461V2.72461H23.748V3.58594H22.7461V7.68164C22.7461 7.90039 22.8203 8.04688 22.9688 8.12109C23.0508 8.16406 23.1875 8.18555 23.3789 8.18555C23.4297 8.18555 23.4844 8.18555 23.543 8.18555C23.6016 8.18164 23.6699 8.17578 23.748 8.16797V9C23.627 9.03516 23.5 9.06055 23.3672 9.07617C23.2383 9.0918 23.0977 9.09961 22.9453 9.09961C22.4531 9.09961 22.1191 8.97461 21.9434 8.72461C21.7676 8.4707 21.6797 8.14258 21.6797 7.74023V3.58594H20.8301V2.72461H21.6797V0.972656ZM25.6172 7.33008C25.6172 7.63477 25.7285 7.875 25.9512 8.05078C26.1738 8.22656 26.4375 8.31445 26.7422 8.31445C27.1133 8.31445 27.4727 8.22852 27.8203 8.05664C28.4062 7.77148 28.6992 7.30469 28.6992 6.65625V5.80664C28.5703 5.88867 28.4043 5.95703 28.2012 6.01172C27.998 6.06641 27.7988 6.10547 27.6035 6.12891L26.9648 6.21094C26.582 6.26172 26.2949 6.3418 26.1035 6.45117C25.7793 6.63477 25.6172 6.92773 25.6172 7.33008ZM28.1719 5.19727C28.4141 5.16602 28.5762 5.06445 28.6582 4.89258C28.7051 4.79883 28.7285 4.66406 28.7285 4.48828C28.7285 4.12891 28.5996 3.86914 28.3418 3.70898C28.0879 3.54492 27.7227 3.46289 27.2461 3.46289C26.6953 3.46289 26.3047 3.61133 26.0742 3.9082C25.9453 4.07227 25.8613 4.31641 25.8223 4.64062H24.8379C24.8574 3.86719 25.1074 3.33008 25.5879 3.0293C26.0723 2.72461 26.6328 2.57227 27.2695 2.57227C28.0078 2.57227 28.6074 2.71289 29.0684 2.99414C29.5254 3.27539 29.7539 3.71289 29.7539 4.30664V7.92188C29.7539 8.03125 29.7754 8.11914 29.8184 8.18555C29.8652 8.25195 29.9609 8.28516 30.1055 8.28516C30.1523 8.28516 30.2051 8.2832 30.2637 8.2793C30.3223 8.27148 30.3848 8.26172 30.4512 8.25V9.0293C30.2871 9.07617 30.1621 9.10547 30.0762 9.11719C29.9902 9.12891 29.873 9.13477 29.7246 9.13477C29.3613 9.13477 29.0977 9.00586 28.9336 8.74805C28.8477 8.61133 28.7871 8.41797 28.752 8.16797C28.5371 8.44922 28.2285 8.69336 27.8262 8.90039C27.4238 9.10742 26.9805 9.21094 26.4961 9.21094C25.9141 9.21094 25.4375 9.03516 25.0664 8.68359C24.6992 8.32812 24.5156 7.88477 24.5156 7.35352C24.5156 6.77148 24.6973 6.32031 25.0605 6C25.4238 5.67969 25.9004 5.48242 26.4902 5.4082L28.1719 5.19727ZM31.5176 0.392578H32.5723V9H31.5176V0.392578ZM41.2676 0.158203C42.3574 0.158203 43.2031 0.445312 43.8047 1.01953C44.4062 1.59375 44.7402 2.24609 44.8066 2.97656H43.6699C43.541 2.42187 43.2832 1.98242 42.8965 1.6582C42.5137 1.33398 41.9746 1.17188 41.2793 1.17188C40.4316 1.17188 39.7461 1.4707 39.2227 2.06836C38.7031 2.66211 38.4434 3.57422 38.4434 4.80469C38.4434 5.8125 38.6777 6.63086 39.1465 7.25977C39.6191 7.88477 40.3223 8.19727 41.2559 8.19727C42.1152 8.19727 42.7695 7.86719 43.2188 7.20703C43.457 6.85938 43.6348 6.40234 43.752 5.83594H44.8887C44.7871 6.74219 44.4512 7.50195 43.8809 8.11523C43.1973 8.85352 42.2754 9.22266 41.1152 9.22266C40.1152 9.22266 39.2754 8.91992 38.5957 8.31445C37.7012 7.51367 37.2539 6.27734 37.2539 4.60547C37.2539 3.33594 37.5898 2.29492 38.2617 1.48242C38.9883 0.599609 39.9902 0.158203 41.2676 0.158203ZM47.2266 2.72461V6.89062C47.2266 7.21094 47.2773 7.47266 47.3789 7.67578C47.5664 8.05078 47.916 8.23828 48.4277 8.23828C49.1621 8.23828 49.6621 7.91016 49.9277 7.25391C50.0723 6.90234 50.1445 6.41992 50.1445 5.80664V2.72461H51.1992V9H50.2031L50.2148 8.07422C50.0781 8.3125 49.9082 8.51367 49.7051 8.67773C49.3027 9.00586 48.8145 9.16992 48.2402 9.16992C47.3457 9.16992 46.7363 8.87109 46.4121 8.27344C46.2363 7.95312 46.1484 7.52539 46.1484 6.99023V2.72461H47.2266ZM52.8809 2.72461H53.8828V3.80859C53.9648 3.59766 54.166 3.3418 54.4863 3.04102C54.8066 2.73633 55.1758 2.58398 55.5938 2.58398C55.6133 2.58398 55.6465 2.58594 55.6934 2.58984C55.7402 2.59375 55.8203 2.60156 55.9336 2.61328V3.72656C55.8711 3.71484 55.8125 3.70703 55.7578 3.70312C55.707 3.69922 55.6504 3.69727 55.5879 3.69727C55.0566 3.69727 54.6484 3.86914 54.3633 4.21289C54.0781 4.55273 53.9355 4.94531 53.9355 5.39062V9H52.8809V2.72461ZM56.877 2.72461H57.8789V3.80859C57.9609 3.59766 58.1621 3.3418 58.4824 3.04102C58.8027 2.73633 59.1719 2.58398 59.5898 2.58398C59.6094 2.58398 59.6426 2.58594 59.6895 2.58984C59.7363 2.59375 59.8164 2.60156 59.9297 2.61328V3.72656C59.8672 3.71484 59.8086 3.70703 59.7539 3.70312C59.7031 3.69922 59.6465 3.69727 59.584 3.69727C59.0527 3.69727 58.6445 3.86914 58.3594 4.21289C58.0742 4.55273 57.9316 4.94531 57.9316 5.39062V9H56.877V2.72461ZM63.457 2.58398C63.9023 2.58398 64.334 2.68945 64.752 2.90039C65.1699 3.10742 65.4883 3.37695 65.707 3.70898C65.918 4.02539 66.0586 4.39453 66.1289 4.81641C66.1914 5.10547 66.2227 5.56641 66.2227 6.19922H61.623C61.6426 6.83594 61.793 7.34766 62.0742 7.73438C62.3555 8.11719 62.791 8.30859 63.3809 8.30859C63.9316 8.30859 64.3711 8.12695 64.6992 7.76367C64.8867 7.55273 65.0195 7.30859 65.0977 7.03125H66.1348C66.1074 7.26172 66.0156 7.51953 65.8594 7.80469C65.707 8.08594 65.5352 8.31641 65.3438 8.49609C65.0234 8.80859 64.627 9.01953 64.1543 9.12891C63.9004 9.19141 63.6133 9.22266 63.293 9.22266C62.5117 9.22266 61.8496 8.93945 61.3066 8.37305C60.7637 7.80273 60.4922 7.00586 60.4922 5.98242C60.4922 4.97461 60.7656 4.15625 61.3125 3.52734C61.8594 2.89844 62.5742 2.58398 63.457 2.58398ZM65.1387 5.36133C65.0957 4.9043 64.9961 4.53906 64.8398 4.26562C64.5508 3.75781 64.0684 3.50391 63.3926 3.50391C62.9082 3.50391 62.502 3.67969 62.1738 4.03125C61.8457 4.37891 61.6719 4.82227 61.6523 5.36133H65.1387ZM67.5234 2.72461H68.5254V3.61523C68.8223 3.24805 69.1367 2.98437 69.4688 2.82422C69.8008 2.66406 70.1699 2.58398 70.5762 2.58398C71.4668 2.58398 72.0684 2.89453 72.3809 3.51562C72.5527 3.85547 72.6387 4.3418 72.6387 4.97461V9H71.5664V5.04492C71.5664 4.66211 71.5098 4.35352 71.3965 4.11914C71.209 3.72852 70.8691 3.5332 70.377 3.5332C70.127 3.5332 69.9219 3.55859 69.7617 3.60938C69.4727 3.69531 69.2188 3.86719 69 4.125C68.8242 4.33203 68.709 4.54688 68.6543 4.76953C68.6035 4.98828 68.5781 5.30273 68.5781 5.71289V9H67.5234V2.72461ZM76.623 2.54297C77.3301 2.54297 77.9043 2.71484 78.3457 3.05859C78.791 3.40234 79.0586 3.99414 79.1484 4.83398H78.123C78.0605 4.44727 77.918 4.12695 77.6953 3.87305C77.4727 3.61523 77.1152 3.48633 76.623 3.48633C75.9512 3.48633 75.4707 3.81445 75.1816 4.4707C74.9941 4.89648 74.9004 5.42188 74.9004 6.04688C74.9004 6.67578 75.0332 7.20508 75.2988 7.63477C75.5645 8.06445 75.9824 8.2793 76.5527 8.2793C76.9902 8.2793 77.3359 8.14648 77.5898 7.88086C77.8477 7.61133 78.0254 7.24414 78.123 6.7793H79.1484C79.0312 7.61133 78.7383 8.2207 78.2695 8.60742C77.8008 8.99023 77.2012 9.18164 76.4707 9.18164C75.6504 9.18164 74.9961 8.88281 74.5078 8.28516C74.0195 7.68359 73.7754 6.93359 73.7754 6.03516C73.7754 4.93359 74.043 4.07617 74.5781 3.46289C75.1133 2.84961 75.7949 2.54297 76.623 2.54297ZM84.123 2.72461H85.2891C85.1406 3.12695 84.8105 4.04492 84.2988 5.47852C83.916 6.55664 83.5957 7.43555 83.3379 8.11523C82.7285 9.7168 82.2988 10.6934 82.0488 11.0449C81.7988 11.3965 81.3691 11.5723 80.7598 11.5723C80.6113 11.5723 80.4961 11.5664 80.4141 11.5547C80.3359 11.543 80.2383 11.5215 80.1211 11.4902V10.5293C80.3047 10.5801 80.4375 10.6113 80.5195 10.623C80.6016 10.6348 80.6738 10.6406 80.7363 10.6406C80.9316 10.6406 81.0742 10.6074 81.1641 10.541C81.2578 10.4785 81.3359 10.4004 81.3984 10.3066C81.418 10.2754 81.4883 10.1152 81.6094 9.82617C81.7305 9.53711 81.8184 9.32227 81.873 9.18164L79.5527 2.72461H80.748L82.4297 7.83398L84.123 2.72461ZM89.7949 0.392578H96.0703V1.44727H90.9316V4.06055H95.6836V5.05664H90.9316V7.97461H96.1582V9H89.7949V0.392578ZM96.9492 2.72461H98.3145L99.7559 4.93359L101.215 2.72461L102.498 2.75391L100.383 5.7832L102.592 9H101.244L99.6855 6.64453L98.1738 9H96.8379L99.0469 5.7832L96.9492 2.72461ZM105.967 2.54297C106.674 2.54297 107.248 2.71484 107.689 3.05859C108.135 3.40234 108.402 3.99414 108.492 4.83398H107.467C107.404 4.44727 107.262 4.12695 107.039 3.87305C106.816 3.61523 106.459 3.48633 105.967 3.48633C105.295 3.48633 104.814 3.81445 104.525 4.4707C104.338 4.89648 104.244 5.42188 104.244 6.04688C104.244 6.67578 104.377 7.20508 104.643 7.63477C104.908 8.06445 105.326 8.2793 105.896 8.2793C106.334 8.2793 106.68 8.14648 106.934 7.88086C107.191 7.61133 107.369 7.24414 107.467 6.7793H108.492C108.375 7.61133 108.082 8.2207 107.613 8.60742C107.145 8.99023 106.545 9.18164 105.814 9.18164C104.994 9.18164 104.34 8.88281 103.852 8.28516C103.363 7.68359 103.119 6.93359 103.119 6.03516C103.119 4.93359 103.387 4.07617 103.922 3.46289C104.457 2.84961 105.139 2.54297 105.967 2.54297ZM109.547 0.363281H110.602V3.57422C110.852 3.25781 111.076 3.03516 111.275 2.90625C111.615 2.68359 112.039 2.57227 112.547 2.57227C113.457 2.57227 114.074 2.89062 114.398 3.52734C114.574 3.875 114.662 4.35742 114.662 4.97461V9H113.578V5.04492C113.578 4.58398 113.52 4.24609 113.402 4.03125C113.211 3.6875 112.852 3.51562 112.324 3.51562C111.887 3.51562 111.49 3.66602 111.135 3.9668C110.779 4.26758 110.602 4.83594 110.602 5.67188V9H109.547V0.363281ZM117.035 7.33008C117.035 7.63477 117.146 7.875 117.369 8.05078C117.592 8.22656 117.855 8.31445 118.16 8.31445C118.531 8.31445 118.891 8.22852 119.238 8.05664C119.824 7.77148 120.117 7.30469 120.117 6.65625V5.80664C119.988 5.88867 119.822 5.95703 119.619 6.01172C119.416 6.06641 119.217 6.10547 119.021 6.12891L118.383 6.21094C118 6.26172 117.713 6.3418 117.521 6.45117C117.197 6.63477 117.035 6.92773 117.035 7.33008ZM119.59 5.19727C119.832 5.16602 119.994 5.06445 120.076 4.89258C120.123 4.79883 120.146 4.66406 120.146 4.48828C120.146 4.12891 120.018 3.86914 119.76 3.70898C119.506 3.54492 119.141 3.46289 118.664 3.46289C118.113 3.46289 117.723 3.61133 117.492 3.9082C117.363 4.07227 117.279 4.31641 117.24 4.64062H116.256C116.275 3.86719 116.525 3.33008 117.006 3.0293C117.49 2.72461 118.051 2.57227 118.688 2.57227C119.426 2.57227 120.025 2.71289 120.486 2.99414C120.943 3.27539 121.172 3.71289 121.172 4.30664V7.92188C121.172 8.03125 121.193 8.11914 121.236 8.18555C121.283 8.25195 121.379 8.28516 121.523 8.28516C121.57 8.28516 121.623 8.2832 121.682 8.2793C121.74 8.27148 121.803 8.26172 121.869 8.25V9.0293C121.705 9.07617 121.58 9.10547 121.494 9.11719C121.408 9.12891 121.291 9.13477 121.143 9.13477C120.779 9.13477 120.516 9.00586 120.352 8.74805C120.266 8.61133 120.205 8.41797 120.17 8.16797C119.955 8.44922 119.646 8.69336 119.244 8.90039C118.842 9.10742 118.398 9.21094 117.914 9.21094C117.332 9.21094 116.855 9.03516 116.484 8.68359C116.117 8.32812 115.934 7.88477 115.934 7.35352C115.934 6.77148 116.115 6.32031 116.479 6C116.842 5.67969 117.318 5.48242 117.908 5.4082L119.59 5.19727ZM122.906 2.72461H123.908V3.61523C124.205 3.24805 124.52 2.98437 124.852 2.82422C125.184 2.66406 125.553 2.58398 125.959 2.58398C126.85 2.58398 127.451 2.89453 127.764 3.51562C127.936 3.85547 128.021 4.3418 128.021 4.97461V9H126.949V5.04492C126.949 4.66211 126.893 4.35352 126.779 4.11914C126.592 3.72852 126.252 3.5332 125.76 3.5332C125.51 3.5332 125.305 3.55859 125.145 3.60938C124.855 3.69531 124.602 3.86719 124.383 4.125C124.207 4.33203 124.092 4.54688 124.037 4.76953C123.986 4.98828 123.961 5.30273 123.961 5.71289V9H122.906V2.72461ZM131.801 2.61328C132.293 2.61328 132.723 2.73438 133.09 2.97656C133.289 3.11328 133.492 3.3125 133.699 3.57422V2.7832H134.672V8.49023C134.672 9.28711 134.555 9.91602 134.32 10.377C133.883 11.2285 133.057 11.6543 131.842 11.6543C131.166 11.6543 130.598 11.502 130.137 11.1973C129.676 10.8965 129.418 10.4238 129.363 9.7793H130.436C130.486 10.0605 130.588 10.2773 130.74 10.4297C130.979 10.6641 131.354 10.7812 131.865 10.7812C132.674 10.7812 133.203 10.4961 133.453 9.92578C133.602 9.58984 133.67 8.99023 133.658 8.12695C133.447 8.44727 133.193 8.68555 132.896 8.8418C132.6 8.99805 132.207 9.07617 131.719 9.07617C131.039 9.07617 130.443 8.83594 129.932 8.35547C129.424 7.87109 129.17 7.07227 129.17 5.95898C129.17 4.9082 129.426 4.08789 129.938 3.49805C130.453 2.9082 131.074 2.61328 131.801 2.61328ZM133.699 5.83594C133.699 5.05859 133.539 4.48242 133.219 4.10742C132.898 3.73242 132.49 3.54492 131.994 3.54492C131.252 3.54492 130.744 3.89258 130.471 4.58789C130.326 4.95898 130.254 5.44531 130.254 6.04688C130.254 6.75391 130.396 7.29297 130.682 7.66406C130.971 8.03125 131.357 8.21484 131.842 8.21484C132.6 8.21484 133.133 7.87305 133.441 7.18945C133.613 6.80273 133.699 6.35156 133.699 5.83594ZM138.879 2.58398C139.324 2.58398 139.756 2.68945 140.174 2.90039C140.592 3.10742 140.91 3.37695 141.129 3.70898C141.34 4.02539 141.48 4.39453 141.551 4.81641C141.613 5.10547 141.645 5.56641 141.645 6.19922H137.045C137.064 6.83594 137.215 7.34766 137.496 7.73438C137.777 8.11719 138.213 8.30859 138.803 8.30859C139.354 8.30859 139.793 8.12695 140.121 7.76367C140.309 7.55273 140.441 7.30859 140.52 7.03125H141.557C141.529 7.26172 141.438 7.51953 141.281 7.80469C141.129 8.08594 140.957 8.31641 140.766 8.49609C140.445 8.80859 140.049 9.01953 139.576 9.12891C139.322 9.19141 139.035 9.22266 138.715 9.22266C137.934 9.22266 137.271 8.93945 136.729 8.37305C136.186 7.80273 135.914 7.00586 135.914 5.98242C135.914 4.97461 136.188 4.15625 136.734 3.52734C137.281 2.89844 137.996 2.58398 138.879 2.58398ZM140.561 5.36133C140.518 4.9043 140.418 4.53906 140.262 4.26562C139.973 3.75781 139.49 3.50391 138.814 3.50391C138.33 3.50391 137.924 3.67969 137.596 4.03125C137.268 4.37891 137.094 4.82227 137.074 5.36133H140.561Z" transform="translate(1 43)" fill="white"/>
</svg>
