<svg width="169" height="44" viewBox="0 0 169 44" fill="none" xmlns="http://www.w3.org/2000/svg">
<path d="M18.9981 1.57035C19.7168 1.49486 20.4453 1.45514 21.1847 1.4529C32.7665 1.41665 42.1538 10.6032 42.1882 21.9345C42.2237 33.2655 32.8935 42.5108 21.3107 42.5471C20.5723 42.5493 19.8428 42.5143 19.1241 42.4433L18.9833 43.8894C19.7503 43.9649 20.528 44.0024 21.3156 43.9999C33.6614 43.9612 43.6699 34.0968 43.6325 21.9297C43.5941 9.76292 33.5255 -0.03862 21.1798 0.00011441C20.3931 0.00259738 19.6154 0.0448079 18.8484 0.125256L18.9981 1.57035Z" fill="white"/>
<path d="M21.4298 12.4522L3.55901 12.5081C3.22625 12.5093 3.02934 12.1337 3.21738 11.8578L8.7267 3.80626C8.91868 3.52594 9.23471 3.35834 9.5724 3.35709L13.6296 3.34443C13.92 3.34344 14.1966 3.4661 14.3926 3.68187L21.7331 11.757C21.9743 12.0227 21.7872 12.451 21.4298 12.4522Z" fill="white"/>
<path d="M6.28753e-06 16.7095C-0.00196273 16.1365 0.458788 15.6704 1.02783 15.6687L25.5914 15.5914C25.9025 15.5905 26.1978 15.7312 26.3937 15.9743L30.6291 21.2144C30.9363 21.594 30.9382 22.1376 30.633 22.5189L26.4302 27.7856C26.2352 28.0299 25.9418 28.1724 25.6298 28.1734L1.06623 28.2504C0.497184 28.2524 0.0344641 27.7891 0.0324951 27.216L6.28753e-06 16.7095Z" fill="white"/>
<path d="M3.6171 31.4986L21.4879 31.4427C21.8463 31.4415 22.0353 31.8686 21.7951 32.136L14.5058 40.257C14.3108 40.4741 14.0342 40.5982 13.7438 40.5992L9.68758 40.6119C9.34891 40.6129 9.0319 40.447 8.83795 40.1679L3.28039 32.1514C3.0894 31.8768 3.28433 31.4999 3.6171 31.4986Z" fill="white"/>
<path d="M157.616 27.2128C157.19 26.5672 156.948 25.7272 156.891 24.6925H154.589C154.564 26.6623 155.187 28.2226 156.459 29.3729C157.731 30.5317 159.491 31.111 161.738 31.111C163.667 31.111 165.357 30.6765 166.808 29.8075C168.27 28.9384 169 27.4941 169 25.4747C169 23.8525 168.425 22.615 167.277 21.7626C166.612 21.2742 165.668 20.8894 164.446 20.608L161.912 20.0245C160.204 19.6273 159.11 19.2963 158.625 19.0314C157.887 18.6174 157.518 17.9637 157.518 17.0698C157.518 16.2586 157.834 15.547 158.466 14.9345C159.097 14.3219 160.134 14.0158 161.579 14.0158C163.368 14.0158 164.635 14.4917 165.381 15.4435C165.784 15.9649 166.046 16.714 166.169 17.6906H168.47C168.47 15.6627 167.806 14.1896 166.477 13.2709C165.155 12.344 163.548 11.8804 161.653 11.8804C159.593 11.8804 158.002 12.406 156.878 13.4571C155.753 14.5081 155.191 15.8532 155.191 17.4919C155.191 19.0065 155.766 20.1445 156.914 20.906C157.58 21.3447 158.712 21.746 160.311 22.1102L162.76 22.6689C164.089 22.9751 165.066 23.3351 165.689 23.749C166.304 24.1711 166.612 24.8788 166.612 25.8719C166.612 27.1961 165.882 28.1148 164.422 28.628C163.667 28.893 162.83 29.0253 161.912 29.0253C159.86 29.0253 158.428 28.4212 157.616 27.2128Z" fill="white"/>
<path d="M54.661 12.3397H67.8416V14.5744H57.0484V20.1115H67.0284V22.222H57.0484V28.4046H68.0257V30.5772H54.661V12.3397Z" fill="white"/>
<path d="M72.7878 30.5772H69.8343L76.3084 21.2288L70.2409 12.3397H73.3056L77.92 19.3169L82.498 12.3397H85.4151L79.3476 21.2288L85.7105 30.5772H82.6703L77.797 23.0786L72.7878 30.5772Z" fill="white"/>
<path fill-rule="evenodd" clip-rule="evenodd" d="M96.7114 12.3397H88.343V30.5772H90.7925V22.7558H96.3668C97.368 22.7558 98.1025 22.8675 98.5701 23.091C99.3902 23.4965 99.8293 24.2953 99.8874 25.4871L100.035 28.5287C100.068 29.2406 100.108 29.7206 100.157 29.9689C100.206 30.2172 100.272 30.42 100.354 30.5772H103.357V30.1675C102.98 30.0019 102.717 29.6294 102.569 29.0502C102.48 28.7107 102.422 28.1935 102.398 27.4983L102.311 25.0526C102.27 23.9931 102.069 23.2276 101.709 22.7558C101.355 22.2841 100.827 21.9034 100.121 21.6136C100.925 21.1915 101.548 20.6329 101.991 19.9376C102.442 19.2424 102.668 18.3485 102.668 17.256C102.668 15.1621 101.819 13.726 100.121 12.9481C99.2268 12.5426 98.0897 12.3397 96.7114 12.3397ZM99.1727 19.9997C98.5091 20.4633 97.6024 20.695 96.4534 20.695H90.7925V14.4627H96.7734C97.6102 14.4627 98.2787 14.5868 98.7788 14.8351C99.7141 15.3069 100.183 16.1926 100.183 17.4919C100.183 18.7004 99.8461 19.5361 99.1727 19.9997Z" fill="white"/>
<path fill-rule="evenodd" clip-rule="evenodd" d="M111.516 12.3397H114.285L120.845 30.5772H118.162L116.329 25.1146H109.178L107.222 30.5772H104.712L111.516 12.3397ZM115.541 23.1034L112.796 15.0462L109.88 23.1034H115.541Z" fill="white"/>
<path d="M136.228 14.5123V12.3397H121.558V14.5123H127.651V30.5772H130.135V14.5123H136.228Z" fill="white"/>
<path d="M138.714 12.3397H151.893V14.5744H141.101V20.1115H151.082V22.222H141.101V28.4046H152.078V30.5772H138.714V12.3397Z" fill="white"/>
</svg>
