<svg width="632" height="597" viewBox="0 0 632 597" fill="none" xmlns="http://www.w3.org/2000/svg">
<path d="M0 97.7358L63.8762 118.445C67.0134 119.463 69.9644 116.46 68.8928 113.341L40.3799 30.3514M142.861 0L118.782 24.0736C117.717 25.1386 116.144 25.5149 114.712 25.047L48.83 3.52213" transform="translate(222.52 264.518) scale(-1.00011 0.999895) rotate(-45.006)" stroke="#FF876C" stroke-opacity="0.5"/>
<path d="M0 21.2124L39.9501 35.0018L74.9592 0" transform="translate(240.504 182.504) scale(-1.00011 0.999895) rotate(-45.006)" stroke="#FF876C"/>
<path d="M0 53.0303L76.5091 78.0788C77.9416 78.5478 79.516 78.1717 80.5819 77.106L157.702 0" transform="translate(168.014 306.512) scale(-1.00011 0.999895) rotate(-45.006)" stroke="#FF876C" stroke-opacity="0.3"/>
<path d="M29.101 0L69.3914 120.91C70.4339 124.038 67.4558 127.014 64.3284 125.968L0 104.464" transform="translate(478.332 166.648) scale(-1.00011 0.999895) rotate(-45)" stroke="#FF876C"/>
<path d="M0 0L341.601 113.83L384.423 242.337L42.2797 127.965L0 0Z" transform="translate(86.6016 425.172) scale(1.00011 0.999895) rotate(-45)" fill="#F2F6F6"/>
<path d="M0 0L341.601 113.83L384.423 242.337L42.2797 127.965L0 0Z" transform="translate(86.6016 361.959) scale(1.00011 0.999895) rotate(-45)" fill="#34C88A"/>
<path d="M0 0L283.843 97.5824L305.319 162.03L21.2037 64.1755L0 0Z" transform="translate(144 360.31) scale(1.00011 0.999895) rotate(-45)" fill="white"/>
<path d="M10.846 0L0 10.8465L42.279 138.811L53.1252 127.965L10.846 0Z" transform="translate(78.9316 369.627) scale(1.00011 0.999895) rotate(-45)" fill="#163F59"/>
<path d="M10.8463 0L0 10.8459L114.371 352.987L125.217 342.141L10.8463 0Z" transform="translate(537.504 269.169) scale(-1.00011 0.999895) rotate(-45)" fill="#C0F5DF"/>
<path d="M76.4602 0L103.115 79.9894C104.157 83.1179 101.179 86.0931 98.0519 85.0476L6.4802 54.4368C3.58015 53.4674 0.708953 55.9783 1.28323 58.9817L5.90155 83.1348" transform="translate(205.535 458.894) scale(1.00011 0.999895) rotate(-45)" stroke="#FF876C"/>
<path d="M0 0L68.0247 204.14" transform="translate(397.197 335.488) scale(1.00011 0.999895) rotate(-45)" stroke="#FF876C"/>
<path d="M0 0L68.0247 204.14" transform="translate(397.197 335.669) scale(1.00011 0.999895) rotate(-45)" stroke="#FF876C"/>
<path d="M0 0L25.8302 78.1785C26.4239 79.9752 27.8304 81.3867 29.6251 81.9866L85.6992 100.731" transform="translate(499 284.592) scale(1.00011 0.999895) rotate(-45)" stroke="#FF876C"/>
<path d="M0 59.9579L29.8888 69.9492C34.58 71.5174 39.047 67.0546 37.4833 62.3619L20.4994 11.394C18.9358 6.70152 23.4023 2.23883 28.0934 3.80647L67.8344 17.0868" transform="translate(143.789 420.243) scale(1.00011 0.999895) rotate(135)" stroke="#FF876C"/>
<path d="M29.9067 0L0 15.3372V217.789L29.9067 201.685V0Z" transform="translate(415.574 55.2141)" fill="url(#paint0_linear)"/>
<path d="M29.9067 0L0 15.3372V217.789L29.9067 202.452V0Z" transform="translate(385.668 273.003) scale(1 -1)" fill="#FF876C" fill-opacity="0.9"/>
<path d="M0 0V30.6745L29.9067 15.3372L0 0Z" transform="translate(415.574 70.5513) scale(1 -1)" fill="url(#paint1_linear)" fill-opacity="0.5"/>
<path d="M29.9067 30.6745L0 15.3372L29.9067 0L59.8134 15.3372L29.9067 30.6745Z" transform="translate(385.668 39.8768)" fill="#FF876C" fill-opacity="0.3"/>
<path d="M29.9067 30.6745L0 15.3372L29.9067 0V30.6745Z" transform="translate(385.668 242.328)" fill="url(#paint2_linear)" fill-opacity="0.3"/>
<path d="M29.9067 0L0 15.3372V79.7537L29.9067 63.6496V0Z" transform="translate(361.129 221.623)" fill="url(#paint3_linear)"/>
<path d="M29.9067 0L0 15.3372V79.7537L29.9067 64.4164V0Z" transform="translate(331.223 301.377) scale(1 -1)" fill="#FF876C" fill-opacity="0.8"/>
<path d="M29.9067 30.6745L0 15.3372L29.9067 0L59.8134 15.3372L29.9067 30.6745Z" transform="translate(331.223 206.286)" fill="#FFC9BD"/>
<path d="M0 0V30.6745L29.9067 15.3372L0 0Z" transform="translate(361.129 236.96) scale(1 -1)" fill="url(#paint4_linear)" fill-opacity="0.5"/>
<path d="M29.9067 30.6745L0 15.3372L29.9067 0V30.6745Z" transform="translate(331.223 270.702)" fill="url(#paint5_linear)" fill-opacity="0.3"/>
<path d="M29.9067 0L0 15.3372V118.097L29.9067 101.993V0Z" transform="translate(308.217 210.12)" fill="url(#paint6_linear)"/>
<path d="M29.9067 0L0 15.3372V118.097L29.9067 102.76V0Z" transform="translate(278.311 328.217) scale(1 -1)" fill="#FF876C" fill-opacity="0.8"/>
<path d="M0 0V30.6745L29.9067 15.3372L0 0Z" transform="translate(308.217 225.457) scale(1 -1)" fill="url(#paint7_linear)" fill-opacity="0.5"/>
<path d="M29.9067 30.6745L0 15.3372L29.9067 0L59.8134 15.3372L29.9067 30.6745Z" transform="translate(278.311 194.783)" fill="#FF876C" fill-opacity="0.3"/>
<path d="M29.9067 30.6745L0 15.3372L29.9067 0V30.6745Z" transform="translate(278.311 297.542)" fill="url(#paint8_linear)" fill-opacity="0.3"/>
<path d="M29.9067 0L0 15.3372V164.108L29.9067 148.004V0Z" transform="translate(255.305 190.182)" fill="url(#paint9_linear)"/>
<path d="M29.9067 0L0 15.3372V164.108L29.9067 148.771V0Z" transform="translate(225.398 354.29) scale(1 -1)" fill="#FF876C" fill-opacity="0.8"/>
<path d="M0 0V30.6745L29.9067 15.3372L0 0Z" transform="translate(255.305 205.519) scale(1 -1)" fill="url(#paint10_linear)" fill-opacity="0.5"/>
<path d="M29.9067 30.6745L0 15.3372L29.9067 0L59.8134 15.3372L29.9067 30.6745Z" transform="translate(225.398 174.845)" fill="#FF876C" fill-opacity="0.3"/>
<path d="M29.9067 30.6745L0 15.3372L29.9067 0V30.6745Z" transform="translate(225.398 323.616)" fill="url(#paint11_linear)" fill-opacity="0.3"/>
<path d="M29.9067 0L0 15.3372V141.103L29.9067 124.999V0Z" transform="translate(202.393 239.26)" fill="url(#paint12_linear)"/>
<path d="M29.9067 0L0 15.3372V141.103L29.9067 125.765V0Z" transform="translate(172.486 380.363) scale(1 -1)" fill="#FF876C" fill-opacity="0.7"/>
<path d="M0 0V30.6745L29.9067 15.3372L0 0Z" transform="translate(202.393 254.597) scale(1 -1)" fill="url(#paint13_linear)" fill-opacity="0.5"/>
<path d="M29.9067 30.6745L0 15.3372L29.9067 0L59.8134 15.3372L29.9067 30.6745Z" transform="translate(172.486 223.923)" fill="#FF876C" fill-opacity="0.3"/>
<path d="M29.9067 30.6745L0 15.3372L29.9067 0V30.6745Z" transform="translate(172.486 349.689)" fill="url(#paint14_linear)" fill-opacity="0.3"/>
<path d="M266.093 0.25742C260.597 -0.637253 246.539 0.717544 237.337 5.62546C183.658 39.7508 211.051 137.288 192.86 168.967C170.622 207.694 132.663 141.744 80.9015 131.774C58.7423 127.507 43.3264 156.697 25.6891 191.59C18.9517 204.918 8.9646 207.587 0 205.332" transform="translate(158.301 5.11061)" stroke="#34C88A" stroke-width="3"/>
<path d="M14.1233 8.70099C14.1233 13.3598 14.3999 17.6726 6.21276 16.8107C2.82464 16.8107 0 12.9811 0 8.32236C0 3.66359 3.55218 0.00784584 6.9403 0.00784584C15.9116 -0.268711 12.5587 6.84833 14.1233 8.70099Z" transform="translate(178.756 186.348) rotate(21.7484)" fill="#F8AB9A" fill-opacity="0.801329"/>
<ellipse cx="6.13473" cy="8.43545" rx="6.13473" ry="8.43545" transform="translate(181.865 187.776) rotate(21.7484)" fill="#FF876C"/>
<ellipse cx="1.12577" cy="1.54797" rx="1.12577" ry="1.54797" transform="translate(259.52 402.873) rotate(21.7484)" fill="#FF876C"/>
<ellipse cx="1.12577" cy="1.54797" rx="1.12577" ry="1.54797" transform="translate(396.783 333.585) rotate(21.7484)" fill="#FF876C"/>
<ellipse cx="1.12577" cy="1.54797" rx="1.12577" ry="1.54797" transform="translate(393.146 336) rotate(21.7484)" fill="#FF876C"/>
<ellipse cx="1.12577" cy="1.54797" rx="1.12577" ry="1.54797" transform="translate(256.146 405) rotate(21.7484)" fill="#FF876C"/>
<ellipse cx="1.12577" cy="1.54797" rx="1.12577" ry="1.54797" transform="translate(102.092 376) scale(-0.999993 1.00001) rotate(21.7484)" fill="#FF876C"/>
<ellipse cx="1.12577" cy="1.54797" rx="1.12577" ry="1.54797" transform="translate(499.146 283) rotate(21.7484)" fill="#FF876C"/>
<ellipse cx="1.12577" cy="1.54797" rx="1.12577" ry="1.54797" transform="translate(503.146 280) rotate(21.7484)" fill="#FF876C"/>
<path d="M14.1233 8.70099C14.1233 13.3598 14.3999 17.6726 6.21276 16.8107C2.82464 16.8107 0 12.9811 0 8.32236C0 3.66359 3.55218 0.00784584 6.9403 0.00784584C15.9116 -0.268711 12.5587 6.84833 14.1233 8.70099Z" transform="translate(339.793 171.777) rotate(21.7484)" fill="#F8AB9A" fill-opacity="0.801329"/>
<ellipse cx="6.13473" cy="8.43545" rx="6.13473" ry="8.43545" transform="translate(342.902 173.206) rotate(21.7484)" fill="#FF876C"/>
<path d="M14.1233 8.70099C14.1233 13.3598 14.3999 17.6726 6.21276 16.8107C2.82464 16.8107 0 12.9811 0 8.32236C0 3.66359 3.55218 0.00784584 6.9403 0.00784584C15.9116 -0.268711 12.5587 6.84833 14.1233 8.70099Z" transform="translate(393.471) rotate(21.7484)" fill="#F8AB9A" fill-opacity="0.801329"/>
<ellipse cx="6.13473" cy="8.43545" rx="6.13473" ry="8.43545" transform="translate(396.58 1.4287) rotate(21.7484)" fill="#FF876C"/>
<path d="M14.1233 8.70099C14.1233 13.3598 14.3999 17.6726 6.21276 16.8107C2.82464 16.8107 0 12.9811 0 8.32236C0 3.66359 3.55218 0.00784584 6.9403 0.00784584C15.9116 -0.268711 12.5587 6.84833 14.1233 8.70099Z" transform="translate(233.201 127.299) rotate(21.7484)" fill="#F8AB9A" fill-opacity="0.801329"/>
<ellipse cx="6.13473" cy="8.43545" rx="6.13473" ry="8.43545" transform="translate(236.311 128.728) rotate(21.7484)" fill="#FF876C"/>
<path d="M0 58.555L14.1366 101.072L115.208 0L0 58.555Z" transform="translate(40.625 101.432) scale(1.0004 0.999597) rotate(-45)" fill="#F7A390"/>
<path d="M0 22.9872L14.1366 65.5038L79.6407 0L0 22.9872Z" transform="translate(131.152 94.3088) scale(1.0004 0.999597) rotate(-45)" fill="#F7A390"/>
<path d="M0 22.9491L14.1747 65.5039L79.6789 0L0 22.9491Z" transform="translate(243.855 94.3358) scale(-1.0004 0.999597) rotate(-45)" fill="url(#paint15_linear)"/>
<path d="M0 22.9872L14.1366 65.5038L79.6407 0L0 22.9872Z" transform="translate(0 159.254) scale(1.0004 0.999597) rotate(-45)" fill="#F7A390"/>
<path d="M0 22.9491L14.1747 65.5039L79.6789 0L0 22.9491Z" transform="translate(112.701 159.281) scale(-1.0004 0.999597) rotate(-45)" fill="url(#paint16_linear)"/>
<path d="M0 58.5168L14.1747 101.072L115.247 0L0 58.5168Z" transform="translate(203.648 101.459) scale(-1.0004 0.999597) rotate(-45)" fill="url(#paint17_linear)"/>
<path d="M5.20665 0L9.71573 7.80997H0.697558L5.20665 0Z" transform="translate(174.635 354.675) rotate(-30)" fill="white" fill-opacity="0.5"/>
<path d="M3.18009 0L5.93414 4.77014H0.426052L3.18009 0Z" transform="translate(181.027 303.717) rotate(-30)" fill="white" fill-opacity="0.5"/>
<path d="M4.66618 0L8.70721 6.99927H0.62515L4.66618 0Z" transform="translate(236.971 316.636) rotate(-30)" fill="white" fill-opacity="0.5"/>
<path d="M2.36899 0L4.4206 3.55349L0.317385 3.55349L2.36899 0Z" transform="translate(295.139 309.507) rotate(-30)" fill="white" fill-opacity="0.5"/>
<path d="M4.55457 0L8.49895 6.83186L0.610197 6.83186L4.55457 0Z" transform="translate(286.014 270.569) rotate(-30)" fill="white" fill-opacity="0.5"/>
<path d="M1.81319 0L3.38346 2.71978H0.242921L1.81319 0Z" transform="translate(344 275.813) rotate(-30)" fill="white" fill-opacity="0.5"/>
<path d="M1.81319 0L3.38346 2.71978H0.242921L1.81319 0Z" transform="translate(340 235.813) rotate(-30)" fill="white" fill-opacity="0.5"/>
<path d="M1.81319 0L3.38346 2.71978H0.242921L1.81319 0Z" transform="translate(399 247.813) rotate(-30)" fill="white" fill-opacity="0.5"/>
<path d="M3.88347 0L7.24665 5.8252L0.520286 5.8252L3.88347 0Z" transform="translate(394.172 153.883) rotate(-30)" fill="white" fill-opacity="0.5"/>
<path d="M1.7431 0L3.25267 2.61465H0.233531L1.7431 0Z" transform="translate(233.992 260.736) rotate(-30)" fill="white" fill-opacity="0.5"/>
<path d="M1.85833 0L3.46769 2.78749H0.248969L1.85833 0Z" transform="translate(195.883 335.664) scale(-1 1) rotate(-30)" fill="white" fill-opacity="0.5"/>
<path d="M4.10091 0L7.6524 6.15136H0.549418L4.10091 0Z" transform="translate(194.141 275.038) scale(-1 1) rotate(-30)" fill="white" fill-opacity="0.5"/>
<path d="M2.8188 0L5.25995 4.2282H0.377647L2.8188 0Z" transform="translate(249.451 217.57) scale(-1 1) rotate(-30)" fill="white" fill-opacity="0.5"/>
<path d="M2.8188 0L5.25995 4.2282H0.377647L2.8188 0Z" transform="translate(293.701 250.819) scale(-1 1) rotate(-30)" fill="white" fill-opacity="0.5"/>
<path d="M2.16193 0L4.03422 3.24289H0.289644L2.16193 0Z" transform="translate(357.805 286.059) scale(-1 1) rotate(-30)" fill="white" fill-opacity="0.5"/>
<path d="M2.91495 0L5.43937 4.37243H0.390529L2.91495 0Z" transform="translate(401.66 241.858) scale(-1 1) rotate(-30)" fill="white" fill-opacity="0.5"/>
<path d="M2.91495 0L5.43937 4.37243H0.390529L2.91495 0Z" transform="translate(410.963 171.915) scale(-1 1) rotate(-30)" fill="white" fill-opacity="0.5"/>
<path d="M4.25342 0L7.937 6.38014L0.569851 6.38014L4.25342 0Z" transform="translate(402.619 97.9351) scale(-1 1) rotate(-30)" fill="white" fill-opacity="0.5"/>
<path d="M2.21008 0L4.12407 3.31513L0.296095 3.31513L2.21008 0Z" transform="translate(174.971 259.86) rotate(-30)" fill="white" fill-opacity="0.5"/>
<path d="M0 0L3.5 2L7.5 0" transform="translate(118.5 154.5)" stroke="white" stroke-linecap="round" stroke-linejoin="round"/>
<path d="M0 0L3.5 2L7.5 0" transform="translate(118.5 147)" stroke="white" stroke-linecap="round" stroke-linejoin="round"/>
<path d="M0 0L3.5 2L7.5 0" transform="translate(118.5 138)" stroke="white" stroke-linecap="round" stroke-linejoin="round"/>
<defs>
<linearGradient id="paint0_linear" x2="1" gradientUnits="userSpaceOnUse" gradientTransform="translate(29.9067 -30.6745) scale(29.9067 248.463) rotate(90)">
<stop stop-color="#FF876C"/>
<stop offset="1" stop-color="#FFD6CD"/>
</linearGradient>
<linearGradient id="paint1_linear" x2="1" gradientUnits="userSpaceOnUse" gradientTransform="translate(-17.1532 49.4626) scale(52.7106 54.0638) rotate(-90)">
<stop stop-color="#FF876C"/>
<stop offset="1" stop-color="#FF876C" stop-opacity="0"/>
</linearGradient>
<linearGradient id="paint2_linear" x2="1" gradientUnits="userSpaceOnUse" gradientTransform="matrix(59.8134 -0.383432 0.373833 58.3199 -0.186916 -18.4239)">
<stop stop-color="#FF876C"/>
<stop offset="1" stop-color="#FF876C" stop-opacity="0"/>
</linearGradient>
<linearGradient id="paint3_linear" x2="1" gradientUnits="userSpaceOnUse" gradientTransform="translate(29.9067 -168.71) scale(29.9067 248.463) rotate(90)">
<stop stop-color="#FF876C"/>
<stop offset="1" stop-color="#FFD6CD"/>
</linearGradient>
<linearGradient id="paint4_linear" x2="1" gradientUnits="userSpaceOnUse" gradientTransform="matrix(-0.169032 -33.5616 32.7215 -0.164801 -6.98966 29.0428)">
<stop stop-color="#FF876C"/>
<stop offset="1" stop-color="#FF876C" stop-opacity="0"/>
</linearGradient>
<linearGradient id="paint5_linear" x2="1" gradientUnits="userSpaceOnUse" gradientTransform="matrix(59.8134 -0.383432 0.373833 58.3199 -0.186916 -18.4239)">
<stop stop-color="#FF876C"/>
<stop offset="1" stop-color="#FF876C" stop-opacity="0"/>
</linearGradient>
<linearGradient id="paint6_linear" x2="1" gradientUnits="userSpaceOnUse" gradientTransform="translate(29.9067 -130.367) scale(29.9067 248.463) rotate(90)">
<stop stop-color="#FF876C"/>
<stop offset="1" stop-color="#FFD6CD"/>
</linearGradient>
<linearGradient id="paint7_linear" x2="1" gradientUnits="userSpaceOnUse" gradientTransform="translate(-17.1532 49.4626) scale(52.7106 54.0638) rotate(-90)">
<stop stop-color="#FF876C"/>
<stop offset="1" stop-color="#FF876C" stop-opacity="0"/>
</linearGradient>
<linearGradient id="paint8_linear" x2="1" gradientUnits="userSpaceOnUse" gradientTransform="matrix(59.8134 -0.383432 0.373833 58.3199 -0.186916 -18.4239)">
<stop stop-color="#FF876C"/>
<stop offset="1" stop-color="#FF876C" stop-opacity="0"/>
</linearGradient>
<linearGradient id="paint9_linear" x2="1" gradientUnits="userSpaceOnUse" gradientTransform="translate(29.9067 -84.3548) scale(29.9067 248.463) rotate(90)">
<stop stop-color="#FF876C"/>
<stop offset="1" stop-color="#FFD6CD"/>
</linearGradient>
<linearGradient id="paint10_linear" x2="1" gradientUnits="userSpaceOnUse" gradientTransform="translate(-17.1532 49.4626) scale(52.7106 54.0638) rotate(-90)">
<stop stop-color="#FF876C"/>
<stop offset="1" stop-color="#FF876C" stop-opacity="0"/>
</linearGradient>
<linearGradient id="paint11_linear" x2="1" gradientUnits="userSpaceOnUse" gradientTransform="matrix(59.8134 -0.383432 0.373833 58.3199 -0.186916 -18.4239)">
<stop stop-color="#FF876C"/>
<stop offset="1" stop-color="#FF876C" stop-opacity="0"/>
</linearGradient>
<linearGradient id="paint12_linear" x2="1" gradientUnits="userSpaceOnUse" gradientTransform="translate(29.9067 -107.361) scale(29.9067 248.463) rotate(90)">
<stop stop-color="#FF876C"/>
<stop offset="1" stop-color="#FFD6CD"/>
</linearGradient>
<linearGradient id="paint13_linear" x2="1" gradientUnits="userSpaceOnUse" gradientTransform="translate(-17.1532 49.4626) scale(52.7106 54.0638) rotate(-90)">
<stop stop-color="#FF876C"/>
<stop offset="1" stop-color="#FF876C" stop-opacity="0"/>
</linearGradient>
<linearGradient id="paint14_linear" x2="1" gradientUnits="userSpaceOnUse" gradientTransform="matrix(59.8134 -0.383432 0.373833 58.3199 -0.186916 -18.4239)">
<stop stop-color="#FF876C"/>
<stop offset="1" stop-color="#FF876C" stop-opacity="0"/>
</linearGradient>
<linearGradient id="paint15_linear" x2="1" gradientUnits="userSpaceOnUse" gradientTransform="matrix(-107.829 -10.9168 13.4903 -131.164 74.3453 86.7763)">
<stop offset="0.0487659" stop-color="#FFCEC2"/>
<stop offset="1" stop-color="#FFCEC2" stop-opacity="0"/>
</linearGradient>
<linearGradient id="paint16_linear" x2="1" gradientUnits="userSpaceOnUse" gradientTransform="matrix(-92.6256 -13.3978 16.4784 -112.67 55.0278 72.5164)">
<stop stop-color="#FFCEC2"/>
<stop offset="1" stop-color="#FFCEC2" stop-opacity="0"/>
</linearGradient>
<linearGradient id="paint17_linear" x2="1" gradientUnits="userSpaceOnUse" gradientTransform="matrix(-86.7629 8.71217 -9.76869 -98.9311 122.97 75.6309)">
<stop stop-color="#FF876C" stop-opacity="0.37"/>
<stop offset="1" stop-color="#FFD6CD"/>
</linearGradient>
</defs>
</svg>
