<svg width="52" height="58" viewBox="0 0 52 58" fill="none" xmlns="http://www.w3.org/2000/svg">
<path fill-rule="evenodd" clip-rule="evenodd" d="M39.0003 13.3056C33.8437 13.3056 31.1061 15.8223 27.0548 15.771C23.0025 15.8223 20.2658 13.3056 15.1085 13.3056C11.0037 13.3056 5.79293 15.771 3.42507 19.3674C-0.942595 25.9431 -0.521951 33.0844 1.32011 40.4805C3.3199 48.3421 10.3718 58 15.9506 58C20.5286 58 22.5819 55.5843 27.0548 55.5843C31.5266 55.5843 33.5265 58 38.0538 58C43.2102 58 49.3675 49.7279 52 42.3812C46.9469 40.4292 43.5256 35.5497 43.5256 30.3606C43.5256 25.2238 46.2107 21.2682 50.3156 19.0081C47.79 15.6684 42.9473 13.3056 39.0003 13.3056ZM37.6314 0C30.2123 0.770766 24.687 6.83233 25.1602 13.7162C32.5802 12.9969 38.0538 6.88376 37.6314 0Z" fill="#C6CACE"/>
</svg>
