<svg width="135" height="45" viewBox="0 0 135 45" fill="none" xmlns="http://www.w3.org/2000/svg">
<path d="M135 38.9211C135 42.2833 132.334 45 129.035 45H5.96481C2.66569 45 0 42.2833 0 38.9211V6.0789C0 2.71668 2.66569 0 5.96481 0H129.035C132.334 0 135 2.71668 135 6.0789V38.9211Z" fill="#C6CACE"/>
<path d="M13.3548 1.02607e-07H2.37537C1.05572 1.02607e-07 2.01362e-07 1.07591 2.01362e-07 2.4208V27.2744C2.01362e-07 28.6192 1.05572 29.6952 2.37537 29.6952H13.3812C14.7009 29.6952 15.7566 28.6192 15.7566 27.2744V2.4477C15.7566 1.10281 14.6745 1.02607e-07 13.3548 1.02607e-07ZM7.8651 27.9199C6.99414 27.9199 6.28153 27.1937 6.28153 26.306C6.28153 25.4184 6.99414 24.6922 7.8651 24.6922C8.73607 24.6922 9.44868 25.4184 9.44868 26.306C9.44868 27.1937 8.73607 27.9199 7.8651 27.9199ZM13.8827 23.8852H1.84751V5.56784H13.8563V23.8852H13.8827Z" transform="translate(9.9502 7.69287)" fill="white"/>
<path d="M1.53079 4.49193L0.870968 6.56306H-8.05449e-07L2.19062 -1.02607e-07H3.19355L5.38417 6.56306H4.4868L3.80059 4.49193H1.53079ZM3.64223 3.81949L3.0088 1.93664C2.87683 1.50628 2.77126 1.12971 2.69208 0.753138H2.66569C2.58651 1.12971 2.48094 1.53317 2.34898 1.93664L1.71554 3.84638H3.64223V3.81949Z" transform="translate(33.1768 7.63892)" fill="white"/>
<path d="M0.897359 2.05214e-07L1.79472 2.63598C1.95308 3.06635 2.08504 3.46981 2.16422 3.84638H2.19062C2.29619 3.46981 2.42815 3.06635 2.58651 2.63598L3.48387 2.05214e-07H4.35484L2.53373 4.70711H1.74194L0 2.05214e-07H0.897359Z" transform="translate(38.5342 9.46802)" fill="white"/>
<path d="M3.64223 3.6581C3.64223 4.06157 3.66862 4.46503 3.72141 4.78781H2.95601L2.87683 4.19605H2.85044C2.6129 4.57262 2.08504 4.8954 1.42522 4.8954C0.501467 4.8954 -1.6109e-06 4.22295 -1.6109e-06 3.55051C-1.6109e-06 2.4208 1.00293 1.80215 2.77126 1.80215V1.69456C2.77126 1.31799 2.66569 0.591752 1.71554 0.618649C1.26686 0.618649 0.818183 0.753138 0.501467 0.96832L0.316717 0.403467C0.686219 0.161387 1.26686 4.10428e-07 1.84751 4.10428e-07C3.27273 4.10428e-07 3.61584 0.995218 3.61584 1.93664V3.6581H3.64223ZM2.82405 2.3939C1.9003 2.36701 0.870967 2.52839 0.870967 3.44292C0.870967 4.00777 1.24047 4.24985 1.66276 4.24985C2.26979 4.24985 2.66569 3.87328 2.79765 3.46981C2.82405 3.38912 2.82405 3.28153 2.82405 3.20084V2.3939Z" transform="translate(43.127 9.38745)" fill="white"/>
<path d="M0.527861 1.10281C0.211145 1.10281 1.6109e-06 0.860729 1.6109e-06 0.537956C1.6109e-06 0.24208 0.211143 -1.02607e-07 0.554251 -1.02607e-07C0.870967 -1.02607e-07 1.08211 0.24208 1.08211 0.537956C1.08211 0.860729 0.870969 1.10281 0.527861 1.10281ZM0.131966 6.67065V1.96354H0.976541V6.67065H0.131966Z" transform="translate(47.9316 7.50439)" fill="white"/>
<path d="M-1.6109e-06 0H0.844576V6.91273H-1.6109e-06V0Z" transform="translate(50.2529 7.26245)" fill="white"/>
<path d="M3.64223 3.6581C3.64223 4.06157 3.66862 4.46503 3.72141 4.78781H2.95601L2.87683 4.19605H2.85044C2.6129 4.57262 2.08505 4.8954 1.42522 4.8954C0.501468 4.8954 -8.05449e-07 4.22295 -8.05449e-07 3.55051C-8.05449e-07 2.4208 1.00293 1.80215 2.77126 1.80215V1.69456C2.77126 1.31799 2.66569 0.591752 1.71554 0.618649C1.26686 0.618649 0.818183 0.753138 0.501468 0.96832L0.316714 0.403467C0.686215 0.161387 1.26686 4.10428e-07 1.84751 4.10428e-07C3.27273 4.10428e-07 3.61583 0.995218 3.61583 1.93664V3.6581H3.64223ZM2.82405 2.3939C1.90029 2.36701 0.870968 2.52839 0.870968 3.44292C0.870968 4.00777 1.24047 4.24985 1.66276 4.24985C2.26979 4.24985 2.66569 3.87328 2.79765 3.46981C2.82405 3.38912 2.82405 3.28153 2.82405 3.20084V2.3939Z" transform="translate(52.0479 9.38745)" fill="white"/>
<path d="M0.0263914 0H0.870969V2.95876H0.89736C1.18768 2.4208 1.71554 2.09803 2.48094 2.09803C3.61584 2.09803 4.43402 3.06635 4.43402 4.49193C4.43402 6.18649 3.3783 7.02032 2.34897 7.02032C1.68915 7.02032 1.16129 6.75134 0.79179 6.1327H0.765395L0.71261 6.91273H8.05449e-07C0.0263938 6.58996 0.0263914 6.1058 0.0263914 5.70233V0ZM0.870969 5.02989C0.870969 5.13748 0.870967 5.24507 0.89736 5.35266C1.05572 5.94441 1.55718 6.34788 2.16422 6.34788C3.06158 6.34788 3.56305 5.62164 3.56305 4.54573C3.56305 3.6043 3.08798 2.79737 2.19062 2.79737C1.60997 2.79737 1.08211 3.20084 0.923755 3.84638C0.897362 3.95397 0.870969 4.06157 0.870969 4.19605V5.02989Z" transform="translate(56.9561 7.26245)" fill="white"/>
<path d="M8.05449e-07 0H0.844575V6.91273H8.05449e-07V0Z" transform="translate(62.3672 7.26245)" fill="white"/>
<path d="M0.81818 2.63598C0.844573 3.79259 1.55718 4.27675 2.40176 4.27675C3.0088 4.27675 3.3783 4.16916 3.66862 4.03467L3.82698 4.62642C3.53665 4.76091 3.0088 4.9223 2.26979 4.9223C0.844573 4.9223 8.05449e-07 3.95398 8.05449e-07 2.55529C8.05449e-07 1.12971 0.818183 2.05214e-07 2.19062 2.05214e-07C3.69502 2.05214e-07 4.09091 1.34489 4.09091 2.20562C4.09091 2.3939 4.09091 2.52839 4.06452 2.60909L0.81818 2.63598ZM3.27273 2.01733C3.27273 1.47938 3.06158 0.618649 2.11144 0.618649C1.24047 0.618649 0.897359 1.42558 0.81818 2.01733H3.27273Z" transform="translate(64.2148 9.3335)" fill="white"/>
<path d="M2.21701 4.9223C0.976543 4.9223 -3.2218e-06 3.98087 -3.2218e-06 2.50149C-3.2218e-06 0.914524 1.02933 -2.05214e-07 2.29619 -2.05214e-07C3.61584 -2.05214e-07 4.5132 0.995218 4.5132 2.4208C4.5132 4.16916 3.32552 4.9223 2.21701 4.9223ZM2.2434 4.27675C3.03519 4.27675 3.64223 3.49671 3.64223 2.4477C3.64223 1.64077 3.24633 0.645547 2.26979 0.645547C1.29325 0.645547 0.844575 1.58697 0.844575 2.4746C0.844575 3.52361 1.42522 4.27675 2.2434 4.27675Z" transform="translate(70.9443 9.36035)" fill="white"/>
<path d="M0.0527891 1.37179C0.0527891 0.887627 0.0527859 0.48416 0 0.107591H0.739L0.791789 0.887627H0.818183C1.05572 0.457263 1.58358 4.10428e-07 2.34897 4.10428e-07C2.9824 4.10428e-07 3.98534 0.376569 3.98534 2.01733V4.8416H3.14076V2.07113C3.14076 1.31799 2.87683 0.672445 2.05865 0.672445C1.5044 0.672445 1.08211 1.07591 0.923754 1.56007C0.897361 1.66766 0.870965 1.82905 0.870965 1.96354V4.8147H0.0263946V1.37179H0.0527891Z" transform="translate(76.4082 9.38745)" fill="white"/>
<path d="M1.53079 0V1.12971H2.74487V1.77525H1.53079V4.30365C1.53079 4.8954 1.68915 5.21817 2.16422 5.21817C2.40176 5.21817 2.53373 5.19127 2.6393 5.16438L2.66569 5.80992C2.50733 5.86372 2.2434 5.91751 1.92669 5.91751C1.53079 5.91751 1.21408 5.78302 1.02933 5.56784C0.79179 5.29886 0.712608 4.8954 0.712608 4.33054V1.74836H3.2218e-06V1.10281H0.712608V0.268978L1.53079 0Z" transform="translate(83.1914 8.33813)" fill="white"/>
<path d="M-1.6109e-06 0H0.844576V2.95876H0.870971C1.00294 2.71668 1.21408 2.50149 1.47801 2.36701C1.71554 2.20562 2.03225 2.12493 2.34897 2.12493C2.95601 2.12493 3.95894 2.50149 3.95894 4.14226V6.93963H3.11437V4.22295C3.11437 3.44292 2.82405 2.82427 2.03226 2.82427C1.47801 2.82427 1.05572 3.20084 0.897357 3.685C0.844572 3.79259 0.844576 3.92708 0.844576 4.08846V6.93963H-1.6109e-06V0Z" transform="translate(86.8076 7.26245)" fill="white"/>
<path d="M0.818183 2.60909C0.844576 3.76569 1.55719 4.24985 2.40176 4.24985C3.0088 4.24985 3.3783 4.14226 3.69501 4.00777L3.82698 4.62642C3.53666 4.76091 3.0088 4.9223 2.2698 4.9223C0.844576 4.9223 0 3.95397 0 2.55529C0 1.12971 0.818185 -2.05214e-07 2.16423 -2.05214e-07C3.66862 -2.05214e-07 4.06451 1.34489 4.06451 2.20562C4.06451 2.3939 4.06451 2.52839 4.03812 2.60909H0.818183ZM3.27273 1.99044C3.27273 1.45248 3.06158 0.591751 2.11144 0.591751C1.24047 0.591751 0.897362 1.39869 0.818183 1.99044H3.27273Z" transform="translate(91.7158 9.36035)" fill="white"/>
<path d="M0.527856 1.10281C0.21114 1.10281 -3.2218e-06 0.860729 -3.2218e-06 0.537956C-3.2218e-06 0.24208 0.211142 -1.02607e-07 0.554251 -1.02607e-07C0.870966 -1.02607e-07 1.08211 0.24208 1.08211 0.537956C1.08211 0.860729 0.870965 1.10281 0.527856 1.10281ZM0.105575 6.67065V1.96354H0.950145V6.67065H0.105575Z" transform="translate(98.6572 7.50439)" fill="white"/>
<path d="M1.6109e-06 0.134489C0.395896 0.0537958 0.923755 2.05214e-07 1.58358 2.05214e-07C2.40176 2.05214e-07 3.0088 0.188285 3.3783 0.537956C3.72141 0.860729 3.95895 1.31799 3.95895 1.90974C3.95895 2.50149 3.7742 2.95876 3.45748 3.30843C3.0088 3.79259 2.29619 4.03467 1.47801 4.03467C1.24047 4.03467 1.00294 4.03467 0.818185 3.98087V6.61686H1.6109e-06V0.134489ZM0.844572 3.28153C1.02932 3.33533 1.26686 3.36222 1.53079 3.36222C2.53372 3.36222 3.14076 2.85117 3.14076 1.96354C3.14076 1.07591 2.53373 0.672445 1.60997 0.672445C1.24047 0.672445 0.976543 0.699342 0.818185 0.753138V3.28153H0.844572Z" transform="translate(100.98 7.58545)" fill="white"/>
<path d="M-1.6109e-06 0H0.844576V2.95876H0.870971C1.00294 2.71668 1.21408 2.50149 1.47801 2.36701C1.71554 2.20562 2.03225 2.12493 2.34897 2.12493C2.9824 2.12493 3.95894 2.50149 3.95894 4.14226V6.93963H3.11437V4.22295C3.11437 3.44292 2.82405 2.82427 2.03226 2.82427C1.47801 2.82427 1.05572 3.20084 0.897357 3.685C0.844572 3.79259 0.844576 3.92708 0.844576 4.08846V6.93963H-1.6109e-06V0Z" transform="translate(105.942 7.26245)" fill="white"/>
<path d="M2.21701 4.9223C0.976538 4.9223 0 3.98087 0 2.50149C0 0.914524 1.02933 -2.05214e-07 2.29619 -2.05214e-07C3.61584 -2.05214e-07 4.5132 0.995218 4.5132 2.4208C4.53959 4.16916 3.32551 4.9223 2.21701 4.9223ZM2.2434 4.27675C3.03519 4.27675 3.64223 3.49671 3.64223 2.4477C3.64223 1.64077 3.24634 0.645547 2.2698 0.645547C1.29326 0.645547 0.844578 1.58697 0.844578 2.4746C0.870971 3.52361 1.42522 4.27675 2.2434 4.27675Z" transform="translate(110.852 9.36035)" fill="white"/>
<path d="M0.026393 1.37179C0.026393 0.887627 0.0263914 0.48416 -1.6109e-06 0.107591H0.739006L0.791787 0.887627H0.818182C1.05572 0.457263 1.58357 4.10428e-07 2.34897 4.10428e-07C2.9824 4.10428e-07 3.98534 0.376569 3.98534 2.01733V4.8416H3.14076V2.07113C3.14076 1.31799 2.85044 0.672445 2.05865 0.672445C1.5044 0.672445 1.08211 1.07591 0.923752 1.56007C0.897359 1.66766 0.870971 1.82905 0.870971 1.96354V4.8147H0.026393V1.37179Z" transform="translate(116.367 9.38745)" fill="white"/>
<path d="M0.818185 2.63598C0.844578 3.79259 1.55719 4.27675 2.40176 4.27675C3.0088 4.27675 3.3783 4.16916 3.66862 4.03467L3.82698 4.62642C3.53666 4.76091 3.0088 4.9223 2.2698 4.9223C0.844578 4.9223 1.6109e-06 3.95398 1.6109e-06 2.55529C1.6109e-06 1.12971 0.818179 2.05214e-07 2.16422 2.05214e-07C3.66862 2.05214e-07 4.06452 1.34489 4.06452 2.20562C4.06452 2.3939 4.06451 2.52839 4.03812 2.60909L0.818185 2.63598ZM3.27273 2.01733C3.27273 1.47938 3.06159 0.618649 2.11144 0.618649C1.24047 0.618649 0.897364 1.42558 0.818185 2.01733H3.27273Z" transform="translate(121.303 9.3335)" fill="white"/>
<path d="M5.67449 8.20855e-07L0 16.9725H2.58651L4.27566 11.7543H9.7654L11.5073 16.9725H14.173L8.49853 8.20855e-07H5.67449ZM7.02053 2.77047C7.20528 3.52361 7.41642 4.30365 7.68035 5.16438L9.21114 9.65631H4.8563L6.3607 5.11058C6.59824 4.41124 6.80939 3.6043 7.02053 2.77047Z" transform="translate(32.9912 18.6401)" fill="white"/>
<path d="M6.41349 -4.10428e-07C4.69795 -4.10428e-07 3.32551 0.672445 2.40176 1.96354L2.29619 0.268977H-8.05449e-07L0.0263938 0.484161C0.105573 1.53317 0.131964 2.68978 0.131964 4.35744V17.4567H2.66569V11.3509C3.45748 12.2923 4.69795 12.8571 6.12317 12.8571C7.60117 12.8571 8.94721 12.2654 9.95014 11.1895C11.0586 10.006 11.6393 8.28452 11.6393 6.24029C11.6393 4.43814 11.1378 2.87806 10.1613 1.72146C9.18475 0.618649 7.8651 -4.10428e-07 6.41349 -4.10428e-07ZM5.78006 2.12493C8.02346 2.12493 9.02639 4.24985 9.02639 6.34788C9.02639 9.06455 7.73314 10.7322 5.67449 10.7322C4.27566 10.7322 3.03519 9.7639 2.69208 8.33831C2.63929 8.12313 2.6129 7.82726 2.6129 7.50448V5.43335C2.6129 5.24507 2.66569 5.02989 2.69208 4.78781C2.69208 4.70711 2.71848 4.65332 2.71848 4.57262C3.11437 3.14704 4.35484 2.12493 5.78006 2.12493Z" transform="translate(48.0879 23.0244)" fill="white"/>
<path d="M6.41349 -4.10428e-07C4.69795 -4.10428e-07 3.32551 0.672445 2.40176 1.96354L2.29619 0.268977H-1.6109e-06V0.484161C0.0791773 1.53317 0.105573 2.68978 0.105573 4.35744V17.4567H2.63929V11.3509C3.43108 12.2923 4.67155 12.8571 6.09677 12.8571C7.57478 12.8571 8.92082 12.2654 9.92375 11.1895C11.0323 10.006 11.6129 8.28452 11.6129 6.24029C11.6129 4.43814 11.1114 2.87806 10.1349 1.72146C9.18475 0.618649 7.8651 -4.10428e-07 6.41349 -4.10428e-07ZM5.78006 2.12493C8.02346 2.12493 9.02639 4.24985 9.02639 6.34788C9.02639 9.06455 7.73314 10.7322 5.67449 10.7322C4.27566 10.7322 3.03519 9.7639 2.69208 8.33831C2.6393 8.12313 2.6129 7.82726 2.6129 7.50448V5.43335C2.6129 5.24507 2.66569 5.02989 2.69208 4.78781C2.69208 4.70711 2.71847 4.65332 2.71847 4.57262C3.11437 3.14704 4.35484 2.12493 5.78006 2.12493Z" transform="translate(61.0732 23.0244)" fill="white"/>
<path d="M5.9912 7.47758C3.64223 6.53616 2.87683 5.80992 2.87683 4.46503C2.87683 3.33533 3.77419 2.17872 5.75366 2.17872C7.39003 2.17872 8.44575 2.77047 8.70968 2.93186L8.92082 3.06635L9.63343 0.914524L9.50147 0.833832C9.07918 0.591752 7.86511 -8.20855e-07 5.83285 -8.20855e-07C2.61291 -8.20855e-07 0.369501 1.93664 0.369501 4.70711C0.369501 6.93963 1.76833 8.4997 4.80352 9.62941C6.94135 10.4363 7.73314 11.2702 7.73314 12.7227C7.73314 14.3365 6.49267 15.3586 4.53959 15.3586C3.24633 15.3586 1.92669 14.9821 0.897361 14.3096L0.68622 14.1751L1.6109e-06 16.3808L0.131966 16.4614C1.08211 17.107 2.87684 17.5912 4.38123 17.5912C8.70968 17.5912 10.2405 14.9014 10.2405 12.5882C10.2405 10.1674 9.02639 8.68799 5.9912 7.47758Z" transform="translate(77.7529 18.3442)" fill="white"/>
<path d="M4.30205 -8.20855e-07L1.82112 0.780035V2.90496H-3.2218e-06V4.94919H1.82112V11.2433C1.82112 12.7764 2.11144 13.8255 2.69208 14.4979C3.24633 15.1166 4.11731 15.4662 5.12024 15.4662C6.07038 15.4662 6.7566 15.2779 7.07332 15.1704L7.20528 15.1166L7.07332 13.0723L6.83578 13.153C6.51906 13.2606 6.20234 13.2875 5.67448 13.2875C4.69794 13.2875 4.27566 12.6689 4.27566 11.1895V5.00299H7.31085V2.95876H4.27566V-8.20855e-07H4.30205Z" transform="translate(88.2314 20.3616)" fill="white"/>
<path d="M5.9912 -4.10428e-07C2.45454 -4.10428e-07 1.6109e-06 2.68978 1.6109e-06 6.53616C1.6109e-06 10.275 2.37537 12.8571 5.80645 12.8571H5.83285C8.70968 12.8571 11.824 10.8129 11.824 6.32098C11.824 4.49193 11.2698 2.93186 10.2141 1.77525C9.15835 0.618648 7.70674 -4.10428e-07 5.9912 -4.10428e-07ZM5.91202 2.04423C8.18182 2.04423 9.21114 4.30365 9.21114 6.40167C9.21114 8.98386 7.81231 10.8398 5.85923 10.8398H5.83285C3.93255 10.8398 2.53373 9.01076 2.53373 6.45547C2.56012 4.24985 3.58944 2.04423 5.91202 2.04423Z" transform="translate(95.833 23.0244)" fill="white"/>
<path d="M6.30792 0.107591L6.14956 0.0806934C5.93842 0.0268978 5.75367 -8.20855e-07 5.51613 -8.20855e-07C4.19648 -8.20855e-07 3.0088 0.780036 2.34898 2.07113L2.26979 0.268977H3.2218e-06L0.0263897 0.48416C0.105569 1.50628 0.131968 2.63598 0.131968 4.19606L0.105573 12.5882H2.6393V5.99821C2.6393 5.64854 2.66569 5.29886 2.71848 5.00299C3.0088 3.41602 4.03812 2.4208 5.38417 2.4208C5.6481 2.4208 5.83285 2.4477 6.07038 2.4746L6.33431 2.50149V0.107591H6.30792Z" transform="translate(109.057 23.0513)" fill="white"/>
<path d="M5.70088 0C2.34897 0 0 2.74357 0 6.64375C0 10.4094 2.32258 12.8571 5.93842 12.8571C7.83871 12.8571 9.15836 12.4268 9.92375 12.0771L10.0821 11.9964L9.60704 10.0867L9.3959 10.1674C8.70968 10.4632 7.78592 10.7322 6.22874 10.7322C5.12024 10.7322 2.6129 10.3556 2.45454 6.99342L10.5836 7.02032L10.61 6.85894C10.6628 6.58996 10.6891 6.24029 10.6891 5.78302C10.7155 3.14704 9.3959 0 5.70088 0ZM5.54252 1.96354C6.30792 1.96354 6.94135 2.20562 7.39003 2.68978C8.10264 3.44292 8.2346 4.54573 8.26099 5.08368H2.50733C2.74487 3.57741 3.64223 1.96354 5.54252 1.96354Z" transform="translate(115.337 22.9976)" fill="white"/>
</svg>
